<?xml version="1.0" encoding="UTF-8"?>
<svg version="1.1" xmlns="http://www.w3.org/2000/svg" width="88" height="92">
<path d="M0 0 C0.74759079 0.0028299 1.49518158 0.00565979 2.26542664 0.00857544 C4.63935755 0.01971781 7.012903 0.04481088 9.38671875 0.0703125 C11.00194765 0.08035001 12.61718251 0.08947451 14.23242188 0.09765625 C18.17983469 0.11963761 22.12696149 0.15412593 26.07421875 0.1953125 C25.09602851 1.50854038 24.11663765 2.82087402 23.13671875 4.1328125 C22.31880859 5.22916016 22.31880859 5.22916016 21.484375 6.34765625 C20.07421875 8.1953125 20.07421875 8.1953125 19.07421875 9.1953125 C15.20988616 9.43469593 11.35183006 9.59038427 7.48242188 9.71289062 C2.08603209 9.93581242 -2.78497422 10.47392989 -7.92578125 12.1953125 C-9.12332942 15.78795702 -9.25673083 18.42248724 -8.92578125 22.1953125 C-7.03852442 24.85145174 -5.82980731 25.96244102 -2.66723633 26.77709961 C0.32232249 27.23316108 3.22755848 27.40749663 6.25 27.51171875 C7.40693359 27.55361328 8.56386719 27.59550781 9.75585938 27.63867188 C10.95404297 27.67798828 12.15222656 27.71730469 13.38671875 27.7578125 C14.60423828 27.80099609 15.82175781 27.84417969 17.07617188 27.88867188 C20.07541345 27.99452746 23.07473466 28.09660976 26.07421875 28.1953125 C25.09602851 29.50854038 24.11663765 30.82087402 23.13671875 32.1328125 C22.59144531 32.86371094 22.04617187 33.59460937 21.484375 34.34765625 C20.07421875 36.1953125 20.07421875 36.1953125 19.07421875 37.1953125 C14.72767959 37.50740925 10.36806615 37.47393733 6.01171875 37.5078125 C4.18737305 37.55131836 4.18737305 37.55131836 2.32617188 37.59570312 C-5.43238 37.65042975 -11.60013176 37.34345743 -17.47265625 31.71191406 C-22.10817779 26.4481231 -22.27207881 21.88508418 -22.20703125 15.14453125 C-21.70895288 9.92162613 -19.20354032 7.37478241 -15.48828125 3.9453125 C-10.39484529 0.46686843 -6.07364121 -0.08733168 0 0 Z " fill="#FFFFFF" transform="translate(41.92578125,22.8046875)"/>
</svg>
