<?xml version="1.0" encoding="UTF-8"?>
<svg version="1.1" xmlns="http://www.w3.org/2000/svg" width="24" height="26">
<path d="M0 0 C1.09054688 0.02320313 2.18109375 0.04640625 3.3046875 0.0703125 C4.40039062 0.08835937 5.49609375 0.10640625 6.625 0.125 C7.46804687 0.14820313 8.31109375 0.17140625 9.1796875 0.1953125 C8.8496875 0.8553125 8.5196875 1.5153125 8.1796875 2.1953125 C6.11328125 2.609375 6.11328125 2.609375 3.6171875 2.8203125 C2.79089844 2.89507812 1.96460938 2.96984375 1.11328125 3.046875 C0.15615234 3.12035156 0.15615234 3.12035156 -0.8203125 3.1953125 C-0.8203125 4.5153125 -0.8203125 5.8353125 -0.8203125 7.1953125 C2.4796875 7.5253125 5.7796875 7.8553125 9.1796875 8.1953125 C8.8496875 8.8553125 8.5196875 9.5153125 8.1796875 10.1953125 C6.38834772 10.24923243 4.59654851 10.28806821 2.8046875 10.3203125 C1.80695312 10.34351563 0.80921875 10.36671875 -0.21875 10.390625 C-2.8203125 10.1953125 -2.8203125 10.1953125 -4.8203125 8.1953125 C-5.0703125 5.1953125 -5.0703125 5.1953125 -4.8203125 2.1953125 C-2.8203125 0.1953125 -2.8203125 0.1953125 0 0 Z " fill="#FFFFFF" transform="translate(9.8203125,6.8046875)"/>
</svg>
