<?xml version="1.0" encoding="UTF-8"?>
<svg version="1.1" xmlns="http://www.w3.org/2000/svg" width="115" height="120">
<path d="M0 0 C1.54359695 0.00848969 1.54359695 0.00848969 3.11837769 0.01715088 C6.36847724 0.03933797 9.61742761 0.08950085 12.8671875 0.140625 C15.08592145 0.16071284 17.30467288 0.17895958 19.5234375 0.1953125 C24.93007205 0.23914436 30.33604764 0.30587631 35.7421875 0.390625 C31.00559386 9.91088762 31.00559386 9.91088762 26.7421875 13.390625 C22.08172083 14.58932761 17.59265982 14.46989873 12.8046875 14.328125 C10.33728713 14.30883839 7.86981632 14.29692515 5.40234375 14.29296875 C4.24758545 14.29087402 3.09282715 14.2887793 1.90307617 14.28662109 C-3.66972347 14.46998501 -7.85041576 15.19284054 -12.1953125 18.890625 C-15.47836664 22.87008456 -15.68863782 25.2207212 -15.2578125 30.390625 C-13.20678577 34.27292559 -11.51752957 37.01248124 -7.2578125 38.390625 C-2.34511837 39.38288735 2.43126661 39.5998761 7.421875 39.70703125 C8.64102097 39.7382029 8.64102097 39.7382029 9.88479614 39.77000427 C12.46218007 39.83500079 15.03965944 39.89415093 17.6171875 39.953125 C19.37240541 39.99635777 21.12761393 40.03997352 22.8828125 40.08398438 C27.16917488 40.19063049 31.45563254 40.29203614 35.7421875 40.390625 C35.07926791 41.7258253 34.41163144 43.05868392 33.7421875 44.390625 C33.2160083 45.54437622 33.2160083 45.54437622 32.67919922 46.72143555 C30.69777771 50.11630839 28.84234978 52.8264853 24.87512207 53.89215088 C20.0850345 54.54727512 15.29542219 54.4527814 10.47314453 54.28930664 C7.88004813 54.20355031 5.2936017 54.18681068 2.69921875 54.18164062 C-5.58985224 54.08898678 -13.06590084 54.00253076 -20.2578125 49.390625 C-20.91491211 49.00221436 -21.57201172 48.61380371 -22.24902344 48.21362305 C-27.88625105 44.774476 -31.19358215 39.58331604 -33.2578125 33.390625 C-33.87230635 25.46264699 -34.40922845 17.86627499 -29.2578125 11.390625 C-21.2244341 2.41323208 -11.75977706 -0.24863646 0 0 Z " fill="#FFFFFF" transform="translate(55.2578125,27.609375)"/>
</svg>
