<?xml version="1.0" encoding="UTF-8"?>
<svg version="1.1" xmlns="http://www.w3.org/2000/svg" width="504" height="116">
<path d="M0 0 C5.76638728 1.51024429 9.23721254 8.34557914 12.3828125 13.05859375 C13.34203458 14.47814397 14.30167682 15.89741036 15.26171875 17.31640625 C15.73883301 18.02442383 16.21594727 18.73244141 16.70751953 19.46191406 C18.06852069 21.46401717 19.45156641 23.44802995 20.84765625 25.42578125 C21.26563477 26.01939453 21.68361328 26.61300781 22.11425781 27.22460938 C23.25785915 28.84509711 24.40424059 30.46362184 25.55078125 32.08203125 C27.1328125 34.55859375 27.1328125 34.55859375 27.1328125 36.55859375 C27.8959375 35.79546875 28.6590625 35.03234375 29.4453125 34.24609375 C30.3321875 33.35921875 31.2190625 32.47234375 32.1328125 31.55859375 C32.76993164 30.74769287 32.76993164 30.74769287 33.41992188 29.92041016 C35.95388696 27.90580678 38.02506736 28.1399066 41.2265625 28.08203125 C42.42152344 28.05109375 43.61648437 28.02015625 44.84765625 27.98828125 C46.09675781 27.97023438 47.34585938 27.9521875 48.6328125 27.93359375 C51.10164233 27.88263751 53.57040197 27.82811866 56.0390625 27.76953125 C57.13541016 27.75196777 58.23175781 27.7344043 59.36132812 27.71630859 C62.22008835 27.67495633 62.22008835 27.67495633 65.1328125 26.55859375 C65.1328125 25.89859375 65.1328125 25.23859375 65.1328125 24.55859375 C62.04740662 23.53012512 59.8514783 23.41950581 56.6171875 23.3828125 C55.53050781 23.35896484 54.44382812 23.33511719 53.32421875 23.31054688 C51.04575821 23.26787423 48.76705649 23.2364641 46.48828125 23.21679688 C39.86234533 23.04860606 35.49129932 22.58494278 30.1328125 18.55859375 C28.14154971 15.48873029 28.12975117 13.73002797 28.1953125 10.05859375 C29.3150131 5.87837818 30.80068086 4.25603365 34.1328125 1.55859375 C36.8390562 0.65651252 38.37132236 0.43631776 41.14526367 0.44506836 C41.94586716 0.44514389 42.74647064 0.44521942 43.57133484 0.44529724 C44.86053581 0.45303917 44.86053581 0.45303917 46.17578125 0.4609375 C47.0593782 0.46235245 47.94297516 0.4637674 48.85334778 0.46522522 C51.67570378 0.47082306 54.49798047 0.48337514 57.3203125 0.49609375 C59.23372281 0.50110903 61.14713437 0.50567189 63.06054688 0.50976562 C67.75133264 0.52079178 72.44205913 0.53805492 77.1328125 0.55859375 C76.15462226 1.87182163 75.1752314 3.18415527 74.1953125 4.49609375 C73.37740234 5.59244141 73.37740234 5.59244141 72.54296875 6.7109375 C71.1328125 8.55859375 71.1328125 8.55859375 70.1328125 9.55859375 C68.0619653 9.71702025 65.98603221 9.80983797 63.91015625 9.875 C62.65009766 9.91689453 61.39003906 9.95878906 60.09179688 10.00195312 C58.75130514 10.04176971 57.4108103 10.08148189 56.0703125 10.12109375 C54.72589727 10.16427417 53.3814959 10.20788831 52.03710938 10.25195312 C48.7357891 10.35844733 45.43439014 10.46045835 42.1328125 10.55859375 C42.1328125 11.21859375 42.1328125 11.87859375 42.1328125 12.55859375 C43.31254639 12.5726123 43.31254639 12.5726123 44.51611328 12.58691406 C48.09730488 12.64076657 51.67721133 12.72438738 55.2578125 12.80859375 C57.1140625 12.82986328 57.1140625 12.82986328 59.0078125 12.8515625 C70.49376218 13.16032459 70.49376218 13.16032459 75.1328125 17.55859375 C76.1228125 19.04359375 76.1228125 19.04359375 77.1328125 20.55859375 C77.20757812 19.91792969 77.28234375 19.27726562 77.359375 18.6171875 C78.32379431 12.27282123 79.905183 7.55619278 85.1328125 3.55859375 C90.2967163 0.947886 94.44485003 0.13850629 100.25390625 0.265625 C100.99866714 0.26986984 101.74342804 0.27411469 102.51075745 0.27848816 C104.86432723 0.29513651 107.21700629 0.33276 109.5703125 0.37109375 C111.17641983 0.3861586 112.78254073 0.39984384 114.38867188 0.41210938 C118.30372297 0.44499423 122.21811729 0.49667749 126.1328125 0.55859375 C125.15462226 1.87182163 124.1752314 3.18415527 123.1953125 4.49609375 C122.65003906 5.22699219 122.10476563 5.95789062 121.54296875 6.7109375 C120.1328125 8.55859375 120.1328125 8.55859375 119.1328125 9.55859375 C115.26847991 9.79797718 111.41042381 9.95366552 107.54101562 10.07617188 C102.14462584 10.29909367 97.27361953 10.83721114 92.1328125 12.55859375 C90.93526433 16.15123827 90.80186292 18.78576849 91.1328125 22.55859375 C93.02006933 25.21473299 94.22878644 26.32572227 97.39135742 27.14038086 C100.38091624 27.59644233 103.28615223 27.77077788 106.30859375 27.875 C107.46552734 27.91689453 108.62246094 27.95878906 109.81445312 28.00195312 C111.01263672 28.04126953 112.21082031 28.08058594 113.4453125 28.12109375 C114.66283203 28.16427734 115.88035156 28.20746094 117.13476562 28.25195312 C120.1340072 28.35780871 123.13332841 28.45989101 126.1328125 28.55859375 C126.1328125 25.58859375 126.1328125 22.61859375 126.1328125 19.55859375 C127.4943042 19.52886475 127.4943042 19.52886475 128.88330078 19.49853516 C132.27174367 19.42013708 135.65976752 19.33343455 139.04785156 19.24121094 C140.51033439 19.20308169 141.97290588 19.16820161 143.43554688 19.13671875 C145.54589382 19.09071664 147.65563884 19.03278434 149.765625 18.97265625 C151.03293457 18.94123535 152.30024414 18.90981445 153.60595703 18.87744141 C157.07834289 18.56351811 159.88870764 17.80296776 163.1328125 16.55859375 C162.8028125 14.90859375 162.4728125 13.25859375 162.1328125 11.55859375 C158.02032867 10.59317357 154.0812968 10.36369412 149.86328125 10.2421875 C148.84177727 10.21101585 148.84177727 10.21101585 147.79963684 10.17921448 C145.63995742 10.11421497 143.48016404 10.05506663 141.3203125 9.99609375 C139.84959794 9.95286125 138.37889459 9.9092455 136.90820312 9.86523438 C133.31652533 9.75858516 129.72472168 9.65718026 126.1328125 9.55859375 C128.1328125 6.55859375 130.1328125 3.55859375 132.1328125 0.55859375 C134.59443373 0.24076077 136.80040194 0.11445682 139.265625 0.125 C139.9762912 0.11975815 140.6869574 0.1145163 141.41915894 0.1091156 C142.92721247 0.10268487 144.4353161 0.10404603 145.94335938 0.11254883 C148.22880243 0.12098665 150.51168386 0.09243671 152.796875 0.06054688 C161.3988413 0.01951738 168.43516893 0.16402396 175.0703125 6.37109375 C177.32091863 11.0046946 177.50773172 14.43383608 175.8828125 19.30859375 C173.4328125 23.85859375 173.4328125 23.85859375 171.1328125 25.55859375 C170.4728125 25.55859375 169.8128125 25.55859375 169.1328125 25.55859375 C172.51645029 29.04476602 176.03356856 32.22702307 179.77734375 35.32421875 C180.22464844 35.7315625 180.67195312 36.13890625 181.1328125 36.55859375 C181.1328125 36.88859375 181.1328125 37.21859375 181.1328125 37.55859375 C164.09039743 38.8068683 164.09039743 38.8068683 159.39453125 35.8125 C158.06364724 34.36274091 156.75315252 32.89397113 155.46484375 31.40625 C150.7406796 27.66331927 143.91400578 28.43672406 138.1328125 28.55859375 C138.1328125 31.52859375 138.1328125 34.49859375 138.1328125 37.55859375 C134.1728125 37.55859375 130.2128125 37.55859375 126.1328125 37.55859375 C125.8028125 35.24859375 125.4728125 32.93859375 125.1328125 30.55859375 C124.71588135 31.30459839 124.71588135 31.30459839 124.29052734 32.06567383 C121.99689758 35.44934965 120.31592295 37.29641137 116.23535156 38.20068359 C112.72028308 38.39389322 109.2760087 38.36500274 105.7578125 38.24609375 C104.56414062 38.24802734 103.37046875 38.24996094 102.140625 38.25195312 C94.59369762 38.13090175 88.14400066 37.58153223 82.54931641 31.97045898 C81.3427411 30.55488537 80.22682334 29.06285866 79.1328125 27.55859375 C78.5965625 28.46609375 78.0603125 29.37359375 77.5078125 30.30859375 C75.43501176 33.81641039 72.65935074 35.58440442 69.1328125 37.55859375 C66.20110994 37.91921383 63.6610698 38.06767416 60.74072266 38.01269531 C59.92054657 38.01327942 59.10037048 38.01386353 58.25534058 38.01446533 C55.56041258 38.0116918 52.86660835 37.98063532 50.171875 37.94921875 C48.2971558 37.94175374 46.42242878 37.93606204 44.54769897 37.93206787 C39.62545031 37.91683201 34.70367751 37.87756787 29.78161621 37.83325195 C24.75421587 37.79225503 19.72673825 37.77404742 14.69921875 37.75390625 C4.8435415 37.71107162 -5.01178335 37.64284512 -14.8671875 37.55859375 C-11.1171875 30.80859375 -11.1171875 30.80859375 -8.8671875 28.55859375 C-6.50209389 28.25799432 -4.12276869 28.06344363 -1.7421875 27.93359375 C-0.46085937 27.85882813 0.82046875 27.7840625 2.140625 27.70703125 C3.12804687 27.65804687 4.11546875 27.6090625 5.1328125 27.55859375 C2.8228125 24.25859375 0.5128125 20.95859375 -1.8671875 17.55859375 C-4.97526614 21.42014601 -8.02757951 25.32107707 -11.0546875 29.24609375 C-11.50521484 29.82681641 -11.95574219 30.40753906 -12.41992188 31.00585938 C-14.86152445 34.14089548 -14.86152445 34.14089548 -16.8671875 37.55859375 C-22.1471875 37.55859375 -27.4271875 37.55859375 -32.8671875 37.55859375 C-28.07042549 29.74991141 -22.89216708 22.32711832 -17.48754883 14.93017578 C-16.67966919 13.82391846 -16.67966919 13.82391846 -15.85546875 12.6953125 C-15.33936035 11.98938965 -14.82325195 11.2834668 -14.29150391 10.55615234 C-13.02517566 8.78016713 -11.83337717 6.97868967 -10.66015625 5.140625 C-7.64636187 0.80049846 -5.10987595 0.3106003 0 0 Z " fill="#FFFFFF" transform="translate(181.8671875,34.44140625)"/>
<path d="M0 0 C2.16016747 -0.01710213 4.31875934 -0.06095109 6.47851562 -0.10522461 C19.4105657 -0.25252604 19.4105657 -0.25252604 25.06445312 4.29516602 C26.07437849 5.28514114 27.07675187 6.28301671 28.06445312 7.29516602 C28.70342529 6.15426514 29.34239746 5.01336426 30.00073242 3.83789062 C31.56626416 1.66112034 32.44764347 0.49198871 35.02529907 -0.33053589 C37.40532666 -0.5144376 39.69904202 -0.49258415 42.08398438 -0.38842773 C43.3718409 -0.37357079 43.3718409 -0.37357079 44.68571472 -0.3584137 C47.41789343 -0.31934326 50.14599729 -0.23154633 52.87695312 -0.14233398 C54.73301473 -0.10721012 56.58913956 -0.07527298 58.4453125 -0.04663086 C62.98658706 0.03039343 67.52483027 0.15111633 72.06445312 0.29516602 C70.06445312 3.29516602 68.06445312 6.29516602 66.06445312 9.29516602 C62.10445313 9.29516602 58.14445312 9.29516602 54.06445312 9.29516602 C54.06445312 18.53516602 54.06445312 27.77516602 54.06445312 37.29516602 C50.10445313 37.29516602 46.14445312 37.29516602 42.06445312 37.29516602 C42.06445312 28.05516602 42.06445312 18.81516602 42.06445312 9.29516602 C35.62945312 9.79016602 35.62945312 9.79016602 29.06445312 10.29516602 C29.14695312 11.49141602 29.22945313 12.68766602 29.31445312 13.92016602 C29.29043904 18.45082301 28.11890293 20.84912008 25.06445312 24.29516602 C18.60640475 29.24633643 12.53405406 28.76948094 4.62695312 28.54516602 C3.41845703 28.52711914 2.20996094 28.50907227 0.96484375 28.49047852 C-2.00277872 28.44355958 -4.96874349 28.37792204 -7.93554688 28.29516602 C-7.93554688 31.26516602 -7.93554688 34.23516602 -7.93554688 37.29516602 C-11.89554687 37.29516602 -15.85554688 37.29516602 -19.93554688 37.29516602 C-19.93554688 31.35516602 -19.93554688 25.41516602 -19.93554688 19.29516602 C-17.66035156 19.23458008 -15.38515625 19.17399414 -13.04101562 19.11157227 C-10.83679968 19.04975876 -8.63263387 18.98638108 -6.4284668 18.92285156 C-4.89693669 18.87954768 -3.36535972 18.83786935 -1.83374023 18.79785156 C0.36814494 18.74003869 2.56979523 18.67637632 4.77148438 18.61157227 C5.45596146 18.59485977 6.14043854 18.57814728 6.84565735 18.56092834 C9.83565417 18.46781052 12.20507623 18.24829165 15.06445312 17.29516602 C15.89778646 15.37849935 15.89778646 15.37849935 16.06445312 13.29516602 C15.56945312 12.30516602 15.56945312 12.30516602 15.06445312 11.29516602 C11.58928184 10.13677559 8.39175293 10.06715384 4.77148438 9.97875977 C3.71244148 9.94758812 3.71244148 9.94758812 2.63200378 9.91578674 C0.38041762 9.8504911 -1.87128349 9.79149955 -4.12304688 9.73266602 C-5.65105347 9.68946176 -7.17904852 9.64584686 -8.70703125 9.60180664 C-12.44975249 9.49483027 -16.19258917 9.3935068 -19.93554688 9.29516602 C-18.95735663 7.98193814 -17.97796577 6.66960449 -16.99804688 5.35766602 C-16.45277344 4.62676758 -15.9075 3.89586914 -15.34570312 3.14282227 C-11.76890065 -1.5436807 -5.51480458 0.0304034 0 0 Z " fill="#FFFFFF" transform="translate(399.935546875,34.704833984375)"/>
<path d="M0 0 C5.72163025 1.49852221 9.18888358 8.25608939 12.3203125 12.93359375 C12.78864502 13.62461182 13.25697754 14.31562988 13.73950195 15.02758789 C15.20961066 17.20082422 16.67137445 19.37951984 18.1328125 21.55859375 C19.11175768 23.00796212 20.0909207 24.45718338 21.0703125 25.90625 C21.98757882 27.26912785 22.90426852 28.63239402 23.8203125 29.99609375 C24.25432373 30.64046387 24.68833496 31.28483398 25.13549805 31.94873047 C28.1328125 36.4413385 28.1328125 36.4413385 28.1328125 37.55859375 C13.9428125 37.55859375 -0.2471875 37.55859375 -14.8671875 37.55859375 C-10.8671875 30.55859375 -10.8671875 30.55859375 -8.8671875 28.55859375 C-6.50209389 28.25799432 -4.12276869 28.06344363 -1.7421875 27.93359375 C-0.46085937 27.85882813 0.82046875 27.7840625 2.140625 27.70703125 C3.12804687 27.65804687 4.11546875 27.6090625 5.1328125 27.55859375 C2.8228125 24.25859375 0.5128125 20.95859375 -1.8671875 17.55859375 C-4.97526614 21.42014601 -8.02757951 25.32107707 -11.0546875 29.24609375 C-11.50521484 29.82681641 -11.95574219 30.40753906 -12.41992188 31.00585938 C-14.86152445 34.14089548 -14.86152445 34.14089548 -16.8671875 37.55859375 C-22.1471875 37.55859375 -27.4271875 37.55859375 -32.8671875 37.55859375 C-28.07042549 29.74991141 -22.89216708 22.32711832 -17.48754883 14.93017578 C-16.67966919 13.82391846 -16.67966919 13.82391846 -15.85546875 12.6953125 C-15.33936035 11.98938965 -14.82325195 11.2834668 -14.29150391 10.55615234 C-13.02517566 8.78016713 -11.83337717 6.97868967 -10.66015625 5.140625 C-7.64636187 0.80049846 -5.10987595 0.3106003 0 0 Z " fill="#FFFFFF" transform="translate(101.8671875,34.44140625)"/>
<path d="M0 0 C5.03887406 -0.91801349 10.07799781 -1.71147302 15 0 C19.87686719 3.89657177 22.94867854 9.64869471 26 15 C26.59296875 15.98613281 27.1859375 16.97226562 27.796875 17.98828125 C28.19390625 18.65214844 28.5909375 19.31601562 29 20 C32.35804095 18.88065302 32.73995917 18.32979455 34.62890625 15.5078125 C35.10650391 14.80269531 35.58410156 14.09757812 36.07617188 13.37109375 C36.56666016 12.62988281 37.05714844 11.88867188 37.5625 11.125 C38.3040332 10.02478516 38.3040332 10.02478516 39.06054688 8.90234375 C40.38137423 6.93986954 41.69272351 4.97151573 43 3 C43.66 2.01 44.32 1.02 45 0 C47.7885289 -0.22107787 50.34653181 -0.28107535 53.125 -0.1875 C53.87910156 -0.17396484 54.63320312 -0.16042969 55.41015625 -0.14648438 C57.27374127 -0.11109985 59.13695978 -0.05729167 61 0 C56.85979971 6.33825992 52.51424539 12.4860103 48 18.5625 C47.40960938 19.36107422 46.81921875 20.15964844 46.2109375 20.98242188 C45.04406969 22.55923554 43.8748604 24.13431961 42.703125 25.70751953 C41.5608405 27.24508425 40.42548388 28.78781841 39.296875 30.33544922 C38.76578125 31.05877441 38.2346875 31.78209961 37.6875 32.52734375 C37.21699219 33.1730835 36.74648437 33.81882324 36.26171875 34.48413086 C34.37517806 36.750681 33.1183188 36.98422416 30.1875 37.375 C26.07118369 36.89072749 24.56865683 35.01579172 22 32 C19.83554192 29.20201576 17.788574 26.32802893 15.75 23.4375 C14.60650646 21.83129198 13.46197042 20.22582564 12.31640625 18.62109375 C11.75711426 17.83718262 11.19782227 17.05327148 10.62158203 16.24560547 C7.67154138 12.16031882 4.59480983 8.17282419 1.51171875 4.1875 C0 2 0 2 0 0 Z " fill="#FFFFFF" transform="translate(110,35)"/>
<path d="M0 0 C3.96 0 7.92 0 12 0 C12.08124438 3.85459456 12.14062344 7.70746115 12.1875 11.5625 C12.21263672 12.64853516 12.23777344 13.73457031 12.26367188 14.85351562 C12.32005971 21.03738149 12.09144536 25.584437 9 31 C4.03688143 35.83251018 -0.55906553 37.26010364 -7.39453125 37.1953125 C-8.59658203 37.18886719 -9.79863281 37.18242188 -11.03710938 37.17578125 C-12.28298828 37.15902344 -13.52886719 37.14226562 -14.8125 37.125 C-16.71032227 37.11146484 -16.71032227 37.11146484 -18.64648438 37.09765625 C-21.76451564 37.07412394 -24.88216097 37.04124545 -28 37 C-28 34.03 -28 31.06 -28 28 C-26.87722656 27.93941406 -25.75445312 27.87882812 -24.59765625 27.81640625 C-17.03659035 27.39705018 -9.5161559 26.95660166 -2 26 C-1.25484101 22.61363691 -0.83229437 19.38056897 -0.68359375 15.91796875 C-0.64169922 14.98662109 -0.59980469 14.05527344 -0.55664062 13.09570312 C-0.51732422 12.13599609 -0.47800781 11.17628906 -0.4375 10.1875 C-0.39431641 9.20845703 -0.35113281 8.22941406 -0.30664062 7.22070312 C-0.20097834 4.81395102 -0.10002535 2.40699297 0 0 Z " fill="#FFFFFF" transform="translate(62,35)"/>
<path d="M0 0 C3.96 0 7.92 0 12 0 C12 12.21 12 24.42 12 37 C8.04 37 4.08 37 0 37 C0 24.79 0 12.58 0 0 Z " fill="#FFFFFF" transform="translate(366,35)"/>
</svg>
