<?xml version="1.0" encoding="UTF-8"?>
<svg version="1.1" xmlns="http://www.w3.org/2000/svg" width="761" height="147">
<path d="M0 0 C0.72960937 -0.02835938 1.45921875 -0.05671875 2.2109375 -0.0859375 C8.03519742 1.02613802 11.39903431 4.96613575 14.60644531 9.6027832 C15.06631836 10.29073975 15.52619141 10.97869629 16 11.6875 C17.04423586 13.20835734 18.08850877 14.72918926 19.1328125 16.25 C19.69000977 17.06984375 20.24720703 17.8896875 20.82128906 18.734375 C22.75519495 21.56560485 24.71434184 24.37801012 26.6796875 27.1875 C39.43345944 45.42224406 39.43345944 45.42224406 45.2421875 54.4609375 C46.4912405 56.50108781 46.4912405 56.50108781 48.625 57.375 C49.72706973 55.21583655 50.73346569 53.09614564 51.61328125 50.83422852 C53.27972277 47.50841188 54.65628146 45.66105819 57.625 43.375 C64.3675399 41.52458405 71.70434881 42.15990684 78.625 42.3125 C81.50184927 42.328177 84.37848427 42.33006481 87.25537109 42.33094788 C89.03962991 42.336731 90.82390071 42.35387656 92.60791016 42.38426208 C97.41004101 42.45667845 101.8901816 42.19537748 106.625 41.375 C106.625 40.385 106.625 39.395 106.625 38.375 C101.32365617 36.62124402 96.7265697 36.09411805 91.1640625 36.1015625 C89.54165977 36.08127342 87.91926398 36.06042263 86.296875 36.0390625 C83.77370288 36.01651667 81.25080718 36.00000187 78.72753906 35.99414062 C58.39700165 35.91475547 58.39700165 35.91475547 52.02978516 29.85742188 C47.71105309 24.91572359 47.27708105 21.51193734 47.34375 15.13671875 C47.85771974 10.08982139 50.45149775 7.48673898 54 4.125 C58.74327044 0.96281971 63.17649061 0.12416241 68.81396484 0.14794922 C70.01475677 0.14810028 71.21554871 0.14825134 72.45272827 0.14840698 C74.37491684 0.16389084 74.37491684 0.16389084 76.3359375 0.1796875 C77.67257474 0.1834221 79.00921474 0.18626696 80.34585571 0.18826294 C83.84755132 0.19586423 87.3490785 0.21548212 90.85070801 0.2376709 C94.43039675 0.25820526 98.01011296 0.26728082 101.58984375 0.27734375 C108.60163127 0.29873171 115.61330753 0.33282484 122.625 0.375 C122.31880737 0.97817551 122.01261475 1.58135101 121.69714355 2.20280457 C120.89943363 3.81898912 120.16715857 5.46779622 119.47070312 7.13012695 C117.5289146 10.7552231 115.91275581 12.85929073 112.625 15.375 C105.3965392 17.39263562 97.55153328 16.72931605 90.125 16.5625 C88.04167739 16.55553616 85.95833193 16.55353264 83.875 16.55664062 C78.78960611 16.55346367 73.70921379 16.48256044 68.625 16.375 C68.625 17.365 68.625 18.355 68.625 19.375 C70.3718811 19.38901855 70.3718811 19.38901855 72.15405273 19.40332031 C76.50989849 19.44344828 80.86505479 19.50926869 85.22045898 19.58251953 C87.09894904 19.61059764 88.97755434 19.6318771 90.85620117 19.64599609 C93.57009329 19.66760925 96.28261872 19.71435047 98.99609375 19.765625 C99.82459335 19.76685364 100.65309296 19.76808228 101.50669861 19.76934814 C108.35637348 19.93814917 114.50588258 21.69662743 119.78125 26.2265625 C120.2246875 26.81179687 120.668125 27.39703125 121.125 28 C121.5890625 28.59039062 122.053125 29.18078125 122.53125 29.7890625 C125.752602 34.46002289 125.13420569 39.90283179 124.625 45.375 C122.02801214 50.86862817 117.7434149 54.91904022 112.21237183 57.50143433 C106.84753519 58.80783281 101.6036208 58.63544337 96.10205078 58.60205078 C94.21342064 58.60248886 94.21342064 58.60248886 92.28663635 58.60293579 C88.84696107 58.60350798 85.4074262 58.59177546 81.96778345 58.57778788 C78.36833063 58.56525813 74.76887434 58.56410825 71.16940308 58.56173706 C64.35908145 58.55552887 57.54882428 58.53912704 50.73853099 58.51903808 C42.98280485 58.49665846 35.22707557 58.48568047 27.47132516 58.47564721 C11.52251282 58.4547602 -4.42623527 58.41959713 -20.375 58.375 C-19.37518374 56.63015747 -18.37536748 54.88531494 -17.37555122 53.14047241 C-16.59483854 51.76290506 -15.83742497 50.37212551 -15.08935547 48.9765625 C-13.04206258 45.66555906 -11.58225778 43.70778984 -7.73925781 42.6484375 C-4.63244349 42.36350202 -1.61893 42.3173843 1.5 42.375 C2.56992187 42.36339844 3.63984375 42.35179687 4.7421875 42.33984375 C7.37174517 42.31636556 9.9958887 42.32915451 12.625 42.375 C12.26148438 41.90078613 11.89796875 41.42657227 11.5234375 40.93798828 C9.88565064 38.79574207 8.25526055 36.64797842 6.625 34.5 C6.05265625 33.75363281 5.4803125 33.00726563 4.890625 32.23828125 C4.34921875 31.52285156 3.8078125 30.80742188 3.25 30.0703125 C2.74726563 29.41047363 2.24453125 28.75063477 1.7265625 28.07080078 C0.625 26.375 0.625 26.375 0.625 24.375 C-0.035 24.375 -0.695 24.375 -1.375 24.375 C-1.61347656 25.08011719 -1.85195313 25.78523438 -2.09765625 26.51171875 C-3.85711442 30.45570296 -6.44291387 33.52225796 -9.17529297 36.84448242 C-11.7375088 40.03057691 -13.82755211 43.10690536 -15.63671875 46.78125 C-20.23720831 55.63515076 -20.23720831 55.63515076 -24.375 58.375 C-32.19668227 60.30985848 -40.46151285 59.36549544 -48.375 58.375 C-43.78521173 50.87785684 -38.82186509 43.74824609 -33.64355469 36.6496582 C-28.72868683 29.90256682 -23.9465868 23.068282 -19.22045898 16.18774414 C-8.10160736 0.14213346 -8.10160736 0.14213346 0 0 Z " fill="#FFFFFF" transform="translate(265.375,37.625)"/>
<path d="M0 0 C0.89182983 -0.01283524 1.78365967 -0.02567047 2.70251465 -0.03889465 C3.67531372 -0.04628159 4.64811279 -0.05366852 5.65039062 -0.0612793 C6.64864868 -0.06935104 7.64690674 -0.07742279 8.67541504 -0.08573914 C10.79726412 -0.09960507 12.91913575 -0.11031593 15.04101562 -0.11816406 C18.26541608 -0.13527923 21.4887652 -0.17913112 24.71289062 -0.22338867 C26.77538309 -0.23352389 28.83788428 -0.24203739 30.90039062 -0.2487793 C32.33529846 -0.27504143 32.33529846 -0.27504143 33.79919434 -0.30183411 C41.76212751 -0.27643072 48.73935489 1.80978765 54.80664062 7.17700195 C55.36351562 7.65137695 55.92039062 8.12575195 56.49414062 8.61450195 C58.02041971 10.43150087 58.40731107 11.86089051 58.80664062 14.17700195 C59.46664062 14.17700195 60.12664062 14.17700195 60.80664062 14.17700195 C61.2161924 13.34753555 61.2161924 13.34753555 61.63401794 12.50131226 C62.21446617 11.35077866 62.21446617 11.35077866 62.80664062 10.17700195 C63.21620499 9.33755035 63.62576935 8.49809875 64.04774475 7.63320923 C66.38783206 3.5631839 68.11648987 0.68068498 72.75363159 -0.70123291 C76.41277334 -0.98150986 79.94828012 -0.94785037 83.61523438 -0.79956055 C84.95039039 -0.78088212 86.28561548 -0.76666029 87.62086487 -0.75668335 C91.11621178 -0.7187046 94.60732621 -0.62068764 98.10101318 -0.50964355 C101.6735304 -0.40688269 105.2467398 -0.36157809 108.8203125 -0.3112793 C115.8174817 -0.20439945 122.81185744 -0.0339999 129.80664062 0.17700195 C129.50371094 0.77931641 129.20078125 1.38163086 128.88867188 2.00219727 C128.06931113 3.64905321 127.27557011 5.30868793 126.49414062 6.97387695 C124.80664062 9.92700195 124.80664062 9.92700195 119.80664062 15.17700195 C113.86664062 15.17700195 107.92664063 15.17700195 101.80664062 15.17700195 C101.80664062 29.36700195 101.80664062 43.55700195 101.80664062 58.17700195 C95.53664063 58.17700195 89.26664063 58.17700195 82.80664062 58.17700195 C82.80664062 43.98700195 82.80664062 29.79700195 82.80664062 15.17700195 C75.21664062 15.17700195 67.62664062 15.17700195 59.80664062 15.17700195 C60.30164063 16.16700195 60.30164063 16.16700195 60.80664062 17.17700195 C61.62940518 23.67819071 60.63281197 28.82713405 56.80664062 34.17700195 C52.2080031 39.32281913 46.52149485 42.61860256 39.58612061 43.43998718 C37.21645383 43.5210648 34.86473203 43.51518686 32.49414062 43.4699707 C31.63981445 43.46572586 30.78548828 43.46148102 29.90527344 43.45710754 C27.2053938 43.44045899 24.50629052 43.40283419 21.80664062 43.36450195 C19.96420357 43.34943719 18.12175469 43.33575194 16.27929688 43.32348633 C11.78811724 43.29060101 7.29751006 43.23891651 2.80664062 43.17700195 C2.80664062 48.12700195 2.80664062 53.07700195 2.80664062 58.17700195 C-3.13335938 58.17700195 -9.07335937 58.17700195 -15.19335938 58.17700195 C-15.19335938 48.27700195 -15.19335938 38.37700195 -15.19335938 28.17700195 C-11.72578125 28.12801758 -8.25820313 28.0790332 -4.68554688 28.02856445 C-1.31961833 27.97452325 2.04624023 27.91722801 5.41210938 27.85961914 C7.74766811 27.82138441 10.08328462 27.786522 12.41894531 27.75512695 C15.78015768 27.70935725 19.14097417 27.65138159 22.50195312 27.59106445 C24.06322433 27.57373764 24.06322433 27.57373764 25.65603638 27.55606079 C33.81247545 27.69803036 33.81247545 27.69803036 40.80664062 24.17700195 C41.05671793 21.71890197 41.05671793 21.71890197 40.80664062 19.17700195 C37.45617261 15.82653394 33.29842112 16.05411426 28.7409668 15.97167969 C27.76032761 15.95173447 26.77968842 15.93178925 25.76933289 15.91123962 C24.72332413 15.89452713 23.67731537 15.87781464 22.59960938 15.8605957 C21.51907791 15.83981461 20.43854645 15.81903351 19.32527161 15.79762268 C15.88162451 15.73236159 12.43790268 15.6733512 8.99414062 15.61450195 C6.65624234 15.57129445 4.31835156 15.52767944 1.98046875 15.48364258 C-3.74406216 15.37670424 -9.46866702 15.27489468 -15.19335938 15.17700195 C-13.53976713 11.71990766 -11.55522141 8.9682553 -9.13085938 5.98950195 C-8.41800781 5.10907227 -7.70515625 4.22864258 -6.97070312 3.3215332 C-4.40506578 0.2258521 -3.99350521 0.04990095 0 0 Z " fill="#FFFFFF" transform="translate(599.193359375,37.822998046875)"/>
<path d="M0 0 C1.54768318 0.00274933 1.54768318 0.00274933 3.12663269 0.0055542 C5.30278998 0.01759982 7.47891612 0.04901471 9.65454102 0.09863281 C12.96041089 0.17143329 16.26177305 0.18067256 19.56835938 0.1796875 C21.69144445 0.19936248 23.81449951 0.22268204 25.9375 0.25 C27.40205376 0.25667694 27.40205376 0.25667694 28.89619446 0.26348877 C37.27875808 0.49163229 45.34159112 2.55572772 51.66796875 8.359375 C52.29703125 8.91496094 52.92609375 9.47054687 53.57421875 10.04296875 C57.49112835 14.66069796 57.54264836 19.4641369 57.41796875 25.26953125 C56.83888964 31.4131987 53.60299837 34.9195312 49.16796875 38.921875 C47.84186398 39.9314412 46.50980008 40.93330712 45.16796875 41.921875 C50.84415513 47.20156306 56.46495257 52.37845874 62.8046875 56.86328125 C63.25457031 57.21261719 63.70445312 57.56195313 64.16796875 57.921875 C64.16796875 58.251875 64.16796875 58.581875 64.16796875 58.921875 C59.71078018 59.18584092 55.25562279 59.34394183 50.79296875 59.484375 C48.91544922 59.59749023 48.91544922 59.59749023 47 59.71289062 C40.039091 59.8768911 35.90381223 59.46878596 30.62890625 54.69921875 C29.10931346 53.13786191 27.61801357 51.54802611 26.16796875 49.921875 C22.59179439 45.93689573 19.68009763 44.61782598 14.33203125 44.21484375 C12.15287053 44.15541209 9.97290913 44.12092945 7.79296875 44.109375 C6.67535156 44.08423828 5.55773437 44.05910156 4.40625 44.03320312 C1.66053226 43.97453394 -1.08578661 43.94529259 -3.83203125 43.921875 C-3.83203125 48.871875 -3.83203125 53.821875 -3.83203125 58.921875 C-9.77203125 58.921875 -15.71203125 58.921875 -21.83203125 58.921875 C-21.83203125 49.021875 -21.83203125 39.121875 -21.83203125 28.921875 C-16.68287109 28.84839844 -16.68287109 28.84839844 -11.4296875 28.7734375 C-8.08353536 28.71933755 -4.73745139 28.66206548 -1.39135742 28.60449219 C0.92369451 28.56634709 3.23880278 28.53146968 5.55395508 28.5 C8.89294494 28.45403413 12.23155169 28.39609253 15.5703125 28.3359375 C17.10835793 28.31861069 17.10835793 28.31861069 18.67747498 28.30093384 C24.78371634 28.17717118 30.25043024 27.44880889 36.16796875 25.921875 C36.93753011 23.57653549 36.93753011 23.57653549 37.16796875 20.921875 C36.25781106 19.00862494 36.25781106 19.00862494 34.16796875 17.921875 C28.06209936 16.75127199 21.96773246 16.70554992 15.765625 16.60546875 C14.68792343 16.58468765 13.61022186 16.56390656 12.49986267 16.54249573 C9.07679263 16.47741339 5.65364963 16.41830827 2.23046875 16.359375 C-0.09831466 16.31615045 -2.42709085 16.27253493 -4.75585938 16.22851562 C-10.44784084 16.12177465 -16.13989394 16.01993353 -21.83203125 15.921875 C-16.41704147 5.52509463 -12.33788438 -0.36095396 0 0 Z " fill="#FFFFFF" transform="translate(490.83203125,37.078125)"/>
<path d="M0 0 C0.72960937 -0.02835938 1.45921875 -0.05671875 2.2109375 -0.0859375 C8.0350172 1.02610361 11.39898474 4.96591109 14.60620117 9.60253906 C15.06615479 10.29057617 15.5261084 10.97861328 16 11.6875 C16.75277222 12.78336426 16.75277222 12.78336426 17.52075195 13.90136719 C18.6264523 15.51105574 19.72789954 17.1236718 20.82568359 18.73876953 C23.43119926 22.55618584 26.07973517 26.34319152 28.72509766 30.13305664 C30.78328556 33.08312597 32.83589331 36.03699636 34.88671875 38.9921875 C37.13408787 42.23025909 39.38523894 45.46554969 41.64453125 48.6953125 C42.28708862 49.61618652 42.28708862 49.61618652 42.94262695 50.55566406 C44.03339371 52.11872854 45.1259884 53.680517 46.21875 55.2421875 C47.625 57.375 47.625 57.375 47.625 58.375 C25.185 58.375 2.745 58.375 -20.375 58.375 C-19.055 56.065 -17.735 53.755 -16.375 51.375 C-15.9507373 50.58351562 -15.52647461 49.79203125 -15.08935547 48.9765625 C-13.04206258 45.66555906 -11.58225778 43.70778984 -7.73925781 42.6484375 C-4.63244349 42.36350202 -1.61893 42.3173843 1.5 42.375 C2.56992188 42.36339844 3.63984375 42.35179687 4.7421875 42.33984375 C7.37174517 42.31636556 9.9958887 42.32915451 12.625 42.375 C12.26148438 41.90078613 11.89796875 41.42657227 11.5234375 40.93798828 C9.88565064 38.79574207 8.25526055 36.64797842 6.625 34.5 C6.05265625 33.75363281 5.4803125 33.00726563 4.890625 32.23828125 C4.34921875 31.52285156 3.8078125 30.80742188 3.25 30.0703125 C2.74726563 29.41047363 2.24453125 28.75063477 1.7265625 28.07080078 C0.625 26.375 0.625 26.375 0.625 24.375 C-0.035 24.375 -0.695 24.375 -1.375 24.375 C-1.61347656 25.08011719 -1.85195312 25.78523438 -2.09765625 26.51171875 C-3.85711442 30.45570296 -6.44291387 33.52225796 -9.17529297 36.84448242 C-11.7375088 40.03057691 -13.82755211 43.10690536 -15.63671875 46.78125 C-20.23720831 55.63515076 -20.23720831 55.63515076 -24.375 58.375 C-32.19668227 60.30985848 -40.46151285 59.36549544 -48.375 58.375 C-43.78521173 50.87785684 -38.82186509 43.74824609 -33.64355469 36.6496582 C-28.72868683 29.90256682 -23.9465868 23.068282 -19.22045898 16.18774414 C-8.10160736 0.14213346 -8.10160736 0.14213346 0 0 Z " fill="#FFFFFF" transform="translate(139.375,37.625)"/>
<path d="M0 0 C1.02075623 0.00007553 2.04151245 0.00015106 3.09320068 0.00022888 C4.18811829 0.00539017 5.28303589 0.01055145 6.41113281 0.01586914 C8.10064056 0.01799156 8.10064056 0.01799156 9.82427979 0.02015686 C13.42096617 0.0257534 17.01759025 0.03830529 20.61425781 0.05102539 C23.053059 0.05604084 25.49186116 0.06060367 27.93066406 0.06469727 C33.90854989 0.07572169 39.8863994 0.09245641 45.86425781 0.11352539 C45.45415466 0.72242615 45.04405151 1.3313269 44.621521 1.9586792 C44.08255188 2.76226868 43.54358276 3.56585815 42.98828125 4.39379883 C42.4544281 5.18832458 41.92057495 5.98285034 41.37054443 6.80145264 C39.88341023 9.00602541 39.88341023 9.00602541 38.86529541 11.01104736 C37.87988281 12.62915039 37.87988281 12.62915039 34.86425781 15.11352539 C30.11517054 15.94938979 25.4257405 15.90644248 20.61425781 15.86352539 C6.73968574 15.44202968 6.73968574 15.44202968 -6.07324219 19.92602539 C-8.37283731 22.36498992 -9.37630001 23.84792404 -10.13574219 27.11352539 C-9.94672631 32.40596982 -8.88904387 35.36022371 -5.13574219 39.11352539 C0.52940472 43.02052326 8.65714093 42.2976237 15.29785156 42.42993164 C16.61475731 42.46110329 16.61475731 42.46110329 17.95826721 42.49290466 C20.73935766 42.55784484 23.52053566 42.61702466 26.30175781 42.67602539 C28.19694885 42.71926354 30.09213131 42.76287945 31.98730469 42.80688477 C36.61286795 42.91346861 41.23851852 43.01488947 45.86425781 43.11352539 C44.97312016 44.4915733 44.07605789 45.86579026 43.17675781 47.23852539 C42.67789063 48.00422852 42.17902344 48.76993164 41.66503906 49.55883789 C41.07078125 50.40188477 40.47652344 51.24493164 39.86425781 52.11352539 C39.14898926 53.18908691 38.4337207 54.26464844 37.69677734 55.37280273 C34.39086717 58.57157429 33.0466622 58.82210657 28.63375854 58.89590454 C27.84099518 58.87748505 27.04823181 58.85906555 26.23144531 58.84008789 C24.98272141 58.8415834 24.98272141 58.8415834 23.70877075 58.84310913 C21.94865367 58.83843766 20.18852204 58.819038 18.42871094 58.78588867 C15.76795308 58.73903074 13.11125658 58.74472665 10.45019531 58.75805664 C-2.41391159 58.71643158 -12.6165785 57.46422467 -22.25683594 48.20336914 C-28.6742725 41.06547193 -29.56305673 34.08036824 -29.47558594 24.73071289 C-28.82191208 17.77321874 -25.93942686 12.45574154 -20.82324219 7.73852539 C-14.48687682 2.85482021 -8.03093591 -0.01987855 0 0 Z " fill="#FFFFFF" transform="translate(421.1357421875,37.886474609375)"/>
<path d="M0 0 C7.91944346 -1.26882875 16.20566825 -2.32897341 24 0 C29.88533091 4.36206879 33.21160985 11.0699059 36.59521484 17.42138672 C38.56940117 21.04518859 40.87159647 24.38395022 43.25 27.75 C43.93578125 28.77609375 44.6215625 29.8021875 45.328125 30.859375 C46.15570313 31.91898438 46.15570313 31.91898438 47 33 C47.66 33 48.32 33 49 33 C50.23698462 31.63444999 50.23698462 31.63444999 51.43359375 29.80859375 C51.91272217 29.11765625 52.39185059 28.42671875 52.88549805 27.71484375 C53.39765869 26.96332031 53.90981934 26.21179688 54.4375 25.4375 C55.51442251 23.88328069 56.59257531 22.32991322 57.671875 20.77734375 C58.22166016 19.98440918 58.77144531 19.19147461 59.33789062 18.37451172 C61.90216351 14.71115712 64.53805336 11.10202685 67.1875 7.5 C67.65663818 6.8598999 68.12577637 6.2197998 68.60913086 5.56030273 C71.86423652 1.13576348 71.86423652 1.13576348 73 0 C74.70772358 -0.08713831 76.41898649 -0.10700007 78.12890625 -0.09765625 C79.68061523 -0.09282227 79.68061523 -0.09282227 81.26367188 -0.08789062 C82.35228516 -0.07951172 83.44089844 -0.07113281 84.5625 -0.0625 C86.2012207 -0.05573242 86.2012207 -0.05573242 87.87304688 -0.04882812 C90.58208495 -0.03699826 93.29101599 -0.02051543 96 0 C93.12222023 5.31494253 89.85098919 10.00013945 86.125 14.75 C81.2651018 21.02056753 76.50011169 27.34961948 71.8125 33.75 C67.67839923 39.37889104 63.53938429 45.0027715 59.3125 50.5625 C58.54550781 51.57441406 57.77851563 52.58632812 56.98828125 53.62890625 C54.19470542 56.96034148 52.5933614 57.92088515 48.25 58.5 C43.07182648 58.35168223 40.49208873 55.56833521 37 52 C34.80163999 49.3532183 32.83208061 46.57823144 30.875 43.75 C29.73980793 42.14437244 28.6043846 40.53890835 27.46875 38.93359375 C26.89511719 38.11616699 26.32148438 37.29874023 25.73046875 36.45654297 C22.97910202 32.5507512 20.17639109 28.68248455 17.375 24.8125 C16.84350342 24.07555908 16.31200684 23.33861816 15.7644043 22.5793457 C13.10661975 18.89649118 10.4349516 15.22480772 7.73828125 11.5703125 C7.22410645 10.87317139 6.70993164 10.17603027 6.18017578 9.45776367 C5.20549668 8.13858317 4.22870035 6.82096363 3.24951172 5.50512695 C0 1.10919531 0 1.10919531 0 0 Z " fill="#FFFFFF" transform="translate(154,38)"/>
<path d="M0 0 C6.27 0 12.54 0 19 0 C19.04612783 4.83829672 19.08588735 9.67581806 19.10986328 14.51416016 C19.11986737 16.15709023 19.13347494 17.80000274 19.15087891 19.44287109 C19.17537515 21.81612505 19.18653917 24.18914185 19.1953125 26.5625 C19.20563507 27.28679199 19.21595764 28.01108398 19.22659302 28.75732422 C19.22823802 36.38134063 17.8799183 42.90010213 13 49 C4.89893333 56.74101926 -3.33333288 58.16432669 -14.01953125 58.09765625 C-15.30738777 58.09553383 -15.30738777 58.09553383 -16.6212616 58.09336853 C-19.35171049 58.08779057 -22.08207607 58.07524214 -24.8125 58.0625 C-26.6686186 58.05748215 -28.5247385 58.05291974 -30.38085938 58.04882812 C-34.9206048 58.03782836 -39.4602883 58.02057893 -44 58 C-44 53.05 -44 48.1 -44 43 C-41.25042969 42.90912109 -41.25042969 42.90912109 -38.4453125 42.81640625 C-36.00520244 42.7319409 -33.56509859 42.64729596 -31.125 42.5625 C-29.92101562 42.52318359 -28.71703125 42.48386719 -27.4765625 42.44335938 C-14.75395093 42.76415278 -14.75395093 42.76415278 -3 39 C-0.31628088 35.44383131 -0.65220716 31.22685377 -0.5859375 26.953125 C-0.56657135 26.18192322 -0.5472052 25.41072144 -0.5272522 24.6161499 C-0.46762923 22.16087795 -0.42114086 19.70555867 -0.375 17.25 C-0.33680425 15.58201118 -0.29775159 13.91404174 -0.2578125 12.24609375 C-0.16033361 8.16416526 -0.08063021 4.08243508 0 0 Z " fill="#FFFFFF" transform="translate(79,38)"/>
<path d="M0 0 C6.27 0 12.54 0 19 0 C19 19.14 19 38.28 19 58 C12.73 58 6.46 58 0 58 C0 38.86 0 19.72 0 0 Z " fill="#FFFFFF" transform="translate(560,38)"/>
</svg>
