<?xml version="1.0" encoding="UTF-8"?>
<svg version="1.1" xmlns="http://www.w3.org/2000/svg" width="339" height="92">
<path d="M0 0 C0.80060349 0.00007553 1.60120697 0.00015106 2.42607117 0.00022888 C3.71527214 0.00797081 3.71527214 0.00797081 5.03051758 0.01586914 C5.91411453 0.01728409 6.79771149 0.01869904 7.70808411 0.02015686 C10.53044011 0.0257547 13.3527168 0.03830678 16.17504883 0.05102539 C18.08845914 0.05604067 20.0018707 0.06060353 21.9152832 0.06469727 C26.60606897 0.07572342 31.29679545 0.09298656 35.98754883 0.11352539 C35.00935859 1.42675327 34.02996773 2.73908691 33.05004883 4.05102539 C32.23213867 5.14737305 32.23213867 5.14737305 31.39770508 6.26586914 C29.98754883 8.11352539 29.98754883 8.11352539 28.98754883 9.11352539 C26.91670163 9.27195189 24.84076854 9.36476962 22.76489258 9.42993164 C21.50483398 9.47182617 20.24477539 9.5137207 18.9465332 9.55688477 C17.60604147 9.59670135 16.26554663 9.63641353 14.92504883 9.67602539 C13.5806336 9.71920581 12.23623223 9.76281995 10.8918457 9.80688477 C7.59052542 9.91337897 4.28912647 10.01538999 0.98754883 10.11352539 C0.98754883 10.77352539 0.98754883 11.43352539 0.98754883 12.11352539 C2.16728271 12.12754395 2.16728271 12.12754395 3.37084961 12.1418457 C6.95204121 12.19569821 10.53194766 12.27931902 14.11254883 12.36352539 C15.96879883 12.38479492 15.96879883 12.38479492 17.86254883 12.40649414 C29.24087475 12.71236312 29.24087475 12.71236312 33.98754883 17.11352539 C36.74464508 20.226376 37.22444876 22.56878842 37.05004883 26.61352539 C36.53864248 30.10038686 35.75048282 31.83668889 33.05004883 34.11352539 C28.13185538 37.32540683 24.58098213 37.24470223 18.82348633 37.21118164 C17.91627838 37.20976669 17.00907043 37.20835175 16.07437134 37.20689392 C13.17039727 37.20128635 10.26649968 37.18873257 7.36254883 37.17602539 C5.39640411 37.17101137 3.43025818 37.16644829 1.46411133 37.16235352 C-3.36143907 37.15131445 -8.18693215 37.13404474 -13.01245117 37.11352539 C-12.03426093 35.80029751 -11.05487007 34.48796387 -10.07495117 33.17602539 C-9.52967773 32.44512695 -8.9844043 31.71422852 -8.42260742 30.96118164 C-7.01245117 29.11352539 -7.01245117 29.11352539 -6.01245117 28.11352539 C-4.04950525 27.9673686 -2.08165651 27.88612848 -0.11401367 27.83227539 C1.6880957 27.77620117 1.6880957 27.77620117 3.52661133 27.71899414 C5.42540039 27.66678711 5.42540039 27.66678711 7.36254883 27.61352539 C9.8496452 27.54472252 12.3366369 27.4719902 14.82348633 27.39477539 C15.93256348 27.36448242 17.04164063 27.33418945 18.18432617 27.30297852 C21.06915603 27.22606638 21.06915603 27.22606638 23.98754883 26.11352539 C23.98754883 25.45352539 23.98754883 24.79352539 23.98754883 24.11352539 C20.90214295 23.08505676 18.70621463 22.97443745 15.47192383 22.93774414 C14.38524414 22.91389648 13.29856445 22.89004883 12.17895508 22.86547852 C9.90049454 22.82280587 7.62179282 22.79139574 5.34301758 22.77172852 C-1.28291834 22.6035377 -5.65396436 22.13987442 -11.01245117 18.11352539 C-13.00371396 15.04366193 -13.0155125 13.28495961 -12.94995117 9.61352539 C-11.83025057 5.43330982 -10.34458281 3.81096529 -7.01245117 1.11352539 C-4.30620747 0.21144416 -2.77394132 -0.0087506 0 0 Z " fill="#FFFFFF" transform="translate(282.012451171875,22.886474609375)"/>
<path d="M0 0 C3.82680798 -0.56002068 6.43856949 -0.87683812 9.85205078 1.04003906 C11.68737447 2.48468266 13.37610146 4.00926595 15.0625 5.625 C15.63548828 6.14707031 16.20847656 6.66914063 16.79882812 7.20703125 C17.95190172 8.25763824 19.09864184 9.31524079 20.23876953 10.37988281 C23.0895942 13.00229375 26.04651854 15.49424376 29 18 C29.33 12.06 29.66 6.12 30 0 C33.96 0 37.92 0 42 0 C42.0246501 5.10863896 42.04283607 10.21724359 42.05493164 15.32592773 C42.05997204 17.06519168 42.0668043 18.80445136 42.07543945 20.54370117 C42.08751792 23.03825937 42.09323108 25.53276173 42.09765625 28.02734375 C42.10281754 28.80963852 42.10797882 29.59193329 42.11329651 30.39793396 C42.11349226 32.26567114 42.06199694 34.13329204 42 36 C41 37 41 37 37.5625 37.5625 C31.27029513 37.47293125 27.46269181 32.96756104 23 29 C20.96456322 27.32573071 18.92298621 25.65889512 16.875 24 C15.26625 22.68 13.6575 21.36 12 20 C11.67 25.61 11.34 31.22 11 37 C6.71 37 2.42 37 -2 37 C-2.04943465 32.21282458 -2.08573582 27.42579773 -2.10986328 22.63842773 C-2.11992142 21.00982068 -2.13356958 19.38123168 -2.15087891 17.75268555 C-2.17513574 15.41190128 -2.18648483 13.07135576 -2.1953125 10.73046875 C-2.20563507 10.00224411 -2.21595764 9.27401947 -2.22659302 8.52372742 C-2.22742249 4.78724931 -2.12883296 3.19324944 0 0 Z " fill="#FFFFFF" transform="translate(24,23)"/>
<path d="M0 0 C13.20776651 -1.78976008 13.20776651 -1.78976008 17.83740234 1.17773438 C21.41353672 4.36903539 24.25340622 8.0895953 27 12 C30.43913073 8.67582089 30.43913073 8.67582089 33.45703125 4.98046875 C35.549808 2.21221363 37.32830684 0.27528661 40.87988281 -0.30957031 C45.60416064 -0.61093544 50.28530298 -0.35657372 55 0 C49.81643758 6.13842918 44.42287737 12.07341663 39 18 C40.43089183 21.30939598 42.19427735 23.35447453 44.8125 25.8125 C48.40265132 29.29802032 51.2279691 32.84195364 54 37 C40.64308682 38.64061341 40.64308682 38.64061341 36.26074219 35.92041016 C32.98423817 33.02482296 30.44448091 29.61971212 28 26 C26.93513145 26.89301656 25.87324959 27.7895947 24.8125 28.6875 C24.22082031 29.18636719 23.62914062 29.68523438 23.01953125 30.19921875 C20.85358378 32.03880175 20.85358378 32.03880175 18.78125 34.6875 C15.00927267 37.82375081 12.42065541 37.58743753 7.6875 37.3125 C6.94693359 37.28994141 6.20636719 37.26738281 5.44335938 37.24414062 C3.62802643 37.1855815 1.81374319 37.09590886 0 37 C5.18356242 30.86157082 10.57712263 24.92658337 16 19 C11.6239227 13.70264327 6.92595158 8.90360824 1.9765625 4.13671875 C0 2 0 2 0 0 Z " fill="#FFFFFF" transform="translate(109,23)"/>
<path d="M0 0 C13.2 0 26.4 0 40 0 C36.67929635 6.64140731 36.67929635 6.64140731 34 9 C30.23576265 9.62660216 26.55245644 9.4693272 22.75 9.3125 C21.71875 9.28994141 20.6875 9.26738281 19.625 9.24414062 C17.08185935 9.18527163 14.54166887 9.10310065 12 9 C12 10.65 12 12.3 12 14 C20.91 14 29.82 14 39 14 C33 22 33 22 32 23 C30.5112814 23.08669432 29.018555 23.10703494 27.52734375 23.09765625 C26.62822266 23.09443359 25.72910156 23.09121094 24.80273438 23.08789062 C23.85720703 23.07951172 22.91167969 23.07113281 21.9375 23.0625 C20.98810547 23.05798828 20.03871094 23.05347656 19.06054688 23.04882812 C16.70696935 23.0370011 14.35351523 23.02052025 12 23 C12 24.65 12 26.3 12 28 C21.24 28 30.48 28 40 28 C36.89737708 34.20524584 36.89737708 34.20524584 34 37 C31.18462284 37.44699207 28.97299421 37.58868262 26.171875 37.48828125 C25.50752441 37.48324585 24.84317383 37.47821045 24.15869141 37.47302246 C21.68868552 37.44695863 19.21929722 37.37715027 16.75 37.3125 C8.45875 37.1578125 8.45875 37.1578125 0 37 C0 24.79 0 12.58 0 0 Z " fill="#FFFFFF" transform="translate(68,23)"/>
<path d="M0 0 C2.9795099 -0.26653946 5.7488582 -0.34767784 8.7265625 -0.29296875 C9.58937836 -0.28872391 10.45219421 -0.28447906 11.34115601 -0.28010559 C14.10275197 -0.26328392 16.86362383 -0.22562598 19.625 -0.1875 C21.49478114 -0.17245764 23.3645737 -0.15876846 25.234375 -0.14648438 C29.82319658 -0.11336906 34.41147544 -0.06156339 39 0 C37 3 35 6 33 9 C29.04 9 25.08 9 21 9 C21 18.24 21 27.48 21 37 C17.04 37 13.08 37 9 37 C9 27.76 9 18.52 9 9 C4.05 9 -0.9 9 -6 9 C-4 6 -2 3 0 0 Z " fill="#FFFFFF" transform="translate(169,23)"/>
<path d="M0 0 C3.96 0 7.92 0 12 0 C12.08124438 3.85459456 12.14062344 7.70746115 12.1875 11.5625 C12.21263672 12.64853516 12.23777344 13.73457031 12.26367188 14.85351562 C12.32005971 21.03738149 12.09144536 25.584437 9 31 C4.03688143 35.83251018 -0.55906553 37.26010364 -7.39453125 37.1953125 C-8.59658203 37.18886719 -9.79863281 37.18242188 -11.03710938 37.17578125 C-12.28298828 37.15902344 -13.52886719 37.14226563 -14.8125 37.125 C-16.71032227 37.11146484 -16.71032227 37.11146484 -18.64648438 37.09765625 C-21.76451564 37.07412394 -24.88216097 37.04124545 -28 37 C-28 34.03 -28 31.06 -28 28 C-26.87722656 27.93941406 -25.75445312 27.87882812 -24.59765625 27.81640625 C-17.03659035 27.39705018 -9.5161559 26.95660166 -2 26 C-1.25484101 22.61363691 -0.83229437 19.38056897 -0.68359375 15.91796875 C-0.64169922 14.98662109 -0.59980469 14.05527344 -0.55664062 13.09570312 C-0.51732422 12.13599609 -0.47800781 11.17628906 -0.4375 10.1875 C-0.39431641 9.20845703 -0.35113281 8.22941406 -0.30664062 7.22070312 C-0.20097834 4.81395102 -0.10002535 2.40699297 0 0 Z " fill="#FFFFFF" transform="translate(255,23)"/>
<path d="M0 0 C0.80308594 -0.02578125 1.60617188 -0.0515625 2.43359375 -0.078125 C3.48740234 0.08429687 3.48740234 0.08429687 4.5625 0.25 C6.5625 3.25 6.5625 3.25 6.25 5.875 C5.5625 8.25 5.5625 8.25 4.5625 9.25 C2.56640625 9.453125 2.56640625 9.453125 0.125 9.5 C-0.67808594 9.52578125 -1.48117188 9.5515625 -2.30859375 9.578125 C-3.01113281 9.46984375 -3.71367187 9.3615625 -4.4375 9.25 C-6.4375 6.25 -6.4375 6.25 -6.125 3.625 C-5.00041017 -0.25994669 -3.83075832 0.07355056 0 0 Z " fill="#FFFFFF" transform="translate(216.4375,50.75)"/>
</svg>
