<?xml version="1.0" encoding="UTF-8"?>
<svg version="1.1" xmlns="http://www.w3.org/2000/svg" width="105" height="27">
<path d="M0 0 C4.40021656 0.36668471 6.744666 2.11670417 10 5 C10 3.35 10 1.7 10 0 C13.74993479 -0.05811773 17.49975352 -0.09363593 21.25 -0.125 C22.84521484 -0.15013672 22.84521484 -0.15013672 24.47265625 -0.17578125 C25.49746094 -0.18222656 26.52226563 -0.18867187 27.578125 -0.1953125 C28.52075195 -0.20578613 29.46337891 -0.21625977 30.43457031 -0.22705078 C33.09951941 0.00880787 34.71863092 0.64338341 37 2 C37.66 1.34 38.32 0.68 39 0 C41.06298828 -0.22705078 41.06298828 -0.22705078 43.5703125 -0.1953125 C44.91416016 -0.18564453 44.91416016 -0.18564453 46.28515625 -0.17578125 C47.69087891 -0.15064453 47.69087891 -0.15064453 49.125 -0.125 C50.06988281 -0.11597656 51.01476563 -0.10695313 51.98828125 -0.09765625 C54.32577292 -0.07404522 56.66276123 -0.04111516 59 0 C58.67 0.66 58.34 1.32 58 2 C56.68 2 55.36 2 54 2 C54 5.3 54 8.6 54 12 C52.35 12 50.7 12 49 12 C49 8.7 49 5.4 49 2 C45.51190809 2.77030122 45.51190809 2.77030122 42 4 C41.67 4.99 41.34 5.98 41 7 C42.87197454 9.69433317 42.87197454 9.69433317 45 12 C41.05272412 12.17942163 38.4019487 12.09350689 35 10 C34.34 10.66 33.68 11.32 33 12 C29.249754 12.48230766 25.46522433 12.37039583 21.6875 12.375 C20.64142578 12.39949219 19.59535156 12.42398437 18.51757812 12.44921875 C10.76446352 12.47882963 10.76446352 12.47882963 6.76953125 9.9765625 C6.18558594 9.32429687 5.60164062 8.67203125 5 8 C4.67 9.32 4.34 10.64 4 12 C2.35 12 0.7 12 -1 12 C-1.02687279 10.18757948 -1.04633715 8.37504767 -1.0625 6.5625 C-1.07410156 5.55316406 -1.08570313 4.54382813 -1.09765625 3.50390625 C-1 1 -1 1 0 0 Z M18 2 C18 2.99 18 3.98 18 5 C20.31 5.33 22.62 5.66 25 6 C22.69 6.33 20.38 6.66 18 7 C18 7.99 18 8.98 18 10 C21.34440677 10.58718592 24.59939315 11.05863115 28 11 C30.6557715 9.26959882 30.6557715 9.26959882 32 7 C31.08358378 4.70895944 30.30881685 3.24942899 28.375 1.6875 C24.74055199 0.63542294 21.71572005 1.38071332 18 2 Z " fill="#FFFFFF" transform="translate(6,6)"/>
<path d="M0 0 C6.93 0 13.86 0 21 0 C20.67 0.66 20.34 1.32 20 2 C16.7 2 13.4 2 10 2 C10 2.66 10 3.32 10 4 C10.71027344 3.98839844 11.42054687 3.97679687 12.15234375 3.96484375 C13.07144531 3.95582031 13.99054688 3.94679688 14.9375 3.9375 C15.85402344 3.92589844 16.77054688 3.91429687 17.71484375 3.90234375 C20 4 20 4 21 5 C21.125 8 21.125 8 21 11 C20 12 20 12 16.62109375 12.09765625 C15.22652923 12.09098369 13.83198257 12.07902532 12.4375 12.0625 C11.72658203 12.05798828 11.01566406 12.05347656 10.28320312 12.04882812 C8.52209987 12.03700864 6.76103964 12.01907263 5 12 C5.33 11.34 5.66 10.68 6 10 C8.28515625 9.5859375 8.28515625 9.5859375 11.0625 9.375 C12.44115234 9.26285156 12.44115234 9.26285156 13.84765625 9.1484375 C14.91306641 9.07496094 14.91306641 9.07496094 16 9 C16 8.34 16 7.68 16 7 C12.7 6.67 9.4 6.34 6 6 C5.49984375 6.98226563 4.9996875 7.96453125 4.484375 8.9765625 C2 12 2 12 -1.671875 12.5859375 C-3.0324902 12.54630793 -4.39249197 12.47508093 -5.75 12.375 C-6.44738281 12.34792969 -7.14476563 12.32085937 -7.86328125 12.29296875 C-9.57685705 12.22254783 -11.28883302 12.11492913 -13 12 C-13 11.01 -13 10.02 -13 9 C-8.71 9 -4.42 9 0 9 C0 6.03 0 3.06 0 0 Z " fill="#FFFFFF" transform="translate(79,6)"/>
</svg>
