<?xml version="1.0" encoding="UTF-8"?>
<svg version="1.1" xmlns="http://www.w3.org/2000/svg" width="219" height="71">
<path d="M0 0 C4.89511312 -0.13803452 9.78344339 -0.25734914 14.67895508 -0.32958984 C16.34259957 -0.35970545 18.00608602 -0.4006085 19.66918945 -0.45263672 C22.06501254 -0.52569321 24.45873253 -0.55950481 26.85546875 -0.5859375 C27.5952446 -0.61690521 28.33502045 -0.64787292 29.09721375 -0.67977905 C32.0439175 -0.68168582 34.31857845 -0.5799513 36.61636353 1.37567139 C38.0090332 3.03662109 38.0090332 3.03662109 40 6 C42.55114699 4.94435297 43.79951579 4.32273067 45.28125 1.9375 C47 0 47 0 49.69921875 -0.390625 C50.68535156 -0.34421875 51.67148438 -0.2978125 52.6875 -0.25 C53.68136719 -0.21390625 54.67523438 -0.1778125 55.69921875 -0.140625 C56.45847656 -0.09421875 57.21773437 -0.0478125 58 0 C57.06409496 1.1055189 56.12620142 2.20935453 55.1875 3.3125 C54.66542969 3.92738281 54.14335938 4.54226562 53.60546875 5.17578125 C52.12827531 6.85424679 50.59960869 8.43882034 49 10 C50.40976705 13.03852705 52.08870228 15.5939595 54.125 18.25 C54.66382813 18.95640625 55.20265625 19.6628125 55.7578125 20.390625 C56.16773438 20.92171875 56.57765625 21.4528125 57 22 C48.22421525 22.76681614 48.22421525 22.76681614 45.22265625 20.88671875 C43.875 19.5 43.875 19.5 42 17 C39.81214737 17.98076152 38.24487239 18.70848526 36.6875 20.5625 C34.35705275 22.54769581 32.82418334 22.30483831 29.8125 22.1875 C28.46091797 22.14689453 28.46091797 22.14689453 27.08203125 22.10546875 C26.39496094 22.07066406 25.70789063 22.03585938 25 22 C27.38179263 18.25718301 29.74475735 15.02272532 33 12 C31.61811547 8.78956118 30.07578097 6.95063635 27.375 4.75 C26.74335937 4.22921875 26.11171875 3.7084375 25.4609375 3.171875 C24.97882813 2.78515625 24.49671875 2.3984375 24 2 C23.64292969 2.65484375 23.28585938 3.3096875 22.91796875 3.984375 C21 6 21 6 17.86328125 6.390625 C16.69152344 6.34421875 15.51976563 6.2978125 14.3125 6.25 C12.54326172 6.19585937 12.54326172 6.19585937 10.73828125 6.140625 C9.38283203 6.07101563 9.38283203 6.07101563 8 6 C8 6.66 8 7.32 8 8 C12.95 8 17.9 8 23 8 C22 10 21 12 20 14 C16.04 14 12.08 14 8 14 C8 14.66 8 15.32 8 16 C13.28 16 18.56 16 24 16 C22 21 22 21 21 22 C19.43827255 22.08685603 17.87270656 22.10702219 16.30859375 22.09765625 C15.45837646 22.09515869 14.60815918 22.09266113 13.73217773 22.09008789 C12.64493408 22.08098389 11.55769043 22.07187988 10.4375 22.0625 C6.993125 22.041875 3.54875 22.02125 0 22 C0 14.74 0 7.48 0 0 Z " fill="#FFFFFF" transform="translate(49,22)"/>
<path d="M0 0 C1.11503906 0.01289063 2.23007813 0.02578125 3.37890625 0.0390625 C5.11720703 0.08933594 5.11720703 0.08933594 6.890625 0.140625 C8.65212891 0.16769531 8.65212891 0.16769531 10.44921875 0.1953125 C13.3471784 0.2424338 16.24348918 0.30821195 19.140625 0.390625 C17.640625 3.390625 17.640625 3.390625 16.140625 6.390625 C10.530625 6.390625 4.920625 6.390625 -0.859375 6.390625 C-0.859375 7.050625 -0.859375 7.710625 -0.859375 8.390625 C0.32140625 8.34421875 1.5021875 8.2978125 2.71875 8.25 C4.27601634 8.21247551 5.83331008 8.17607607 7.390625 8.140625 C8.16792969 8.10710938 8.94523437 8.07359375 9.74609375 8.0390625 C15.52101028 7.94034598 15.52101028 7.94034598 18.65625 10.21875 C20.68115723 13.181509 20.72678642 14.87365649 20.140625 18.390625 C17.98908515 21.20887501 16.8417191 22.27855599 13.29980469 22.84472656 C11.69733887 22.81330566 11.69733887 22.81330566 10.0625 22.78125 C8.90234375 22.76835938 7.7421875 22.75546875 6.546875 22.7421875 C5.3403125 22.70867188 4.13375 22.67515625 2.890625 22.640625 C1.05757812 22.61355469 1.05757812 22.61355469 -0.8125 22.5859375 C-3.82891578 22.538806 -6.84374991 22.47301913 -9.859375 22.390625 C-6.984375 17.515625 -6.984375 17.515625 -5.859375 16.390625 C-3.16282646 16.31742879 -0.49246042 16.29819963 2.203125 16.328125 C3.34104492 16.33489258 3.34104492 16.33489258 4.50195312 16.34179688 C6.38154371 16.3536182 8.26109399 16.37155422 10.140625 16.390625 C10.140625 15.730625 10.140625 15.070625 10.140625 14.390625 C9.03203125 14.43703125 7.9234375 14.4834375 6.78125 14.53125 C5.31773532 14.56877602 3.85419144 14.60517529 2.390625 14.640625 C1.66101563 14.67414062 0.93140625 14.70765625 0.1796875 14.7421875 C-3.39022349 14.80709497 -5.42779359 14.70820378 -8.34375 12.5625 C-10.40847009 9.6037774 -10.44841364 7.92485686 -9.859375 4.390625 C-6.8559991 0.48887859 -4.84380513 -0.09885317 0 0 Z " fill="#FFFFFF" transform="translate(178.859375,21.609375)"/>
<path d="M0 0 C4.28961852 0.44620145 5.96756839 2.02335273 9.1796875 4.84375 C10.14648438 5.6790625 11.11328125 6.514375 12.109375 7.375 C12.83382812 8.0246875 13.55828125 8.674375 14.3046875 9.34375 C14.6346875 6.37375 14.9646875 3.40375 15.3046875 0.34375 C17.9446875 0.34375 20.5846875 0.34375 23.3046875 0.34375 C23.33356564 3.82289941 23.35144437 7.30201831 23.3671875 10.78125 C23.37556641 11.77447266 23.38394531 12.76769531 23.39257812 13.79101562 C23.39741211 15.20737305 23.39741211 15.20737305 23.40234375 16.65234375 C23.41019897 17.96416626 23.41019897 17.96416626 23.41821289 19.30249023 C23.3046875 21.34375 23.3046875 21.34375 22.3046875 22.34375 C18.35233116 22.84781863 16.68356758 22.59303925 13.3125 20.375 C11.88550781 19.12203125 11.88550781 19.12203125 10.4296875 17.84375 C9.46289062 17.0084375 8.49609375 16.173125 7.5 15.3125 C6.77554687 14.6628125 6.05109375 14.013125 5.3046875 13.34375 C4.9746875 16.31375 4.6446875 19.28375 4.3046875 22.34375 C1.6646875 22.34375 -0.9753125 22.34375 -3.6953125 22.34375 C-3.72419064 18.86460059 -3.74206937 15.38548169 -3.7578125 11.90625 C-3.76619141 10.91302734 -3.77457031 9.91980469 -3.78320312 8.89648438 C-3.78642578 7.95224609 -3.78964844 7.00800781 -3.79296875 6.03515625 C-3.79820557 5.16060791 -3.80344238 4.28605957 -3.80883789 3.38500977 C-3.63442316 0.24892031 -3.15118356 0.40189008 0 0 Z " fill="#FFFFFF" transform="translate(24.6953125,21.65625)"/>
<path d="M0 0 C1.68996094 0.04060547 1.68996094 0.04060547 3.4140625 0.08203125 C6.19464237 0.15272396 8.97135359 0.2513496 11.75 0.375 C10.1875 3.375 10.1875 3.375 7.75 6.375 C5.44 6.375 3.13 6.375 0.75 6.375 C0.75 11.655 0.75 16.935 0.75 22.375 C-1.89 22.375 -4.53 22.375 -7.25 22.375 C-7.25 17.095 -7.25 11.815 -7.25 6.375 C-10.22 6.375 -13.19 6.375 -16.25 6.375 C-13.00442317 -1.45135932 -7.69413756 -0.34811063 0 0 Z " fill="#FFFFFF" transform="translate(122.25,21.625)"/>
<path d="M0 0 C2.31 0 4.62 0 7 0 C7.10845031 2.56364483 7.18749744 5.12266279 7.25 7.6875 C7.30027344 8.7693457 7.30027344 8.7693457 7.3515625 9.87304688 C7.42291404 13.77954343 7.27534719 15.56934334 5.109375 18.95703125 C2.22864613 21.7470705 0.75777627 22.12505476 -3.1328125 22.09765625 C-3.93847656 22.09443359 -4.74414062 22.09121094 -5.57421875 22.08789062 C-6.41597656 22.07951172 -7.25773438 22.07113281 -8.125 22.0625 C-8.97449219 22.05798828 -9.82398438 22.05347656 -10.69921875 22.04882812 C-12.79950909 22.03702874 -14.8997633 22.01909306 -17 22 C-17 20.02 -17 18.04 -17 16 C-15.39318359 15.81824219 -15.39318359 15.81824219 -13.75390625 15.6328125 C-12.35671248 15.46402399 -10.95958009 15.29472687 -9.5625 15.125 C-8.85544922 15.04636719 -8.14839844 14.96773437 -7.41992188 14.88671875 C-5.60326568 14.66072324 -3.79937478 14.33699273 -2 14 C-0.64908472 11.29816945 -0.66141942 8.88191794 -0.4375 5.875 C-0.35371094 4.77929688 -0.26992187 3.68359375 -0.18359375 2.5546875 C-0.09271484 1.29011719 -0.09271484 1.29011719 0 0 Z " fill="#FFFFFF" transform="translate(161,22)"/>
<path d="M0 0 C1.4540625 0.0309375 1.4540625 0.0309375 2.9375 0.0625 C3.31968767 1.71864657 3.65145102 3.38707024 3.9375 5.0625 C2.9375 6.0625 2.9375 6.0625 -0.125 6.125 C-1.094375 6.104375 -2.06375 6.08375 -3.0625 6.0625 C-3.44468767 4.40635343 -3.77645102 2.73792976 -4.0625 1.0625 C-3.0625 0.0625 -3.0625 0.0625 0 0 Z " fill="#FFFFFF" transform="translate(138.0625,37.9375)"/>
</svg>
