<?xml version="1.0" encoding="UTF-8"?>
<svg version="1.1" xmlns="http://www.w3.org/2000/svg" width="542" height="147">
<path d="M0 0 C0.78526062 -0.0066568 1.57052124 -0.0133136 2.37957764 -0.02017212 C4.03346434 -0.03024504 5.68739125 -0.03499081 7.34130859 -0.03466797 C9.83891755 -0.0390268 12.3347357 -0.07536136 14.83203125 -0.11328125 C26.72606573 -0.19815279 36.87647044 0.79912924 45.88671875 9.40234375 C51.79301413 16.03185897 53.94960957 21.87846298 53.8203125 30.68359375 C53.21224737 38.32944974 50.05239973 44.938366 44.609375 50.3359375 C36.93912449 55.96078787 29.82367579 58.64344353 20.28125 58.671875 C19.09767914 58.6818602 19.09767914 58.6818602 17.89019775 58.69204712 C16.22613846 58.70213295 14.56203905 58.7068654 12.89794922 58.70654297 C10.38048871 58.71090095 7.86480548 58.74721918 5.34765625 58.78515625 C-7.13628002 58.87319071 -16.9236388 57.14930105 -26.390625 48.3359375 C-32.33233554 41.77435385 -33.83163728 34.76984237 -33.640625 26.04296875 C-33.02493561 19.37620706 -30.10248593 13.11495085 -25.390625 8.3359375 C-17.47597026 2.4906492 -9.76226787 0.02941324 0 0 Z M-12.390625 21.3359375 C-15.22334771 25.58502156 -15.15869039 29.34739155 -14.390625 34.3359375 C-12.45480512 38.12274054 -9.46587723 41.01747354 -5.390625 42.3359375 C4.73168116 44.06537674 20.37166119 45.98103741 29.44140625 40.16015625 C32.30384138 37.88763749 34.394581 36.09654402 34.84765625 32.3828125 C35.02646299 26.8492145 34.47725179 23.61095921 30.609375 19.3359375 C20.1306004 12.72975351 -3.20440644 12.14971894 -12.390625 21.3359375 Z " fill="#FFFFFF" transform="translate(378.390625,37.6640625)"/>
<path d="M0 0 C5.31055197 1.24729103 8.82610962 4.98899304 12.7109375 8.63671875 C14.35560572 10.11718079 16.0014421 11.5963461 17.6484375 13.07421875 C18.46570313 13.81929687 19.28296875 14.564375 20.125 15.33203125 C26.11759622 20.67286474 32.4446235 25.62366755 38.7109375 30.63671875 C38.7109375 20.73671875 38.7109375 10.83671875 38.7109375 0.63671875 C44.9809375 0.63671875 51.2509375 0.63671875 57.7109375 0.63671875 C57.78511011 8.0931582 57.83955114 15.54938274 57.87573242 23.00610352 C57.89081613 25.5425999 57.91128581 28.07907023 57.93725586 30.61547852 C57.97365631 34.26194697 57.99066832 37.90807048 58.00390625 41.5546875 C58.01939011 42.68819138 58.03487396 43.82169525 58.05082703 44.98954773 C58.05105362 46.05026993 58.05128021 47.11099213 58.05151367 48.20385742 C58.06150642 49.5995118 58.06150642 49.5995118 58.07170105 51.02336121 C57.63495484 54.18713427 56.588046 56.07320822 54.7109375 58.63671875 C50.66882078 59.94274563 46.46386409 59.37648594 42.58203125 57.73828125 C36.00826847 53.6218833 30.26708876 48.03143548 24.4609375 42.9140625 C20.29043425 39.24671166 16.00672814 35.7371513 11.6875 32.24609375 C9.7109375 30.63671875 9.7109375 30.63671875 8.7109375 29.63671875 C8.3809375 39.20671875 8.0509375 48.77671875 7.7109375 58.63671875 C1.4409375 58.63671875 -4.8290625 58.63671875 -11.2890625 58.63671875 C-11.38786806 51.01956988 -11.46050282 43.40279323 -11.50878906 35.78515625 C-11.52891625 33.19329329 -11.55622066 30.60147579 -11.59082031 28.00976562 C-11.63928751 24.28634426 -11.66202066 20.56352276 -11.6796875 16.83984375 C-11.70033264 15.67930481 -11.72097778 14.51876587 -11.74224854 13.32305908 C-11.74255066 12.2422406 -11.74285278 11.16142212 -11.74316406 10.04785156 C-11.75648773 8.62221893 -11.75648773 8.62221893 -11.77008057 7.16778564 C-10.54852177 0.74007065 -5.70895577 -0.24275618 0 0 Z " fill="#FFFFFF" transform="translate(449.2890625,37.36328125)"/>
<path d="M0 0 C6.27 0 12.54 0 19 0 C19 7.26 19 14.52 19 22 C29.89 22 40.78 22 52 22 C52 14.74 52 7.48 52 0 C57.94 0 63.88 0 70 0 C70 19.14 70 38.28 70 58 C64.06 58 58.12 58 52 58 C52 51.07 52 44.14 52 37 C41.11 37 30.22 37 19 37 C19 43.93 19 50.86 19 58 C12.73 58 6.46 58 0 58 C0 38.86 0 19.72 0 0 Z " fill="#FFFFFF" transform="translate(269,38)"/>
<path d="M0 0 C0.89182983 -0.01283524 1.78365967 -0.02567047 2.70251465 -0.03889465 C3.67531372 -0.04628159 4.64811279 -0.05366852 5.65039062 -0.0612793 C6.64864868 -0.06935104 7.64690674 -0.07742279 8.67541504 -0.08573914 C10.79726412 -0.09960507 12.91913575 -0.11031593 15.04101562 -0.11816406 C18.26541608 -0.13527923 21.4887652 -0.17913112 24.71289062 -0.22338867 C26.77538309 -0.23352389 28.83788428 -0.24203739 30.90039062 -0.2487793 C32.33529846 -0.27504143 32.33529846 -0.27504143 33.79919434 -0.30183411 C42.68931828 -0.2734728 49.81113046 2.4693069 56.36523438 8.55200195 C60.34805972 13.04212484 61.38791803 18.09195554 61.15039062 23.91137695 C60.17490727 30.34069907 56.79547414 34.69159874 51.97851562 38.8527832 C45.56971913 42.7603048 39.82494373 43.6097969 32.49414062 43.4699707 C31.63981445 43.46572586 30.78548828 43.46148102 29.90527344 43.45710754 C27.2053938 43.44045899 24.50629052 43.40283419 21.80664062 43.36450195 C19.96420357 43.34943719 18.12175469 43.33575194 16.27929688 43.32348633 C11.78811724 43.29060101 7.29751006 43.23891651 2.80664062 43.17700195 C2.80664062 48.12700195 2.80664062 53.07700195 2.80664062 58.17700195 C-3.13335937 58.17700195 -9.07335938 58.17700195 -15.19335938 58.17700195 C-15.19335938 48.27700195 -15.19335938 38.37700195 -15.19335938 28.17700195 C-11.72578125 28.12801758 -8.25820313 28.0790332 -4.68554688 28.02856445 C-1.31961833 27.97452325 2.04624023 27.91722801 5.41210938 27.85961914 C7.74766811 27.82138441 10.08328462 27.786522 12.41894531 27.75512695 C15.78015768 27.70935725 19.14097417 27.65138159 22.50195312 27.59106445 C24.06322433 27.57373764 24.06322433 27.57373764 25.65603638 27.55606079 C33.81247545 27.69803036 33.81247545 27.69803036 40.80664062 24.17700195 C41.05671793 21.71890197 41.05671793 21.71890197 40.80664062 19.17700195 C37.45617261 15.82653394 33.29842112 16.05411426 28.7409668 15.97167969 C27.76032761 15.95173447 26.77968842 15.93178925 25.76933289 15.91123962 C24.72332413 15.89452713 23.67731537 15.87781464 22.59960938 15.8605957 C21.51907791 15.83981461 20.43854645 15.81903351 19.32527161 15.79762268 C15.88162451 15.73236159 12.43790268 15.6733512 8.99414062 15.61450195 C6.65624234 15.57129445 4.31835156 15.52767944 1.98046875 15.48364258 C-3.74406216 15.37670424 -9.46866702 15.27489468 -15.19335938 15.17700195 C-13.53976713 11.71990766 -11.55522141 8.9682553 -9.13085938 5.98950195 C-8.41800781 5.10907227 -7.70515625 4.22864258 -6.97070312 3.3215332 C-4.40506578 0.2258521 -3.99350521 0.04990095 0 0 Z " fill="#FFFFFF" transform="translate(48.193359375,37.822998046875)"/>
<path d="M0 0 C3.85337428 -0.20460792 7.70534211 -0.32806124 11.5625 -0.4375 C13.19155273 -0.52547852 13.19155273 -0.52547852 14.85351562 -0.61523438 C22.80129038 -0.78433597 22.80129038 -0.78433597 26.21411133 1.44873047 C27.98537507 3.20848182 29.50356373 5.0041176 31 7 C31.66128906 7.721875 32.32257813 8.44375 33.00390625 9.1875 C33.51824219 9.785625 34.03257812 10.38375 34.5625 11 C35.13226563 11.66 35.70203125 12.32 36.2890625 13 C36.85367188 13.66 37.41828125 14.32 38 15 C38.87785156 16.0209375 38.87785156 16.0209375 39.7734375 17.0625 C41.18500084 18.70601037 42.59290162 20.35266531 44 22 C45.48298717 20.39936457 46.96111163 18.79422403 48.4375 17.1875 C48.90140137 16.69918701 49.36530273 16.21087402 49.84326172 15.70776367 C52.22720442 13.15365594 54.07030514 10.87745529 55.82421875 7.8203125 C57.98741724 4.20716101 59.41465502 2.27805313 63 0 C70.89799383 -1.36352025 79.05511385 -0.67313587 87 0 C84.26695118 4.31299312 81.33555021 7.96109913 77.8125 11.6875 C73.3870831 16.42066906 69.21388067 21.28158889 65.2109375 26.3828125 C63 29 63 29 60.4765625 31.2421875 C55.33813405 35.92674846 53.57193373 39.40727064 53.02319336 46.23681641 C52.90690513 50.15616045 52.97238752 54.07902841 53 58 C47.06 58 41.12 58 35 58 C35.0825 55.133125 35.165 52.26625 35.25 49.3125 C35.11517921 41.81389608 33.73562039 37.13995524 28.375 31.8125 C26.76028911 30.27009668 25.12375158 28.76807135 23.44482422 27.29589844 C21.60278688 25.64372976 20.02178709 23.83554566 18.4375 21.9375 C16.42488898 19.60267293 14.37380504 17.31430545 12.2734375 15.05859375 C11.78560791 14.53338135 11.29777832 14.00816895 10.79516602 13.46704102 C9.83571835 12.43681572 8.87287669 11.40973644 7.90600586 10.38647461 C4.85536021 7.10720915 2.38677524 3.76741572 0 0 Z " fill="#FFFFFF" transform="translate(109,38)"/>
<path d="M0 0 C1.33660484 0.01493806 2.67325375 0.02631771 4.00991821 0.03430176 C7.51278568 0.06471708 11.01296055 0.1431739 14.51477051 0.23193359 C18.09411187 0.31406308 21.67389241 0.35037009 25.25390625 0.390625 C32.26672488 0.47618942 39.27776414 0.61255883 46.2890625 0.78125 C45.98613281 1.38356445 45.68320312 1.98587891 45.37109375 2.60644531 C44.551733 4.25330126 43.75799199 5.91293597 42.9765625 7.578125 C41.2890625 10.53125 41.2890625 10.53125 36.2890625 15.78125 C30.3490625 15.78125 24.4090625 15.78125 18.2890625 15.78125 C18.2890625 29.97125 18.2890625 44.16125 18.2890625 58.78125 C12.0190625 58.78125 5.7490625 58.78125 -0.7109375 58.78125 C-0.7109375 44.59125 -0.7109375 30.40125 -0.7109375 15.78125 C-8.3009375 15.78125 -15.8909375 15.78125 -23.7109375 15.78125 C-22.3909375 13.47125 -21.0709375 11.16125 -19.7109375 8.78125 C-19.30797455 7.98722778 -18.9050116 7.19320557 -18.48983765 6.37512207 C-14.07546394 -1.09240321 -7.9818309 -0.25718501 0 0 Z " fill="#FFFFFF" transform="translate(218.7109375,37.21875)"/>
</svg>
