<?xml version="1.0" encoding="UTF-8"?>
<svg version="1.1" xmlns="http://www.w3.org/2000/svg" width="478" height="126">
<path d="M0 0 C2.34845837 0.02148055 4.6938697 0.00010046 7.04223633 -0.02539062 C18.57216568 -0.0478551 26.52256529 1.73281629 35.1262207 9.72070312 C39.80712214 14.79810445 41.12242829 20.57942266 40.99731445 27.31054688 C40.29657091 34.6553773 37.36819018 40.68551688 31.78637695 45.52148438 C24.93822616 50.11069654 19.48022643 51.67252991 11.2746582 51.75976562 C10.18316719 51.77187325 10.18316719 51.77187325 9.06962585 51.78422546 C7.53065343 51.79802925 5.99165086 51.80876791 4.45263672 51.81665039 C2.8923229 51.82814114 1.33204749 51.84854697 -0.22802734 51.87817383 C-12.38054158 52.10868141 -21.34176897 51.08299772 -30.4831543 42.41601562 C-36.19610438 36.16143145 -36.87014502 30.24743828 -36.5925293 21.86523438 C-35.88089926 15.58528269 -33.6217421 11.60098815 -29.08862305 7.27148438 C-20.09083081 0.50526297 -10.89999918 -0.11863945 0 0 Z M-18.21362305 19.52148438 C-20.04910577 22.60843258 -20.21569306 24.40556381 -20.15112305 28.02148438 C-18.98763299 32.3651806 -17.84463305 33.87387291 -14.21362305 36.52148438 C-4.8961296 40.39368945 8.4418059 39.98243662 17.78637695 36.52148438 C21.40915274 34.06532446 21.40915274 34.06532446 23.78637695 30.52148438 C24.13355687 25.22699065 24.31059413 21.77484993 20.78637695 17.52148438 C11.24707076 10.30254996 -9.72266766 10.78079501 -18.21362305 19.52148438 Z " fill="#FFFFFF" transform="translate(340.213623046875,31.478515625)"/>
<path d="M0 0 C7.05108025 0.10970563 10.58164438 3.98095348 15.5625 8.5625 C17.3358658 10.09364748 19.1222841 11.60869826 20.90917969 13.12402344 C22.66923108 14.61889998 24.42033631 16.12344768 26.16796875 17.6328125 C29.62599127 20.61729684 33.09434528 23.58979595 36.5625 26.5625 C36.8925 17.9825 37.2225 9.4025 37.5625 0.5625 C42.8425 0.5625 48.1225 0.5625 53.5625 0.5625 C53.61182895 7.50422114 53.64818574 14.44584092 53.67236328 21.38769531 C53.68243924 23.75066911 53.69610029 26.11363039 53.71337891 28.4765625 C53.73755724 31.86721888 53.74896699 35.25771084 53.7578125 38.6484375 C53.76813507 39.70993011 53.77845764 40.77142273 53.78909302 41.86508179 C53.78931961 43.33638046 53.78931961 43.33638046 53.78955078 44.83740234 C53.793992 45.70344086 53.79843323 46.56947937 53.80300903 47.46176147 C53.5625 49.5625 53.5625 49.5625 51.5625 51.5625 C49.609375 51.8984375 49.609375 51.8984375 47.3125 51.9375 C46.56484375 51.96585938 45.8171875 51.99421875 45.046875 52.0234375 C39.22447719 50.9431813 34.74012927 46.15290114 30.375 42.375 C29.23888156 41.40294376 28.10215177 40.43160166 26.96484375 39.4609375 C26.39878418 38.9772168 25.83272461 38.49349609 25.24951172 37.99511719 C17.64014179 31.47103742 17.64014179 31.47103742 9.5625 25.5625 C9.5625 34.1425 9.5625 42.7225 9.5625 51.5625 C3.9525 51.5625 -1.6575 51.5625 -7.4375 51.5625 C-7.48698638 45.24537292 -7.52326074 38.92835902 -7.54736328 32.61108398 C-7.55741265 30.46262649 -7.57105433 28.31418263 -7.58837891 26.16577148 C-7.61267376 23.07532378 -7.62399386 19.98505713 -7.6328125 16.89453125 C-7.64313507 15.93601761 -7.65345764 14.97750397 -7.66409302 13.98994446 C-7.66549559 5.62851427 -7.66549559 5.62851427 -5.4375 1.5625 C-3.83992802 -0.03507198 -2.21399374 0.16233651 0 0 Z " fill="#FFFFFF" transform="translate(393.4375,31.4375)"/>
<path d="M0 0 C5.28 0 10.56 0 16 0 C16 6.27 16 12.54 16 19 C25.57 19 35.14 19 45 19 C45 12.73 45 6.46 45 0 C50.61 0 56.22 0 62 0 C62 16.83 62 33.66 62 51 C56.39 51 50.78 51 45 51 C45 44.73 45 38.46 45 32 C35.43 32 25.86 32 16 32 C16 38.27 16 44.54 16 51 C10.72 51 5.44 51 0 51 C0 34.17 0 17.34 0 0 Z " fill="#FFFFFF" transform="translate(237,32)"/>
<path d="M0 0 C0.90285736 -0.00478363 1.80571472 -0.00956726 2.7359314 -0.01449585 C4.64737691 -0.0178963 6.55888047 -0.00868363 8.47021484 0.01220703 C11.36821724 0.03878534 14.26228026 0.01256313 17.16015625 -0.01953125 C36.675083 -0.05646995 36.675083 -0.05646995 44.42456055 7.21289062 C48.65982136 11.94266814 49.07268984 16.08800129 48.984375 22.1640625 C48.55899925 27.20555292 46.5692258 29.8863603 43.0234375 33.3515625 C36.77101076 37.8004046 31.93778811 39.11632023 24.43359375 38.95703125 C23.66663681 38.95278641 22.89967987 38.94854156 22.10948181 38.94416809 C19.68459418 38.9275132 17.26056952 38.88988803 14.8359375 38.8515625 C13.18165272 38.83649851 11.52735477 38.82281312 9.87304688 38.81054688 C5.83951647 38.77765327 1.80662277 38.72596499 -2.2265625 38.6640625 C-2.2265625 42.9540625 -2.2265625 47.2440625 -2.2265625 51.6640625 C-7.8365625 51.6640625 -13.4465625 51.6640625 -19.2265625 51.6640625 C-19.2265625 43.0840625 -19.2265625 34.5040625 -19.2265625 25.6640625 C-14.56660156 25.59058594 -14.56660156 25.59058594 -9.8125 25.515625 C-6.7940603 25.46157035 -3.77569808 25.40428044 -0.75732422 25.34667969 C1.3357157 25.30846544 3.4288196 25.27359952 5.52197266 25.2421875 C8.53571391 25.19637291 11.54901758 25.13840531 14.5625 25.078125 C15.95971786 25.06079819 15.95971786 25.06079819 17.38516235 25.04312134 C22.1864829 24.93476802 26.31786151 24.67368586 30.7734375 22.6640625 C32.01245461 20.79313569 32.01245461 20.79313569 31.7734375 18.6640625 C29.8276228 15.8989574 27.99379326 15.30411195 24.7734375 14.6640625 C23.27819112 14.55410045 21.77925451 14.48889215 20.28027344 14.45874023 C18.95935699 14.4288224 18.95935699 14.4288224 17.61175537 14.39830017 C16.66995422 14.38158768 15.72815308 14.36487518 14.7578125 14.34765625 C13.78684631 14.32687515 12.81588013 14.30609406 11.81549072 14.28468323 C8.71821065 14.21937388 5.62084682 14.16038927 2.5234375 14.1015625 C0.42186639 14.05835958 -1.6796963 14.01474472 -3.78125 13.97070312 C-8.92960198 13.86371152 -14.07803808 13.7623916 -19.2265625 13.6640625 C-17.75889262 11.69249263 -16.28556515 9.7269064 -14.79208374 7.77474976 C-13.11030614 5.57486471 -13.11030614 5.57486471 -11.42822266 2.70556641 C-7.97875754 -0.49297288 -4.54582725 -0.05308633 0 0 Z " fill="#FFFFFF" transform="translate(46.2265625,31.3359375)"/>
<path d="M0 0 C18.4120527 -1.90041036 18.4120527 -1.90041036 24.04101562 1.08105469 C27.79381649 4.1391329 30.34226566 7.97668945 33 12 C34.62360812 14.04055023 36.30573829 16.01690985 38 18 C41.12920633 16.63550816 43.00091574 15.15745968 45.19921875 12.55859375 C45.76833984 11.89279297 46.33746094 11.22699219 46.92382812 10.54101562 C47.50583984 9.84685547 48.08785156 9.15269531 48.6875 8.4375 C49.85798919 7.06112671 51.0285579 5.68482104 52.19921875 4.30859375 C52.97011841 3.39291626 52.97011841 3.39291626 53.7565918 2.45874023 C55 1 55 1 56 0 C57.56172745 -0.08685603 59.12729344 -0.10702219 60.69140625 -0.09765625 C61.63564453 -0.09443359 62.57988281 -0.09121094 63.55273438 -0.08789062 C64.54595703 -0.07951172 65.53917969 -0.07113281 66.5625 -0.0625 C67.55958984 -0.05798828 68.55667969 -0.05347656 69.58398438 -0.04882812 C72.05604849 -0.03700007 74.52799518 -0.02051849 77 0 C74.681614 4.27403134 71.71261515 7.63660639 68.375 11.125 C63.68525756 16.104602 59.28102077 21.19585813 55.03515625 26.5625 C53 29 53 29 50.296875 31.26171875 C47.12639284 35.04149425 47.22365951 38.01935601 47.1875 42.8125 C47.16236328 43.60076172 47.13722656 44.38902344 47.11132812 45.20117188 C47.05277019 47.13358373 47.02344512 49.06684327 47 51 C41.72 51 36.44 51 31 51 C31.165 48.545625 31.33 46.09125 31.5 43.5625 C31.46260092 35.23876663 28.12870089 30.70089378 22.375 24.9375 C20.28878779 22.91882531 18.17969561 20.93118426 16.04614258 18.96264648 C12.79517276 15.84433765 9.91272166 12.43090424 7 9 C6.26910156 8.17628906 5.53820312 7.35257813 4.78515625 6.50390625 C4.21667969 5.86324219 3.64820312 5.22257812 3.0625 4.5625 C2.47597656 3.90378906 1.88945313 3.24507812 1.28515625 2.56640625 C0 1 0 1 0 0 Z " fill="#FFFFFF" transform="translate(95,32)"/>
<path d="M0 0 C1.75185104 0.01697937 1.75185104 0.01697937 3.53909302 0.03430176 C7.25952031 0.07899008 10.97605558 0.17935255 14.6953125 0.28125 C17.22129841 0.32138612 19.74734488 0.35788663 22.2734375 0.390625 C28.45705104 0.47870107 34.63840375 0.61246721 40.8203125 0.78125 C40.51432129 1.39258789 40.20833008 2.00392578 39.89306641 2.63378906 C39.14357647 4.13413351 38.39830684 5.63659033 37.65625 7.140625 C36.1953125 9.53125 36.1953125 9.53125 31.8203125 13.78125 C26.5403125 13.78125 21.2603125 13.78125 15.8203125 13.78125 C15.8203125 26.32125 15.8203125 38.86125 15.8203125 51.78125 C10.5403125 51.78125 5.2603125 51.78125 -0.1796875 51.78125 C-0.1796875 39.24125 -0.1796875 26.70125 -0.1796875 13.78125 C-7.1096875 13.78125 -14.0396875 13.78125 -21.1796875 13.78125 C-20.1896875 12.13125 -19.1996875 10.48125 -18.1796875 8.78125 C-17.79118622 8.05168091 -17.40268494 7.32211182 -17.00241089 6.57043457 C-12.66703641 -0.55522747 -7.84334536 -0.2870174 0 0 Z " fill="#FFFFFF" transform="translate(192.1796875,31.21875)"/>
</svg>
