<?xml version="1.0" standalone="no"?>
<!DOCTYPE svg PUBLIC "-//W3C//DTD SVG 20010904//EN"
 "http://www.w3.org/TR/2001/REC-SVG-20010904/DTD/svg10.dtd">
<svg version="1.0" xmlns="http://www.w3.org/2000/svg"
 width="203.000000pt" height="84.000000pt" viewBox="0 0 203.000000 84.000000"
 preserveAspectRatio="xMidYMid meet">

<g transform="translate(0.000000,84.000000) scale(0.100000,-0.100000)"
fill="#000000" stroke="none">
<path d="M1038 802 c-17 -3 -18 -23 -18 -253 0 -242 1 -249 20 -249 19 0 20 7
20 124 l0 124 46 23 c36 17 53 20 73 13 41 -15 51 -48 51 -171 l0 -113 25 0
25 0 0 113 c0 124 -14 171 -60 195 -25 12 -69 9 -114 -7 -11 -5 -25 -10 -31
-12 -6 -3 -12 39 -15 106 -4 98 -7 110 -22 107z"/>
<path d="M853 713 c-8 -3 -13 -23 -13 -50 0 -36 -4 -46 -20 -50 -11 -3 -20 -9
-20 -14 0 -5 9 -9 20 -9 19 0 20 -7 20 -129 0 -128 0 -130 26 -150 28 -22 74
-29 74 -11 0 6 -4 10 -10 10 -5 0 -19 9 -30 20 -18 18 -20 33 -20 140 l0 120
30 0 c18 0 30 5 30 13 0 7 -12 13 -27 12 -27 0 -28 3 -31 53 -3 52 -5 55 -29
45z"/>
<path d="M1792 619 c-23 -5 -56 -16 -72 -26 l-30 -17 0 -138 c0 -131 1 -138
20 -138 19 0 20 7 20 136 l0 135 36 15 c42 18 84 11 110 -17 15 -17 19 -42 22
-145 4 -113 6 -124 23 -124 18 0 19 10 19 134 0 113 -3 137 -17 154 -24 27
-78 40 -131 31z"/>
<path d="M163 599 l-43 -21 0 -218 c0 -189 2 -219 16 -224 9 -3 18 -6 20 -6 2
0 4 40 4 88 0 49 3 91 6 94 3 3 19 -1 36 -9 38 -19 111 -12 140 13 46 42 64
157 34 228 -32 76 -124 99 -213 55z m161 -60 c34 -84 10 -194 -47 -213 -20 -7
-40 -6 -70 4 l-42 15 -3 111 -3 111 28 11 c74 29 115 17 137 -39z"/>
<path d="M478 613 c-16 -4 -18 -19 -18 -123 0 -133 8 -160 55 -186 32 -17 70
-16 149 2 l29 7 -7 -49 c-8 -57 -49 -101 -100 -106 -36 -3 -38 -22 -2 -26 35
-5 111 35 127 66 13 27 27 377 15 407 -3 8 -13 11 -25 8 -20 -5 -21 -12 -21
-138 l0 -133 -31 -11 c-48 -16 -83 -13 -113 10 -26 20 -26 22 -26 150 0 71 -3
128 -7 128 -5 -1 -16 -3 -25 -6z"/>
<path d="M1408 605 c-44 -25 -68 -74 -68 -144 0 -99 44 -159 123 -168 86 -10
149 48 163 149 8 60 -22 130 -68 158 -39 24 -110 26 -150 5z m131 -39 c59 -63
41 -225 -27 -243 -84 -21 -129 35 -124 154 1 46 23 98 44 106 35 14 85 6 107
-17z"/>
</g>
</svg>
