<?xml version="1.0" encoding="UTF-8"?>
<svg version="1.1" xmlns="http://www.w3.org/2000/svg" width="478" height="126">
<path d="M0 0 C157.74 0 315.48 0 478 0 C478 41.58 478 83.16 478 126 C320.26 126 162.52 126 0 126 C0 84.42 0 42.84 0 0 Z " fill="#000000" transform="translate(0,0)"/>
<path d="M0 0 C2.05851603 0.02906198 4.11446014 0.02054964 6.1730957 0.00756836 C16.82101456 0.02442421 26.05970285 1.59305323 34.49536133 8.46655273 C39.97278311 14.637147 40.91576551 19.9987243 40.83520508 28.03686523 C40.17042252 34.74582022 37.22069961 40.13585874 32.43286133 44.84155273 C23.37394404 51.50923197 12.73196116 52.10232273 1.87036133 51.96655273 C0.62512695 51.98202148 -0.62010742 51.99749023 -1.90307617 52.01342773 C-12.70109369 51.96786648 -20.86024515 49.80863453 -28.81323242 42.33764648 C-34.16175209 36.4209238 -35.93780251 30.23377751 -35.84448242 22.38452148 C-35.11782492 16.14528985 -31.80523639 11.40817379 -27.31713867 7.15405273 C-18.86866382 0.81473762 -10.32516111 -0.15896238 0 0 Z " fill="#FBFBFB" transform="translate(339.504638671875,31.533447265625)"/>
<path d="M0 0 C3.65003899 2.29841454 6.77921454 5.14242812 10 8 C11.74761361 9.50925626 13.50110954 11.01145854 15.25561523 12.51269531 C16.42028256 13.51165602 17.58153258 14.51462161 18.73852539 15.52246094 C23.37556699 19.54524859 28.13051883 23.21262575 33 27 C33 18.09 33 9.18 33 0 C38.28 0 43.56 0 49 0 C49.09885488 6.62023555 49.17146298 13.24004179 49.21972656 19.86083984 C49.23984556 22.11319461 49.26714408 24.36549713 49.30175781 26.61767578 C49.35026209 29.85462331 49.37296605 33.09088047 49.390625 36.328125 C49.41127014 37.33554749 49.43191528 38.34296997 49.45318604 39.38092041 C49.45542413 46.34929078 49.45542413 46.34929078 47.15527344 49.63574219 C44.15467558 51.53507849 42.49867848 51.55978856 39 51 C34.59962817 48.32550419 30.69644045 45.17394525 26.8125 41.8125 C25.67638156 40.84044376 24.53965177 39.86910166 23.40234375 38.8984375 C22.83628418 38.4147168 22.27022461 37.93099609 21.68701172 37.43261719 C14.07764179 30.90853742 14.07764179 30.90853742 6 25 C5.67 33.58 5.34 42.16 5 51 C-0.28 51 -5.56 51 -11 51 C-11.09885488 44.37976445 -11.17146298 37.75995821 -11.21972656 31.13916016 C-11.23984556 28.88680539 -11.26714408 26.63450287 -11.30175781 24.38232422 C-11.35026209 21.14537669 -11.37296605 17.90911953 -11.390625 14.671875 C-11.41127014 13.66445251 -11.43191528 12.65703003 -11.45318604 11.61907959 C-11.45542359 4.65237666 -11.45542359 4.65237666 -9.17089844 1.37988281 C-5.71638366 -0.81590188 -4.0490144 -0.78368021 0 0 Z " fill="#FBFBFB" transform="translate(398,32)"/>
<path d="M0 0 C5.28 0 10.56 0 16 0 C16 6.27 16 12.54 16 19 C25.9 19 35.8 19 46 19 C46 12.73 46 6.46 46 0 C50.95 0 55.9 0 61 0 C61 16.83 61 33.66 61 51 C56.05 51 51.1 51 46 51 C46 44.73 46 38.46 46 32 C36.1 32 26.2 32 16 32 C16 38.27 16 44.54 16 51 C10.72 51 5.44 51 0 51 C0 34.17 0 17.34 0 0 Z " fill="#FDFDFD" transform="translate(237,32)"/>
<path d="M0 0 C0.83626923 -0.00241196 1.67253845 -0.00482391 2.53414917 -0.00730896 C4.30438981 -0.00633031 6.07466098 0.00706777 7.84472656 0.03198242 C10.52517667 0.06603138 13.2022786 0.05270959 15.8828125 0.03320312 C25.8296309 0.04023284 34.86854806 0.05172829 42.90234375 6.6640625 C43.42699219 7.33308594 43.95164063 8.00210938 44.4921875 8.69140625 C45.04003906 9.36300781 45.58789062 10.03460938 46.15234375 10.7265625 C48.75973513 14.60974171 48.80334962 18.0702284 48.4296875 22.62890625 C46.07467018 29.72087271 41.93038712 33.81759899 35.2890625 37.25390625 C28.40138304 39.75096689 20.65476117 38.93848773 13.4296875 38.81640625 C11.87631502 38.80133598 10.32292844 38.78765171 8.76953125 38.77539062 C4.98923135 38.74256122 1.20961687 38.69090879 -2.5703125 38.62890625 C-2.5703125 42.91890625 -2.5703125 47.20890625 -2.5703125 51.62890625 C-7.8503125 51.62890625 -13.1303125 51.62890625 -18.5703125 51.62890625 C-18.5703125 43.04890625 -18.5703125 34.46890625 -18.5703125 25.62890625 C-15.28449219 25.56832031 -11.99867187 25.50773437 -8.61328125 25.4453125 C-5.43609294 25.38353028 -2.25894053 25.32013959 0.91821289 25.2565918 C3.12879248 25.21324073 5.33940559 25.17156579 7.55004883 25.1315918 C10.72487499 25.07389359 13.89953236 25.01019763 17.07421875 24.9453125 C18.06492874 24.92860001 19.05563873 24.91188751 20.07637024 24.89466858 C21.45746223 24.86475075 21.45746223 24.86475075 22.86645508 24.83422852 C23.6769783 24.81868423 24.48750153 24.80313995 25.32258606 24.78712463 C27.62115433 24.70080904 27.62115433 24.70080904 30.4296875 23.62890625 C30.7596875 21.31890625 31.0896875 19.00890625 31.4296875 16.62890625 C28.41999674 14.90160687 26.21058275 14.36705287 22.75292969 14.31005859 C21.83227722 14.2901889 20.91162476 14.27031921 19.96307373 14.24984741 C18.97752502 14.2382962 17.99197632 14.226745 16.9765625 14.21484375 C15.45352509 14.18579453 15.45352509 14.18579453 13.89971924 14.15615845 C10.65979385 14.09642526 7.41983282 14.05000197 4.1796875 14.00390625 C1.98175542 13.96572074 -0.21616178 13.92666867 -2.4140625 13.88671875 C-7.79934706 13.7907289 -13.18472133 13.70566302 -18.5703125 13.62890625 C-17.10300364 11.65782134 -15.63013154 9.69245391 -14.13839722 7.73973083 C-12.45516148 5.53484459 -12.45516148 5.53484459 -10.73095703 2.66821289 C-7.5026092 -0.37883676 -4.20957823 -0.06967187 0 0 Z " fill="#FCFCFC" transform="translate(46.5703125,31.37109375)"/>
<path d="M0 0 C16.66051436 -1.92616619 16.66051436 -1.92616619 22.04443359 1.17919922 C25.50611634 4.10524711 28.20338388 7.57929493 30.78466797 11.28613281 C32.70197679 13.98993111 34.85483586 16.47492307 37 19 C40.11176271 17.63931602 41.99852071 16.16837135 44.19921875 13.59375 C44.76833984 12.93246094 45.33746094 12.27117188 45.92382812 11.58984375 C46.50583984 10.90019531 47.08785156 10.21054687 47.6875 9.5 C48.28111328 8.81035156 48.87472656 8.12070312 49.48632812 7.41015625 C52.56094731 3.9213574 52.56094731 3.9213574 55 0 C61.6 0 68.2 0 75 0 C72.96934585 4.0613083 70.52815794 6.83446884 67.4375 10.0625 C62.72588676 15.06286893 58.29968039 20.17227295 54.03515625 25.5625 C52 28 52 28 49.296875 30.23046875 C46.05680322 34.13729 46.22255008 37.37822811 46.1875 42.3125 C46.16236328 43.14845703 46.13722656 43.98441406 46.11132812 44.84570312 C46.0527301 46.89663409 46.02343507 48.94836593 46 51 C40.72 51 35.44 51 30 51 C30.00902344 49.78183594 30.01804687 48.56367187 30.02734375 47.30859375 C30.19581391 38.61187879 30.19581391 38.61187879 27.62109375 30.52734375 C25.8405466 28.84239644 23.98384617 27.43699119 22 26 C20.9045179 24.82148625 19.84307358 23.61067544 18.8125 22.375 C16.59210301 19.79043767 14.32578096 17.26316265 11.99609375 14.77734375 C11.46201904 14.2064502 10.92794434 13.63555664 10.37768555 13.04736328 C9.3137801 11.91340316 8.24637092 10.7827175 7.17504883 9.65576172 C4.32967777 6.61767996 1.99859797 3.68919284 0 0 Z " fill="#FBFBFB" transform="translate(96,32)"/>
<path d="M0 0 C1.71643456 0.01910179 1.71643456 0.01910179 3.46754456 0.03858948 C7.10686054 0.08879905 10.74110922 0.20168035 14.37890625 0.31640625 C16.8521413 0.36156841 19.32545486 0.40262993 21.79882812 0.43945312 C27.84807035 0.53844962 33.89437635 0.68886071 39.94140625 0.87890625 C39.02580365 2.10886574 38.10886422 3.33783011 37.19140625 4.56640625 C36.42570312 5.59314453 36.42570312 5.59314453 35.64453125 6.640625 C33.78448801 9.08513137 31.86028522 11.48030754 29.94140625 13.87890625 C24.99140625 13.87890625 20.04140625 13.87890625 14.94140625 13.87890625 C14.94140625 26.41890625 14.94140625 38.95890625 14.94140625 51.87890625 C9.66140625 51.87890625 4.38140625 51.87890625 -1.05859375 51.87890625 C-1.05859375 39.33890625 -1.05859375 26.79890625 -1.05859375 13.87890625 C-7.65859375 13.87890625 -14.25859375 13.87890625 -21.05859375 13.87890625 C-15.75758353 3.27688581 -12.14457547 -0.51224074 0 0 Z " fill="#FBFBFB" transform="translate(193.05859375,31.12109375)"/>
<path d="M0 0 C0.99837891 -0.01998047 1.99675781 -0.03996094 3.02539062 -0.06054688 C9.36603912 -0.05637814 14.30369665 0.72805375 19.5625 4.4375 C22.07948153 7.3477599 22.5136702 9.05383731 23 12.875 C22.46742391 17.211691 21.45682673 19.17210574 18.5625 22.4375 C12.23444663 26.06707829 6.16962118 25.92093234 -1 25.875 C-2.11052734 25.89498047 -3.22105469 25.91496094 -4.36523438 25.93554688 C-12.14977758 25.93088826 -15.56724894 24.92072596 -21.3125 19.75 C-23.11844696 16.03777569 -23.07346946 12.47735146 -22.4375 8.4375 C-20.28345074 4.47404936 -17.76479515 2.76259934 -13.62475586 1.06152344 C-9.1650295 -0.21083515 -4.6036382 -0.03256593 0 0 Z " fill="#030303" transform="translate(342.4375,44.5625)"/>
</svg>
