<?xml version="1.0" standalone="no"?>
<!DOCTYPE svg PUBLIC "-//W3C//DTD SVG 20010904//EN"
 "http://www.w3.org/TR/2001/REC-SVG-20010904/DTD/svg10.dtd">
<svg version="1.0" xmlns="http://www.w3.org/2000/svg"
 width="474.000000pt" height="122.000000pt" viewBox="0 0 474.000000 122.000000"
 preserveAspectRatio="xMidYMid meet">

<g transform="translate(0.000000,122.000000) scale(0.100000,-0.100000)"
fill="#000000" stroke="none">
<path d="M322 859 l-50 -64 238 -5 c169 -4 243 -9 251 -17 7 -7 12 -27 12 -44
0 -57 -11 -59 -275 -59 l-238 0 0 -130 0 -130 75 0 75 0 0 64 0 63 168 6 c92
3 183 11 202 17 153 54 189 213 68 302 -57 43 -94 50 -289 55 l-186 6 -51 -64z"/>
<path d="M956 908 c4 -7 72 -83 151 -169 l143 -157 0 -86 0 -86 70 0 70 0 0
85 0 84 151 171 150 170 -93 0 -93 -1 -88 -104 c-48 -58 -91 -105 -95 -105 -4
0 -50 47 -102 105 l-94 105 -89 0 c-68 0 -86 -3 -81 -12z"/>
<path d="M1751 855 l-51 -65 105 0 105 0 0 -190 0 -190 70 0 70 0 0 190 0 189
77 3 77 3 49 63 49 62 -250 0 -250 0 -51 -65z"/>
<path d="M2360 665 l0 -255 70 0 70 0 0 95 0 95 155 0 155 0 0 -95 0 -95 75 0
75 0 0 255 0 255 -75 0 -75 0 0 -95 0 -95 -155 0 -155 0 0 95 0 95 -70 0 -70
0 0 -255z"/>
<path d="M3274 910 c-151 -21 -244 -114 -244 -242 1 -69 26 -123 82 -174 69
-64 125 -78 298 -78 134 0 149 2 200 25 116 54 164 121 164 229 0 74 -15 111
-70 164 -55 53 -125 75 -257 80 -62 3 -140 1 -173 -4z m322 -162 c28 -31 34
-45 34 -80 -1 -52 -17 -83 -56 -109 -25 -16 -47 -19 -170 -19 -130 0 -144 2
-175 23 -19 13 -40 39 -48 61 -20 53 0 111 49 144 33 22 42 23 183 20 l149 -3
34 -37z"/>
<path d="M4300 780 c0 -77 -4 -140 -9 -140 -5 0 -73 54 -151 121 -177 149
-180 151 -227 147 -59 -5 -63 -20 -63 -275 l0 -223 75 0 75 0 0 140 c0 77 4
140 8 140 4 0 70 -52 146 -115 76 -64 151 -124 166 -135 31 -22 90 -26 108 -8
9 9 12 78 12 250 l0 238 -70 0 -70 0 0 -140z"/>
</g>
</svg>
