<?xml version="1.0" encoding="UTF-8"?>
<svg version="1.1" xmlns="http://www.w3.org/2000/svg" width="474" height="264">
<path d="M0 0 C0.88014267 0.00404846 1.76028534 0.00809692 2.667099 0.01226807 C4.02918739 0.00939789 4.02918739 0.00939789 5.41879272 0.00646973 C7.34637223 0.00510647 9.27396087 0.0088127 11.20152283 0.01715088 C14.1271127 0.0277622 17.0520763 0.01730544 19.97764587 0.00445557 C21.85329826 0.00577883 23.72895025 0.00834466 25.604599 0.01226807 C26.47057205 0.0082196 27.3365451 0.00417114 28.22875977 0 C38.86269389 0.08040879 46.54885105 1.98975788 54.22569275 9.71539307 C59.31550956 15.74191674 61.12400061 23.26005931 62.03819275 30.96539307 C60.96147509 39.11768389 58.74646744 46.52544795 52.60069275 52.27789307 C43.52376967 58.27789307 43.52376967 58.27789307 39.60069275 58.27789307 C42.69878304 64.76262127 46.28735213 70.81538333 50.10069275 76.90289307 C50.66916931 77.81812744 51.23764587 78.73336182 51.823349 79.67633057 C54.15199972 83.41513868 56.47882936 87.13137299 59.00694275 90.73883057 C60.60069275 93.27789307 60.60069275 93.27789307 60.60069275 96.27789307 C56.68503051 98.23572419 51.9888781 97.6249394 47.85069275 96.59039307 C43.2035351 93.87955111 40.67583364 88.91844784 37.97569275 84.40289307 C34.83942053 79.22099525 31.58133483 74.13301127 28.22569275 69.09039307 C27.79691833 68.44280029 27.36814392 67.79520752 26.92637634 67.12799072 C25.27492136 64.65838373 23.70691797 62.38411829 21.60069275 60.27789307 C18.85583682 60.13281611 16.21588732 60.09136884 13.47569275 60.15289307 C12.72159119 60.1619165 11.96748962 60.17093994 11.1905365 60.18023682 C9.32712021 60.20382436 7.46386682 60.23969588 5.60069275 60.27789307 C5.61116638 61.25661377 5.62164001 62.23533447 5.63243103 63.24371338 C5.66868368 66.88153412 5.69161233 70.51933893 5.71055603 74.1572876 C5.72060162 75.73055712 5.73424055 77.30380803 5.75157166 78.87701416 C5.77588371 81.14089558 5.78719022 83.40452972 5.79600525 85.66851807 C5.80632782 86.36970764 5.81665039 87.07089722 5.82728577 87.79333496 C5.82812532 91.46352783 5.6218187 94.15878519 3.60069275 97.27789307 C-4.08351778 97.57343963 -4.08351778 97.57343963 -7.39930725 95.27789307 C-9.04286144 91.99078468 -8.54651883 88.34211658 -8.54457092 84.72906494 C-8.54792953 83.84441055 -8.55128815 82.95975616 -8.55474854 82.04829407 C-8.5642733 79.11439625 -8.5662023 76.18055539 -8.567276 73.24664307 C-8.57048711 71.21405005 -8.57385106 69.18145727 -8.57736206 67.14886475 C-8.58335686 62.88506535 -8.58520156 58.62128623 -8.58460999 54.35748291 C-8.58450825 48.88270574 -8.59817083 43.40805793 -8.61538219 37.93331146 C-8.62647644 33.73497922 -8.62853 29.53667853 -8.62800026 25.33833313 C-8.62918388 23.31923475 -8.63362685 21.30013565 -8.64133263 19.28105164 C-8.65108231 16.46284804 -8.64827466 13.64492894 -8.64222717 10.82672119 C-8.64784668 9.98613663 -8.65346619 9.14555206 -8.65925598 8.27949524 C-8.61902889 0.93754391 -7.26691145 0.05644273 0 0 Z M5.60069275 14.27789307 C5.57603771 18.67445479 5.55785433 23.07098027 5.54576111 27.46759033 C5.54072154 28.96434225 5.53388988 30.46108922 5.5252533 31.95782471 C5.51317116 34.10489114 5.50746084 36.25189269 5.5030365 38.39898682 C5.49779968 39.69248047 5.49256287 40.98597412 5.48716736 42.31866455 C5.26072343 45.16441711 5.26072343 45.16441711 6.60069275 46.27789307 C10.64207439 46.54476634 14.68723823 46.54922454 18.73667908 46.57305908 C20.76301682 46.59018035 22.78768305 46.63403279 24.81358337 46.67828369 C26.09813416 46.6866626 27.38268494 46.6950415 28.7061615 46.70367432 C29.88331726 46.71825684 31.06047302 46.73283936 32.27330017 46.74786377 C37.33603224 46.03278862 40.37810642 43.48621588 43.94444275 39.96148682 C47.08512756 34.87268855 46.27054894 29.04271604 45.60069275 23.27789307 C44.34334073 19.59324651 42.25026617 17.74883379 39.10069275 15.46539307 C34.92787794 13.48330603 31.420709 13.15020909 26.81163025 13.14508057 C25.70561462 13.1437915 24.599599 13.14250244 23.46006775 13.14117432 C22.310224 13.1450415 21.16038025 13.14890869 19.97569275 13.15289307 C18.81811462 13.14902588 17.6605365 13.14515869 16.46788025 13.14117432 C14.812724 13.14310791 14.812724 13.14310791 13.12413025 13.14508057 C12.11269958 13.1462085 11.10126892 13.14733643 10.05918884 13.14849854 C7.59552807 13.11398148 7.59552807 13.11398148 5.60069275 14.27789307 Z " fill="#73C8EA" transform="translate(73.39930725097656,78.72210693359375)"/>
<path d="M0 0 C8.95626679 5.3923544 13.62838778 12.71522761 17.25 22.3125 C18.24103563 27.18509185 18.55868795 32.04575242 18 37 C15.47695087 39.52304913 14.58668674 39.26719182 11.09130859 39.31884766 C10.07040131 39.33871735 9.04949402 39.35858704 7.99765015 39.37905884 C6.89240997 39.39061005 5.7871698 39.40216125 4.6484375 39.4140625 C3.5192691 39.43342865 2.39010071 39.4527948 1.22671509 39.4727478 C-2.39044572 39.53267069 -6.00763813 39.57898002 -9.625 39.625 C-12.07293078 39.66316805 -14.52084796 39.70221908 -16.96875 39.7421875 C-22.97904624 39.83838259 -28.98942393 39.92339265 -35 40 C-34.32959072 45.35050451 -33.68198234 49.87735488 -30 54 C-23.87585962 58.67554564 -17.70872063 59.72891119 -10.12890625 59.43359375 C-4.28937632 58.6243705 0.15655747 56.22896169 5 53 C7.5625 53.1875 7.5625 53.1875 10 54 C12.15416175 57.23124262 12.50217438 58.25120989 12 62 C6.35527389 68.84304785 -2.96124468 70.72184701 -11.3125 71.875 C-20.78751671 72.51919377 -30.68287858 70.22965114 -38 64 C-45.37392065 57.14211799 -50.15076995 49.19076057 -51 39 C-51.06316406 38.29746094 -51.12632812 37.59492188 -51.19140625 36.87109375 C-51.80505399 24.53875375 -47.10300344 14.10200387 -39 5 C-28.34575385 -4.23367999 -12.67094524 -5.71685745 0 0 Z M-33.65234375 18.16015625 C-36.13154661 21.54480711 -36.17736993 23.83180671 -36 28 C-33.95899476 30.04100524 -29.71946096 29.16404062 -26.9140625 29.16796875 C-26.10133881 29.17129715 -25.28861511 29.17462555 -24.45126343 29.17805481 C-22.72793139 29.18312799 -21.0045895 29.18546302 -19.28125 29.18530273 C-16.64306413 29.18748506 -14.00529906 29.20562483 -11.3671875 29.22460938 C-9.69531393 29.22754403 -8.02343838 29.22952834 -6.3515625 29.23046875 C-5.56085358 29.23765427 -4.77014465 29.24483978 -3.95547485 29.25224304 C-0.10556412 29.2361783 1.72045792 29.18636138 5 27 C3.87287575 20.57539178 2.07910031 16.2569843 -3 12 C-14.08735521 5.41761227 -25.89225773 8.66775034 -33.65234375 18.16015625 Z " fill="#79AFC4" transform="translate(193,106)"/>
<path d="M0 0 C6.70769399 6.89401882 6.29912999 14.92580781 6.265625 23.98828125 C6.26849518 25.69760078 6.26849518 25.69760078 6.27142334 27.44145203 C6.2727798 29.83930687 6.26912117 32.23716918 6.26074219 34.63500977 C6.24998573 38.31738572 6.26068134 41.99927927 6.2734375 45.68164062 C6.27211678 48.01302191 6.2695562 50.3444029 6.265625 52.67578125 C6.26967346 53.78093582 6.27372192 54.88609039 6.27789307 56.0247345 C6.27158875 57.0430687 6.26528442 58.06140289 6.25878906 59.1105957 C6.25719788 60.00881546 6.25560669 60.90703522 6.25396729 61.83247375 C6 64 6 64 4 66 C-1.03532622 66.46623391 -3.09078845 65.99706219 -7 63 C-9.50345172 63.14305438 -11.54466893 63.81767666 -13.86328125 64.74609375 C-22.64282479 68.1006177 -32.23525239 68.43191053 -41.06640625 64.98046875 C-46.03330449 62.46190015 -49.53939988 59.05070552 -52 54 C-54.17023858 47.22946697 -54.38014043 38.04692714 -51.5 31.5 C-48.28291656 26.20261172 -43.40506443 23.03747877 -37.8125 20.625 C-26.23617807 18.72724231 -17.61747833 20.54288766 -7 25 C-7.36194059 16.14287679 -7.36194059 16.14287679 -11.5 8.75 C-18.11606853 5.44196574 -24.72608219 5.38728755 -31.8359375 7.18359375 C-34.93596059 8.35309705 -37.47769238 10.16596159 -40.2109375 12.01171875 C-42 13 -42 13 -44.875 13 C-47 12 -47 12 -49 9 C-49.5625 6.6875 -49.5625 6.6875 -49 4 C-44.21958862 -1.7962488 -37.25112962 -4.89100966 -30.125 -6.75 C-19.09825257 -7.63213979 -8.96679834 -7.25883675 0 0 Z M-38.375 35.625 C-40.44641796 39.92717577 -40.72884535 43.30588887 -40 48 C-38.82725006 50.87391821 -38.82725006 50.87391821 -37 53 C-36.5875 53.556875 -36.175 54.11375 -35.75 54.6875 C-30.81285043 58.39036218 -25.36840908 58.29896391 -19.50390625 57.546875 C-14.16955978 56.38180713 -10.05274789 54.57912183 -7 50 C-6.35600853 44.7432324 -6.14686717 39.74181286 -8.5 34.9375 C-17.30176795 28.11612984 -30.54294716 26.96852055 -38.375 35.625 Z " fill="#8CB7CC" transform="translate(276,110)"/>
<path d="M0 0 C1.375 2 1.375 2 1.375 4.5 C0.15823174 7.54192065 -0.96349191 9.07779972 -3.625 11 C-6.99784851 11 -8.38773133 10.19356129 -11 8.0625 C-15.53645985 4.49813869 -19.91752451 3.77002455 -25.5625 4.125 C-31.32617952 4.90458583 -36.38364468 6.28472627 -40.1953125 10.90234375 C-45.44529047 18.95730995 -45.93592821 28.03430517 -44.1640625 37.44921875 C-42.28872745 43.0641925 -38.68253214 48.41050574 -33.36328125 51.17578125 C-30.0440555 52.17486347 -27.15237739 52.30121375 -23.6875 52.3125 C-22.50285156 52.32925781 -21.31820312 52.34601563 -20.09765625 52.36328125 C-15.64152808 51.89711711 -12.09293663 50.64408903 -9.0625 47.25 C-7.625 46 -7.625 46 -5.1875 46 C-1.88646294 47.28820958 -0.61369621 49.12743881 1.375 52 C-1.70667424 57.99214436 -5.73648476 61.52537217 -12 63.75 C-22.19752947 66.69257069 -31.47448397 66.38597965 -41.28125 61.7421875 C-50.94504029 55.68577098 -55.98285623 47.80714589 -59.2109375 37.046875 C-61.37169214 26.36540865 -59.39318972 14.7081067 -53.4375 5.625 C-47.8456721 -1.70912375 -41.074113 -6.1331515 -32.25 -8.6875 C-19.92660433 -10.15457091 -9.89928464 -7.54231211 0 0 Z " fill="#7CB9D0" transform="translate(356.625,112)"/>
<path d="M0 0 C2.45391569 3.68087353 2.22802759 6.44355588 2.125 10.6875 C2.11597656 11.38939453 2.10695313 12.09128906 2.09765625 12.81445312 C2.07413704 14.54311525 2.03826713 16.27160145 2 18 C2.85464844 18.06058594 3.70929688 18.12117188 4.58984375 18.18359375 C5.69457031 18.26738281 6.79929687 18.35117188 7.9375 18.4375 C9.03964844 18.51871094 10.14179688 18.59992188 11.27734375 18.68359375 C14 19 14 19 15 20 C15.07205511 21.68608966 15.08386068 23.37500659 15.0625 25.0625 C15.05347656 25.98160156 15.04445313 26.90070313 15.03515625 27.84765625 C15.02355469 28.55792969 15.01195312 29.26820312 15 30 C13 31 13 31 2 31 C2.33 46.51 2.66 62.02 3 78 C6.96 78.33 10.92 78.66 15 79 C16.485 81.475 16.485 81.475 18 84 C15.66704805 88.66590389 15.66704805 88.66590389 12.72265625 90.140625 C7.01528031 91.9420923 0.45130832 92.1399571 -5 89.4375 C-10.45941228 85.00172752 -11.22259921 79.6984838 -12 73 C-12.18077734 69.78357151 -12.25386926 66.5683205 -12.31640625 63.34765625 C-12.33718735 62.44752304 -12.35796844 61.54738983 -12.37937927 60.61997986 C-12.44433837 57.76755813 -12.50350828 54.91505075 -12.5625 52.0625 C-12.60573633 50.11913206 -12.64935219 48.17577252 -12.69335938 46.23242188 C-12.79996415 41.48836721 -12.90137995 36.74422709 -13 32 C-13.95712891 31.90912109 -13.95712891 31.90912109 -14.93359375 31.81640625 C-15.75988281 31.73261719 -16.58617187 31.64882812 -17.4375 31.5625 C-18.26121094 31.48128906 -19.08492188 31.40007812 -19.93359375 31.31640625 C-22 31 -22 31 -23 30 C-23.09823996 28.52351124 -23.12973519 27.04224583 -23.125 25.5625 C-23.12757813 24.75941406 -23.13015625 23.95632812 -23.1328125 23.12890625 C-23 21 -23 21 -22 19 C-19.93359375 18.5859375 -19.93359375 18.5859375 -17.4375 18.375 C-16.61121094 18.30023438 -15.78492188 18.22546875 -14.93359375 18.1484375 C-13.97646484 18.07496094 -13.97646484 18.07496094 -13 18 C-12.90912109 16.41058594 -12.90912109 16.41058594 -12.81640625 14.7890625 C-12.73199873 13.40102779 -12.64735083 12.01300768 -12.5625 10.625 C-12.52318359 9.92632812 -12.48386719 9.22765625 -12.44335938 8.5078125 C-12.11328125 3.2265625 -12.11328125 3.2265625 -11 1 C-7.04340734 -0.31886422 -4.17660573 -0.26518132 0 0 Z " fill="#73C8E9" transform="translate(385,86)"/>
<path d="M0 0 C2.49336211 3.74004317 2.25481228 6.62561609 2.1953125 10.94921875 C2.1924826 11.72183548 2.18965271 12.49445221 2.18673706 13.29048157 C2.17554878 15.75631243 2.15044703 18.22177906 2.125 20.6875 C2.11496843 22.36002079 2.10584289 24.03254728 2.09765625 25.70507812 C2.07561392 29.80352559 2.04109363 33.90170106 2 38 C6.10819466 37.93047375 10.21554457 37.84220646 14.32299805 37.73754883 C15.71644362 37.70456692 17.11001422 37.67645433 18.50366211 37.65356445 C26.48785443 37.51891894 33.54031875 37.08135228 41 34 C41.33 34.33 41.66 34.66 42 35 C43.32 34.01 44.64 33.02 46 32 C46.33 32.66 46.66 33.32 47 34 C47.99 33.34 48.98 32.68 50 32 C51.32 32 52.64 32 54 32 C54 32.66 54 33.32 54 34 C54.99 34.495 54.99 34.495 56 35 C52.83540058 40.41044416 50.51471349 42.89983107 44.42578125 44.578125 C40.5550181 45.2513012 36.92141716 45.18673415 33 45 C32.67 46.32 32.34 47.64 32 49 C31.34 49 30.68 49 30 49 C29.34 50.65 28.68 52.3 28 54 C27.22398438 53.19175781 26.44796875 52.38351563 25.6484375 51.55078125 C21.38496285 47.99788571 16.96589694 48.22359302 11.625 48.1875 C6.860625 48.0946875 6.860625 48.0946875 2 48 C2 60.21 2 72.42 2 85 C0.68 84.67 -0.64 84.34 -2 84 C-1.01 84 -0.02 84 1 84 C0.01 83.67 -0.98 83.34 -2 83 C-2 82.01 -2 81.02 -2 80 C-2.66 80.99 -3.32 81.98 -4 83 C-4.99 82.67 -5.98 82.34 -7 82 C-7 70.45 -7 58.9 -7 47 C-6.34 47.33 -5.68 47.66 -5 48 C-4.67 45.03 -4.34 42.06 -4 39 C-4.66 39 -5.32 39 -6 39 C-6.07413521 33.92801112 -6.12859451 28.85633732 -6.16479492 23.78393555 C-6.17988516 22.05829373 -6.20035975 20.33269028 -6.22631836 18.60717773 C-6.26269209 16.12734512 -6.27972359 13.64801936 -6.29296875 11.16796875 C-6.30845261 10.39599655 -6.32393646 9.62402435 -6.33988953 8.82865906 C-6.34156028 3.51600603 -6.34156028 3.51600603 -4.66918945 0.98950195 C-3 0 -3 0 0 0 Z " fill="#77C9E9" transform="translate(75,89)"/>
<path d="M0 0 C0 0.66 0 1.32 0 2 C0.66 2.33 1.32 2.66 2 3 C2 3.99 2 4.98 2 6 C2.66 6 3.32 6 4 6 C5.35432675 7.31200404 6.68733482 8.64631404 8 10 C8.66 10.33 9.32 10.66 10 11 C9.67 12.98 9.34 14.96 9 17 C8.50371094 16.60167969 8.00742188 16.20335938 7.49609375 15.79296875 C-0.20752518 9.78502305 -7.61355154 6.51120111 -17.52734375 6.66015625 C-23.5400479 7.48654687 -29.17542479 10.44052724 -33 15.1875 C-35.64886067 19.80153377 -35.64886067 19.80153377 -37 29 C-22.15 29 -7.3 29 8 29 C8 26.03 8 23.06 8 20 C9.32 19.34 10.64 18.68 12 18 C15 20 15 20 15.73046875 23.2578125 C15.88128906 24.53398437 16.03210938 25.81015625 16.1875 27.125 C16.34605469 28.40632813 16.50460938 29.68765625 16.66796875 31.0078125 C16.83232422 32.48894531 16.83232422 32.48894531 17 34 C10.16582552 34.89087795 3.50841551 35.13308006 -3.37890625 35.09765625 C-4.43158188 35.0962413 -5.48425751 35.09482635 -6.5688324 35.09336853 C-9.90008499 35.08781296 -13.23126804 35.07526888 -16.5625 35.0625 C-18.8339834 35.05747925 -21.10546786 35.05291735 -23.37695312 35.04882812 C-28.9179921 35.03785812 -34.45899108 35.02116483 -40 35 C-40.16641666 39.83273972 -39.48176049 41.89970006 -37 46 C-37.375 48.0625 -37.375 48.0625 -38 50 C-37.62092718 52.18703385 -37.62092718 52.18703385 -37 54 C-38.65 53.67 -40.3 53.34 -42 53 C-42.99 49.7 -43.98 46.4 -45 43 C-45.66 43.66 -46.32 44.32 -47 45 C-50.20765564 35.37703307 -48.41431842 23.89638126 -44.015625 15.01171875 C-42.36768233 11.95034834 -40.66141019 9.26219866 -38 7 C-38.33 6.34 -38.66 5.68 -39 5 C-37.3464312 4.311013 -35.69282616 3.62211288 -34.0390625 2.93359375 C-32.00175354 2.04910402 -32.00175354 2.04910402 -30.2109375 0.91015625 C-21.03899366 -4.57349528 -9.9309312 -2.22898656 0 0 Z " fill="#7BC8E6" transform="translate(192,107)"/>
<path d="M0 0 C1.27101563 -0.00515625 2.54203125 -0.0103125 3.8515625 -0.015625 C7.18548953 0.23571318 9.44077264 0.68142238 12.375 2.25 C13.1875 4.375 13.1875 4.375 13.375 6.25 C13.99375 6.29125 14.6125 6.3325 15.25 6.375 C15.95125 6.66375 16.6525 6.9525 17.375 7.25 C18.05439174 9.24571323 18.72061559 11.24594773 19.375 13.25 C20.695 13.91 22.015 14.57 23.375 15.25 C23.705 32.74 24.035 50.23 24.375 68.25 C19.92 68.745 19.92 68.745 15.375 69.25 C15.375 66.28 15.375 63.31 15.375 60.25 C14.385 59.755 14.385 59.755 13.375 59.25 C13.375 56.25 13.375 56.25 14.375 54.25 C15.33928745 46.58674611 15.33928745 46.58674611 13.31640625 39.38671875 C6.28502522 33.23187844 -1.70029113 32.92051446 -10.55078125 32.94921875 C-13.79471641 33.02294634 -13.79471641 33.02294634 -16.625 35.25 C-17.615 34.92 -18.605 34.59 -19.625 34.25 C-20.12 32.765 -20.12 32.765 -20.625 31.25 C-14.1831562 26.61187246 -5.40489839 25.9689081 2.375 26.25 C6.00639333 27.30954536 8.50573392 28.82865102 11.375 31.25 C12.70664936 32.25224136 14.03955177 33.2528261 15.375 34.25 C14.9596713 22.2506588 14.9596713 22.2506588 9.5 11.875 C5.39728571 8.73763025 0.44375074 9.06522802 -4.5625 9 C-5.74714844 8.97421875 -6.93179688 8.9484375 -8.15234375 8.921875 C-11.95618528 9.2812931 -14.31035075 10.41656956 -17.625 12.25 C-18.285 12.25 -18.945 12.25 -19.625 12.25 C-19.625 12.91 -19.625 13.57 -19.625 14.25 C-21.605 14.58 -23.585 14.91 -25.625 15.25 C-27.625 12.25 -27.625 12.25 -27.4375 10.25 C-26.48257099 7.89940553 -25.59145101 6.85049712 -23.625 5.25 C-21.36328125 4.73828125 -21.36328125 4.73828125 -18.9375 4.5625 C-18.12925781 4.49675781 -17.32101563 4.43101563 -16.48828125 4.36328125 C-15.56595703 4.30720703 -15.56595703 4.30720703 -14.625 4.25 C-14.625 3.59 -14.625 2.93 -14.625 2.25 C-9.59669082 0.61287608 -5.34420276 -0.02176865 0 0 Z " fill="#73C9EB" transform="translate(255.625,105.75)"/>
<path d="M0 0 C8.95626679 5.3923544 13.62838778 12.71522761 17.25 22.3125 C18.24612231 27.21010134 18.37076455 32.01623459 18 37 C17 38 17 38 14.75376892 38.12025452 C13.76115555 38.11803391 12.76854218 38.11581329 11.74584961 38.11352539 C10.62476303 38.11344986 9.50367645 38.11337433 8.34861755 38.11329651 C6.51896202 38.10555458 6.51896202 38.10555458 4.65234375 38.09765625 C3.41078018 38.0962413 2.16921661 38.09482635 0.89002991 38.09336853 C-2.41605491 38.08870591 -5.72207146 38.07971497 -9.02813721 38.06866455 C-12.3996115 38.05844827 -15.77109283 38.05387045 -19.14257812 38.04882812 C-25.76173775 38.03777395 -32.38086493 38.02101736 -39 38 C-38.6390625 38.91523438 -38.278125 39.83046875 -37.90625 40.7734375 C-37.21015625 42.55621094 -37.21015625 42.55621094 -36.5 44.375 C-36.0359375 45.55835938 -35.571875 46.74171875 -35.09375 47.9609375 C-34 51 -34 51 -34 53 C-34.66 53 -35.32 53 -36 53 C-36 52.01 -36 51.02 -36 50 C-36.66 50 -37.32 50 -38 50 C-41.52079867 42.19301165 -41.52079867 42.19301165 -42 38 C-41.67 37.34 -41.34 36.68 -41 36 C-40.41641724 35.98969254 -39.83283447 35.97938507 -39.23156738 35.96876526 C-33.13148962 35.86018482 -27.03154432 35.74563222 -20.93164062 35.62768555 C-18.65823145 35.58450112 -16.38479328 35.54281516 -14.11132812 35.50268555 C-10.83454672 35.4445815 -7.55790905 35.38100466 -4.28125 35.31640625 C-2.76827332 35.29133751 -2.76827332 35.29133751 -1.22473145 35.26576233 C4.25840359 35.1518897 9.57196385 34.79111938 15 34 C14.67 33.01 14.34 32.02 14 31 C13.93197033 29.27204648 13.91504355 27.54164635 13.9375 25.8125 C13.94652344 24.91144531 13.95554688 24.01039063 13.96484375 23.08203125 C13.97644531 22.39496094 13.98804688 21.70789063 14 21 C10.98968256 20.06576355 10.13349732 19.95550089 7 21 C7.2784375 22.3921875 7.2784375 22.3921875 7.5625 23.8125 C8 27 8 27 7 30 C-7.85 30 -22.7 30 -38 30 C-38 22.65326116 -37.0484148 20.35940027 -33.4375 14.4375 C-28.79152235 9.79152235 -22.96154018 6.7218948 -16.3125 6.5625 C-6.98972883 7.15337986 0.13707425 10.95408922 7 17 C7.66 15.35 8.32 13.7 9 12 C8.195625 11.731875 7.39125 11.46375 6.5625 11.1875 C5.716875 10.795625 4.87125 10.40375 4 10 C3.505 8.515 3.505 8.515 3 7 C2.34 7 1.68 7 1 7 C1 6.01 1 5.02 1 4 C-6.88579516 -0.17999833 -16.20964179 -1.26022908 -25 0 C-28.13922147 1.36471081 -30.89601253 2.91267289 -33.7578125 4.78515625 C-34.49773437 5.18605469 -35.23765625 5.58695313 -36 6 C-36.99 5.67 -37.98 5.34 -39 5 C-27.55332726 -3.66234694 -13.2696029 -5.98695888 0 0 Z M-33.65234375 18.16015625 C-36.13154661 21.54480711 -36.17736993 23.83180671 -36 28 C-33.95899476 30.04100524 -29.71946096 29.16404062 -26.9140625 29.16796875 C-26.10133881 29.17129715 -25.28861511 29.17462555 -24.45126343 29.17805481 C-22.72793139 29.18312799 -21.0045895 29.18546302 -19.28125 29.18530273 C-16.64306413 29.18748506 -14.00529906 29.20562483 -11.3671875 29.22460938 C-9.69531393 29.22754403 -8.02343838 29.22952834 -6.3515625 29.23046875 C-5.56085358 29.23765427 -4.77014465 29.24483978 -3.95547485 29.25224304 C-0.10556412 29.2361783 1.72045792 29.18636138 5 27 C3.87287575 20.57539178 2.07910031 16.2569843 -3 12 C-14.08735521 5.41761227 -25.89225773 8.66775034 -33.65234375 18.16015625 Z " fill="#8BC3E0" transform="translate(193,106)"/>
<path d="M0 0 C6.70769399 6.89401882 6.29912999 14.92580781 6.265625 23.98828125 C6.26849518 25.69760078 6.26849518 25.69760078 6.27142334 27.44145203 C6.2727798 29.83930687 6.26912117 32.23716918 6.26074219 34.63500977 C6.24998573 38.31738572 6.26068134 41.99927927 6.2734375 45.68164062 C6.27211678 48.01302191 6.2695562 50.3444029 6.265625 52.67578125 C6.26967346 53.78093582 6.27372192 54.88609039 6.27789307 56.0247345 C6.27158875 57.0430687 6.26528442 58.06140289 6.25878906 59.1105957 C6.25719788 60.00881546 6.25560669 60.90703522 6.25396729 61.83247375 C6 64 6 64 4 66 C0.375 66.125 0.375 66.125 -3 66 C-2.67 65.34 -2.34 64.68 -2 64 C-0.02 64 1.96 64 4 64 C3.84152588 63.23413574 3.68305176 62.46827148 3.51977539 61.67919922 C2.83394745 56.82460687 2.76567903 52.03017985 2.68359375 47.1328125 C2.66281265 46.09808807 2.64203156 45.06336365 2.62062073 43.99728394 C2.5554718 40.70658726 2.49640191 37.41581383 2.4375 34.125 C2.3942818 31.88801304 2.35066647 29.65103371 2.30664062 27.4140625 C2.19982611 21.94278842 2.09799663 16.47143874 2 11 C1.35546875 10.73445313 0.7109375 10.46890625 0.046875 10.1953125 C-0.62859375 9.80085938 -1.3040625 9.40640625 -2 9 C-2.75 5.875 -2.75 5.875 -3 3 C-5.475 2.505 -5.475 2.505 -8 2 C-8.495 0.515 -8.495 0.515 -9 -1 C-12.51013359 -3.56839043 -16.15656835 -3.26684005 -20.375 -3.25 C-21.66148437 -3.25515625 -22.94796875 -3.2603125 -24.2734375 -3.265625 C-27.89585828 -3.0074231 -30.67083269 -2.42822283 -34 -1 C-34.33 -0.34 -34.66 0.32 -35 1 C-37.25946584 1.35557331 -39.4899777 1.44330506 -41.7734375 1.55859375 C-44.46029576 2.09125162 -45.4143765 2.78532587 -47 5 C-46.76716851 8.14921909 -46.76716851 8.14921909 -46 11 C-44.02 10.67 -42.04 10.34 -40 10 C-40 9.34 -40 8.68 -40 8 C-32.87908786 3.44261623 -26.33757869 3.1681766 -18 4 C-12.97481709 5.36174021 -10.33281802 6.92655576 -7 11 C-4.50951459 16.23001936 -4.12203222 22.25509873 -4 28 C-4.495 28.99 -4.495 28.99 -5 30 C-7.04935802 29.03612612 -8.88631388 28.086643 -10.69140625 26.7109375 C-18.2536684 21.31157705 -28.08938953 22.1149884 -37 23 C-37.99 23.33 -38.98 23.66 -40 24 C-39.67 23.01 -39.34 22.02 -39 21 C-27.20488354 18.35962531 -17.87049012 20.43667581 -7 25 C-7.36194059 16.14287679 -7.36194059 16.14287679 -11.5 8.75 C-18.11606853 5.44196574 -24.72608219 5.38728755 -31.8359375 7.18359375 C-34.93596059 8.35309705 -37.47769238 10.16596159 -40.2109375 12.01171875 C-42 13 -42 13 -44.875 13 C-47 12 -47 12 -49 9 C-49.5625 6.6875 -49.5625 6.6875 -49 4 C-44.21958862 -1.7962488 -37.25112962 -4.89100966 -30.125 -6.75 C-19.09825257 -7.63213979 -8.96679834 -7.25883675 0 0 Z " fill="#8BB6CC" transform="translate(276,110)"/>
<path d="M0 0 C2.45391569 3.68087353 2.22802759 6.44355588 2.125 10.6875 C2.11597656 11.38939453 2.10695313 12.09128906 2.09765625 12.81445312 C2.07413704 14.54311525 2.03826713 16.27160145 2 18 C2.85464844 18.06058594 3.70929688 18.12117188 4.58984375 18.18359375 C5.69457031 18.26738281 6.79929687 18.35117188 7.9375 18.4375 C9.03964844 18.51871094 10.14179688 18.59992188 11.27734375 18.68359375 C14 19 14 19 15 20 C15.07205511 21.68608966 15.08386068 23.37500659 15.0625 25.0625 C15.05347656 25.98160156 15.04445313 26.90070313 15.03515625 27.84765625 C15.02355469 28.55792969 15.01195312 29.26820312 15 30 C13 31 13 31 2 31 C2.33 46.51 2.66 62.02 3 78 C6.96 78.33 10.92 78.66 15 79 C16.485 81.475 16.485 81.475 18 84 C15.66704805 88.66590389 15.66704805 88.66590389 12.72265625 90.140625 C7.01528031 91.9420923 0.45130832 92.1399571 -5 89.4375 C-10.45941228 85.00172752 -11.22259921 79.6984838 -12 73 C-12.18077734 69.78357151 -12.25386926 66.5683205 -12.31640625 63.34765625 C-12.33718735 62.44752304 -12.35796844 61.54738983 -12.37937927 60.61997986 C-12.44433837 57.76755813 -12.50350828 54.91505075 -12.5625 52.0625 C-12.60573633 50.11913206 -12.64935219 48.17577252 -12.69335938 46.23242188 C-12.79996415 41.48836721 -12.90137995 36.74422709 -13 32 C-13.95712891 31.90912109 -13.95712891 31.90912109 -14.93359375 31.81640625 C-15.75988281 31.73261719 -16.58617187 31.64882812 -17.4375 31.5625 C-18.26121094 31.48128906 -19.08492188 31.40007812 -19.93359375 31.31640625 C-22 31 -22 31 -23 30 C-23.14115161 27.32941149 -23.04247107 24.67567762 -23 22 C-22.67 22 -22.34 22 -22 22 C-22 24.31 -22 26.62 -22 29 C-18.04 29 -14.08 29 -10 29 C-10 44.84 -10 60.68 -10 77 C-9.01 77.33 -8.02 77.66 -7 78 C-6.3125 80.0625 -6.3125 80.0625 -6 82 C-5.34 82 -4.68 82 -4 82 C-4 82.66 -4 83.32 -4 84 C3.22350938 86.19285106 8.66573117 86.13916174 16 84 C15.34 83.01 14.68 82.02 14 81 C11.4520822 80.86683356 9.04484566 81.1328958 6.5078125 81.3828125 C4 81 4 81 1.86767578 79.14916992 C-0.8637908 74.54352451 -0.49891454 70.48760917 -0.390625 65.23046875 C-0.38496521 64.19432938 -0.37930542 63.15819 -0.37347412 62.09065247 C-0.35112666 58.78912692 -0.30093178 55.48869619 -0.25 52.1875 C-0.22993296 49.94597924 -0.21168255 47.70444143 -0.1953125 45.46289062 C-0.15126694 39.97484013 -0.08224923 34.48760554 0 29 C4.62 29 9.24 29 14 29 C14 26.36 14 23.72 14 21 C12.60974609 21.01740234 12.60974609 21.01740234 11.19140625 21.03515625 C9.99386719 21.04417969 8.79632813 21.05320312 7.5625 21.0625 C6.36753906 21.07410156 5.17257812 21.08570312 3.94140625 21.09765625 C1 21 1 21 0 20 C-0.15582303 18.65984779 -0.25044142 17.31241097 -0.31640625 15.96484375 C-0.35830078 15.15595703 -0.40019531 14.34707031 -0.44335938 13.51367188 C-0.48267578 12.66353516 -0.52199219 11.81339844 -0.5625 10.9375 C-0.60568359 10.08349609 -0.64886719 9.22949219 -0.69335938 8.34960938 C-0.79976702 6.23327963 -0.90041731 4.11666187 -1 2 C-3.97 2 -6.94 2 -10 2 C-10 7.94 -10 13.88 -10 20 C-10.99 19.67 -11.98 19.34 -13 19 C-12.85946128 16.37461716 -12.71281053 13.74982573 -12.5625 11.125 C-12.50352539 10.00544922 -12.50352539 10.00544922 -12.44335938 8.86328125 C-12.11328125 3.2265625 -12.11328125 3.2265625 -11 1 C-7.04340734 -0.31886422 -4.17660573 -0.26518132 0 0 Z " fill="#7FC5DF" transform="translate(385,86)"/>
<path d="M0 0 C0.83305664 -0.00555908 1.66611328 -0.01111816 2.52441406 -0.0168457 C6.62023529 0.03179529 9.56795841 0.08084101 13.125 2.3125 C13.785 3.3025 14.445 4.2925 15.125 5.3125 C16.7646721 6.67889342 18.42827614 8.01763179 20.125 9.3125 C19.62668276 13.00004757 19.02432357 14.91740662 16.125 17.3125 C13.58328796 16.13940214 11.39616256 14.8216503 9.0625 13.25 C3.18952458 9.37633536 -3.03705131 9.67737087 -9.875 10.3125 C-12.55091489 11.36720656 -14.47470537 12.67825685 -16.875 14.3125 C-18.195 14.3125 -19.515 14.3125 -20.875 14.3125 C-20.875 13.6525 -20.875 12.9925 -20.875 12.3125 C-21.535 12.3125 -22.195 12.3125 -22.875 12.3125 C-22.875 12.9725 -22.875 13.6325 -22.875 14.3125 C-24.875 13.3125 -24.875 13.3125 -27.875 11.3125 C-26.45923562 7.06520687 -23.61164903 5.44674131 -19.875 3.3125 C-13.49264509 0.18921994 -6.97191334 0.04013653 0 0 Z " fill="#79C7E5" transform="translate(335.875,104.6875)"/>
<path d="M0 0 C0.90947388 -0.0033284 1.81894775 -0.0066568 2.75598145 -0.01008606 C4.68952935 -0.01516292 6.62308606 -0.01749415 8.55664062 -0.01733398 C11.49103711 -0.01950155 14.42504607 -0.03759618 17.359375 -0.05664062 C19.23958205 -0.05957832 21.11979089 -0.0615606 23 -0.0625 C23.86911011 -0.06968552 24.73822021 -0.07687103 25.63366699 -0.08427429 C36.28252427 -0.04512973 43.97054835 1.8709173 51.65625 9.60546875 C56.76028946 15.64883254 58.56720507 23.19044081 59.46875 30.91796875 C58.8889775 35.22485019 57.57426665 39.11755003 56.03125 43.16796875 C55.8146875 42.23984375 55.8146875 42.23984375 55.59375 41.29296875 C55.09972775 39.13538553 55.09972775 39.13538553 54.03125 37.16796875 C53.98477975 34.9809624 53.99349942 32.79264299 54.03125 30.60546875 C54.0772858 25.0178734 53.79409064 19.69856337 53.03125 14.16796875 C49.6449249 12.65866692 49.6449249 12.65866692 46.03125 12.16796875 C45.37125 10.84796875 44.71125 9.52796875 44.03125 8.16796875 C43.04125 8.49796875 42.05125 8.82796875 41.03125 9.16796875 C41.03125 8.50796875 41.03125 7.84796875 41.03125 7.16796875 C39.38125 7.16796875 37.73125 7.16796875 36.03125 7.16796875 C36.03125 6.17796875 36.03125 5.18796875 36.03125 4.16796875 C31.56552636 4.11837927 27.09995039 4.08215975 22.6340332 4.05810547 C21.11610114 4.0480733 19.59818827 4.03444437 18.08032227 4.01708984 C15.8933436 3.9927184 13.70662136 3.9814578 11.51953125 3.97265625 C9.54786987 3.9569458 9.54786987 3.9569458 7.53637695 3.94091797 C4.1839905 4.15807471 2.05985477 4.82007139 -0.96875 6.16796875 C-1.95875 6.16796875 -2.94875 6.16796875 -3.96875 6.16796875 C-4.29875 5.17796875 -4.62875 4.18796875 -4.96875 3.16796875 C-5.95875 3.16796875 -6.94875 3.16796875 -7.96875 3.16796875 C-8.29875 32.20796875 -8.62875 61.24796875 -8.96875 91.16796875 C-9.29875 91.16796875 -9.62875 91.16796875 -9.96875 91.16796875 C-9.99187215 79.45070087 -10.00966443 67.73343838 -10.02056217 56.01615238 C-10.02579128 50.57594563 -10.03288943 45.13575444 -10.04418945 39.69555664 C-10.05501735 34.45011173 -10.06102662 29.20468183 -10.06362724 23.95922661 C-10.06548167 21.95325929 -10.06910262 19.94729283 -10.07448006 17.94133186 C-10.08168919 15.14194051 -10.082741 12.34261196 -10.08227539 9.54321289 C-10.08587067 8.7052417 -10.08946594 7.86727051 -10.09317017 7.00390625 C-10.07808694 -1.32021184 -7.47737439 0.00939903 0 0 Z " fill="#93CAE2" transform="translate(75.96875,78.83203125)"/>
<path d="M0 0 C3.9030549 3.29320257 3.9030549 3.29320257 4.3359375 6.44921875 C4 9 4 9 2.6015625 10.6953125 C-5.51536832 16.56645218 -14.91648702 19.35233573 -25 19 C-25.99 18.34 -26.98 17.68 -28 17 C-28 15.68 -28 14.36 -28 13 C-28.77085937 12.86722656 -29.54171875 12.73445312 -30.3359375 12.59765625 C-31.33882812 12.42105469 -32.34171875 12.24445313 -33.375 12.0625 C-34.37273437 11.88847656 -35.37046875 11.71445313 -36.3984375 11.53515625 C-39 11 -39 11 -41 10 C-40.67 9.01 -40.34 8.02 -40 7 C-39.01 7.33 -38.02 7.66 -37 8 C-35.6078125 7.7525 -35.6078125 7.7525 -34.1875 7.5 C-30.75850493 6.96211842 -28.39710535 7.38852104 -25 8 C-15.69718512 8.78837414 -7.39275678 5.59451864 0 0 Z " fill="#7DC9E6" transform="translate(201,159)"/>
<path d="M0 0 C0.99 0.33 1.98 0.66 3 1 C3 30.37 3 59.74 3 90 C5.88214887 89.11785113 5.88214887 89.11785113 8 88 C8 88.99 8 89.98 8 91 C8.66 91 9.32 91 10 91 C10.495 90.01 10.495 90.01 11 89 C11.33 90.32 11.66 91.64 12 93 C12 80.79 12 68.58 12 56 C18.6 56 25.2 56 32 56 C32.66 57.65 33.32 59.3 34 61 C33.51015625 60.50886719 33.0203125 60.01773438 32.515625 59.51171875 C28.99621566 57.39679419 25.7230609 57.67561893 21.75 57.8125 C20.63238281 57.83280273 20.63238281 57.83280273 19.4921875 57.85351562 C17.66114584 57.88872796 15.83047831 57.94253149 14 58 C14.01047363 58.9787207 14.02094727 59.95744141 14.03173828 60.96582031 C14.06799093 64.60364105 14.09091958 68.24144587 14.10986328 71.87939453 C14.11990887 73.45266405 14.13354781 75.02591496 14.15087891 76.59912109 C14.17519096 78.86300252 14.18649747 81.12663666 14.1953125 83.390625 C14.20563507 84.09181458 14.21595764 84.79300415 14.22659302 85.51544189 C14.22743257 89.18563476 14.02112595 91.88089213 12 95 C4.31578947 95.29554656 4.31578947 95.29554656 1 93 C-0.64773901 89.70452197 -0.12895725 86.04092836 -0.11352539 82.41943359 C-0.11374443 81.08763313 -0.11374443 81.08763313 -0.1139679 79.72892761 C-0.11326955 76.78540631 -0.10548081 73.84194779 -0.09765625 70.8984375 C-0.09579179 68.86105382 -0.09436802 66.82366969 -0.09336853 64.7862854 C-0.08954555 59.41702034 -0.07971711 54.04778223 -0.06866455 48.67852783 C-0.05844574 43.2023556 -0.0538699 37.72617902 -0.04882812 32.25 C-0.03809467 21.49998815 -0.02102085 10.74999631 0 0 Z " fill="#7AB0C8" transform="translate(65,81)"/>
<path d="M0 0 C0.33 0 0.66 0 1 0 C0.96519531 0.9178125 0.93039063 1.835625 0.89453125 2.78125 C0.51791762 13.90155791 0.51791762 13.90155791 5.32421875 23.64453125 C7.38456871 25.3110614 8.89884905 25.58381585 11.5 26 C15.13969036 26.58235046 16.45544026 27.40690642 19 30 C25.99504102 30.76309538 32.2918387 28.87828516 39 27 C39 26.01 39 25.02 39 24 C37.02 24 35.04 24 33 24 C33 24.66 33 25.32 33 26 C28.9472484 26.98248524 25.16138263 27.08159574 21 27 C20.67 26.01 20.34 25.02 20 24 C19.195625 23.525625 18.39125 23.05125 17.5625 22.5625 C14.84333111 20.90447019 14.10592885 19.91563061 13 17 C13.680625 17.61875 14.36125 18.2375 15.0625 18.875 C20.65000247 22.91702306 25.83670987 23.39543667 32.4921875 22.55078125 C36.32571488 21.70883832 39.76801627 20.23622895 43 18 C44.41634833 15.16730334 44.3463005 12.52533562 44.5625 9.375 C44.64628906 8.18648437 44.73007812 6.99796875 44.81640625 5.7734375 C44.90728516 4.40058594 44.90728516 4.40058594 45 3 C45.66 3 46.32 3 47 3 C47.05402274 5.10388569 47.09280256 7.20816714 47.125 9.3125 C47.14820313 10.48425781 47.17140625 11.65601563 47.1953125 12.86328125 C47 16 47 16 45 19 C45.66 19.99 46.32 20.98 47 22 C47.25760279 24.69452521 47.08900053 27.28548375 47 30 C46.21625 29.7525 45.4325 29.505 44.625 29.25 C40.83945332 28.98892782 39.75236581 29.39633074 36.4375 30.9375 C28.30458962 34.46502739 19.1676655 34.19855551 10.93359375 30.98046875 C5.47770588 28.21394783 1.39352138 24.19978514 -0.56640625 18.29296875 C-1.16366133 15.13451172 -1.13170574 12.08704867 -1.125 8.875 C-1.12757813 7.63492188 -1.13015625 6.39484375 -1.1328125 5.1171875 C-1 2 -1 2 0 0 Z " fill="#8AB9CB" transform="translate(224,144)"/>
<path d="M0 0 C0.99 0 1.98 0 3 0 C4.203275 4.99965425 3.98908076 9.73387487 3.83984375 14.84375 C4.07025662 19.3845695 4.95384115 22.03866484 8.3125 25.125 C9.199375 25.74375 10.08625 26.3625 11 27 C12.12535156 27.79470703 12.12535156 27.79470703 13.2734375 28.60546875 C16.53394979 30.27309466 18.67559614 30.30739793 22.3125 30.1875 C23.38113281 30.16042969 24.44976562 30.13335937 25.55078125 30.10546875 C26.76314453 30.05326172 26.76314453 30.05326172 28 30 C28 29.34 28 28.68 28 28 C29.98 28 31.96 28 34 28 C34.495 29.98 34.495 29.98 35 32 C20.24 35.78 20.24 35.78 14 35 C12.29749607 33.71274093 10.62935241 32.37868281 9 31 C6.66993089 30.64456573 4.33672984 30.3086247 2 30 C-0.00792848 26.98810728 -0.88398716 24.41778932 -2 21 C-2.37125 20.360625 -2.7425 19.72125 -3.125 19.0625 C-4.83826898 15.02408027 -4.38551526 11.13245109 -3 7.0625 C-2.505 6.0415625 -2.505 6.0415625 -2 5 C-1.34 5 -0.68 5 0 5 C-0.33 4.01 -0.66 3.02 -1 2 C-0.67 1.34 -0.34 0.68 0 0 Z " fill="#74C9E8" transform="translate(229,140)"/>
<path d="M0 0 C1.55080743 2.32621115 2.79077344 4.50093178 4 7 C4.83333333 9.16666667 4.83333333 9.16666667 7 10 C7 10.66 7 11.32 7 12 C7.66 12.33 8.32 12.66 9 13 C9.268125 13.928125 9.53625 14.85625 9.8125 15.8125 C11.51793734 20.39025286 14.38756146 22.20194793 18.69921875 24.3359375 C28.40797586 27.71179291 37.08567304 27.03212913 47 25 C47.99 24.34 48.98 23.68 50 23 C50 21.68 50 20.36 50 19 C47.525 18.01 47.525 18.01 45 17 C49.24528302 12.4009434 49.24528302 12.4009434 52 10.9375 C55.23863819 11.03870744 56.74979775 12.81061403 59 15 C59.495 16.485 59.495 16.485 60 18 C56.32642998 24.6247225 50.30376766 27.7363938 43.3125 29.7890625 C33.5418374 31.9458843 23.64251423 30.63852924 15.0625 25.3125 C7.56376307 19.6396637 2.5071528 13.15655805 0 4 C0 2.68 0 1.36 0 0 Z " fill="#88BDD2" transform="translate(298,147)"/>
<path d="M0 0 C4.66125 -0.04125 9.3225 -0.0825 14.125 -0.125 C16.31406982 -0.15231201 16.31406982 -0.15231201 18.54736328 -0.18017578 C20.29122314 -0.18766846 20.29122314 -0.18766846 22.0703125 -0.1953125 C23.25383301 -0.20578613 24.43735352 -0.21625977 25.65673828 -0.22705078 C29.08692611 0.00590341 31.80303811 0.76974436 35 2 C35 2.66 35 3.32 35 4 C34.14390137 3.83701416 33.28780273 3.67402832 32.40576172 3.50610352 C29.04295588 3.00638334 25.90460706 2.88616854 22.5078125 2.90234375 C21.4264502 2.90484131 20.34508789 2.90733887 19.23095703 2.90991211 C17.87599121 2.91901611 16.52102539 2.92812012 15.125 2.9375 C8.628125 2.9684375 8.628125 2.9684375 2 3 C2.33 13.23 2.66 23.46 3 34 C7.66125 34.0825 12.3225 34.165 17.125 34.25 C18.58437988 34.28641602 20.04375977 34.32283203 21.54736328 34.36035156 C22.70993652 34.3703418 23.87250977 34.38033203 25.0703125 34.390625 C26.25383301 34.41157227 27.43735352 34.43251953 28.65673828 34.45410156 C33.43481946 33.80511434 36.45069043 31.54930957 39.8125 28.1875 C41.43442058 25.19975157 41.67743221 22.35470499 42 19 C42.66 19 43.32 19 44 19 C44.63019694 29.97592998 44.63019694 29.97592998 42 34.25 C41.34 34.8275 40.68 35.405 40 36 C39.01 35.67 38.02 35.34 37 35 C35.93257568 35.30534668 34.86515137 35.61069336 33.76538086 35.92529297 C29.88359295 37.03322465 26.77686788 37.22984436 22.75390625 37.1953125 C21.5532251 37.19031738 20.35254395 37.18532227 19.11547852 37.18017578 C17.61299561 37.16196777 16.1105127 37.14375977 14.5625 37.125 C9.756875 37.08375 4.95125 37.0425 0 37 C0 24.79 0 12.58 0 0 Z " fill="#6E94A2" transform="translate(77,90)"/>
<path d="M0 0 C3.94890988 3.53274841 6.54081449 7.66637496 9.3125 12.125 C9.77978516 12.85332031 10.24707031 13.58164063 10.72851562 14.33203125 C11.16486328 15.02941406 11.60121094 15.72679687 12.05078125 16.4453125 C12.64886597 17.39688232 12.64886597 17.39688232 13.2590332 18.36767578 C13.62581177 19.17567627 13.62581177 19.17567627 14 20 C13.67 20.66 13.34 21.32 13 22 C12.67 21.67 12.34 21.34 12 21 C11.34 21.99 10.68 22.98 10 24 C9.4225 23.835 8.845 23.67 8.25 23.5 C5.73335631 22.85537969 5.73335631 22.85537969 2 23 C0.64709936 20.82267553 -0.68159441 18.635585 -2 16.4375 C-2.57234375 15.52387695 -2.57234375 15.52387695 -3.15625 14.59179688 C-5.73308794 10.24338285 -6.42658785 7.17904313 -6 2 C-4.35 2 -2.7 2 -1 2 C-0.67 1.34 -0.34 0.68 0 0 Z " fill="#74CAE9" transform="translate(110,139)"/>
<path d="M0 0 C2.97 0 5.94 0 9 0 C10.53266582 3.06533164 10.10276471 6.26754272 10.0625 9.625 C10.05798828 10.33140625 10.05347656 11.0378125 10.04882812 11.765625 C10.03703875 13.51045275 10.01910324 15.255237 10 17 C9.34 16.67 8.68 16.34 8 16 C6.94609438 11.05122578 6.53315663 5.88947792 8 1 C6.02 1 4.04 1 2 1 C2.03480469 2.134375 2.06960938 3.26875 2.10546875 4.4375 C2.4216419 19.29928462 2.4216419 19.29928462 -1 26 C-0.01 26.33 0.98 26.66 2 27 C1.67 42.84 1.34 58.68 1 75 C0.67 75 0.34 75 0 75 C0 59.16 0 43.32 0 27 C-3.96 27 -7.92 27 -12 27 C-13.125 19.25 -13.125 19.25 -12 17 C-10.37509046 16.97301811 -8.75005367 16.95361243 -7.125 16.9375 C-6.22007812 16.92589844 -5.31515625 16.91429688 -4.3828125 16.90234375 C-2 17 -2 17 0 18 C0 12.06 0 6.12 0 0 Z " fill="#8ACAE4" transform="translate(375,88)"/>
<path d="M0 0 C2.45391569 3.68087353 2.22802759 6.44355588 2.125 10.6875 C2.11597656 11.38939453 2.10695313 12.09128906 2.09765625 12.81445312 C2.07413704 14.54311525 2.03826713 16.27160145 2 18 C2.85464844 18.06058594 3.70929688 18.12117188 4.58984375 18.18359375 C5.69457031 18.26738281 6.79929687 18.35117188 7.9375 18.4375 C9.59072266 18.55931641 9.59072266 18.55931641 11.27734375 18.68359375 C14 19 14 19 15 20 C15.07205511 21.68608966 15.08386068 23.37500659 15.0625 25.0625 C15.05347656 25.98160156 15.04445313 26.90070313 15.03515625 27.84765625 C15.02355469 28.55792969 15.01195312 29.26820312 15 30 C13 31 13 31 2 31 C2.33 46.51 2.66 62.02 3 78 C5.97 78.33 8.94 78.66 12 79 C10 81 10 81 7.125 81.4375 C4 81 4 81 1.82910156 79.14575195 C-0.84991885 74.53828025 -0.49847275 70.4661614 -0.390625 65.23046875 C-0.38213531 63.67625969 -0.38213531 63.67625969 -0.37347412 62.09065247 C-0.35112666 58.78912692 -0.30093178 55.48869619 -0.25 52.1875 C-0.22993296 49.94597924 -0.21168255 47.70444143 -0.1953125 45.46289062 C-0.15126694 39.97484013 -0.08224923 34.48760554 0 29 C4.62 29 9.24 29 14 29 C14 26.36 14 23.72 14 21 C12.60974609 21.01740234 12.60974609 21.01740234 11.19140625 21.03515625 C9.99386719 21.04417969 8.79632813 21.05320312 7.5625 21.0625 C6.36753906 21.07410156 5.17257812 21.08570312 3.94140625 21.09765625 C1 21 1 21 0 20 C-0.15582303 18.65984779 -0.25044142 17.31241097 -0.31640625 15.96484375 C-0.37924805 14.75151367 -0.37924805 14.75151367 -0.44335938 13.51367188 C-0.48267578 12.66353516 -0.52199219 11.81339844 -0.5625 10.9375 C-0.60568359 10.08349609 -0.64886719 9.22949219 -0.69335938 8.34960938 C-0.79976702 6.23327963 -0.90041731 4.11666187 -1 2 C-3.97 2 -6.94 2 -10 2 C-10 7.94 -10 13.88 -10 20 C-10.99 19.67 -11.98 19.34 -13 19 C-12.85946128 16.37461716 -12.71281053 13.74982573 -12.5625 11.125 C-12.52318359 10.37863281 -12.48386719 9.63226563 -12.44335938 8.86328125 C-12.11328125 3.2265625 -12.11328125 3.2265625 -11 1 C-7.04340734 -0.31886422 -4.17660573 -0.26518132 0 0 Z " fill="#82A6B7" transform="translate(385,86)"/>
<path d="M0 0 C0 0.66 0 1.32 0 2 C0.66 2.33 1.32 2.66 2 3 C2 3.99 2 4.98 2 6 C2.66 6 3.32 6 4 6 C5.35432675 7.31200404 6.68733482 8.64631404 8 10 C8.66 10.33 9.32 10.66 10 11 C9.67 12.98 9.34 14.96 9 17 C8.16855469 16.36771484 8.16855469 16.36771484 7.3203125 15.72265625 C6.59585938 15.17480469 5.87140625 14.62695312 5.125 14.0625 C4.40570313 13.51722656 3.68640625 12.97195312 2.9453125 12.41015625 C1.05642921 10.96035376 1.05642921 10.96035376 -1 10 C-1 9.34 -1 8.68 -1 8 C-1.66 8 -2.32 8 -3 8 C-3 7.34 -3 6.68 -3 6 C-9.58722888 4.08371524 -16.5090247 2.17862158 -22.875 5.5 C-23.57625 5.995 -24.2775 6.49 -25 7 C-25.99 7 -26.98 7 -28 7 C-28.33 5.35 -28.66 3.7 -29 2 C-28.34 2 -27.68 2 -27 2 C-26.67 1.01 -26.34 0.02 -26 -1 C-18.79039403 -4.60480298 -7.53204723 -1.6905597 0 0 Z " fill="#7CCAE8" transform="translate(192,107)"/>
<path d="M0 0 C0 0.66 0 1.32 0 2 C-1.62626404 3.38232443 -3.2925002 4.71937515 -5 6 C-4.67 7.98 -4.34 9.96 -4 12 C-2.02 11.67 -0.04 11.34 2 11 C2 10.34 2 9.68 2 9 C9.12091214 4.44261623 15.66242131 4.1681766 24 5 C29.02518291 6.36174021 31.66718198 7.92655576 35 12 C37.49048541 17.23001936 37.87796778 23.25509873 38 29 C37.67 29.66 37.34 30.32 37 31 C34.95064198 30.03612612 33.11368612 29.086643 31.30859375 27.7109375 C23.7463316 22.31157705 13.91061047 23.1149884 5 24 C4.01 24.33 3.02 24.66 2 25 C2.33 24.01 2.66 23.02 3 22 C14.79511646 19.35962531 24.12950988 21.43667581 35 26 C34.63805941 17.14287679 34.63805941 17.14287679 30.5 9.75 C23.88393147 6.44196574 17.27391781 6.38728755 10.1640625 8.18359375 C7.06403941 9.35309705 4.52230762 11.16596159 1.7890625 13.01171875 C0 14 0 14 -2.875 14 C-5 13 -5 13 -7 10 C-7.4375 7.625 -7.4375 7.625 -7 5 C-2.77777778 0 -2.77777778 0 0 0 Z " fill="#809EAD" transform="translate(234,109)"/>
<path d="M0 0 C5.81663796 -0.04972466 11.63315004 -0.08587252 17.44995117 -0.10986328 C19.42555906 -0.1198729 21.40115231 -0.13348469 23.37670898 -0.15087891 C26.22904082 -0.17535009 29.08117547 -0.18653376 31.93359375 -0.1953125 C32.80584091 -0.20563507 33.67808807 -0.21595764 34.57676697 -0.22659302 C44.11416608 -0.22830779 51.48461023 1.10146304 58.78125 7.58203125 C65.15081685 13.99208264 67.40706148 21.91766986 68.4375 30.75 C67.8577275 35.05688144 66.54301665 38.94958128 65 43 C64.7834375 42.071875 64.7834375 42.071875 64.5625 41.125 C64.06847775 38.96741678 64.06847775 38.96741678 63 37 C63.00584008 34.85377012 63.05451544 32.70758012 63.125 30.5625 C63.14691597 23.43980971 63.14626176 15.87721146 58.453125 10.09375 C50.3757786 2.80269396 41.87420784 1.88488888 31.4453125 1.68359375 C30.09299026 1.6524221 30.09299026 1.6524221 28.71334839 1.62062073 C25.8506386 1.5555542 22.98784181 1.49644086 20.125 1.4375 C18.17707456 1.39427393 16.22915771 1.35065836 14.28125 1.30664062 C9.52092111 1.19991711 4.76050524 1.09853036 0 1 C0 0.67 0 0.34 0 0 Z " fill="#86AEBE" transform="translate(67,79)"/>
<path d="M0 0 C4.98024865 3.50188171 8.96588804 7.13697142 11 13 C11.495 16.96 11.495 16.96 12 21 C-2.85 21 -17.7 21 -33 21 C-33 13.65326116 -32.0484148 11.35940027 -28.4375 5.4375 C-20.51366648 -2.48633352 -10.25737195 -4.28944645 0 0 Z M-28.65234375 9.16015625 C-31.13154661 12.54480711 -31.17736993 14.83180671 -31 19 C-28.95899476 21.04100524 -24.71946096 20.16404062 -21.9140625 20.16796875 C-21.10133881 20.17129715 -20.28861511 20.17462555 -19.45126343 20.17805481 C-17.72793139 20.18312799 -16.0045895 20.18546302 -14.28125 20.18530273 C-11.64306413 20.18748506 -9.00529906 20.20562483 -6.3671875 20.22460938 C-4.69531393 20.22754403 -3.02343838 20.22952834 -1.3515625 20.23046875 C-0.56085358 20.23765427 0.22985535 20.24483978 1.04452515 20.25224304 C4.89443588 20.2361783 6.72045792 20.18636138 10 18 C8.87287575 11.57539178 7.07910031 7.2569843 2 3 C-9.08735521 -3.58238773 -20.89225773 -0.33224966 -28.65234375 9.16015625 Z " fill="#738FA3" transform="translate(188,115)"/>
<path d="M0 0 C3.08325358 -0.0582253 6.16636505 -0.09367134 9.25 -0.125 C10.55904297 -0.15013672 10.55904297 -0.15013672 11.89453125 -0.17578125 C12.73886719 -0.18222656 13.58320313 -0.18867187 14.453125 -0.1953125 C15.22817383 -0.20578613 16.00322266 -0.21625977 16.80175781 -0.22705078 C19.32842591 0.03392227 20.86289766 0.63554236 23 2 C23.99 3.485 23.99 3.485 25 5 C26.6396721 6.36639342 28.30327614 7.70513179 30 9 C29.50168276 12.68754757 28.89932357 14.60490662 26 17 C23.45828796 15.82690214 21.27116256 14.5091503 18.9375 12.9375 C14.83421778 10.23107981 11.63203752 9.80026089 6.8125 9.4375 C5.72582031 9.35371094 4.63914062 9.26992187 3.51953125 9.18359375 C2.68808594 9.12300781 1.85664063 9.06242187 1 9 C1 8.67 1 8.34 1 8 C4.3 7.67 7.6 7.34 11 7 C10.67 6.34 10.34 5.68 10 5 C11.65 5.33 13.3 5.66 15 6 C15 6.66 15 7.32 15 8 C16.98 8 18.96 8 21 8 C20.67 6.35 20.34 4.7 20 3 C13.4 2.34 6.8 1.68 0 1 C0 0.67 0 0.34 0 0 Z " fill="#80C9E9" transform="translate(326,105)"/>
<path d="M0 0 C0.66 0.33 1.32 0.66 2 1 C2.66 0.67 3.32 0.34 4 0 C6.71760108 -0.07181821 9.40859388 -0.09299506 12.125 -0.0625 C12.87910156 -0.05798828 13.63320312 -0.05347656 14.41015625 -0.04882812 C16.27347127 -0.03703499 18.13674555 -0.01909942 20 0 C20 0.33 20 0.66 20 1 C18.92878906 1.12117187 17.85757813 1.24234375 16.75390625 1.3671875 C15.35671248 1.53597601 13.95958009 1.70527313 12.5625 1.875 C11.85544922 1.95363281 11.14839844 2.03226563 10.41992188 2.11328125 C8.60326568 2.33927676 6.79937478 2.66300727 5 3 C4.67 3.66 4.34 4.32 4 5 C3.01 5.33 2.02 5.66 1 6 C1.33 7.32 1.66 8.64 2 10 C-0.475 11.485 -0.475 11.485 -3 13 C-3 11.35 -3 9.7 -3 8 C-3.99 8 -4.98 8 -6 8 C-6 9.65 -6 11.3 -6 13 C-6.66 13 -7.32 13 -8 13 C-9.20348403 17.96437164 -10.19825673 22.91607525 -7.5625 27.5 C-7.046875 28.325 -6.53125 29.15 -6 30 C-5.3125 33.8125 -5.3125 33.8125 -5 37 C-8.90866176 33.74278187 -10.02404631 30.96109791 -11 26 C-11.55941901 19.72984528 -11.31024103 12.90061563 -9 7 C-6.44019508 3.95290692 -3.54909979 1.77454989 0 0 Z " fill="#71C9E6" transform="translate(235,132)"/>
<path d="M0 0 C18.15 0 36.3 0 55 0 C55 0.33 55 0.66 55 1 C29.755 1.495 29.755 1.495 4 2 C5.26884815 11.08408243 5.26884815 11.08408243 11.03125 17.55078125 C17.79107663 21.44646056 24.33320215 22.06244015 32 21 C36.47364283 19.62003844 40.11972373 17.58685085 44 15 C44.99 15.33 45.98 15.66 47 16 C37.56200755 22.03879597 29.72136782 25.51669725 18.5 23.3125 C11.62997552 20.73624082 6.91999385 17.74544466 3.0078125 11.453125 C1.50785475 7.80206505 0.85626032 3.85317146 0 0 Z " fill="#7D98A5" transform="translate(154,144)"/>
<path d="M0 0 C4.74549466 2.85714903 9.04704882 6.24960028 12 11 C11.67 11.99 11.34 12.98 11 14 C9.66144944 13.21718695 8.32926356 12.42348123 7 11.625 C6.2575 11.18414062 5.515 10.74328125 4.75 10.2890625 C4.1725 9.86367187 3.595 9.43828125 3 9 C3 8.34 3 7.68 3 7 C2.34 7 1.68 7 1 7 C1 6.01 1 5.02 1 4 C-6.88579516 -0.17999833 -16.20964179 -1.26022908 -25 0 C-28.13922147 1.36471081 -30.89601253 2.91267289 -33.7578125 4.78515625 C-34.49773437 5.18605469 -35.23765625 5.58695313 -36 6 C-36.99 5.67 -37.98 5.34 -39 5 C-27.55332726 -3.66234694 -13.2696029 -5.98695888 0 0 Z " fill="#8DCCE4" transform="translate(193,106)"/>
<path d="M0 0 C1.423125 0.495 1.423125 0.495 2.875 1 C6.5802706 2.18568659 7.32505403 2.22498199 11 1 C11 1.66 11 2.32 11 3 C10.34 3 9.68 3 9 3 C9 4.65 9 6.3 9 8 C9.66 8 10.32 8 11 8 C13.07874005 13.32677138 14.12933608 17.9262418 12.1015625 23.4453125 C11.12170321 25.66215728 10.09750342 27.83929015 9 30 C8.67 30 8.34 30 8 30 C8.33 26.37 8.66 22.74 9 19 C8.34 19 7.68 19 7 19 C6.91363281 18.40832031 6.82726562 17.81664063 6.73828125 17.20703125 C5.71886317 11.47397361 4.29874518 9.07249543 0 5 C-0.3125 2.1875 -0.3125 2.1875 0 0 Z " fill="#7AC3E2" transform="translate(112,90)"/>
<path d="M0 0 C1.32 0.33 2.64 0.66 4 1 C3.6875 3.375 3.6875 3.375 3 6 C-0.96577865 8.64385244 -4.40060197 8.75428606 -9.0625 9.25 C-9.89072266 9.353125 -10.71894531 9.45625 -11.57226562 9.5625 C-12.36439453 9.65015625 -13.15652344 9.7378125 -13.97265625 9.828125 C-14.69718994 9.9096582 -15.42172363 9.99119141 -16.16821289 10.07519531 C-18 10 -18 10 -20 8 C-19.67 7.67 -19.34 7.34 -19 7 C-19.99 6.01 -20.98 5.02 -22 4 C-21.34 4 -20.68 4 -20 4 C-19.67 3.34 -19.34 2.68 -19 2 C-17.7934375 2.2475 -17.7934375 2.2475 -16.5625 2.5 C-11.29100427 3.23985905 -6.0936577 3.6978859 -1 2 C-0.67 1.34 -0.34 0.68 0 0 Z " fill="#71C8EA" transform="translate(345,165)"/>
<path d="M0 0 C0.99 0.33 1.98 0.66 3 1 C2.34 1.391875 1.68 1.78375 1 2.1875 C0.01 3.0846875 0.01 3.0846875 -1 4 C-1.16683726 6.57570994 -1.16683726 6.57570994 -1 9 C0.16402344 8.15115234 0.16402344 8.15115234 1.3515625 7.28515625 C9.76939233 1.56946989 15.63065823 -0.24873983 26 0 C26 0.66 26 1.32 26 2 C27.2375 2.0825 28.475 2.165 29.75 2.25 C32.70588266 2.6319105 33.92403793 2.94741088 36.4375 4.6875 C38.31457921 7.46557723 38.69892456 9.6881702 39 13 C39.66 13 40.32 13 41 13 C41 16.96 41 20.92 41 25 C40.01 25.495 40.01 25.495 39 26 C38.89042969 25.04738281 38.78085937 24.09476563 38.66796875 23.11328125 C38.50941406 21.85902344 38.35085938 20.60476562 38.1875 19.3125 C38.03667969 18.07113281 37.88585937 16.82976562 37.73046875 15.55078125 C36.68924917 10.48945187 35.30711985 7.87141323 31 5 C27.03315111 3.92750706 23.1593197 3.80337876 19.0625 3.75 C17.87785156 3.72421875 16.69320312 3.6984375 15.47265625 3.671875 C11.66881472 4.0312931 9.31464925 5.16656956 6 7 C5.34 7 4.68 7 4 7 C4 7.66 4 8.32 4 9 C2.02 9.33 0.04 9.66 -2 10 C-4 7 -4 7 -3.8125 5 C-2.90059285 2.75530549 -1.81466246 1.57796735 0 0 Z " fill="#8EC7E4" transform="translate(232,111)"/>
<path d="M0 0 C0.33 0 0.66 0 1 0 C1 2.31 1 4.62 1 7 C4.96 7 8.92 7 13 7 C13 23.83 13 40.66 13 58 C12.67 58 12.34 58 12 58 C11.07652143 52.429551 10.79312474 46.98851899 10.68359375 41.34765625 C10.66281265 40.44752304 10.64203156 39.54738983 10.62062073 38.61997986 C10.55566163 35.76755813 10.49649172 32.91505075 10.4375 30.0625 C10.39426367 28.11913206 10.35064781 26.17577252 10.30664062 24.23242188 C10.20003585 19.48836721 10.09862005 14.74422709 10 10 C9.36191406 9.93941406 8.72382813 9.87882812 8.06640625 9.81640625 C7.24011719 9.73261719 6.41382813 9.64882812 5.5625 9.5625 C4.73878906 9.48128906 3.91507812 9.40007812 3.06640625 9.31640625 C1 9 1 9 0 8 C-0.14115161 5.32941149 -0.04247107 2.67567762 0 0 Z " fill="#7393A1" transform="translate(362,108)"/>
<path d="M0 0 C0.66 0.66 1.32 1.32 2 2 C2.99 1.34 3.98 0.68 5 0 C6.32 0 7.64 0 9 0 C9 0.66 9 1.32 9 2 C9.66 2.33 10.32 2.66 11 3 C7.20045558 9.53046697 7.20045558 9.53046697 4.0625 10.7578125 C-0.11444064 11.37486055 -3.2026023 11.01736753 -7 9 C-6.67 7.68 -6.34 6.36 -6 5 C-5.01 5 -4.02 5 -3 5 C-2.690625 4.360625 -2.38125 3.72125 -2.0625 3.0625 C-1 1 -1 1 0 0 Z " fill="#74CCED" transform="translate(120,121)"/>
<path d="M0 0 C3.96 0.33 7.92 0.66 12 1 C12 1.33 12 1.66 12 2 C8.7 2 5.4 2 2 2 C2.33 17.51 2.66 33.02 3 49 C5.97 49.33 8.94 49.66 12 50 C10 52 10 52 7.125 52.4375 C4 52 4 52 1.82910156 50.14575195 C-0.84991885 45.53828025 -0.49847275 41.4661614 -0.390625 36.23046875 C-0.38496521 35.19432938 -0.37930542 34.15819 -0.37347412 33.09065247 C-0.35112666 29.78912692 -0.30093178 26.48869619 -0.25 23.1875 C-0.22993296 20.94597924 -0.21168255 18.70444143 -0.1953125 16.46289062 C-0.15126694 10.97484013 -0.08224923 5.48760554 0 0 Z " fill="#7998A6" transform="translate(385,115)"/>
<path d="M0 0 C5.95898975 -0.12428105 11.91721295 -0.21465997 17.87719727 -0.2746582 C19.90141963 -0.29968848 21.92555264 -0.33372347 23.94946289 -0.37719727 C26.87148164 -0.43835747 29.79229816 -0.46632485 32.71484375 -0.48828125 C33.60896469 -0.51408768 34.50308563 -0.5398941 35.42430115 -0.56648254 C43.37072929 -0.56997123 49.400558 2.23822997 55.0625 7.8125 C56.0215625 8.8953125 56.0215625 8.8953125 57 10 C56.67 10.66 56.34 11.32 56 12 C55.01 11.34 54.02 10.68 53 10 C52.34 10 51.68 10 51 10 C50.34 8.68 49.68 7.36 49 6 C48.01 6.33 47.02 6.66 46 7 C46 6.34 46 5.68 46 5 C44.35 5 42.7 5 41 5 C41 4.01 41 3.02 41 2 C36.53427636 1.95041052 32.06870039 1.914191 27.6027832 1.89013672 C26.08485114 1.88010455 24.56693827 1.86647562 23.04907227 1.84912109 C20.8620936 1.82474965 18.67537136 1.81348905 16.48828125 1.8046875 C14.51661987 1.78897705 14.51661987 1.78897705 12.50512695 1.77294922 C9.1527405 1.99010596 7.02860477 2.65210264 4 4 C3.01 4 2.02 4 1 4 C0.67 2.68 0.34 1.36 0 0 Z " fill="#7ECAE2" transform="translate(71,81)"/>
<path d="M0 0 C0.886875 -0.00257812 1.77375 -0.00515625 2.6875 -0.0078125 C5 0.125 5 0.125 7 1.125 C7 3.765 7 6.405 7 9.125 C2.71 9.125 -1.58 9.125 -6 9.125 C-6 7.145 -6 5.165 -6 3.125 C-6.33 2.465 -6.66 1.805 -7 1.125 C-4.51245214 -0.11877393 -2.77344699 -0.00806235 0 0 Z " fill="#81CBE5" transform="translate(392,105.875)"/>
<path d="M0 0 C6.6 0 13.2 0 20 0 C20.66 1.65 21.32 3.3 22 5 C21.51015625 4.50886719 21.0203125 4.01773438 20.515625 3.51171875 C16.99621566 1.39679419 13.7230609 1.67561893 9.75 1.8125 C8.63238281 1.83280273 8.63238281 1.83280273 7.4921875 1.85351562 C5.66114584 1.88872796 3.83047831 1.94253149 2 2 C2.01047363 2.9787207 2.02094727 3.95744141 2.03173828 4.96582031 C2.06799093 8.60364105 2.09091958 12.24144587 2.10986328 15.87939453 C2.11990887 17.45266405 2.13354781 19.02591496 2.15087891 20.59912109 C2.17519096 22.86300252 2.18649747 25.12663666 2.1953125 27.390625 C2.20563507 28.09181458 2.21595764 28.79300415 2.22659302 29.51544189 C2.22743257 33.18563476 2.02112595 35.88089213 0 39 C-1.98 39 -3.96 39 -6 39 C-6 38.34 -6 37.68 -6 37 C-4.02 37 -2.04 37 0 37 C0 24.79 0 12.58 0 0 Z " fill="#6D8DA2" transform="translate(77,137)"/>
<path d="M0 0 C8.58 0 17.16 0 26 0 C26.66 1.32 27.32 2.64 28 4 C18.43 4 8.86 4 -1 4 C-0.67 2.68 -0.34 1.36 0 0 Z " fill="#7CC6E5" transform="translate(78,86)"/>
<path d="M0 0 C3.43595166 1.52708963 6.11912454 3.59927045 9 6 C9.66 4.68 10.32 3.36 11 2 C12.65 2.33 14.3 2.66 16 3 C19.07794799 10.87350088 20.59972035 17.53727954 20 26 C19.67 26 19.34 26 19 26 C18.34 20.72 17.68 15.44 17 10 C12.28941438 8.6278958 12.28941438 8.6278958 9 10 C9.33 11.98 9.66 13.96 10 16 C9.34 16 8.68 16 8 16 C7.84144531 15.43152344 7.68289062 14.86304688 7.51953125 14.27734375 C5.81865692 8.6484834 3.63624608 4.61901529 0 0 Z " fill="#87B8D1" transform="translate(191,117)"/>
<path d="M0 0 C3.9030549 3.29320257 3.9030549 3.29320257 4.3359375 6.44921875 C4 9 4 9 2.6015625 10.6953125 C-4.66873757 15.9540671 -11.98840609 18.58771265 -21 18 C-21 17.67 -21 17.34 -21 17 C-20.38511719 16.87882812 -19.77023438 16.75765625 -19.13671875 16.6328125 C-18.32847656 16.46523437 -17.52023438 16.29765625 -16.6875 16.125 C-15.48673828 15.88136719 -15.48673828 15.88136719 -14.26171875 15.6328125 C-11.74698882 15.05521001 -11.74698882 15.05521001 -9 13 C-8.01 13 -7.02 13 -6 13 C-6 12.34 -6 11.68 -6 11 C-2.53846154 8 -2.53846154 8 0 8 C-0.57344937 5.13275314 -0.8614515 4.1385485 -3 2 C-2.01 1.34 -1.02 0.68 0 0 Z " fill="#8DBECF" transform="translate(201,159)"/>
<path d="M0 0 C5.77706732 0.67965498 10.1534464 3.72605156 14 8 C13.67 8.99 13.34 9.98 13 11 C13 11.99 13 12.98 13 14 C11.7625 12.8553125 11.7625 12.8553125 10.5 11.6875 C3.78907703 6.16545849 -3.53548936 5.4512331 -12 5 C-12 4.67 -12 4.34 -12 4 C-7.38 4 -2.76 4 2 4 C2 3.01 2 2.02 2 1 C1.34 0.67 0.68 0.34 0 0 Z " fill="#89CAE9" transform="translate(257,133)"/>
<path d="M0 0 C0.33 0 0.66 0 1 0 C1.00586624 0.55488098 1.01173248 1.10976196 1.01777649 1.68145752 C1.08171092 7.45675705 1.1661304 13.23149935 1.26245117 19.00634766 C1.2957054 21.16154636 1.32373577 23.31683226 1.34643555 25.47216797 C1.379972 28.57036497 1.43228803 31.66776255 1.48828125 34.765625 C1.49467117 35.72929993 1.5010611 36.69297485 1.50764465 37.68585205 C1.52743881 38.58648376 1.54723297 39.48711548 1.56762695 40.41503906 C1.58428154 41.60084564 1.58428154 41.60084564 1.60127258 42.81060791 C2.10261245 45.56343978 3.0991166 46.97085646 5 49 C7.50880616 49.48261667 7.50880616 49.48261667 10.1875 49.25 C11.53908203 49.19585937 11.53908203 49.19585937 12.91796875 49.140625 C13.60503906 49.09421875 14.29210937 49.0478125 15 49 C15.66 50.32 16.32 51.64 17 53 C15.29076788 52.91180119 13.58256287 52.80361428 11.875 52.6875 C10.92367188 52.62949219 9.97234375 52.57148438 8.9921875 52.51171875 C6 52 6 52 0 49 C0 32.83 0 16.66 0 0 Z " fill="#8BC7DD" transform="translate(384,117)"/>
<path d="M0 0 C5.2688172 7.90322581 5.2688172 7.90322581 4.6875 12.4375 C4.460625 12.953125 4.23375 13.46875 4 14 C0 14 0 14 -3 13 C-3.38897161 11.37828761 -3.76078298 9.75245075 -4.125 8.125 C-4.43824219 6.76761719 -4.43824219 6.76761719 -4.7578125 5.3828125 C-4.83773437 4.59648437 -4.91765625 3.81015625 -5 3 C-4.34 2.34 -3.68 1.68 -3 1 C-3 1.99 -3 2.98 -3 4 C-2.34 4 -1.68 4 -1 4 C-1.33 3.01 -1.66 2.02 -2 1 C-1.34 0.67 -0.68 0.34 0 0 Z " fill="#71C7E9" transform="translate(115,149)"/>
<path d="M0 0 C0.33 0 0.66 0 1 0 C1.33 17.49 1.66 34.98 2 53 C-2.455 53.495 -2.455 53.495 -7 54 C-6.67 52.68 -6.34 51.36 -6 50 C-4.02 50.33 -2.04 50.66 0 51 C0 34.17 0 17.34 0 0 Z " fill="#7DC6E4" transform="translate(278,121)"/>
<path d="M0 0 C3.875 3.75 3.875 3.75 5 6 C7.12576782 6.46651207 7.12576782 6.46651207 9.5625 6.625 C10.38878906 6.69976562 11.21507813 6.77453125 12.06640625 6.8515625 C12.70449219 6.90054688 13.34257813 6.94953125 14 7 C14.33 6.01 14.66 5.02 15 4 C16.32 4.33 17.64 4.66 19 5 C19.33 6.65 19.66 8.3 20 10 C16.08433776 11.95783112 11.38818535 11.34704634 7.25 10.3125 C3.69168928 8.23681875 1.52279144 5.61194026 0.25 1.6875 C0.1675 1.130625 0.085 0.57375 0 0 Z " fill="#86B4C6" transform="translate(114,165)"/>
<path d="M0 0 C0.66 0.33 1.32 0.66 2 1 C0.7934375 1.7734375 0.7934375 1.7734375 -0.4375 2.5625 C-3.66447078 5.63205757 -3.74896257 7.64868459 -4 12 C-4.66 12 -5.32 12 -6 12 C-7.20348403 16.96437164 -8.19825673 21.91607525 -5.5625 26.5 C-5.046875 27.325 -4.53125 28.15 -4 29 C-3.3125 32.8125 -3.3125 32.8125 -3 36 C-6.90866176 32.74278187 -8.02404631 29.96109791 -9 25 C-9.55871393 18.737748 -9.32163002 11.8887697 -7 6 C-4.91761521 3.58097102 -2.66103274 1.75030495 0 0 Z " fill="#90C8DF" transform="translate(233,133)"/>
<path d="M0 0 C4.09900891 2.88038464 6.19669821 5.31141535 8 10 C8.495 13.96 8.495 13.96 9 18 C-5.19 18 -19.38 18 -34 18 C-34 17.67 -34 17.34 -34 17 C-32.85934082 16.97494385 -31.71868164 16.9498877 -30.54345703 16.92407227 C-26.32035659 16.83005707 -22.09742291 16.72982213 -17.87451172 16.62768555 C-16.04512425 16.58431435 -14.21569573 16.54264089 -12.38623047 16.50268555 C-9.75996514 16.44503582 -7.1339069 16.38132635 -4.5078125 16.31640625 C-3.27649094 16.29133751 -3.27649094 16.29133751 -2.02029419 16.26576233 C2.1233696 16.2568613 2.1233696 16.2568613 6 15 C4.87528663 9.47015926 3.80025073 6.30695083 0 2 C0 1.34 0 0.68 0 0 Z " fill="#85A3B1" transform="translate(191,118)"/>
<path d="M0 0 C0.99 0.33 1.98 0.66 3 1 C3 2.32 3 3.64 3 5 C-0.21428571 8 -0.21428571 8 -3 8 C-3 8.66 -3 9.32 -3 10 C-6.63 10.33 -10.26 10.66 -14 11 C-13.67 9.68 -13.34 8.36 -13 7 C-10.3125 5.83984375 -10.3125 5.83984375 -7 4.9375 C-3.75990983 4.10473225 -3.75990983 4.10473225 -1 3 C-0.67 2.01 -0.34 1.02 0 0 Z " fill="#70C7E5" transform="translate(198,162)"/>
<path d="M0 0 C2.31 0 4.62 0 7 0 C7 0.33 7 0.66 7 1 C5.35 1.33 3.7 1.66 2 2 C2 3.65 2 5.3 2 7 C0.125 7.625 0.125 7.625 -2 8 C-2.66 7.34 -3.32 6.68 -4 6 C-3.525625 5.566875 -3.05125 5.13375 -2.5625 4.6875 C-0.76313043 2.97690387 -0.76313043 2.97690387 0 0 Z M-11 4 C-10.401875 4.309375 -9.80375 4.61875 -9.1875 4.9375 C-6.91043228 6.10209704 -6.91043228 6.10209704 -4 7 C-3.3046875 8.92578125 -3.3046875 8.92578125 -2.875 11.3125 C-2.65457031 12.48232422 -2.65457031 12.48232422 -2.4296875 13.67578125 C-2.28789063 14.44277344 -2.14609375 15.20976562 -2 16 C-1.6768501 17.33583795 -1.34692071 18.67013726 -1 20 C-5.9903024 15.36614777 -9.12502745 10.56240392 -11 4 Z " fill="#87BED8" transform="translate(108,134)"/>
<path d="M0 0 C0.66 0.33 1.32 0.66 2 1 C0.54462432 1.83848804 -0.91440373 2.67063934 -2.375 3.5 C-3.59316406 4.19609375 -3.59316406 4.19609375 -4.8359375 4.90625 C-7 6 -7 6 -9 6 C-6.26308192 11.81595092 -3.0715699 17.23158628 0.4453125 22.60620117 C1.35604287 24.0347602 2.18564894 25.51438799 3 27 C2.67 27.66 2.34 28.32 2 29 C1.68772461 28.51120361 1.37544922 28.02240723 1.05371094 27.51879883 C-0.37795389 25.28149138 -1.81393614 23.04698613 -3.25 20.8125 C-3.98669922 19.65911133 -3.98669922 19.65911133 -4.73828125 18.48242188 C-6.8475992 15.20594799 -8.90055809 12.117566 -11.421875 9.13671875 C-11.94265625 8.43160156 -12.4634375 7.72648438 -13 7 C-12.67 6.01 -12.34 5.02 -12 4 C-9.69342986 3.24592899 -7.354248 2.588562 -5 2 C-4.071875 1.608125 -3.14375 1.21625 -2.1875 0.8125 C-1.465625 0.544375 -0.74375 0.27625 0 0 Z " fill="#769DAE" transform="translate(122,131)"/>
<path d="M0 0 C0.66 0 1.32 0 2 0 C2.05402274 2.10388569 2.09280256 4.20816714 2.125 6.3125 C2.14820313 7.48425781 2.17140625 8.65601563 2.1953125 9.86328125 C2 13 2 13 0 16 C0.66 16.99 1.32 17.98 2 19 C2.25760279 21.69452521 2.08900053 24.28548375 2 27 C0.02 26.34 -1.96 25.68 -4 25 C-3.2575 24.1028125 -3.2575 24.1028125 -2.5 23.1875 C-0.71723582 21.02970006 -0.71723582 21.02970006 -1 18 C-2.98 18.33 -4.96 18.66 -7 19 C-6.195625 18.38125 -5.39125 17.7625 -4.5625 17.125 C-1.47525576 14.56484624 -1.09504636 13.91291445 -0.68359375 9.9609375 C-0.60238281 8.77757812 -0.52117187 7.59421875 -0.4375 6.375 C-0.31181641 4.59222656 -0.31181641 4.59222656 -0.18359375 2.7734375 C-0.12300781 1.85820312 -0.06242187 0.94296875 0 0 Z " fill="#6F98AC" transform="translate(269,147)"/>
<path d="M0 0 C1.875 0.1875 1.875 0.1875 4 1 C5.25 3.5625 5.25 3.5625 6 6 C1.62269153 10.61391973 -0.91692913 12.14444365 -7.25 12.3125 C-12.7085831 12.2618235 -15.70094663 11.36447655 -20 8 C-20.9375 5.75 -20.9375 5.75 -21 4 C-20.34 4 -19.68 4 -19 4 C-18.67 4.99 -18.34 5.98 -18 7 C-13.33871102 10.10752599 -8.46286701 9.49662427 -3 9 C-0.6281466 8.24432663 0.91430133 7.39046578 3 6 C2.42655063 3.13275314 2.1385485 2.1385485 0 0 Z " fill="#7CAAB9" transform="translate(397,165)"/>
<path d="M0 0 C0.74056641 0.00902344 1.48113281 0.01804687 2.24414062 0.02734375 C4.05873467 0.05075787 5.87316071 0.08662385 7.6875 0.125 C4.84083071 2.02277953 3.54638655 2.48304934 0.3125 3.0625 C-3.44235293 3.82444256 -6.07757461 5.03181298 -9.3125 7.125 C-10.3025 7.125 -11.2925 7.125 -12.3125 7.125 C-12.6425 5.475 -12.9725 3.825 -13.3125 2.125 C-8.90220217 -0.08449832 -4.82309676 -0.1120648 0 0 Z " fill="#6EC7E8" transform="translate(176.3125,106.875)"/>
<path d="M0 0 C2.34293081 3.51439622 2.14659323 4.46077104 1.7578125 8.54296875 C1.66113281 9.61611328 1.56445312 10.68925781 1.46484375 11.79492188 C1.35269531 12.91447266 1.24054688 14.03402344 1.125 15.1875 C1.02058594 16.31865234 0.91617187 17.44980469 0.80859375 18.61523438 C0.54904762 21.41125407 0.27912734 24.20587835 0 27 C-0.33 27 -0.66 27 -1 27 C-1.33885038 24.47980028 -1.67120335 21.95901484 -2 19.4375 C-2.14308594 18.38079102 -2.14308594 18.38079102 -2.2890625 17.30273438 C-3.83125 5.35078125 -3.83125 5.35078125 -1.5 1.5625 C-1.005 1.046875 -0.51 0.53125 0 0 Z " fill="#77CDEF" transform="translate(309,119)"/>
<path d="M0 0 C0.680625 0.61875 1.36125 1.2375 2.0625 1.875 C9.41326156 7.19257219 16.34321989 5.96331087 25 5 C24.34 5.66 23.68 6.32 23 7 C22.01 7 21.02 7 20 7 C20 7.66 20 8.32 20 9 C15.9472484 9.98248524 12.16138263 10.08159574 8 10 C7.67 9.01 7.34 8.02 7 7 C6.195625 6.525625 5.39125 6.05125 4.5625 5.5625 C1.84333111 3.90447019 1.10592885 2.91563061 0 0 Z " fill="#7FB0BD" transform="translate(237,161)"/>
<path d="M0 0 C0.66 0.33 1.32 0.66 2 1 C1.67 1.66 1.34 2.32 1 3 C1.66 3.33 2.32 3.66 3 4 C2.40832031 4.12117187 1.81664062 4.24234375 1.20703125 4.3671875 C0.41683594 4.53476563 -0.37335938 4.70234375 -1.1875 4.875 C-1.96480469 5.03742188 -2.74210937 5.19984375 -3.54296875 5.3671875 C-6.03770783 5.93853131 -6.03770783 5.93853131 -8.40625 7.0625 C-11.51704301 8.18688302 -14.01502582 8.19747196 -17.3125 8.125 C-18.38113281 8.10695312 -19.44976562 8.08890625 -20.55078125 8.0703125 C-21.35902344 8.04710937 -22.16726562 8.02390625 -23 8 C-23 7.01 -23 6.02 -23 5 C-22.33355469 5.04640625 -21.66710937 5.0928125 -20.98046875 5.140625 C-13.57154477 5.43076468 -7.73640613 4.0947696 -1 1 C-0.67 0.67 -0.34 0.34 0 0 Z " fill="#8DC6DF" transform="translate(196,162)"/>
<path d="M0 0 C1.55080743 2.32621115 2.79077344 4.50093178 4 7 C4.83333333 9.16666667 4.83333333 9.16666667 7 10 C7 10.66 7 11.32 7 12 C7.66 12.33 8.32 12.66 9 13 C9.268125 13.928125 9.53625 14.85625 9.8125 15.8125 C11.19720178 19.5293311 12.77575097 20.79393487 16 23 C15.67 23.66 15.34 24.32 15 25 C7.70649202 19.2086289 2.30933218 13.23732874 0 4 C0 2.68 0 1.36 0 0 Z " fill="#86ADBC" transform="translate(298,147)"/>
<path d="M0 0 C3.94890988 3.53274841 6.54081449 7.66637496 9.3125 12.125 C9.77978516 12.85332031 10.24707031 13.58164063 10.72851562 14.33203125 C11.16486328 15.02941406 11.60121094 15.72679687 12.05078125 16.4453125 C12.64886597 17.39688232 12.64886597 17.39688232 13.2590332 18.36767578 C13.50355225 18.90634277 13.74807129 19.44500977 14 20 C13.67 20.66 13.34 21.32 13 22 C12.67 21.67 12.34 21.34 12 21 C11.01 21.99 10.02 22.98 9 24 C8.77213542 22.01432292 8.54427083 20.02864583 8.31640625 18.04296875 C8.02829265 15.80603607 8.02829265 15.80603607 7 13 C6.34 12.67 5.68 12.34 5 12 C4 10.1875 4 10.1875 3 8 C2.649375 7.34 2.29875 6.68 1.9375 6 C1.00499339 4.01065256 0.45925984 2.14321257 0 0 Z " fill="#8ACBE7" transform="translate(110,139)"/>
<path d="M0 0 C1.423125 0.495 1.423125 0.495 2.875 1 C6.5802706 2.18568659 7.32505403 2.22498199 11 1 C11 1.66 11 2.32 11 3 C10.34 3 9.68 3 9 3 C9 3.66 9 4.32 9 5 C7.35 5 5.7 5 4 5 C4.639375 5.66 5.27875 6.32 5.9375 7 C8.58912502 10.85690912 8.68667121 13.37840033 9 18 C8.34 18 7.68 18 7 18 C6.773125 16.783125 6.54625 15.56625 6.3125 14.3125 C5.26836293 9.98352293 3.17842898 8.09478611 0 5 C-0.3125 2.1875 -0.3125 2.1875 0 0 Z " fill="#77ACC2" transform="translate(112,90)"/>
<path d="M0 0 C1.9375 0.625 1.9375 0.625 4 2 C4.95055142 5.72299306 5 9.17950665 5 13 C3.35 12.67 1.7 12.34 0 12 C-1.17661508 8.32307787 -1.14475933 4.8361222 -1 1 C-0.67 0.67 -0.34 0.34 0 0 Z " fill="#6CCDE7" transform="translate(150,148)"/>
<path d="M0 0 C-1.86591797 0.00386719 -1.86591797 0.00386719 -3.76953125 0.0078125 C-12.98103545 0.1725681 -20.12180986 0.43174918 -27.96875 5.8203125 C-28.6390625 6.20960937 -29.309375 6.59890625 -30 7 C-30.99 6.67 -31.98 6.34 -33 6 C-24.19195644 -0.66554648 -10.38638 -6.13852246 0 0 Z " fill="#7E99A9" transform="translate(187,105)"/>
<path d="M0 0 C0.54269531 0.42152344 1.08539063 0.84304687 1.64453125 1.27734375 C2.35996094 1.82519531 3.07539063 2.37304688 3.8125 2.9375 C4.87404297 3.75541016 4.87404297 3.75541016 5.95703125 4.58984375 C8.9743003 6.67250938 11.43984212 7.12451247 15.01171875 7.09765625 C15.76904297 7.09443359 16.52636719 7.09121094 17.30664062 7.08789062 C18.09232422 7.07951172 18.87800781 7.07113281 19.6875 7.0625 C20.88342773 7.05573242 20.88342773 7.05573242 22.10351562 7.04882812 C24.06904257 7.0370585 26.03453085 7.01912348 28 7 C27.01 8.485 27.01 8.485 26 10 C17.07418079 11.28956595 9.48357419 9.98904946 2 5 C1.34 4.34 0.68 3.68 0 3 C0 2.01 0 1.02 0 0 Z " fill="#79969C" transform="translate(315,157)"/>
<path d="M0 0 C1.32 0 2.64 0 4 0 C4 0.66 4 1.32 4 2 C4.66 2.33 5.32 2.66 6 3 C1.88621444 9.70459519 1.88621444 9.70459519 -1.8125 10.9375 C-2.8953125 10.9684375 -2.8953125 10.9684375 -4 11 C-3.52269162 9.5410574 -3.04308958 8.08286504 -2.5625 6.625 C-2.29566406 5.81289062 -2.02882813 5.00078125 -1.75390625 4.1640625 C-1 2 -1 2 0 0 Z " fill="#7FBACE" transform="translate(125,121)"/>
<path d="M0 0 C3.08325358 -0.0582253 6.16636505 -0.09367134 9.25 -0.125 C10.55904297 -0.15013672 10.55904297 -0.15013672 11.89453125 -0.17578125 C12.73886719 -0.18222656 13.58320313 -0.18867187 14.453125 -0.1953125 C15.22817383 -0.20578613 16.00322266 -0.21625977 16.80175781 -0.22705078 C19.32842591 0.03392227 20.86289766 0.63554236 23 2 C23.99 3.485 23.99 3.485 25 5 C25.98095748 6.01868662 26.97702078 7.02351983 28 8 C25.69 7.67 23.38 7.34 21 7 C20.67 5.68 20.34 4.36 20 3 C13.4 2.34 6.8 1.68 0 1 C0 0.67 0 0.34 0 0 Z " fill="#96C7E3" transform="translate(326,105)"/>
<path d="M0 0 C6.6 0 13.2 0 20 0 C20.66 1.65 21.32 3.3 22 5 C21.51015625 4.50886719 21.0203125 4.01773438 20.515625 3.51171875 C16.99621566 1.39679419 13.7230609 1.67561893 9.75 1.8125 C8.63238281 1.83280273 8.63238281 1.83280273 7.4921875 1.85351562 C5.66114584 1.88872796 3.83047831 1.94253149 2 2 C2 5.3 2 8.6 2 12 C1.34 11.67 0.68 11.34 0 11 C0 7.37 0 3.74 0 0 Z " fill="#7297A7" transform="translate(77,137)"/>
<path d="M0 0 C0.680625 0.268125 1.36125 0.53625 2.0625 0.8125 C1.4025 2.7925 0.7425 4.7725 0.0625 6.8125 C-2.60416667 6.8125 -5.27083333 6.8125 -7.9375 6.8125 C-8.9275 7.1425 -9.9175 7.4725 -10.9375 7.8125 C-9.3247711 2.97431329 -5.18948068 -0.33124345 0 0 Z " fill="#78C8EE" transform="translate(318.9375,108.1875)"/>
<path d="M0 0 C2.64 0.99 5.28 1.98 8 3 C8 2.01 8 1.02 8 0 C10.97 0.495 10.97 0.495 14 1 C14 2.32 14 3.64 14 5 C15.65 5 17.3 5 19 5 C19 5.33 19 5.66 19 6 C11.88486245 6.53699151 6.55004254 4.69707634 0 2 C0 1.34 0 0.68 0 0 Z " fill="#82B3C6" transform="translate(159,171)"/>
<path d="M0 0 C2.39073445 3.82517513 2.55966552 7.59665524 3 12 C3.99 12.33 4.98 12.66 6 13 C6.66 13.33 7.32 13.66 8 14 C8 15.65 8 17.3 8 19 C2.83663809 15.75445823 -0.34009281 10.82313388 -2 5 C-1.12890625 2.18359375 -1.12890625 2.18359375 0 0 Z " fill="#89C1DA" transform="translate(147,148)"/>
<path d="M0 0 C2.31 0 4.62 0 7 0 C7 0.33 7 0.66 7 1 C5.35 1 3.7 1 2 1 C2.27714844 1.81984375 2.55429688 2.6396875 2.83984375 3.484375 C3.20207031 4.56203125 3.56429687 5.6396875 3.9375 6.75 C4.47697266 8.35101563 4.47697266 8.35101563 5.02734375 9.984375 C5.77982119 12.31735725 6.44977244 14.61374995 7 17 C6.34 17 5.68 17 5 17 C5 16.01 5 15.02 5 14 C4.34 14 3.68 14 3 14 C-0.52079867 6.19301165 -0.52079867 6.19301165 -1 2 C-0.67 1.34 -0.34 0.68 0 0 Z " fill="#87CADB" transform="translate(152,142)"/>
<path d="M0 0 C0.33 0 0.66 0 1 0 C1.33 5.94 1.66 11.88 2 18 C4.97 18.33 7.94 18.66 11 19 C9 21 9 21 6.125 21.4375 C3 21 3 21 0.7890625 18.9921875 C-1.53898603 15.09855175 -1.23847051 12.02558334 -0.75 7.6875 C-0.68425781 6.94693359 -0.61851562 6.20636719 -0.55078125 5.44335938 C-0.38672618 3.62703541 -0.19601656 1.81315314 0 0 Z " fill="#6B8EA0" transform="translate(386,146)"/>
<path d="M0 0 C0.66 0.66 1.32 1.32 2 2 C1.72460254 4.34087842 1.3813074 6.67402489 1 9 C0.96296763 11.33303944 0.95239087 13.66715242 1 16 C0.01 16.33 -0.98 16.66 -2 17 C-3.31281522 10.43592388 -2.52653315 6.16645379 0 0 Z " fill="#7FC7E1" transform="translate(147,124)"/>
<path d="M0 0 C0.33 0 0.66 0 1 0 C0.96519531 0.9178125 0.93039063 1.835625 0.89453125 2.78125 C0.52100381 14.50531927 0.52100381 14.50531927 6.1875 24.375 C6.785625 24.91125 7.38375 25.4475 8 26 C8 26.66 8 27.32 8 28 C3.77858966 26.49235345 2.19650136 23.78707131 0 20 C-1.26724811 16.33724418 -1.13303058 12.72164989 -1.125 8.875 C-1.12757813 7.63492188 -1.13015625 6.39484375 -1.1328125 5.1171875 C-1 2 -1 2 0 0 Z " fill="#7B9FAA" transform="translate(224,144)"/>
<path d="M0 0 C1.9375 0.3125 1.9375 0.3125 4 1 C4.33 1.99 4.66 2.98 5 4 C4.52949219 4.61359375 4.05898438 5.2271875 3.57421875 5.859375 C1.60991288 8.53044104 1.68346484 9.98110932 1.8125 13.25 C1.85310547 14.58804688 1.85310547 14.58804688 1.89453125 15.953125 C1.94673828 16.96632812 1.94673828 16.96632812 2 18 C0 16 0 16 -0.125 13.375 C-0.08375 12.59125 -0.0425 11.8075 0 11 C-0.66 11 -1.32 11 -2 11 C-1.5206753 6.68607774 -0.2542015 4.83430453 3 2 C0.525 3.485 0.525 3.485 -2 5 C-1.34 3.35 -0.68 1.7 0 0 Z " fill="#6FBEDA" transform="translate(305,115)"/>
<path d="M0 0 C1.60294922 0.01353516 1.60294922 0.01353516 3.23828125 0.02734375 C4.04652344 0.03894531 4.85476563 0.05054687 5.6875 0.0625 C4.41796875 2.046875 4.41796875 2.046875 2.6875 4.0625 C-1 4.3125 -1 4.3125 -4.3125 4.0625 C-4.6425 3.4025 -4.9725 2.7425 -5.3125 2.0625 C-5.93125 2.26875 -6.55 2.475 -7.1875 2.6875 C-7.88875 2.81125 -8.59 2.935 -9.3125 3.0625 C-9.9725 2.4025 -10.6325 1.7425 -11.3125 1.0625 C-7.47525828 0.15836327 -3.93747726 -0.04326898 0 0 Z " fill="#6BC7E4" transform="translate(330.3125,106.9375)"/>
<path d="M0 0 C1.98 1.32 3.96 2.64 6 4 C5.67 4.66 5.34 5.32 5 6 C4.67 5.67 4.34 5.34 4 5 C3.67 5.66 3.34 6.32 3 7 C0.69 7 -1.62 7 -4 7 C-3.39816251 4.97954558 -2.72693904 2.97888961 -2 1 C-1.34 0.67 -0.68 0.34 0 0 Z " fill="#74C3EC" transform="translate(125,165)"/>
<path d="M0 0 C0.66 0 1.32 0 2 0 C1.6875 1.9375 1.6875 1.9375 1 4 C-4.81109182 5.93703061 -11.06636277 5.21715636 -17 4 C-17 3.34 -17 2.68 -17 2 C-15.41058594 2.03480469 -15.41058594 2.03480469 -13.7890625 2.0703125 C-12.4010487 2.08906944 -11.0130273 2.10726972 -9.625 2.125 C-8.92632812 2.14175781 -8.22765625 2.15851563 -7.5078125 2.17578125 C-5.67102514 2.19344267 -3.83398037 2.10303261 -2 2 C-1.34 1.34 -0.68 0.68 0 0 Z " fill="#8AC8DF" transform="translate(343,164)"/>
<path d="M0 0 C0.66 0 1.32 0 2 0 C2.63019694 10.97592998 2.63019694 10.97592998 0 15.25 C-0.66 15.8275 -1.32 16.405 -2 17 C-2.99 16.67 -3.98 16.34 -5 16 C-4.34 16 -3.68 16 -3 16 C-2.27005441 12.40288072 -1.59025242 8.79939671 -0.9375 5.1875 C-0.67259766 3.72376953 -0.67259766 3.72376953 -0.40234375 2.23046875 C-0.26957031 1.49441406 -0.13679688 0.75835937 0 0 Z " fill="#7BABC4" transform="translate(119,109)"/>
<path d="M0 0 C0.8125 1.6875 0.8125 1.6875 1 4 C-1.4375 6.75 -1.4375 6.75 -4 9 C-4.99 8.67 -5.98 8.34 -7 8 C-6.34 7.34 -5.68 6.68 -5 6 C-5 5.01 -5 4.02 -5 3 C-5.99 2.67 -6.98 2.34 -8 2 C-5.09399739 0.74335022 -3.20395416 0 0 0 Z " fill="#83C1D4" transform="translate(268,165)"/>
<path d="M0 0 C0.33 0 0.66 0 1 0 C1 6.27 1 12.54 1 19 C0.01 18.67 -0.98 18.34 -2 18 C-1.85946128 15.37461716 -1.71281053 12.74982573 -1.5625 10.125 C-1.52318359 9.37863281 -1.48386719 8.63226563 -1.44335938 7.86328125 C-1.11328125 2.2265625 -1.11328125 2.2265625 0 0 Z " fill="#748E9B" transform="translate(374,87)"/>
<path d="M0 0 C0.53625 0.226875 1.0725 0.45375 1.625 0.6875 C-1.9585705 4.2710705 -7.60801685 5.448378 -12.58984375 5.87890625 C-14.18616803 5.87564178 -15.78205643 5.79138762 -17.375 5.6875 C-17.375 5.3575 -17.375 5.0275 -17.375 4.6875 C-16.50488281 4.52314453 -16.50488281 4.52314453 -15.6171875 4.35546875 C-11.76308944 3.57320132 -8.59449489 2.79931815 -5.0625 1 C-2.375 -0.3125 -2.375 -0.3125 0 0 Z " fill="#88B0C0" transform="translate(197.375,171.3125)"/>
<path d="M0 0 C1.77706209 2.66559313 2.87548273 5.0280615 4 8 C4.66 8 5.32 8 6 8 C6.33 9.98 6.66 11.96 7 14 C5.35 13.67 3.7 13.34 2 13 C1.67 10.03 1.34 7.06 1 4 C0.34 4 -0.32 4 -1 4 C-0.67 2.68 -0.34 1.36 0 0 Z " fill="#8CCADF" transform="translate(309,147)"/>
<path d="M0 0 C2.475 0.495 2.475 0.495 5 1 C5.33 2.98 5.66 4.96 6 7 C2 7 2 7 0 6 C0 4.02 0 2.04 0 0 Z " fill="#6ACAEE" transform="translate(104,141)"/>
<path d="M0 0 C0.33 0.99 0.66 1.98 1 3 C0.360625 3.9075 -0.27875 4.815 -0.9375 5.75 C-3.33046641 9.52073496 -3.35019759 11.62253016 -3 16 C-3.99 16.33 -4.98 16.66 -6 17 C-6.42938056 9.84365732 -4.44003126 5.49718156 0 0 Z " fill="#7E95A6" transform="translate(161,119)"/>
<path d="M0 0 C3.99996286 1.33332095 4.83782337 3.4957827 7 7 C6.67 7.66 6.34 8.32 6 9 C5.21625 8.525625 4.4325 8.05125 3.625 7.5625 C2.11051322 6.66101977 0.5764103 5.78820515 -1 5 C-0.67 3.35 -0.34 1.7 0 0 Z " fill="#88C0CC" transform="translate(124,160)"/>
<path d="M0 0 C0.33 0 0.66 0 1 0 C1.66 4.62 2.32 9.24 3 14 C0.03 14 -2.94 14 -6 14 C-6 13.67 -6 13.34 -6 13 C-4.35 12.67 -2.7 12.34 -1 12 C-1.33 11.34 -1.66 10.68 -2 10 C-1.55698453 6.60354807 -0.89017244 3.30635477 0 0 Z " fill="#76C6E3" transform="translate(206,127)"/>
<path d="M0 0 C0.33 0.66 0.66 1.32 1 2 C6.61 2.33 12.22 2.66 18 3 C18 3.33 18 3.66 18 4 C11.4 4 4.8 4 -2 4 C-1.34 2.68 -0.68 1.36 0 0 Z " fill="#89C8DC" transform="translate(79,133)"/>
<path d="M0 0 C2.45840605 -0.02691685 4.91651882 -0.04679802 7.375 -0.0625 C8.07367188 -0.07087891 8.77234375 -0.07925781 9.4921875 -0.08789062 C14.7734375 -0.11328125 14.7734375 -0.11328125 17 1 C17 1.66 17 2.32 17 3 C17.66 3 18.32 3 19 3 C19 3.66 19 4.32 19 5 C18.07380859 4.69255859 18.07380859 4.69255859 17.12890625 4.37890625 C11.37289724 2.54784707 6.02021684 1.48550136 0 1 C0 0.67 0 0.34 0 0 Z " fill="#91C9E3" transform="translate(172,112)"/>
<path d="M0 0 C0.66 0 1.32 0 2 0 C1.34 1.32 0.68 2.64 0 4 C-0.66 4 -1.32 4 -2 4 C-2.33 5.65 -2.66 7.3 -3 9 C-2.34 9 -1.68 9 -1 9 C-2 12 -2 12 -4 14 C-4.98685845 10.231995 -5.1687413 8.41783561 -3.6875 4.75 C-2 2 -2 2 0 0 Z " fill="#87CDE7" transform="translate(306,117)"/>
<path d="M0 0 C1.875 0.1875 1.875 0.1875 4 1 C5.25 3.5625 5.25 3.5625 6 6 C4.35 7.65 2.7 9.3 1 11 C0.01 10.67 -0.98 10.34 -2 10 C-0.36587557 8.29159719 0.86906094 7.06546953 3 6 C2.42655063 3.13275314 2.1385485 2.1385485 0 0 Z " fill="#8CB3C6" transform="translate(397,165)"/>
<path d="M0 0 C0.33 0.99 0.66 1.98 1 3 C-0.79240663 2.88610125 -2.58394835 2.75852313 -4.375 2.625 C-5.87160156 2.52058594 -5.87160156 2.52058594 -7.3984375 2.4140625 C-10 2 -10 2 -12 0 C-7.6835078 -0.76173392 -4.25566547 -1.16063604 0 0 Z " fill="#90CCE7" transform="translate(400,167)"/>
<path d="M0 0 C5.94 1.485 5.94 1.485 12 3 C11.67 3.66 11.34 4.32 11 5 C9.54119891 4.85892253 8.08296449 4.71197585 6.625 4.5625 C5.40683594 4.44068359 5.40683594 4.44068359 4.1640625 4.31640625 C2 4 2 4 0 3 C0 2.01 0 1.02 0 0 Z " fill="#6ECAEF" transform="translate(160,166)"/>
<path d="M0 0 C0.75410156 0.00451172 1.50820312 0.00902344 2.28515625 0.01367188 C4.14847127 0.02546501 6.01174555 0.04340058 7.875 0.0625 C7.875 0.3925 7.875 0.7225 7.875 1.0625 C2.265 1.7225 -3.345 2.3825 -9.125 3.0625 C-9.455 2.4025 -9.785 1.7425 -10.125 1.0625 C-6.93675432 -0.53162284 -3.49603338 -0.03924735 0 0 Z " fill="#89C9E8" transform="translate(247.125,131.9375)"/>
<path d="M0 0 C1.65 0 3.3 0 5 0 C5.33 1.32 5.66 2.64 6 4 C3.69 4.33 1.38 4.66 -1 5 C-0.67 3.35 -0.34 1.7 0 0 Z " fill="#73C8E9" transform="translate(366,109)"/>
<path d="M0 0 C0.99 0 1.98 0 3 0 C2.67 2.64 2.34 5.28 2 8 C4.64 8 7.28 8 10 8 C10 8.33 10 8.66 10 9 C6.7 9 3.4 9 0 9 C-0.87890625 2.84765625 -0.87890625 2.84765625 -1 1 C-0.67 0.67 -0.34 0.34 0 0 Z " fill="#A3CEE6" transform="translate(363,106)"/>
<path d="M0 0 C4.48525648 0.656379 8.66914029 1.70074209 13 3 C12.67 3.66 12.34 4.32 12 5 C10.37247769 4.74476126 8.74796804 4.47025506 7.125 4.1875 C6.22007812 4.03667969 5.31515625 3.88585937 4.3828125 3.73046875 C2 3 2 3 0 0 Z " fill="#90B8CB" transform="translate(314,171)"/>
<path d="M0 0 C1.8871875 0.0309375 1.8871875 0.0309375 3.8125 0.0625 C1.8125 3.0625 1.8125 3.0625 -0.3515625 3.57421875 C-1.56972656 3.66123047 -1.56972656 3.66123047 -2.8125 3.75 C-3.62976563 3.81574219 -4.44703125 3.88148438 -5.2890625 3.94921875 C-5.91554687 3.98660156 -6.54203125 4.02398437 -7.1875 4.0625 C-7.1875 3.0725 -7.1875 2.0825 -7.1875 1.0625 C-4.43671116 0.14557039 -2.82801087 -0.04636083 0 0 Z " fill="#6FCAED" transform="translate(250.1875,132.9375)"/>
<path d="M0 0 C1.62490954 -0.02698189 3.24994633 -0.04638757 4.875 -0.0625 C5.77992188 -0.07410156 6.68484375 -0.08570312 7.6171875 -0.09765625 C10 0 10 0 12 1 C12 1.66 12 2.32 12 3 C9.03 3 6.06 3 3 3 C3 2.34 3 1.68 3 1 C2.01 0.67 1.02 0.34 0 0 Z " fill="#90B9CF" transform="translate(363,105)"/>
<path d="M0 0 C1.485 0.99 1.485 0.99 3 2 C3 2.99 3 3.98 3 5 C5.64 6.32 8.28 7.64 11 9 C7.34566236 10.21811255 6.39369816 9.56632223 3 8 C0.44807371 6.72403685 0.00499132 5.62843884 -1 3 C-0.67 2.01 -0.34 1.02 0 0 Z " fill="#8ECCE6" transform="translate(156,164)"/>
<path d="M0 0 C0.99 0.33 1.98 0.66 3 1 C3.6875 3.0625 3.6875 3.0625 4 5 C4.66 5 5.32 5 6 5 C8.10865385 8.47307692 8.10865385 8.47307692 7.55859375 11.140625 C7.28208984 12.06101563 7.28208984 12.06101563 7 13 C5.83072457 11.02237345 4.66464427 9.04285742 3.5 7.0625 C2.8503125 5.96035156 2.200625 4.85820312 1.53125 3.72265625 C0 1 0 1 0 0 Z " fill="#8EC8E5" transform="translate(104,147)"/>
<path d="M0 0 C0 3 0 3 -1.625 5.0625 C-4.37709371 7.30762908 -6.54641063 8.20855243 -10 9 C-12.1875 8.54296875 -12.1875 8.54296875 -14 8 C-12.98679687 7.63648437 -12.98679687 7.63648437 -11.953125 7.265625 C-5.21530749 4.80163073 -5.21530749 4.80163073 0 0 Z " fill="#7AA0AE" transform="translate(117,118)"/>
<path d="M0 0 C1.32 0.66 2.64 1.32 4 2 C3.67 3.98 3.34 5.96 3 8 C1.2925002 6.71937515 -0.37373596 5.38232443 -2 4 C-2 3.34 -2 2.68 -2 2 C-1.34 2 -0.68 2 0 2 C0 1.34 0 0.68 0 0 Z " fill="#71CCF2" transform="translate(198,116)"/>
<path d="M0 0 C0.33 0.99 0.66 1.98 1 3 C1.99 3 2.98 3 4 3 C4.33 2.34 4.66 1.68 5 1 C6.231394 3.46278801 6.07159196 5.2795055 6 8 C5.01 8 4.02 8 3 8 C3 7.34 3 6.68 3 6 C2.01 6 1.02 6 0 6 C0 4.02 0 2.04 0 0 Z " fill="#77C9E3" transform="translate(126,115)"/>
<path d="M0 0 C0.33 0 0.66 0 1 0 C1 1.65 1 3.3 1 5 C-3.455 5.495 -3.455 5.495 -8 6 C-7.67 4.68 -7.34 3.36 -7 2 C-4.69 2.33 -2.38 2.66 0 3 C0 2.01 0 1.02 0 0 Z " fill="#8EC5D8" transform="translate(279,169)"/>
<path d="M0 0 C0.66 0.33 1.32 0.66 2 1 C1.34 4.3 0.68 7.6 0 11 C-2 10 -2 10 -2.8125 8.3125 C-3.08515672 4.94973379 -1.63253939 2.87326933 0 0 Z " fill="#6EC5E3" transform="translate(121,159)"/>
<path d="M0 0 C8.57142857 0.71428571 8.57142857 0.71428571 12 4 C3.42857143 4.28571429 3.42857143 4.28571429 0 2 C0 1.34 0 0.68 0 0 Z " fill="#8EB7C6" transform="translate(260,104)"/>
<path d="M0 0 C0.66 0 1.32 0 2 0 C4.90108294 3.82942948 5.53680089 7.27536912 6 12 C1.6409923 8.51279384 1.05447817 5.27239085 0 0 Z " fill="#8BC4DD" transform="translate(224,157)"/>
<path d="M0 0 C1.125 1.5 1.125 1.5 2 4 C1.57598348 6.7773082 0.81108065 9.29639783 0 12 C-0.66 11.67 -1.32 11.34 -2 11 C-2 9.02 -2 7.04 -2 5 C-1.34 5 -0.68 5 0 5 C-0.33 4.01 -0.66 3.02 -1 2 C-0.67 1.34 -0.34 0.68 0 0 Z " fill="#6FC2E2" transform="translate(229,140)"/>
<path d="M0 0 C0.33 0 0.66 0 1 0 C1.24915939 1.76813112 1.47366632 3.53974982 1.6875 5.3125 C1.81511719 6.29863281 1.94273437 7.28476563 2.07421875 8.30078125 C2 11 2 11 0.51953125 12.85546875 C0.01808594 13.23316406 -0.48335938 13.61085937 -1 14 C-1 13.01 -1 12.02 -1 11 C-1.66 10.67 -2.32 10.34 -3 10 C-2.34 10 -1.68 10 -1 10 C-0.67 6.7 -0.34 3.4 0 0 Z " fill="#72C7DC" transform="translate(300,136)"/>
<path d="M0 0 C4.51347752 2.32121701 7.10087768 4.90712143 10 9 C9.67 9.99 9.34 10.98 9 12 C8.51789063 11.36191406 8.03578125 10.72382812 7.5390625 10.06640625 C6.90742188 9.24011719 6.27578125 8.41382812 5.625 7.5625 C4.99851563 6.73878906 4.37203125 5.91507812 3.7265625 5.06640625 C2.16246096 2.91471908 2.16246096 2.91471908 0 2 C0 1.34 0 0.68 0 0 Z " fill="#88A1B3" transform="translate(195,108)"/>
<path d="M0 0 C6.52307692 -0.36923077 6.52307692 -0.36923077 8.9375 1.5 C9.288125 1.995 9.63875 2.49 10 3 C6.71303767 3.79953138 5.28976808 4.09658936 2 3 C2 2.34 2 1.68 2 1 C1.34 0.67 0.68 0.34 0 0 Z " fill="#70CAF0" transform="translate(339,110)"/>
<path d="M0 0 C-1.76371818 1.03307771 -3.53625033 2.05112049 -5.3125 3.0625 C-6.79169922 3.91521484 -6.79169922 3.91521484 -8.30078125 4.78515625 C-11 6 -11 6 -14 5 C-4.62406015 -1.54135338 -4.62406015 -1.54135338 0 0 Z " fill="#78A4B6" transform="translate(168,106)"/>
<path d="M0 0 C0.66 0.33 1.32 0.66 2 1 C-3.5 6 -3.5 6 -8 6 C-8 5.34 -8 4.68 -8 4 C-6.71349294 3.30289269 -5.42059335 2.61757124 -4.125 1.9375 C-3.40570313 1.55464844 -2.68640625 1.17179688 -1.9453125 0.77734375 C-1.30335938 0.52082031 -0.66140625 0.26429688 0 0 Z " fill="#95BACE" transform="translate(353,168)"/>
<path d="M0 0 C1.65 0 3.3 0 5 0 C5.33 1.32 5.66 2.64 6 4 C4.02 4 2.04 4 0 4 C0 2.68 0 1.36 0 0 Z " fill="#6ACBEA" transform="translate(272,168)"/>
<path d="M0 0 C0.66 0.33 1.32 0.66 2 1 C1.34 2.32 0.68 3.64 0 5 C1.32 4.67 2.64 4.34 4 4 C2.71034824 5.37562854 1.37310707 6.70766393 0 8 C-0.66 8 -1.32 8 -2 8 C-2.6875 5.6875 -2.6875 5.6875 -3 3 C-1.5625 1.1875 -1.5625 1.1875 0 0 Z " fill="#76C2E4" transform="translate(233,112)"/>
<path d="M0 0 C0.33 0 0.66 0 1 0 C1.08126087 2.08268593 1.13930839 4.16628658 1.1875 6.25 C1.23970703 7.99023438 1.23970703 7.99023438 1.29296875 9.765625 C0.97982934 13.22268407 0.34290892 14.51565563 -2 17 C-1.855625 15.865625 -1.71125 14.73125 -1.5625 13.5625 C-0.99698633 9.04646944 -0.49225191 4.52452819 0 0 Z " fill="#87CAE8" transform="translate(122,103)"/>
<path d="M0 0 C2.01822917 0.06510417 4.03645833 0.13020833 6.0546875 0.1953125 C6.3846875 1.5153125 6.7146875 2.8353125 7.0546875 4.1953125 C6.3946875 4.1953125 5.7346875 4.1953125 5.0546875 4.1953125 C5.0546875 3.5353125 5.0546875 2.8753125 5.0546875 2.1953125 C2.0846875 2.1953125 -0.8853125 2.1953125 -3.9453125 2.1953125 C-1.9453125 0.1953125 -1.9453125 0.1953125 0 0 Z " fill="#8AA9B9" transform="translate(378.9453125,85.8046875)"/>
<path d="M0 0 C0.54269531 0.42152344 1.08539063 0.84304687 1.64453125 1.27734375 C2.35996094 1.82519531 3.07539063 2.37304688 3.8125 2.9375 C4.87404297 3.75541016 4.87404297 3.75541016 5.95703125 4.58984375 C8.04125052 6.16856248 8.04125052 6.16856248 11 7 C11 7.66 11 8.32 11 9 C6.5221629 7.75037104 3.35725691 6.25851406 0 3 C0 2.01 0 1.02 0 0 Z " fill="#7C9CAB" transform="translate(315,157)"/>
<path d="M0 0 C0.99 0 1.98 0 3 0 C3 0.99 3 1.98 3 3 C3.99 3.33 4.98 3.66 6 4 C6 4.99 6 5.98 6 7 C4.35 6.67 2.7 6.34 1 6 C1.33 4.68 1.66 3.36 2 2 C1.34 2 0.68 2 0 2 C0 1.34 0 0.68 0 0 Z " fill="#70CDF4" transform="translate(308,157)"/>
<path d="M0 0 C0.66 0 1.32 0 2 0 C2.433125 1.2065625 2.433125 1.2065625 2.875 2.4375 C3.73262568 5.1326468 3.73262568 5.1326468 6 6 C5.67 6.66 5.34 7.32 5 8 C2.5 6.8125 2.5 6.8125 0 5 C-0.3125 2.3125 -0.3125 2.3125 0 0 Z " fill="#74C5DC" transform="translate(109,141)"/>
<path d="M0 0 C0.66 0.33 1.32 0.66 2 1 C1.2575 1.53625 0.515 2.0725 -0.25 2.625 C-3.17674961 5.15264739 -4.98621339 7.71827368 -7 11 C-7.33 10.01 -7.66 9.02 -8 8 C-5.46209694 4.54563194 -3.56854354 2.37902903 0 0 Z " fill="#8A9CB1" transform="translate(233,133)"/>
<path d="M0 0 C0.66 0 1.32 0 2 0 C2 3.3 2 6.6 2 10 C1.34 9.67 0.68 9.34 0 9 C-1.28571429 2.57142857 -1.28571429 2.57142857 0 0 Z " fill="#77CAF5" transform="translate(151,123)"/>
<path d="M0 0 C-0.66 0 -1.32 0 -2 0 C-2 0.66 -2 1.32 -2 2 C-4.97 3.65 -7.94 5.3 -11 7 C-9.91072362 3.73217086 -9.31652071 3.18062667 -6.625 1.25 C-6.01914062 0.80140625 -5.41328125 0.3528125 -4.7890625 -0.109375 C-3 -1 -3 -1 0 0 Z " fill="#94CEEC" transform="translate(319,109)"/>
<path d="M0 0 C0.66 0 1.32 0 2 0 C2 0.99 2 1.98 2 3 C2.66 3 3.32 3 4 3 C4.33 2.34 4.66 1.68 5 1 C5 1.99 5 2.98 5 4 C2.36 4.33 -0.28 4.66 -3 5 C-2.67 4.01 -2.34 3.02 -2 2 C-1.34 1.67 -0.68 1.34 0 1 C0 0.67 0 0.34 0 0 Z " fill="#78C7DF" transform="translate(71,169)"/>
<path d="M0 0 C0.66 0.33 1.32 0.66 2 1 C1.50168276 4.68754757 0.89932357 6.60490662 -2 9 C-2.99 8.67 -3.98 8.34 -5 8 C-3.71034824 6.62437146 -2.37310707 5.29233607 -1 4 C-0.34 4 0.32 4 1 4 C1 3.34 1 2.68 1 2 C0.34 1.67 -0.32 1.34 -1 1 C-0.67 0.67 -0.34 0.34 0 0 Z " fill="#98CAE5" transform="translate(354,113)"/>
<path d="M0 0 C1.32 0.66 2.64 1.32 4 2 C4 2.66 4 3.32 4 4 C3.34 4 2.68 4 2 4 C1.67 4.66 1.34 5.32 1 6 C-0.32 4.68 -1.64 3.36 -3 2 C-2.01 1.34 -1.02 0.68 0 0 Z " fill="#6FC5E2" transform="translate(194,114)"/>
<path d="M0 0 C-0.33 0.66 -0.66 1.32 -1 2 C-2.5778125 1.5359375 -2.5778125 1.5359375 -4.1875 1.0625 C-7.12752396 0.24314906 -10.00161623 -0.45483931 -13 -1 C-13 -1.33 -13 -1.66 -13 -2 C-7.52667068 -3.46845421 -4.88077452 -2.44038726 0 0 Z " fill="#94B1C8" transform="translate(194,107)"/>
<path d="M0 0 C3 1 3 1 5 3 C4.01 3.33 3.02 3.66 2 4 C1.67 4.66 1.34 5.32 1 6 C0.34 5.67 -0.32 5.34 -1 5 C-1 4.34 -1 3.68 -1 3 C-1.66 2.67 -2.32 2.34 -3 2 C-2.01 1.34 -1.02 0.68 0 0 Z " fill="#89CCEC" transform="translate(162,108)"/>
<path d="M0 0 C3.36591866 1.44253657 5.51047079 3.33264727 8 6 C7.67 6.66 7.34 7.32 7 8 C6.01 7.34 5.02 6.68 4 6 C3.34 6 2.68 6 2 6 C1.34 4.02 0.68 2.04 0 0 Z " fill="#89CFE4" transform="translate(120,85)"/>
<path d="M0 0 C2.97 1.98 2.97 1.98 6 4 C5.67 4.66 5.34 5.32 5 6 C2.69 5.34 0.38 4.68 -2 4 C-2 3.01 -2 2.02 -2 1 C-1.34 0.67 -0.68 0.34 0 0 Z " fill="#85C7EB" transform="translate(125,165)"/>
<path d="M0 0 C2 1 4 2 6 3 C6 4.65 6 6.3 6 8 C1.2 4.55384615 1.2 4.55384615 0.1875 1.75 C0.125625 1.1725 0.06375 0.595 0 0 Z " fill="#90C7E6" transform="translate(149,159)"/>
<path d="M0 0 C0.66 0 1.32 0 2 0 C2.66 1.98 3.32 3.96 4 6 C2.35 5.67 0.7 5.34 -1 5 C-0.67 3.35 -0.34 1.7 0 0 Z " fill="#73C9F2" transform="translate(151,155)"/>
<path d="M0 0 C1.4606285 2.64738916 2 3.89448334 2 7 C-0.31 7 -2.62 7 -5 7 C-4.360625 6.5875 -3.72125 6.175 -3.0625 5.75 C-0.79009069 3.82189513 -0.39803561 2.88575819 0 0 Z " fill="#7395A2" transform="translate(198,129)"/>
<path d="M0 0 C2.475 0.495 2.475 0.495 5 1 C5.66 3.31 6.32 5.62 7 8 C6.34 8 5.68 8 5 8 C3.1402289 5.40759181 1.42794577 2.85589153 0 0 Z " fill="#8CC8E0" transform="translate(115,94)"/>
<path d="M0 0 C0 0.66 0 1.32 0 2 C-4.43076923 4.09230769 -4.43076923 4.09230769 -7.3125 3.625 C-7.869375 3.41875 -8.42625 3.2125 -9 3 C-8.01 3 -7.02 3 -6 3 C-6 2.34 -6 1.68 -6 1 C-4 0 -4 0 0 0 Z " fill="#6FCEED" transform="translate(399,169)"/>
<path d="M0 0 C1.98 0 3.96 0 6 0 C6.33 1.32 6.66 2.64 7 4 C5.35 4 3.7 4 2 4 C1.34 2.68 0.68 1.36 0 0 Z " fill="#7FCDEB" transform="translate(257,168)"/>
<path d="M0 0 C1.64826111 2.96687001 2.44271087 5.65626525 3 9 C2.01 8.67 1.02 8.34 0 8 C-1.125 2.25 -1.125 2.25 0 0 Z " fill="#85CDE8" transform="translate(301,147)"/>
<path d="M0 0 C0.66 1.32 1.32 2.64 2 4 C-1.96 5.98 -1.96 5.98 -6 8 C-4.21844267 4.43688534 -2.83236991 2.64354525 0 0 Z " fill="#96C7DF" transform="translate(235,132)"/>
<path d="M0 0 C1.65 0 3.3 0 5 0 C5 0.99 5 1.98 5 3 C3.35 3.33 1.7 3.66 0 4 C0 2.68 0 1.36 0 0 Z " fill="#67CBF0" transform="translate(378,90)"/>
<path d="M0 0 C2.95409701 1.37154504 5.44008376 2.98863724 8 5 C7.67 5.99 7.34 6.98 7 8 C7 7.34 7 6.68 7 6 C6.401875 5.7525 5.80375 5.505 5.1875 5.25 C2.71352479 3.83629988 1.56629745 2.34944617 0 0 Z " fill="#91C9E5" transform="translate(191,117)"/>
<path d="M0 0 C2.5 1.375 2.5 1.375 5 3 C5 3.66 5 4.32 5 5 C3.0625 5.5625 3.0625 5.5625 1 6 C0 5 0 5 -0.0625 2.4375 C-0.041875 1.633125 -0.02125 0.82875 0 0 Z " fill="#66CBE1" transform="translate(158,112)"/>
</svg>
