<?xml version="1.0" encoding="UTF-8"?>
<svg version="1.1" xmlns="http://www.w3.org/2000/svg" width="474" height="264">
<path d="M0 0 C156.42 0 312.84 0 474 0 C474 87.12 474 174.24 474 264 C317.58 264 161.16 264 0 264 C0 176.88 0 89.76 0 0 Z " fill="#434444" transform="translate(0,0)"/>
<path d="M0 0 C51.97563559 0 51.97563559 0 60.34375 8.09375 C67.29351807 16.09253967 67.74927419 24.79896226 67.21777344 34.93261719 C66.5209983 41.54729418 63.24734153 46.32575501 58.1875 50.4375 C54.05563801 53.2051419 49.07819099 56 44 56 C47.42970135 61.92529705 51.06847038 67.68698206 54.875 73.375 C55.30006836 74.01018555 55.72513672 74.64537109 56.16308594 75.29980469 C58.23860785 78.39344787 60.32491956 81.47944367 62.421875 84.55859375 C63.14890625 85.63238281 63.8759375 86.70617187 64.625 87.8125 C65.27726562 88.76769531 65.92953125 89.72289062 66.6015625 90.70703125 C68 93 68 93 68 95 C63.24131626 96.34841263 58.57681614 97.22110195 54 95 C49.01223163 89.81085381 45.89159603 83.08667842 42.55908203 76.77441406 C40.48876458 73.09024753 38.09569356 69.69872807 35.61108398 66.28466797 C31 59.74571905 31 59.74571905 31 57 C24.4 57 17.8 57 11 57 C11 69.21 11 81.42 11 94 C7.37 94 3.74 94 0 94 C0 62.98 0 31.96 0 0 Z " fill="#79C6E4" transform="translate(66,80)"/>
<path d="M0 0 C4.74299957 4.01659423 7.45394266 7.96537598 9 14 C9.27263367 18.06129003 9.23253574 22.11087903 9.1953125 26.1796875 C9.1924826 27.3475882 9.18965271 28.51548889 9.18673706 29.71878052 C9.17556973 33.43762591 9.15047104 37.15622777 9.125 40.875 C9.11496576 43.40103818 9.10584069 45.92708015 9.09765625 48.453125 C9.07564161 54.63551006 9.04113508 60.81771378 9 67 C5.37 67 1.74 67 -2 67 C-2.33 65.02 -2.66 63.04 -3 61 C-3.77923828 61.50660156 -3.77923828 61.50660156 -4.57421875 62.0234375 C-5.27160156 62.46945313 -5.96898437 62.91546875 -6.6875 63.375 C-7.37199219 63.81585938 -8.05648437 64.25671875 -8.76171875 64.7109375 C-16.16771504 68.97617097 -23.70501838 68.79272238 -32 68 C-38.22984066 66.02509813 -42.34878103 62.31086395 -46 57 C-49.10061091 50.69947035 -48.81180416 43.82060461 -48 37 C-45.07477018 29.89126136 -38.59861544 26.29930772 -32 23 C-22.21158747 22.1995457 -14.4115914 22.34658826 -6 28 C-5.01 28.66 -4.02 29.32 -3 30 C-2.11460562 20.85809915 -2.11460562 20.85809915 -4.5625 12.3125 C-10.40906354 6.76576023 -16.01518415 6.46592069 -23.8359375 6.63671875 C-28.2420285 7.14260327 -31.31149377 8.65510277 -35 11 C-36.32719189 11.67881066 -37.65912535 12.3486342 -39 13 C-39 13.66 -39 14.32 -39 15 C-39.66 15 -40.32 15 -41 15 C-43.05842301 12.33167388 -44 10.71483171 -44 7.3125 C-43 5 -43 5 -40.4375 3.6875 C-39.633125 3.460625 -38.82875 3.23375 -38 3 C-38 2.34 -38 1.68 -38 1 C-36.41800369 0.35089846 -34.83434276 -0.29414694 -33.25 -0.9375 C-32.36828125 -1.29714844 -31.4865625 -1.65679687 -30.578125 -2.02734375 C-20.69780712 -5.75491822 -9.23519561 -5.2730463 0 0 Z " fill="#72C8EA" transform="translate(272,108)"/>
<path d="M0 0 C2 1.125 2 1.125 3.8125 2.375 C4.740625 2.99375 4.740625 2.99375 5.6875 3.625 C12.50229088 8.79484136 17.36530012 16.98124068 18.8125 25.375 C18.8125 29.335 18.8125 33.295 18.8125 37.375 C0.6625 37.375 -17.4875 37.375 -36.1875 37.375 C-33.3118928 49.25737473 -33.3118928 49.25737473 -24.96875 57.46484375 C-18.38555719 60.82862429 -9.17663802 60.43666783 -2.22265625 58.5859375 C2.01854971 56.91496613 6.01303777 54.90797482 9.8125 52.375 C13.83776641 56.76619972 13.83776641 56.76619972 13.73046875 59.3515625 C12.44171384 62.19230736 10.75521225 62.97837858 8.0625 64.5 C7.20140625 64.99757813 6.3403125 65.49515625 5.453125 66.0078125 C-3.81329566 70.8055155 -14.37558162 70.62069804 -24.5625 68.7578125 C-33.22947724 65.97551583 -39.87951649 60.42037691 -44.125 52.375 C-48.76289289 41.88376643 -49.71020643 31.42348836 -46.1875 20.375 C-42.24478372 10.21492342 -35.79553916 4.30304763 -26.1875 -0.625 C-18.79430081 -3.08939973 -7.27262976 -3.04818047 0 0 Z " fill="#77C5E3" transform="translate(191.1875,106.625)"/>
<path d="M0 0 C0.88115479 0.00878174 1.76230957 0.01756348 2.67016602 0.02661133 C11.11218854 0.2914254 17.11640365 2.49346925 23.25 8.375 C23.86875 9.096875 24.4875 9.81875 25.125 10.5625 C23.63402342 14.3577131 21.36799151 16.17292731 18.125 18.5625 C17.63 17.0775 17.63 17.0775 17.125 15.5625 C15.42730766 14.46081016 15.42730766 14.46081016 13.125 13.5625 C12.114375 13.02625 11.10375 12.49 10.0625 11.9375 C4.59990321 9.65164941 -1.54731006 9.51520672 -7.18359375 11.2890625 C-13.00046492 13.99407253 -17.26809956 17.5466778 -19.625 23.625 C-22.95690163 33.40761816 -22.76750436 41.31816839 -18.4296875 50.8515625 C-15.58566741 55.81073321 -12.13024175 58.45993737 -7.0625 60.9375 C0.12665226 62.3471377 5.92383484 62.27753989 12.43359375 58.73046875 C14.20013497 57.59051109 14.20013497 57.59051109 15.7265625 55.921875 C16.18804687 55.47328125 16.64953125 55.0246875 17.125 54.5625 C20.12850106 54.65938713 21.14515684 55.58097711 23.375 57.625 C24.24125 58.5840625 24.24125 58.5840625 25.125 59.5625 C24.3125 61.5 24.3125 61.5 23.125 63.5625 C22.135 63.8925 21.145 64.2225 20.125 64.5625 C19.63 66.0475 19.63 66.0475 19.125 67.5625 C11.43419234 72.88553586 1.05464146 72.62457798 -7.875 71.5625 C-11.77371456 70.67148943 -15.44799311 69.66224398 -18.875 67.5625 C-19.205 66.5725 -19.535 65.5825 -19.875 64.5625 C-20.7721875 64.129375 -20.7721875 64.129375 -21.6875 63.6875 C-27.55722911 60.66878217 -30.42067965 53.40177519 -32.875 47.5625 C-35.95491435 35.74332867 -33.79708477 24.84637172 -28.125 14.3125 C-20.44530315 4.92620385 -12.22762645 -0.21052034 0 0 Z " fill="#77C6E2" transform="translate(331.875,104.4375)"/>
<path d="M0 0 C5.3625 -0.04125 10.725 -0.0825 16.25 -0.125 C18.77962402 -0.15231201 18.77962402 -0.15231201 21.36035156 -0.18017578 C22.70377281 -0.18601949 24.0471976 -0.19111534 25.390625 -0.1953125 C26.42872314 -0.2106604 26.42872314 -0.2106604 27.48779297 -0.22631836 C32.25865292 -0.22804069 35.19855438 0.28715006 38.66796875 3.5859375 C39.16941406 4.17632812 39.67085937 4.76671875 40.1875 5.375 C40.69667969 5.96023437 41.20585938 6.54546875 41.73046875 7.1484375 C45.03238483 11.96415511 44.58461989 18.40551241 44 24 C41.39320293 29.31014219 37.78307165 32.88189487 32.26904297 35.09716797 C28.71393323 36.07900485 25.75376303 36.22790941 22.0703125 36.1953125 C20.90773926 36.19031738 19.74516602 36.18532227 18.54736328 36.18017578 C17.0879834 36.16196777 15.62860352 36.14375977 14.125 36.125 C9.46375 36.08375 4.8025 36.0425 0 36 C0 24.12 0 12.24 0 0 Z " fill="#424545" transform="translate(77,91)"/>
<path d="M0 0 C3.3 0 6.6 0 10 0 C10 5.94 10 11.88 10 18 C14.62 18 19.24 18 24 18 C24 20.97 24 23.94 24 27 C19.38 27 14.76 27 10 27 C10.06882255 33.62065344 10.15676399 40.24067206 10.26245117 46.86083984 C10.29571024 49.1130469 10.32373908 51.36533751 10.34643555 53.61767578 C10.37996296 56.85485446 10.43227888 60.0912668 10.48828125 63.328125 C10.49467117 64.33554749 10.5010611 65.34296997 10.50764465 66.38092041 C10.53733589 67.79193024 10.53733589 67.79193024 10.56762695 69.23144531 C10.57873001 70.05751282 10.58983307 70.88358032 10.60127258 71.73468018 C11.09643703 74.54789489 12.03441247 75.94790114 14 78 C18.20362607 78.54829905 21.19685841 77.78971369 25 76 C26.83691257 79.78187881 27.15837626 81.94568308 26 86 C20.03874087 88.6494485 12.18363977 89.5548393 5.9609375 87.2421875 C2.90836585 85.33245056 1.29955214 83.29008544 0 80 C-0.24050903 77.50689697 -0.24050903 77.50689697 -0.22705078 74.68066406 C-0.22689972 73.61986633 -0.22674866 72.5590686 -0.22659302 71.46612549 C-0.21627045 70.32746033 -0.20594788 69.18879517 -0.1953125 68.015625 C-0.1924826 66.84489441 -0.18965271 65.67416382 -0.18673706 64.46795654 C-0.17554156 60.72853375 -0.15043776 56.98935041 -0.125 53.25 C-0.1149694 50.71484721 -0.10584369 48.17969066 -0.09765625 45.64453125 C-0.07560422 39.42959523 -0.04107835 33.21483822 0 27 C-3.96 27 -7.92 27 -12 27 C-12 24.03 -12 21.06 -12 18 C-8.04 18 -4.08 18 0 18 C0 12.06 0 6.12 0 0 Z " fill="#73C8E5" transform="translate(375,88)"/>
<path d="M0 0 C2 1.125 2 1.125 3.8125 2.375 C4.740625 2.99375 4.740625 2.99375 5.6875 3.625 C12.51374139 8.80352795 17.33853525 16.97340091 18.8125 25.375 C18.8125 29.005 18.8125 32.635 18.8125 36.375 C2.3125 36.375 -14.1875 36.375 -31.1875 36.375 C-31.1875 35.715 -31.1875 35.055 -31.1875 34.375 C-33.8275 34.375 -36.4675 34.375 -39.1875 34.375 C-39.1875 34.045 -39.1875 33.715 -39.1875 33.375 C-36.7125 32.88 -36.7125 32.88 -34.1875 32.375 C-35.1775 32.045 -36.1675 31.715 -37.1875 31.375 C-37.1875 30.055 -37.1875 28.735 -37.1875 27.375 C-37.8475 27.375 -38.5075 27.375 -39.1875 27.375 C-38.1975 23.91 -38.1975 23.91 -37.1875 20.375 C-35.1875 23.375 -35.1875 23.375 -36.1875 29.375 C-21.6675 29.375 -7.1475 29.375 7.8125 29.375 C5.2574707 16.98863033 5.2574707 16.98863033 -3.1875 9.5625 C-8.9655845 7.27534155 -15.32532861 6.0221886 -21.33984375 8.12890625 C-27.85668266 11.22349456 -31.17833859 14.7548449 -34.1875 21.375 C-35.99161967 18.61575815 -36.2002245 17.48527897 -35.8125 14.125 C-35.60625 13.2175 -35.4 12.31 -35.1875 11.375 C-36.8375 12.035 -38.4875 12.695 -40.1875 13.375 C-40.1875 9.23581407 -39.08757817 8.34412765 -36.1875 5.375 C-25.81421332 -1.67068572 -12.16975538 -5.10071486 0 0 Z " fill="#7CC5E0" transform="translate(191.1875,106.625)"/>
<path d="M0 0 C3.05345133 1.78117994 5.49520375 3.24520375 8 5.75 C9.04938629 10.99693143 9.58349994 17.95050182 6.85546875 22.7734375 C0.78827754 28.05621612 -7.10871507 28.19060649 -14.70703125 28.0625 C-19.18990831 27.63707869 -20.8719061 26.96263698 -24 23.75 C-27.56838675 18.75425855 -27.70493182 13.67738447 -27 7.75 C-25.5172163 3.73776175 -23.10364391 1.47313064 -19.2890625 -0.5234375 C-13.29275377 -2.42670273 -5.87566957 -2.33222849 0 0 Z " fill="#404547" transform="translate(262,140.25)"/>
<path d="M0 0 C42 0 42 0 48 2 C48 2.66 48 3.32 48 4 C48.70125 4.185625 49.4025 4.37125 50.125 4.5625 C54.09640051 6.54820026 56.3073418 9.53933276 59 13 C58.67 13.66 58.34 14.32 58 15 C53.8958089 15 52.15978893 13.54156936 49 11 C48.125 8.25 48.125 8.25 48 6 C47.01 6 46.02 6 45 6 C44.67 6.66 44.34 7.32 44 8 C42.02 8 40.04 8 38 8 C37.34 6.68 36.68 5.36 36 4 C32.22918278 3.97100401 28.45839417 3.95320271 24.6875 3.9375 C23.61564453 3.92912109 22.54378906 3.92074219 21.43945312 3.91210938 C20.41142578 3.90888672 19.38339844 3.90566406 18.32421875 3.90234375 C17.37635498 3.89710693 16.42849121 3.89187012 15.4519043 3.88647461 C12.86161319 3.89501146 12.86161319 3.89501146 10 5 C10.020625 5.804375 10.04125 6.60875 10.0625 7.4375 C10 10 10 10 9 11 C8.86575098 13.09757006 8.79636666 15.19934839 8.75390625 17.30078125 C8.72103516 18.58791016 8.68816406 19.87503906 8.65429688 21.20117188 C8.60696505 23.25507881 8.56256783 25.30896167 8.52319336 27.36303711 C8.48335185 29.34246851 8.4312749 31.32164165 8.37890625 33.30078125 C8.3538501 34.48841064 8.32879395 35.67604004 8.30297852 36.8996582 C8.0172447 39.82353709 7.5256047 41.52904685 6 44 C5.67 43.67 5.34 43.34 5 43 C4.80558632 45.2910905 4.61966865 47.58290337 4.4375 49.875 C4.33308594 51.15117187 4.22867188 52.42734375 4.12109375 53.7421875 C3.74316633 56.88643942 3.74316633 56.88643942 5 59 C5.08372659 60.52148326 5.10730027 62.04655778 5.09765625 63.5703125 C5.09282227 64.91416016 5.09282227 64.91416016 5.08789062 66.28515625 C5.07951172 67.22230469 5.07113281 68.15945312 5.0625 69.125 C5.05798828 70.06988281 5.05347656 71.01476562 5.04882812 71.98828125 C5.03702357 74.32558387 5.02055759 76.66276061 5 79 C4.34 79 3.68 79 3 79 C3 79.66 3 80.32 3 81 C4.32 81 5.64 81 7 81 C7.33 84.63 7.66 88.26 8 92 C5.36 92 2.72 92 0 92 C0 61.64 0 31.28 0 0 Z " fill="#70C9EB" transform="translate(68,81)"/>
<path d="M0 0 C5.46689384 3.50706397 8.27355251 7.81525574 10 14 C10 15.98 10 17.96 10 20 C-4.52 20 -19.04 20 -34 20 C-34 12.77841288 -32.17888546 8.78005842 -28 3 C-19.53329257 -4.28678964 -9.88566726 -4.53016663 0 0 Z " fill="#404646" transform="translate(189,116)"/>
<path d="M0 0 C2 2 2 2 2.24050903 4.25259399 C2.2338472 5.65824112 2.2338472 5.65824112 2.22705078 7.09228516 C2.22689972 8.15323395 2.22674866 9.21418274 2.22659302 10.30728149 C2.21627045 11.45626923 2.20594788 12.60525696 2.1953125 13.7890625 C2.1924826 14.96262299 2.18965271 16.13618347 2.18673706 17.3453064 C2.17551355 21.10530662 2.15040492 24.86507139 2.125 28.625 C2.11497301 31.1692674 2.10584668 33.71353852 2.09765625 36.2578125 C2.0755671 42.50529949 2.04102236 48.75260979 2 55 C-1.63 55 -5.26 55 -9 55 C-9.495 52.03 -9.495 52.03 -10 49 C-10.51949219 49.33773437 -11.03898437 49.67546875 -11.57421875 50.0234375 C-17.95820817 54.10635864 -22.21857602 56.30515388 -30 56 C-28.68 55.34 -27.36 54.68 -26 54 C-26.63808594 53.80664062 -27.27617187 53.61328125 -27.93359375 53.4140625 C-29.17302734 53.02347656 -29.17302734 53.02347656 -30.4375 52.625 C-31.67306641 52.24214844 -31.67306641 52.24214844 -32.93359375 51.8515625 C-35 51 -35 51 -36 49 C-38.02120024 47.92405935 -40.09289801 47.02152534 -42.1875 46.09765625 C-44 45 -44 45 -45 42 C-45.07973476 40.66474283 -45.10771338 39.32587917 -45.09765625 37.98828125 C-45.09443359 37.23095703 -45.09121094 36.47363281 -45.08789062 35.69335938 C-45.07951172 34.90767578 -45.07113281 34.12199219 -45.0625 33.3125 C-45.05798828 32.51521484 -45.05347656 31.71792969 -45.04882812 30.89648438 C-45.0370585 28.93095743 -45.01912348 26.96546915 -45 25 C-44.34 25 -43.68 25 -43 25 C-42.7834375 24.071875 -42.7834375 24.071875 -42.5625 23.125 C-42 21 -42 21 -41 19 C-39.35 19 -37.7 19 -36 19 C-36 19.66 -36 20.32 -36 21 C-36.78375 21.226875 -37.5675 21.45375 -38.375 21.6875 C-41.08823948 22.76936025 -41.08823948 22.76936025 -42.3125 25 C-43.61036279 30.66340127 -43.7177628 35.92226557 -41.8125 41.4375 C-39.73004741 44.3816571 -38.23154765 45.42692396 -35 47 C-25.87725406 48.22297681 -17.77641035 47.25910441 -10.3046875 41.75 C-8.39663416 39.19069492 -8.48193194 36.96393413 -8.3125 33.8125 C-8.24675781 32.72582031 -8.18101562 31.63914063 -8.11328125 30.51953125 C-8.07589844 29.68808594 -8.03851563 28.85664063 -8 28 C-7.67 28 -7.34 28 -7 28 C-7 32.95 -7 37.9 -7 43 C-5.35 43.33 -3.7 43.66 -2 44 C-1.67 42.68 -1.34 41.36 -1 40 C-1.99 40 -2.98 40 -4 40 C-4 34.72 -4 29.44 -4 24 C-3.01 23.67 -2.02 23.34 -1 23 C-0.67 15.41 -0.34 7.82 0 0 Z " fill="#7CC1DC" transform="translate(279,120)"/>
<path d="M0 0 C4.351875 -0.020625 8.70375 -0.04125 13.1875 -0.0625 C14.55156982 -0.071604 15.91563965 -0.08070801 17.32104492 -0.09008789 C18.40490479 -0.09258545 19.48876465 -0.09508301 20.60546875 -0.09765625 C22.26292114 -0.10551147 22.26292114 -0.10551147 23.95385742 -0.11352539 C26.75799379 -0.00901923 29.27417329 0.35902041 32 1 C32 1.33 32 1.66 32 2 C22.1 2 12.2 2 2 2 C2 10.25 2 18.5 2 27 C12.89 27 23.78 27 35 27 C35.495 27.99 35.495 27.99 36 29 C37.32 28.01 38.64 27.02 40 26 C40.66 26.66 41.32 27.32 42 28 C40.96909707 28.96990276 39.92459988 29.92536201 38.875 30.875 C38.00488281 31.67550781 38.00488281 31.67550781 37.1171875 32.4921875 C32.44035165 35.822923 27.68209969 36.24497433 22.0703125 36.1953125 C20.90773926 36.19031738 19.74516602 36.18532227 18.54736328 36.18017578 C17.0879834 36.16196777 15.62860352 36.14375977 14.125 36.125 C9.46375 36.08375 4.8025 36.0425 0 36 C0 24.12 0 12.24 0 0 Z " fill="#40474E" transform="translate(77,91)"/>
<path d="M0 0 C7.5301525 0.73825024 12.71407999 3.56886241 18 9 C22.21192409 15.05130866 23.20190403 20.31804435 23.25 27.5625 C23.270625 28.34302734 23.29125 29.12355469 23.3125 29.92773438 C23.328125 32.19140625 23.328125 32.19140625 23 36 C22.01 36.66 21.02 37.32 20 38 C19.67 31.73 19.34 25.46 19 19 C18.01 19.33 17.02 19.66 16 20 C16 20.99 16 21.98 16 23 C14 23 14 23 12.25 21.3125 C11.5075 20.549375 10.765 19.78625 10 19 C8.92374398 18.11630939 7.84016405 17.24147473 6.75 16.375 C5.8425 15.59125 4.935 14.8075 4 14 C4 13.34 4 12.68 4 12 C0.2486535 10.82874626 -3.49631612 10.77940135 -7.390625 10.68359375 C-8.09523865 10.66281265 -8.79985229 10.64203156 -9.52581787 10.62062073 C-11.76711681 10.55546163 -14.00852864 10.49639752 -16.25 10.4375 C-17.77344897 10.39428274 -19.29688671 10.35066743 -20.8203125 10.30664062 C-24.54675591 10.19981509 -28.27332494 10.09845361 -32 10 C-32.1875 7.625 -32.1875 7.625 -32 5 C-27.64181534 2.09454356 -23.68962547 2.63189593 -18.5625 2.625 C-17.60794922 2.60050781 -16.65339844 2.57601562 -15.66992188 2.55078125 C-8.59534114 2.52107692 -8.59534114 2.52107692 -5.54296875 4.9765625 C-5.03378906 5.64429687 -4.52460937 6.31203125 -4 7 C-0.85518209 7.80315654 -0.85518209 7.80315654 2 8 C2.33 7.01 2.66 6.02 3 5 C6 6 6 6 7.6875 9.0625 C8.120625 10.031875 8.55375 11.00125 9 12 C9.66 12 10.32 12 11 12 C11 12.66 11 13.32 11 14 C12.32 14 13.64 14 15 14 C15 10.57213028 12.30038599 8.33296936 10 6 C7.85019503 4.62745412 7.85019503 4.62745412 6 4 C6 3.34 6 2.68 6 2 C4.02 1.67 2.04 1.34 0 1 C0 0.67 0 0.34 0 0 Z " fill="#76C6E5" transform="translate(110,81)"/>
<path d="M0 0 C0.99 0.33 1.98 0.66 3 1 C3.2765289 3.07997826 3.52030075 5.1643308 3.75 7.25 C3.88921875 8.41015625 4.0284375 9.5703125 4.171875 10.765625 C4.11515625 11.83296875 4.0584375 12.9003125 4 14 C3.34902344 14.57878906 2.69804687 15.15757813 2.02734375 15.75390625 C-0.79037275 18.87565382 -0.54120495 21.01350174 -0.609375 25.171875 C-0.62591125 25.8542926 -0.64244751 26.53671021 -0.65948486 27.23980713 C-0.70789839 29.40996354 -0.72931865 31.57941972 -0.75 33.75 C-0.77816562 35.22529552 -0.80809389 36.70055851 -0.83984375 38.17578125 C-0.91365225 41.78370198 -0.96326894 45.39148972 -1 49 C0.485 48.505 0.485 48.505 2 48 C2.33 38.1 2.66 28.2 3 18 C3.66 17.67 4.32 17.34 5 17 C5.02483101 21.44742458 5.04292183 25.89481178 5.05493164 30.34228516 C5.05994162 31.85336002 5.06675144 33.36443009 5.07543945 34.87548828 C5.08765176 37.05502512 5.09326178 39.23449753 5.09765625 41.4140625 C5.10289307 42.7232666 5.10812988 44.0324707 5.11352539 45.38134766 C5.00972117 48.69013513 4.63432368 51.75595018 4 55 C5.32 55 6.64 55 8 55 C8 55.66 8 56.32 8 57 C12.62 57 17.24 57 22 57 C21 61 21 61 18.3125 62.75 C14.92760398 64.02731925 12.57923552 64.25565968 9 64 C8.67 63.34 8.34 62.68 8 62 C6.88625 62.1546875 6.88625 62.1546875 5.75 62.3125 C3 62 3 62 0.8125 59.75 C-2.48566908 54.7458814 -3.29957739 51.30678578 -3.265625 45.296875 C-3.26753845 44.54142395 -3.2694519 43.7859729 -3.27142334 43.00762939 C-3.27278356 41.40384591 -3.26909846 39.80005136 -3.26074219 38.19628906 C-3.25021895 35.79986118 -3.26054829 33.40421428 -3.2734375 31.0078125 C-3.28232206 20.90397274 -2.7852783 10.96642375 -1 1 C-0.67 0.67 -0.34 0.34 0 0 Z " fill="#70C9ED" transform="translate(379,111)"/>
<path d="M0 0 C4.62 0 9.24 0 14 0 C14 0.33 14 0.66 14 1 C9.71 1 5.42 1 1 1 C1 15.52 1 30.04 1 45 C2.32 45 3.64 45 5 45 C4.505 24.21 4.505 24.21 4 3 C3.34 2.67 2.68 2.34 2 2 C2.99 2 3.98 2 5 2 C5 2.66 5 3.32 5 4 C5.66 4 6.32 4 7 4 C8.37858009 17.70880578 9.3002795 31.22050737 9 45 C9 45.33 9 45.66 9 46 C10.98 46.33 12.96 46.66 15 47 C10.90740741 51.81481481 10.90740741 51.81481481 6.9375 52.625 C4 52 4 52 1.84082031 50.1340332 C-0.85957627 45.53655429 -0.49848275 41.46664706 -0.390625 36.23046875 C-0.38496521 35.19432938 -0.37930542 34.15819 -0.37347412 33.09065247 C-0.35112666 29.78912692 -0.30093178 26.48869619 -0.25 23.1875 C-0.22993296 20.94597924 -0.21168255 18.70444143 -0.1953125 16.46289062 C-0.15126694 10.97484013 -0.08224923 5.48760554 0 0 Z " fill="#41555F" transform="translate(385,115)"/>
<path d="M0 0 C1.31677734 -0.04350586 1.31677734 -0.04350586 2.66015625 -0.08789062 C8.55580908 -0.14483229 13.6035496 0.58976318 18.375 4.3125 C18.87 5.7975 18.87 5.7975 19.375 7.3125 C15.9730513 9.40600689 13.32227588 9.49192163 9.375 9.3125 C9.375 8.3225 9.375 7.3325 9.375 6.3125 C8.055 6.3125 6.735 6.3125 5.375 6.3125 C5.705 6.9725 6.035 7.6325 6.375 8.3125 C5.49457031 8.27769531 4.61414063 8.24289063 3.70703125 8.20703125 C1.96486328 8.16642578 1.96486328 8.16642578 0.1875 8.125 C-0.96105469 8.09019531 -2.10960937 8.05539063 -3.29296875 8.01953125 C-6.92797234 8.33913883 -8.59453503 9.40210326 -11.625 11.3125 C-12.615 10.9825 -13.605 10.6525 -14.625 10.3125 C-14.625 9.3225 -14.625 8.3325 -14.625 7.3125 C-15.285 6.9825 -15.945 6.6525 -16.625 6.3125 C-10.79601539 0.33012106 -8.06002702 0.08648098 0 0 Z " fill="#73C9EC" transform="translate(331.625,104.6875)"/>
<path d="M0 0 C0.99 0 1.98 0 3 0 C3.33 2.64 3.66 5.28 4 8 C4.33 8 4.66 8 5 8 C5.02505615 9.18553467 5.0501123 10.37106934 5.07592773 11.5925293 C5.17025532 16.00018718 5.27041377 20.40769678 5.37231445 24.81518555 C5.41556753 26.72107468 5.45724925 28.62700017 5.49731445 30.53295898 C5.55525071 33.27599021 5.6188774 36.01884013 5.68359375 38.76171875 C5.70030624 39.61086349 5.71701874 40.46000824 5.73423767 41.33488464 C5.8339619 45.33707142 6.02416551 49.09318932 7 53 C5.68 53 4.36 53 3 53 C1.515 53.495 1.515 53.495 0 54 C0 36.18 0 18.36 0 0 Z " fill="#3D484E" transform="translate(281,120)"/>
<path d="M0 0 C1.32 0.99 2.64 1.98 4 3 C4.33 2.67 4.66 2.34 5 2 C6.32594105 1.63837971 7.65938457 1.30271961 9 1 C10.83115629 4.66231257 10.41395737 9.17717089 10.60546875 13.234375 C10.73687954 17.24751603 10.73687954 17.24751603 12 21 C11.01 21.99 10.02 22.98 9 24 C9 23.34 9 22.68 9 22 C7.68 22 6.36 22 5 22 C4.67 22.99 4.34 23.98 4 25 C3.01 25.33 2.02 25.66 1 26 C0.67 26.99 0.34 27.98 0 29 C0.66 29.33 1.32 29.66 2 30 C0 31 0 31 -2.0625 30.75 C-2.701875 30.5025 -3.34125 30.255 -4 30 C-4.33 29.01 -4.66 28.02 -5 27 C-4.01 26.195625 -3.02 25.39125 -2 24.5625 C-1.01 23.716875 -0.02 22.87125 1 22 C1 21.67 1 21.34 1 21 C1.06992938 19.6547893 1.14350949 18.30976784 1.21875 16.96484375 C1.26386719 16.15595703 1.30898437 15.34707031 1.35546875 14.51367188 C1.40316406 13.66353516 1.45085937 12.81339844 1.5 11.9375 C1.54769531 11.08349609 1.59539062 10.22949219 1.64453125 9.34960938 C1.76277428 7.23305913 1.8813558 5.1165278 2 3 C1.34 3 0.68 3 0 3 C0 2.01 0 1.02 0 0 Z " fill="#75CBED" transform="translate(120,99)"/>
<path d="M0 0 C0 0.66 0 1.32 0 2 C-3.63 2 -7.26 2 -11 2 C-11 2.66 -11 3.32 -11 4 C-10.38125 3.835 -9.7625 3.67 -9.125 3.5 C-4.74529271 2.79924683 -0.42571011 2.92265749 4 3 C4 3.66 4 4.32 4 5 C-12.5 5 -29 5 -46 5 C-46 4.34 -46 3.68 -46 3 C-48.64 3 -51.28 3 -54 3 C-54 2.67 -54 2.34 -54 2 C-49.78727264 0.99934371 -45.65718331 0.78709625 -41.34765625 0.68359375 C-40.61107285 0.66281265 -39.87448944 0.64203156 -39.11558533 0.62062073 C-37.55652242 0.57749257 -35.99740105 0.53643453 -34.43823242 0.49731445 C-32.10124554 0.43847551 -29.76451413 0.37315144 -27.42773438 0.30664062 C-18.28241492 0.05570975 -9.14927635 -0.05797087 0 0 Z " fill="#77CAED" transform="translate(206,138)"/>
<path d="M0 0 C2.12175629 1.89525072 3.41939513 3.60184088 5 6 C4.01 6.99 3.02 7.98 2 9 C2 8.34 2 7.68 2 7 C0.35 7.33 -1.3 7.66 -3 8 C-3 8.99 -3 9.98 -3 11 C-2.34 11 -1.68 11 -1 11 C-1 12.65 -1 14.3 -1 16 C-1.66 16 -2.32 16 -3 16 C-3.556875 15.071875 -4.11375 14.14375 -4.6875 13.1875 C-7.35479317 9.51096077 -9.70208992 8.08052523 -14 7 C-17.3279317 6.50445397 -20.64184232 6.19594884 -24 6 C-24 5.67 -24 5.34 -24 5 C-21.36 4.67 -18.72 4.34 -16 4 C-16 3.34 -16 2.68 -16 2 C-14.02 2 -12.04 2 -10 2 C-10 2.99 -10 3.98 -10 5 C-9.195625 5 -8.39125 5 -7.5625 5 C-6.375 5 -5.1875 5 -4 5 C-4.33 4.01 -4.66 3.02 -5 2 C-5.99 1.67 -6.98 1.34 -8 1 C-8 0.01 -8 -0.98 -8 -2 C-8.82242187 -1.9278125 -9.64484375 -1.855625 -10.4921875 -1.78125 C-17.34915248 -1.21115591 -24.11992439 -0.8602242 -31 -1 C-31 -0.34 -31 0.32 -31 1 C-31.99 0.67 -32.98 0.34 -34 0 C-26.11250249 -7.88749751 -8.74144016 -4.8481937 0 0 Z " fill="#78CAE9" transform="translate(272,108)"/>
<path d="M0 0 C4.351875 -0.020625 8.70375 -0.04125 13.1875 -0.0625 C14.55156982 -0.071604 15.91563965 -0.08070801 17.32104492 -0.09008789 C18.40490479 -0.09258545 19.48876465 -0.09508301 20.60546875 -0.09765625 C22.26292114 -0.10551147 22.26292114 -0.10551147 23.95385742 -0.11352539 C26.75799379 -0.00901923 29.27417329 0.35902041 32 1 C32 1.33 32 1.66 32 2 C22.1 2 12.2 2 2 2 C2.144375 6.74375 2.28875 11.4875 2.4375 16.375 C2.50215454 18.61869385 2.50215454 18.61869385 2.56811523 20.90771484 C2.60622314 22.08027832 2.64433105 23.2528418 2.68359375 24.4609375 C2.72025146 25.66540527 2.75690918 26.86987305 2.79467773 28.11083984 C2.81052987 30.93996367 2.81052987 30.93996367 4 33 C17.86 33.495 17.86 33.495 32 34 C28.36693942 36.42204038 26.68180977 36.23302891 22.36328125 36.1953125 C20.60818237 36.18781982 20.60818237 36.18781982 18.81762695 36.18017578 C17.33093506 36.16196777 15.84424316 36.14375977 14.3125 36.125 C9.589375 36.08375 4.86625 36.0425 0 36 C0 24.12 0 12.24 0 0 Z " fill="#3B5866" transform="translate(77,91)"/>
<path d="M0 0 C3.3 0 6.6 0 10 0 C10 5.61 10 11.22 10 17 C9.34 16.67 8.68 16.34 8 16 C8.33 13.36 8.66 10.72 9 8 C8.34 8 7.68 8 7 8 C7.66 5.69 8.32 3.38 9 1 C7.02 1.33 5.04 1.66 3 2 C2.95101563 3.18078125 2.90203125 4.3615625 2.8515625 5.578125 C2.77651121 7.13543937 2.70096439 8.69272991 2.625 10.25 C2.57859375 11.41595703 2.57859375 11.41595703 2.53125 12.60546875 C2.32525841 16.62230474 2.00430797 19.4476493 0 23 C0 24.32 0 25.64 0 27 C-3.96 27 -7.92 27 -12 27 C-12 24.03 -12 21.06 -12 18 C-8.04 18 -4.08 18 0 18 C0 12.06 0 6.12 0 0 Z " fill="#7ABDD8" transform="translate(375,88)"/>
<path d="M0 0 C5.94 0 11.88 0 18 0 C18 0.33 18 0.66 18 1 C15.36 1 12.72 1 10 1 C10 2.32 10 3.64 10 5 C14.95 4.67 19.9 4.34 25 4 C25 4.66 25 5.32 25 6 C25.928125 6.20625 26.85625 6.4125 27.8125 6.625 C31 8 31 8 32.9375 10.875 C33.98072075 13.94329632 34.23512958 15.08060281 33 18 C32.29875 17.2575 31.5975 16.515 30.875 15.75 C22.79634736 8.02259313 15.97634613 6.7012067 5.1796875 6.86328125 C1.39453134 7.02603366 -2.25867976 7.41312624 -6 8 C-6 7.01 -6 6.02 -6 5 C-4.35 5 -2.7 5 -1 5 C-0.67 3.35 -0.34 1.7 0 0 Z " fill="#3D444A" transform="translate(246,98)"/>
<path d="M0 0 C1.32 0 2.64 0 4 0 C4 1.98 4 3.96 4 6 C1 7.5 1 7.5 -2 9 C-2 8.01 -2 7.02 -2 6 C-12.89 6 -23.78 6 -35 6 C-34.67 4.68 -34.34 3.36 -34 2 C-23.11 2 -12.22 2 -1 2 C-0.67 1.34 -0.34 0.68 0 0 Z " fill="#49413C" transform="translate(114,112)"/>
<path d="M0 0 C1.50433594 0.01353516 1.50433594 0.01353516 3.0390625 0.02734375 C3.80992187 0.03894531 4.58078125 0.05054688 5.375 0.0625 C4.6953125 1.984375 4.6953125 1.984375 3.375 4.0625 C0.9921875 4.890625 0.9921875 4.890625 -1.75 5.3125 C-3.11511719 5.53679687 -3.11511719 5.53679687 -4.5078125 5.765625 C-5.20648438 5.86359375 -5.90515625 5.9615625 -6.625 6.0625 C-6.955 7.0525 -7.285 8.0425 -7.625 9.0625 C-9.74972576 9.11636629 -11.87483652 9.15523071 -14 9.1875 C-15.77503906 9.22230469 -15.77503906 9.22230469 -17.5859375 9.2578125 C-20.625 9.0625 -20.625 9.0625 -22.625 7.0625 C-23.57375 7.083125 -24.5225 7.10375 -25.5 7.125 C-29.01278075 7.05474438 -30.17547621 6.51202379 -32.625 4.0625 C-32.625 3.4025 -32.625 2.7425 -32.625 2.0625 C-29.655 2.0625 -26.685 2.0625 -23.625 2.0625 C-23.625 2.7225 -23.625 3.3825 -23.625 4.0625 C-18.345 4.0625 -13.065 4.0625 -7.625 4.0625 C-7.625 3.0725 -7.625 2.0825 -7.625 1.0625 C-4.98041621 -0.25979189 -2.94738699 -0.03427194 0 0 Z " fill="#6FC9EB" transform="translate(195.625,165.9375)"/>
<path d="M0 0 C0.99 0.495 0.99 0.495 2 1 C1.01 1.495 1.01 1.495 0 2 C0 1.34 0 0.68 0 0 Z M-7 1 C-3.87439569 1.26150474 -0.9396334 1.90828832 2 3 C3.875 5.4375 3.875 5.4375 5 8 C6.58245275 9.75149165 6.58245275 9.75149165 8 11 C7.74438677 8.6568787 7.40729228 6.32156597 7 4 C6.34 3.67 5.68 3.34 5 3 C5.66 3 6.32 3 7 3 C7.33 2.34 7.66 1.68 8 1 C8.66 1.33 9.32 1.66 10 2 C10 4.97 10 7.94 10 11 C13.96 11 17.92 11 22 11 C22 27.5 22 44 22 61 C21.67 61 21.34 61 21 61 C21 44.83 21 28.66 21 12 C16.545 12.495 16.545 12.495 12 13 C11.34 14.98 10.68 16.96 10 19 C9.34 19 8.68 19 8 19 C8.33 17.02 8.66 15.04 9 13 C7.68 13 6.36 13 5 13 C5 12.34 5 11.68 5 11 C4.443125 10.7525 3.88625 10.505 3.3125 10.25 C0.5911099 8.77897833 -1.61578522 6.96697719 -4 5 C-5.32901064 3.99426222 -6.66073801 2.99204592 -8 2 C-7.67 1.67 -7.34 1.34 -7 1 Z " fill="#445D67" transform="translate(353,104)"/>
<path d="M0 0 C0.95455078 -0.02449219 1.90910156 -0.04898438 2.89257812 -0.07421875 C9.86916718 -0.10351164 9.86916718 -0.10351164 13.22265625 2.2109375 C14.5625 4.375 14.5625 4.375 14.5625 7.375 C5.3225 7.375 -3.9175 7.375 -13.4375 7.375 C-13.4375 5.725 -13.4375 4.075 -13.4375 2.375 C-9.07931534 -0.53045644 -5.12712547 0.00689593 0 0 Z " fill="#71BCDC" transform="translate(91.4375,83.625)"/>
<path d="M0 0 C3 1 3 1 4.1796875 2.578125 C5.32677001 5.96474957 5.21099645 9.22338467 5.125 12.75 C5.08375 15.1425 5.0425 17.535 5 20 C0.38 17.69 -4.24 15.38 -9 13 C-7.68 12.67 -6.36 12.34 -5 12 C-5.66 9.03 -6.32 6.06 -7 3 C-4.625 2.875 -4.625 2.875 -2 3 C-1.34 3.66 -0.68 4.32 0 5 C0 3.35 0 1.7 0 0 Z " fill="#3E4444" transform="translate(265,119)"/>
<path d="M0 0 C2.41760876 0.11426509 4.83347218 0.24099661 7.25 0.375 C7.93191406 0.4059375 8.61382812 0.436875 9.31640625 0.46875 C12.98739038 0.68259374 15.86251616 1.01077055 19 3 C15.99686252 4.50156874 13.20932478 4.09281204 9.875 4.0625 C8.59367187 4.05347656 7.31234375 4.04445313 5.9921875 4.03515625 C5.00476563 4.02355469 4.01734375 4.01195313 3 4 C3 5.32 3 6.64 3 8 C-0.33333333 9.66666667 -3.66666667 11.33333333 -7 13 C-9.125 12.0625 -9.125 12.0625 -11 11 C-11 9.35 -11 7.7 -11 6 C-10.34 6 -9.68 6 -9 6 C-9 5.34 -9 4.68 -9 4 C-3.125 3 -3.125 3 -2 3 C-1.34 2.01 -0.68 1.02 0 0 Z " fill="#6EC9E9" transform="translate(169,106)"/>
<path d="M0 0 C4.455 0.99 4.455 0.99 9 2 C8.67 3.32 8.34 4.64 8 6 C8.969375 6.309375 9.93875 6.61875 10.9375 6.9375 C14 8 14 8 15 9 C15.66 9 16.32 9 17 9 C17 9.66 17 10.32 17 11 C18.485 10.938125 18.485 10.938125 20 10.875 C24.23835866 10.8576652 27.93193985 11.85808838 32 13 C32 13.66 32 14.32 32 15 C24.06409385 16.47957572 17.73241853 15.11536025 10 13 C10.33 11.68 10.66 10.36 11 9 C10.01 9.33 9.02 9.66 8 10 C5.3125 9.0625 5.3125 9.0625 3 8 C3 7.34 3 6.68 3 6 C2.34 6 1.68 6 1 6 C0.67 4.02 0.34 2.04 0 0 Z " fill="#70CBEE" transform="translate(307,158)"/>
<path d="M0 0 C9.78008404 -0.54603447 17.59291014 -0.81442723 26 5 C27 6 27 6 27.0625 8.5625 C27.041875 9.366875 27.02125 10.17125 27 11 C27.66 11.33 28.32 11.66 29 12 C28.01 12.33 27.02 12.66 26 13 C25.43796875 12.55011719 24.8759375 12.10023438 24.296875 11.63671875 C21.15248966 9.39607681 17.98864084 9.19767188 14.25 8.8125 C13.20392578 8.6897168 13.20392578 8.6897168 12.13671875 8.56445312 C10.42573224 8.36522867 8.71299963 8.18110071 7 8 C7 7.01 7 6.02 7 5 C10.465 4.505 10.465 4.505 14 4 C11.36 3.67 8.72 3.34 6 3 C6 2.67 6 2.34 6 2 C3.03 1.505 3.03 1.505 0 1 C0 0.67 0 0.34 0 0 Z " fill="#7EBCD8" transform="translate(240,131)"/>
<path d="M0 0 C0.495 0.99 0.495 0.99 1 2 C0.01 2 -0.98 2 -2 2 C-1.04134491 4.33075929 -1.04134491 4.33075929 2 6 C-2 6 -2 6 -4.703125 5.02734375 C-12.97086703 2.45102129 -23.98463714 2.41281232 -31.8125 6.25 C-36.33420152 9.00031329 -40.35295875 12.16100921 -44 16 C-44.4375 13.875 -44.4375 13.875 -44 11 C-37.15882216 3.47838243 -29.17349032 0.97825659 -19.2890625 0.46875 C-18.53367188 0.4378125 -17.77828125 0.406875 -17 0.375 C-15.86691406 0.31699219 -15.86691406 0.31699219 -14.7109375 0.2578125 C-9.80299871 0.02169173 -4.91321631 -0.0334992 0 0 Z " fill="#414E5D" transform="translate(194,102)"/>
<path d="M0 0 C0.33 0 0.66 0 1 0 C1.00142502 0.57105469 1.00285004 1.14210938 1.00431824 1.73046875 C1.02408163 7.70116544 1.07849664 13.67084891 1.15258789 19.64111328 C1.17571299 21.8659741 1.19015065 24.09094354 1.19555664 26.31591797 C1.20488604 29.52379619 1.24596597 32.72997886 1.29296875 35.9375 C1.2890361 36.92427734 1.28510345 37.91105469 1.28105164 38.92773438 C1.41225513 45.20881978 2.43587677 50.37840696 7 55 C10.2140814 55.67012422 10.2140814 55.67012422 13 55 C13 55.99 13 56.98 13 58 C14.051875 57.690625 15.10375 57.38125 16.1875 57.0625 C19.12752396 56.24314906 22.00161623 55.54516069 25 55 C25.33 54.01 25.66 53.02 26 52 C26.33 53.32 26.66 54.64 27 56 C20.80665859 59.37818622 14.99117745 59.88238162 8 59 C4.79037963 57.79870255 2.70764443 56.13525457 0.86575317 53.18035889 C-0.16082136 50.59497892 -0.24081009 48.64363838 -0.22705078 45.86425781 C-0.22689972 44.84350159 -0.22674866 43.82274536 -0.22659302 42.77105713 C-0.21627045 41.67613953 -0.20594788 40.58122192 -0.1953125 39.453125 C-0.1924826 38.3267865 -0.18965271 37.200448 -0.18673706 36.03997803 C-0.17554374 32.44321054 -0.15044037 28.84669221 -0.125 25.25 C-0.11496912 22.81120151 -0.10584346 20.37239912 -0.09765625 17.93359375 C-0.07560716 11.95564418 -0.04213784 5.97783989 0 0 Z " fill="#87CEE9" transform="translate(375,117)"/>
<path d="M0 0 C18.15 0 36.3 0 55 0 C55 0.33 55 0.66 55 1 C37.84 1 20.68 1 3 1 C3.33 3.64 3.66 6.28 4 9 C4.9590625 9.1546875 4.9590625 9.1546875 5.9375 9.3125 C6.618125 9.539375 7.29875 9.76625 8 10 C8.33 10.99 8.66 11.98 9 13 C8.01 13 7.02 13 6 13 C6.84681777 15.25552668 6.84681777 15.25552668 9.4375 15.9375 C12 17 12 17 14 20 C17.06556598 20.73343428 17.06556598 20.73343428 20 21 C20 21.66 20 22.32 20 23 C13.5945393 22.7331058 9.4628803 20.64027513 5 16 C1.26903757 10.4396043 0 6.80323134 0 0 Z " fill="#324B53" transform="translate(155,144)"/>
<path d="M0 0 C2 1 2 1 4 4 C0.55549263 6.29633824 -1.93812283 6.54016485 -6 7 C-6 7.66 -6 8.32 -6 9 C-4.35 8.34 -2.7 7.68 -1 7 C-1.433125 7.8353125 -1.433125 7.8353125 -1.875 8.6875 C-2.24625 9.450625 -2.6175 10.21375 -3 11 C-3.45375 11.763125 -3.9075 12.52625 -4.375 13.3125 C-5.11459975 16.49277893 -4.69473742 17.07098676 -3.125 19.8125 C-2.42375 20.864375 -1.7225 21.91625 -1 23 C-5.34820864 21.51142407 -7.0408022 18.27200068 -9.25 14.5 C-9.61351563 13.90574219 -9.97703125 13.31148437 -10.3515625 12.69921875 C-13 8.28847509 -13 8.28847509 -13 6 C-12.14535156 5.65066406 -11.29070312 5.30132812 -10.41015625 4.94140625 C-9.30542969 4.48636719 -8.20070313 4.03132812 -7.0625 3.5625 C-5.96035156 3.11003906 -4.85820313 2.65757812 -3.72265625 2.19140625 C-1.13431084 1.25575392 -1.13431084 1.25575392 0 0 Z " fill="#3B474E" transform="translate(123,130)"/>
<path d="M0 0 C1.14095627 0.02017181 2.28191254 0.04034363 3.45744324 0.06112671 C4.6887648 0.09332306 5.92008636 0.12551941 7.1887207 0.15869141 C9.08011528 0.19623032 9.08011528 0.19623032 11.00971985 0.23452759 C14.3587412 0.30283343 17.70731978 0.38001768 21.05603027 0.46148682 C24.47445367 0.54247241 27.89311104 0.61181164 31.31176758 0.68212891 C38.01711369 0.82242257 44.72211869 0.97442414 51.42700195 1.13525391 C51.42700195 1.46525391 51.42700195 1.79525391 51.42700195 2.13525391 C33.27700195 2.13525391 15.12700195 2.13525391 -3.57299805 2.13525391 C-2.1149371 8.37881327 -2.1149371 8.37881327 0.05200195 14.13525391 C0.50575195 15.12525391 0.95950195 16.11525391 1.42700195 17.13525391 C0.10700195 17.13525391 -1.21299805 17.13525391 -2.57299805 17.13525391 C-2.83854492 16.43658203 -3.1040918 15.73791016 -3.37768555 15.01806641 C-3.73088867 14.10798828 -4.0840918 13.19791016 -4.44799805 12.26025391 C-4.79604492 11.35533203 -5.1440918 10.45041016 -5.50268555 9.51806641 C-6.45830699 7.01308384 -6.45830699 7.01308384 -8.57299805 5.13525391 C-8.57299805 4.14525391 -8.57299805 3.15525391 -8.57299805 2.13525391 C-5.14126727 -0.15256661 -4.02014181 -0.08874485 0 0 Z " fill="#7CBAD1" transform="translate(158.572998046875,141.86474609375)"/>
<path d="M0 0 C4.62 0 9.24 0 14 0 C14.33 4.95 14.66 9.9 15 15 C18.13349732 16.04449911 18.98968256 15.93423645 22 15 C22 15.66 22 16.32 22 17 C22.99 17.33 23.98 17.66 25 18 C25 18.33 25 18.66 25 19 C20.38 19 15.76 19 11 19 C11 13.06 11 7.12 11 1 C7.7 1 4.4 1 1 1 C1 6.94 1 12.88 1 19 C0.67 19 0.34 19 0 19 C0 12.73 0 6.46 0 0 Z " fill="#425A69" transform="translate(374,87)"/>
<path d="M0 0 C0.33 0.99 0.66 1.98 1 3 C2.0209375 4.0209375 2.0209375 4.0209375 3.0625 5.0625 C3.701875 5.701875 4.34125 6.34125 5 7 C5 7.66 5 8.32 5 9 C4.01 8.67 3.02 8.34 2 8 C0.66893378 7.65772583 -0.66400079 7.32248257 -2 7 C-2 6.01 -2 5.02 -2 4 C-2.804375 4.165 -3.60875 4.33 -4.4375 4.5 C-11.03697327 5.42624186 -16.73400393 5.57066506 -23 3 C-23 2.34 -23 1.68 -23 1 C-15.31395526 0.02840067 -7.74136601 -0.10920422 0 0 Z " fill="#6CCCEC" transform="translate(264,106)"/>
<path d="M0 0 C1.32 0.33 2.64 0.66 4 1 C4 1.66 4 2.32 4 3 C4.66 3 5.32 3 6 3 C6 3.66 6 4.32 6 5 C9.05847848 5.54372951 11.88772805 6 15 6 C14.34 7.32 13.68 8.64 13 10 C14.85625 10.1546875 14.85625 10.1546875 16.75 10.3125 C22.64362532 10.95168106 28.28618214 12.46277997 34 14 C34 14.33 34 14.66 34 15 C25.1965909 15.46266092 16.84378478 15.55396437 9 11 C8.67 10.01 8.34 9.02 8 8 C7.401875 7.71125 6.80375 7.4225 6.1875 7.125 C3.29408126 5.63695608 1.87826358 3.61615284 0 1 C0 0.67 0 0.34 0 0 Z " fill="#7EC0D9" transform="translate(304,161)"/>
<path d="M0 0 C1.65 0 3.3 0 5 0 C5 11.55 5 23.1 5 35 C4.01 35 3.02 35 2 35 C1.97494385 34.04633545 1.9498877 33.0926709 1.92407227 32.11010742 C1.82987929 28.57090893 1.72968769 25.03190125 1.62768555 21.49291992 C1.58438167 19.96138982 1.54270333 18.42981285 1.50268555 16.89819336 C1.44487268 14.69630818 1.38121031 12.49465789 1.31640625 10.29296875 C1.29969376 9.60849167 1.28298126 8.92401459 1.26576233 8.21879578 C1.1726445 5.22879896 0.95312563 2.85937689 0 0 Z " fill="#474338" transform="translate(368,125)"/>
<path d="M0 0 C0.66 0.33 1.32 0.66 2 1 C5.37945747 1.40450525 8.75680247 1.768518 12.14648438 2.07421875 C17.49960255 2.65319945 17.49960255 2.65319945 20.0234375 4.40234375 C21 6 21 6 20.6875 8.6875 C20.460625 9.450625 20.23375 10.21375 20 11 C18.68 10.34 17.36 9.68 16 9 C16.33 8.01 16.66 7.02 17 6 C11.72 6 6.44 6 1 6 C1 6.66 1 7.32 1 8 C-0.32 8.33 -1.64 8.66 -3 9 C-2.5020163 5.26512223 -2.12508244 3.18762365 0 0 Z " fill="#4B413A" transform="translate(238,120)"/>
<path d="M0 0 C-1.98 0.33 -3.96 0.66 -6 1 C-5.67 1.33 -5.34 1.66 -5 2 C-4.34 2 -3.68 2 -3 2 C-3 2.66 -3 3.32 -3 4 C0.3 3.67 3.6 3.34 7 3 C7 4.32 7 5.64 7 7 C1 7 -5 7 -11 7 C-11.99 7.66 -12.98 8.32 -14 9 C-14 8.34 -14 7.68 -14 7 C-14.66 6.67 -15.32 6.34 -16 6 C-14.56542672 5.0165504 -13.12722594 4.03839079 -11.6875 3.0625 C-10.88699219 2.51722656 -10.08648437 1.97195312 -9.26171875 1.41015625 C-5.78187825 -0.75948524 -3.85506638 -1.19639991 0 0 Z " fill="#3E474D" transform="translate(249,115)"/>
<path d="M0 0 C0.99 0.33 1.98 0.66 3 1 C3 2.65 3 4.3 3 6 C3.66 6 4.32 6 5 6 C5.1546875 5.0409375 5.1546875 5.0409375 5.3125 4.0625 C5.539375 3.381875 5.76625 2.70125 6 2 C6.99 1.67 7.98 1.34 9 1 C9 2.98 9 4.96 9 7 C8.34 7 7.68 7 7 7 C7 8.32 7 9.64 7 11 C7.99 11 8.98 11 10 11 C10.33 10.01 10.66 9.02 11 8 C11.99 8.99 12.98 9.98 14 11 C12 14 12 14 9.875 14.6875 C9.25625 14.790625 8.6375 14.89375 8 15 C8 14.34 8 13.68 8 13 C7.236875 13 6.47375 13 5.6875 13 C3 12 3 12 2 10.29296875 C0.57620496 6.60342296 0 4.0264528 0 0 Z " fill="#6FCBF1" transform="translate(109,149)"/>
<path d="M0 0 C0.33 0.66 0.66 1.32 1 2 C-1.2922454 1.69177379 -3.58378455 1.37829126 -5.875 1.0625 C-7.15117187 0.88847656 -8.42734375 0.71445313 -9.7421875 0.53515625 C-13 0 -13 0 -15 -1 C-15 -0.34 -15 0.32 -15 1 C-17.31 1 -19.62 1 -22 1 C-22.66 3.31 -23.32 5.62 -24 8 C-24.99 7.67 -25.98 7.34 -27 7 C-26.34 6.01 -25.68 5.02 -25 4 C-25.66 4 -26.32 4 -27 4 C-27.33 4.99 -27.66 5.98 -28 7 C-28.66 6.67 -29.32 6.34 -30 6 C-21.58966206 -3.46163019 -11.53885227 -5.50431027 0 0 Z " fill="#3E5360" transform="translate(189,116)"/>
<path d="M0 0 C1.18851562 0.00902344 2.37703125 0.01804687 3.6015625 0.02734375 C4.51679688 0.03894531 5.43203125 0.05054687 6.375 0.0625 C6.705 0.7225 7.035 1.3825 7.375 2.0625 C2.755 2.0625 -1.865 2.0625 -6.625 2.0625 C-6.625 8.3325 -6.625 14.6025 -6.625 21.0625 C-10.255 21.0625 -13.885 21.0625 -17.625 21.0625 C-16.305 20.4025 -14.985 19.7425 -13.625 19.0625 C-11.32178943 18.01487142 -11.32178943 18.01487142 -9.625 16.0625 C-9.22024795 13.4052148 -9.0199872 11.09579727 -9 8.4375 C-8.95386815 5.95560635 -8.83200189 3.54060838 -8.625 1.0625 C-5.74084117 -0.37957941 -3.20778472 -0.03144887 0 0 Z " fill="#374346" transform="translate(380.625,84.9375)"/>
<path d="M0 0 C9.57 0 19.14 0 29 0 C29.33 0.99 29.66 1.98 30 3 C20.43 3 10.86 3 1 3 C0.67 2.01 0.34 1.02 0 0 Z " fill="#44433C" transform="translate(80,122)"/>
<path d="M0 0 C1.32 0.66 2.64 1.32 4 2 C3.67 4.97 3.34 7.94 3 11 C-12.18 11.33 -27.36 11.66 -43 12 C-43 10.68 -43 9.36 -43 8 C-43.66 8 -44.32 8 -45 8 C-44.34 5.69 -43.68 3.38 -43 1 C-41 4 -41 4 -42 10 C-27.48 10 -12.96 10 2 10 C1.34 6.7 0.68 3.4 0 0 Z " fill="#81BDD3" transform="translate(197,126)"/>
<path d="M0 0 C0.53109375 0.34933594 1.0621875 0.69867188 1.609375 1.05859375 C2.31578125 1.51363281 3.0221875 1.96867188 3.75 2.4375 C4.44609375 2.88996094 5.1421875 3.34242188 5.859375 3.80859375 C11.37202746 6.87676711 18.42387056 6.98889753 24.4296875 5.328125 C26.31259563 4.61784649 28.16102638 3.81732161 30 3 C29.875 4.875 29.875 4.875 29 7 C24.83923729 8.9018871 20.78147134 9.36904407 16.25 9.6875 C15.12078125 9.77386719 13.9915625 9.86023438 12.828125 9.94921875 C10 10 10 10 8 9 C8 8.34 8 7.68 8 7 C6.02 7.99 6.02 7.99 4 9 C3.67 8.01 3.34 7.02 3 6 C0.99983534 4.79117904 0.99983534 4.79117904 -1 4 C-0.67 2.68 -0.34 1.36 0 0 Z " fill="#7CC5DE" transform="translate(316,160)"/>
<path d="M0 0 C0.33 0 0.66 0 1 0 C1 12.21 1 24.42 1 37 C-1 35 -1 35 -1.1953125 32.8359375 C-1.17210938 32.02382812 -1.14890625 31.21171875 -1.125 30.375 C-1.10695313 29.55773437 -1.08890625 28.74046875 -1.0703125 27.8984375 C-1.03550781 26.95871094 -1.03550781 26.95871094 -1 26 C-2.32 26 -3.64 26 -5 26 C-5 25.34 -5 24.68 -5 24 C-3.68 24 -2.36 24 -1 24 C-1.00523682 23.34402832 -1.01047363 22.68805664 -1.01586914 22.01220703 C-1.03661272 19.04981437 -1.04965176 16.08743697 -1.0625 13.125 C-1.07087891 12.09246094 -1.07925781 11.05992187 -1.08789062 9.99609375 C-1.09111328 9.00996094 -1.09433594 8.02382812 -1.09765625 7.0078125 C-1.10289307 6.09660645 -1.10812988 5.18540039 -1.11352539 4.24658203 C-1 2 -1 2 0 0 Z " fill="#80C9EE" transform="translate(76,136)"/>
<path d="M0 0 C0.226875 0.5775 0.45375 1.155 0.6875 1.75 C2.33038023 4.5663661 4.39533227 6.08077114 7 8 C6.67 9.98 6.34 11.96 6 14 C5.01 14.33 4.02 14.66 3 15 C2.34 12.69 1.68 10.38 1 8 C0.4225 7.9175 -0.155 7.835 -0.75 7.75 C-3.6159304 6.79468987 -4.9990764 5.21530827 -7 3 C-5.5459375 2.5359375 -5.5459375 2.5359375 -4.0625 2.0625 C-1.15934208 1.30476658 -1.15934208 1.30476658 0 0 Z " fill="#70CBED" transform="translate(195,110)"/>
<path d="M0 0 C4.29 0 8.58 0 13 0 C13 2.64 13 5.28 13 8 C8.71 8 4.42 8 0 8 C0 6.35 0 4.7 0 3 C0.99 3 1.98 3 3 3 C3.33 4.32 3.66 5.64 4 7 C4.99 7 5.98 7 7 7 C7 6.34 7 5.68 7 5 C6.01 4.67 5.02 4.34 4 4 C6 2 6 2 11 1 C7.37 1 3.74 1 0 1 C0 0.67 0 0.34 0 0 Z " fill="#80CAE7" transform="translate(386,107)"/>
<path d="M0 0 C0.33 0.66 0.66 1.32 1 2 C3.32156597 2.40729228 5.6568787 2.74438677 8 3 C8.33 4.32 8.66 5.64 9 7 C10.79158489 7.02696365 12.58328473 7.04637917 14.375 7.0625 C15.87160156 7.07990234 15.87160156 7.07990234 17.3984375 7.09765625 C19.98432453 7.18006602 19.98432453 7.18006602 22 6 C23.99960012 5.960008 26.00047242 5.95653201 28 6 C22.52861329 10.19472981 18.84206812 10.54095414 12 10 C5.76265886 8.72883203 2.64535829 6.12628509 -1 1 C-0.67 0.67 -0.34 0.34 0 0 Z " fill="#3B525C" transform="translate(316,157)"/>
<path d="M0 0 C0 0.66 0 1.32 0 2 C2.31 2 4.62 2 7 2 C7.33 2.99 7.66 3.98 8 5 C7.03175293 4.99214478 7.03175293 4.99214478 6.04394531 4.98413086 C3.11264015 4.96331343 0.18135057 4.95032466 -2.75 4.9375 C-3.76578125 4.92912109 -4.7815625 4.92074219 -5.828125 4.91210938 C-6.8078125 4.90888672 -7.7875 4.90566406 -8.796875 4.90234375 C-9.69760742 4.89710693 -10.59833984 4.89187012 -11.52636719 4.88647461 C-13.96944481 4.91081545 -13.96944481 4.91081545 -16.13769531 5.56860352 C-18 6 -18 6 -21 5 C-20.67 4.34 -20.34 3.68 -20 3 C-18.109375 2.65625 -18.109375 2.65625 -15.75 2.5 C-10.14776547 2.01323397 -5.72278965 -0.26617626 0 0 Z " fill="#3F505E" transform="translate(336,101)"/>
<path d="M0 0 C1.32 0 2.64 0 4 0 C4.33 0.99 4.66 1.98 5 3 C1.66292716 7.90132573 -1.70176641 10.40086654 -7 13 C-7.66 13 -8.32 13 -9 13 C-9 12.01 -9 11.02 -9 10 C-7.35 9.34 -5.7 8.68 -4 8 C-4.33 6.68 -4.66 5.36 -5 4 C-4.360625 3.71125 -3.72125 3.4225 -3.0625 3.125 C-0.84793921 2.17176549 -0.84793921 2.17176549 0 0 Z " fill="#7DC2DB" transform="translate(125,121)"/>
<path d="M0 0 C0.99 0 1.98 0 3 0 C3 6.27 3 12.54 3 19 C1.68 19 0.36 19 -1 19 C-1.02683987 16.02077407 -1.04676037 13.04178705 -1.0625 10.0625 C-1.07087891 9.21236328 -1.07925781 8.36222656 -1.08789062 7.48632812 C-1.09111328 6.67744141 -1.09433594 5.86855469 -1.09765625 5.03515625 C-1.10289307 4.2862915 -1.10812988 3.53742676 -1.11352539 2.76586914 C-1 1 -1 1 0 0 Z " fill="#49423C" transform="translate(259,141)"/>
<path d="M0 0 C0.99 1.32 1.98 2.64 3 4 C2 6 2 6 0.5 7.4375 C-1.25083992 9.0377353 -1.25083992 9.0377353 -2 12 C-2.99 12.33 -3.98 12.66 -5 13 C-5.66 12.67 -6.32 12.34 -7 12 C-7 11.01 -7 10.02 -7 9 C-8.32 8.67 -9.64 8.34 -11 8 C-10.67 6.68 -10.34 5.36 -10 4 C-8.68 4.99 -7.36 5.98 -6 7 C-4.02 4.69 -2.04 2.38 0 0 Z " fill="#404E4E" transform="translate(357,115)"/>
<path d="M0 0 C0.33 0 0.66 0 1 0 C1.12117188 1.13179687 1.24234375 2.26359375 1.3671875 3.4296875 C1.53600276 4.91151031 1.70529855 6.39327842 1.875 7.875 C1.95363281 8.62136719 2.03226562 9.36773437 2.11328125 10.13671875 C2.5080769 14.52555407 2.5080769 14.52555407 5 18 C5.66 17.34 6.32 16.68 7 16 C7.66 16.33 8.32 16.66 9 17 C9.125 19.875 9.125 19.875 9 23 C8.34 23.66 7.68 24.32 7 25 C6.01 25 5.02 25 4 25 C0.59840087 18.64048858 -0.12967319 13.87503123 -0.0625 6.6875 C-0.05347656 5.43324219 -0.04445313 4.17898437 -0.03515625 2.88671875 C-0.01775391 1.45779297 -0.01775391 1.45779297 0 0 Z " fill="#71BCD3" transform="translate(298,133)"/>
<path d="M0 0 C3.79450934 0.39253545 5.51015791 2.24338912 8 5 C7.1875 6.9375 7.1875 6.9375 6 9 C5.01 9.33 4.02 9.66 3 10 C2.67 10.99 2.34 11.98 2 13 C-0.06640625 13.94921875 -0.06640625 13.94921875 -2.5625 14.6875 C-3.80193359 15.06455078 -3.80193359 15.06455078 -5.06640625 15.44921875 C-5.70449219 15.63097656 -6.34257812 15.81273437 -7 16 C-7 15.34 -7 14.68 -7 14 C-4.97111042 12.98555521 -2.99584575 11.99841161 -0.875 11.1875 C1.67232367 9.57419501 2.1119086 7.81228942 3 5 C1.68 3.68 0.36 2.36 -1 1 C-0.67 0.67 -0.34 0.34 0 0 Z " fill="#7DC5E4" transform="translate(349,159)"/>
<path d="M0 0 C0.87720703 -0.01611328 1.75441406 -0.03222656 2.65820312 -0.04882812 C8.27843894 -0.05303174 12.18691643 0.72693223 17.1875 3.3125 C16.5275 3.9725 15.8675 4.6325 15.1875 5.3125 C14.37410156 4.98636719 13.56070312 4.66023438 12.72265625 4.32421875 C8.5523809 3.13073663 4.9297185 3.05356799 0.625 3.125 C-0.11685547 3.12564453 -0.85871094 3.12628906 -1.62304688 3.12695312 C-5.46974828 3.15778154 -9.07374311 3.38706513 -12.8125 4.3125 C-13.1425 3.6525 -13.4725 2.9925 -13.8125 2.3125 C-9.24862483 -0.29477993 -5.14060144 -0.01863887 0 0 Z " fill="#87C2E0" transform="translate(331.8125,104.6875)"/>
<path d="M0 0 C1.09572289 2.19144578 2.18731485 4.38390846 3.26171875 6.5859375 C6.4339428 12.79132919 9.38950038 16.84823028 15 21 C13.12109375 21.61328125 13.12109375 21.61328125 11 22 C9.62298702 20.71182656 8.29355827 19.37195574 7 18 C5.6696875 17.4740625 5.6696875 17.4740625 4.3125 16.9375 C3.549375 16.628125 2.78625 16.31875 2 16 C0.17260351 10.51781054 -0.09725306 5.73793057 0 0 Z " fill="#334851" transform="translate(144,150)"/>
<path d="M0 0 C3 1 3 1 3.984375 2.671875 C5.50764155 6.80645562 6.49659646 9.64626484 5 14 C4.01 14 3.02 14 2 14 C-1.52529183 5.33365759 -1.52529183 5.33365759 -1 1 C-0.67 0.67 -0.34 0.34 0 0 Z " fill="#6BCBED" transform="translate(150,148)"/>
<path d="M0 0 C3.44248059 3.14785388 5.85921194 6.65806277 8.25 10.625 C8.61351563 11.21023437 8.97703125 11.79546875 9.3515625 12.3984375 C12 16.73948543 12 16.73948543 12 19 C15.63 19 19.26 19 23 19 C23 19.33 23 19.66 23 20 C21.06372231 20.10807131 19.12572244 20.1856225 17.1875 20.25 C15.56908203 20.31960937 15.56908203 20.31960937 13.91796875 20.390625 C11 20 11 20 9.30078125 18.046875 C8.87152344 17.37140625 8.44226563 16.6959375 8 16 C7.01 15.67 6.02 15.34 5 15 C4.12109375 12.75 4.12109375 12.75 3.4375 10 C2.79850816 7.31542362 2.79850816 7.31542362 2 5 C1.34 4.67 0.68 4.34 0 4 C0 2.68 0 1.36 0 0 Z " fill="#384E5B" transform="translate(108,156)"/>
<path d="M0 0 C6.50369982 4.64549987 10.98275578 10.78570252 12.875 18.625 C12.936875 19.800625 12.936875 19.800625 13 21 C12.01 21 11.02 21 10 21 C8.90597055 18.34307134 7.93979 15.77768614 7.1875 13 C6.15794751 9.81865286 6.15794751 9.81865286 3.4375 7.4375 C0.83539413 4.83539413 0.30782295 3.59126778 0 0 Z " fill="#81BDD8" transform="translate(196,110)"/>
<path d="M0 0 C4.875 1.875 4.875 1.875 6 3 C7.99958364 3.04080783 10.00045254 3.04254356 12 3 C12 3.99 12 4.98 12 6 C13.051875 5.690625 14.10375 5.38125 15.1875 5.0625 C18.12752396 4.24314906 21.00161623 3.54516069 24 3 C24.33 2.01 24.66 1.02 25 0 C25.33 1.32 25.66 2.64 26 4 C19.81062687 7.37602171 13.98718213 7.89033346 7 7 C4.32249311 5.96941244 3.13288835 5.01759709 1 3 C0.67 2.01 0.34 1.02 0 0 Z " fill="#80C6DC" transform="translate(376,169)"/>
<path d="M0 0 C3.63 0 7.26 0 11 0 C11 0.33 11 0.66 11 1 C13.31 1.33 15.62 1.66 18 2 C14.41624224 5.58375776 8.86499859 5.92387761 3.9375 6.125 C3.298125 6.08375 2.65875 6.0425 2 6 C1.34 4.02 0.68 2.04 0 0 Z " fill="#71C7EA" transform="translate(238,132)"/>
<path d="M0 0 C2.60423592 -0.02697137 5.20819244 -0.04682489 7.8125 -0.0625 C8.55048828 -0.07087891 9.28847656 -0.07925781 10.04882812 -0.08789062 C13.29922068 -0.10259828 15.89404895 -0.03531702 19 1 C19 2.65 19 4.3 19 6 C15.04 6 11.08 6 7 6 C7 5.67 7 5.34 7 5 C10.465 4.505 10.465 4.505 14 4 C11.36 3.67 8.72 3.34 6 3 C6 2.67 6 2.34 6 2 C3.03 1.505 3.03 1.505 0 1 C0 0.67 0 0.34 0 0 Z " fill="#6EB9D2" transform="translate(240,131)"/>
<path d="M0 0 C0.66 0 1.32 0 2 0 C3.05251206 5.17485098 3.05251206 5.17485098 3 8 C1.125 10.8125 1.125 10.8125 -1 13 C-1.33 13.99 -1.66 14.98 -2 16 C-1.34 16.33 -0.68 16.66 0 17 C-2 18 -2 18 -4.0625 17.75 C-4.701875 17.5025 -5.34125 17.255 -6 17 C-6.33 16.01 -6.66 15.02 -7 14 C-6.01 13.195625 -5.02 12.39125 -4 11.5625 C-3.01 10.716875 -2.02 9.87125 -1 9 C-1 8.67 -1 8.34 -1 8 C-0.68402067 5.33110315 -0.33855912 2.66615304 0 0 Z " fill="#6BCDF2" transform="translate(122,112)"/>
<path d="M0 0 C0.268125 1.093125 0.53625 2.18625 0.8125 3.3125 C2.00905129 7.4028906 2.00905129 7.4028906 5 10 C8.10839021 10.7269226 8.10839021 10.7269226 11 11 C11 11.99 11 12.98 11 14 C12.32 14.66 13.64 15.32 15 16 C8.18174551 15.48863091 3.136765 12.30113154 -1.4375 7.375 C-3 5 -3 5 -4 2 C-1 0 -1 0 0 0 Z " fill="#82C1D8" transform="translate(229,160)"/>
<path d="M0 0 C0.66 0.66 1.32 1.32 2 2 C1.4225 2.61875 0.845 3.2375 0.25 3.875 C-4.84005567 10.94452177 -7.0732479 19.09751634 -7.5625 27.6875 C-7.60568359 28.38939453 -7.64886719 29.09128906 -7.69335938 29.81445312 C-7.7991736 31.54275206 -7.90006581 33.2713511 -8 35 C-8.33 35 -8.66 35 -9 35 C-9 28.4 -9 21.8 -9 15 C-8.34 15 -7.68 15 -7 15 C-6.91363281 14.41992188 -6.82726562 13.83984375 -6.73828125 13.2421875 C-5.6895597 7.41168056 -4.13464784 4.24345436 0 0 Z " fill="#314B53" transform="translate(306,113)"/>
<path d="M0 0 C0.66 0.33 1.32 0.66 2 1 C2.08071788 3.79224073 2.14035408 6.58216566 2.1875 9.375 C2.21263672 10.1690625 2.23777344 10.963125 2.26367188 11.78125 C2.29004405 13.85586148 2.15486462 15.93100865 2 18 C1.01 18.66 0.02 19.32 -1 20 C-1.02888514 16.85418577 -1.04675923 13.70840531 -1.0625 10.5625 C-1.07087891 9.66466797 -1.07925781 8.76683594 -1.08789062 7.84179688 C-1.09111328 6.98779297 -1.09433594 6.13378906 -1.09765625 5.25390625 C-1.10551147 4.06776733 -1.10551147 4.06776733 -1.11352539 2.85766602 C-1 1 -1 1 0 0 Z " fill="#82C1DC" transform="translate(131,99)"/>
<path d="M0 0 C1.8871875 0.061875 1.8871875 0.061875 3.8125 0.125 C1.23019993 1.84653338 -1.37542129 3.38977534 -4.0625 4.9375 C-8.04962742 7.3099574 -11.12636061 9.65570869 -14.1875 13.125 C-14.625 11 -14.625 11 -14.1875 8.125 C-10.40054922 3.96139013 -5.79908191 -0.19013383 0 0 Z " fill="#33515A" transform="translate(164.1875,104.875)"/>
<path d="M0 0 C-3.20782086 0.95376567 -6.08187396 1.11621181 -9.421875 1.09765625 C-10.44667969 1.09443359 -11.47148437 1.09121094 -12.52734375 1.08789062 C-13.59082031 1.07951172 -14.65429688 1.07113281 -15.75 1.0625 C-16.82894531 1.05798828 -17.90789062 1.05347656 -19.01953125 1.04882812 C-21.67974383 1.03705727 -24.33984365 1.02061399 -27 1 C-27 1.66 -27 2.32 -27 3 C-27.99 2.67 -28.98 2.34 -30 2 C-23.19224232 -4.80775768 -8.29290659 -3.08573268 0 0 Z " fill="#78A9C4" transform="translate(268,106)"/>
<path d="M0 0 C0.66 0 1.32 0 2 0 C1.9278125 0.74765625 1.855625 1.4953125 1.78125 2.265625 C1.6884375 3.25046875 1.595625 4.2353125 1.5 5.25 C1.4071875 6.22453125 1.314375 7.1990625 1.21875 8.203125 C1.04199832 10.46302153 1 12.73320193 1 15 C3.42672567 16.78969026 3.42672567 16.78969026 6 18 C5.67 18.99 5.34 19.98 5 21 C2.10426876 20.00147198 1.02734091 19.03905844 -0.75 16.5 C-2.36584319 11.97563908 -2.63142227 7.76436805 -2 3 C-1.34 2.01 -0.68 1.02 0 0 Z " fill="#2F4C55" transform="translate(237,145)"/>
<path d="M0 0 C0.66 0.33 1.32 0.66 2 1 C1.67 4.96 1.34 8.92 1 13 C1.66 13 2.32 13 3 13 C3.66 17.29 4.32 21.58 5 26 C-0.33723912 18.88368117 -1.77243834 12.73449505 -1 4 C-0.69896059 2.65900628 -0.375966 1.32194495 0 0 Z " fill="#3D5B69" transform="translate(310,132)"/>
<path d="M0 0 C3.3 0 6.6 0 10 0 C10 0.33 10 0.66 10 1 C7.03 1 4.06 1 1 1 C2.06645115 2.29633621 2.06645115 2.29633621 4.5625 2.0625 C5.366875 2.041875 6.17125 2.02125 7 2 C7 3.32 7 4.64 7 6 C7.66 6.66 8.32 7.32 9 8 C6.03 8 3.06 8 0 8 C0 5.36 0 2.72 0 0 Z " fill="#7FCBE9" transform="translate(364,107)"/>
<path d="M0 0 C4.62 0 9.24 0 14 0 C14.33 0.99 14.66 1.98 15 3 C13.90300781 3.04898438 12.80601562 3.09796875 11.67578125 3.1484375 C10.22133075 3.22350591 8.76690484 3.29905197 7.3125 3.375 C6.2306543 3.42140625 6.2306543 3.42140625 5.12695312 3.46875 C1.02789606 3.69335587 -2.24368459 4.17740909 -6 6 C-6.66 5.34 -7.32 4.68 -8 4 C-7.34 4 -6.68 4 -6 4 C-6 3.34 -6 2.68 -6 2 C-4.02 2 -2.04 2 0 2 C0 1.34 0 0.68 0 0 Z " fill="#34464B" transform="translate(241,128)"/>
<path d="M0 0 C3.3 0 6.6 0 10 0 C10 5.61 10 11.22 10 17 C9.34 16.67 8.68 16.34 8 16 C8.33 13.36 8.66 10.72 9 8 C8.34 8 7.68 8 7 8 C7.66 5.69 8.32 3.38 9 1 C6.36 1 3.72 1 1 1 C1 6.28 1 11.56 1 17 C0.67 17 0.34 17 0 17 C0 11.39 0 5.78 0 0 Z " fill="#8DC8DE" transform="translate(375,88)"/>
<path d="M0 0 C7.84396083 0.76901577 12.31770944 3.83428131 18 9 C18.33 9.99 18.66 10.98 19 12 C17.68 12 16.36 12 15 12 C13.71187599 10.51865739 12.42787485 9.03032179 11.23828125 7.46875 C9.72430886 5.67299726 8.19142856 4.81164021 6 4 C6 3.34 6 2.68 6 2 C3.03 1.505 3.03 1.505 0 1 C0 0.67 0 0.34 0 0 Z " fill="#77C2D4" transform="translate(110,81)"/>
<path d="M0 0 C2 2 2 2 2.1953125 4.1640625 C2.16050781 5.38222656 2.16050781 5.38222656 2.125 6.625 C2.10695313 7.44226563 2.08890625 8.25953125 2.0703125 9.1015625 C2.04710937 9.72804688 2.02390625 10.35453125 2 11 C2.99 11 3.98 11 5 11 C5 13.31 5 15.62 5 18 C4.01 18 3.02 18 2 18 C1.67 15.69 1.34 13.38 1 11 C0.34 11 -0.32 11 -1 11 C-1.02688151 9.35425434 -1.04634123 7.70838587 -1.0625 6.0625 C-1.07410156 5.14597656 -1.08570313 4.22945313 -1.09765625 3.28515625 C-1 1 -1 1 0 0 Z " fill="#4D3F3F" transform="translate(390,85)"/>
<path d="M0 0 C1.45169732 2.90339465 0.72348441 4.90874842 0 8 C-0.99 8.495 -0.99 8.495 -2 9 C-2.31241371 11.54941373 -2.51303421 14.00361513 -2.625 16.5625 C-2.66367188 17.27341797 -2.70234375 17.98433594 -2.7421875 18.71679688 C-2.83671783 20.47742425 -2.91945817 22.23867728 -3 24 C-3.66 24 -4.32 24 -5 24 C-5.32266149 15.41361914 -5.13832435 7.24036613 0 0 Z " fill="#7CB9CD" transform="translate(148,122)"/>
<path d="M0 0 C3.0625 1.4375 3.0625 1.4375 5 4.3125 C6.04322075 7.38079632 6.29762958 8.51810281 5.0625 11.4375 C3.39583333 9.77083333 1.72916667 8.10416667 0.0625 6.4375 C-0.8346875 5.6021875 -0.8346875 5.6021875 -1.75 4.75 C-2.9375 3.4375 -2.9375 3.4375 -2.9375 1.4375 C-3.5975 1.1075 -4.2575 0.7775 -4.9375 0.4375 C-2.9375 -0.5625 -2.9375 -0.5625 0 0 Z " fill="#364B55" transform="translate(273.9375,104.5625)"/>
<path d="M0 0 C2 2 4 4 6 6 C10.21571713 6.28743526 13.18009548 5.79760213 17 4 C17.33 5.32 17.66 6.64 18 8 C16.2300132 8.19532961 14.45895721 8.38098882 12.6875 8.5625 C11.70136719 8.66691406 10.71523438 8.77132812 9.69921875 8.87890625 C7 9 7 9 4 8 C3.67 7.34 3.34 6.68 3 6 C1.68 6.33 0.36 6.66 -1 7 C-0.67 4.69 -0.34 2.38 0 0 Z " fill="#84BDD7" transform="translate(383,160)"/>
<path d="M0 0 C0.99 0 1.98 0 3 0 C4.28571429 8.57142857 4.28571429 8.57142857 3 12 C1.68 11.67 0.36 11.34 -1 11 C-1.02688151 9.35425434 -1.04634123 7.70838587 -1.0625 6.0625 C-1.07410156 5.14597656 -1.08570313 4.22945312 -1.09765625 3.28515625 C-1 1 -1 1 0 0 Z " fill="#65C8E9" transform="translate(307,124)"/>
<path d="M0 0 C1.63001953 0.01353516 1.63001953 0.01353516 3.29296875 0.02734375 C4.12441406 0.03894531 4.95585937 0.05054687 5.8125 0.0625 C4.8125 3.0625 4.8125 3.0625 2.8125 4.0625 C0.76751575 3.97469597 -1.27494948 3.82008462 -3.3125 3.625 C-4.40820312 3.52316406 -5.50390625 3.42132813 -6.6328125 3.31640625 C-7.89738281 3.19072266 -7.89738281 3.19072266 -9.1875 3.0625 C-9.1875 2.4025 -9.1875 1.7425 -9.1875 1.0625 C-5.90230525 -0.03256492 -3.45086585 -0.03710608 0 0 Z " fill="#68CBE8" transform="translate(330.1875,106.9375)"/>
<path d="M0 0 C0.99 0 1.98 0 3 0 C3.18451025 9.41002278 3.18451025 9.41002278 2 14 C1.01 14 0.02 14 -1 14 C-1.18451025 4.58997722 -1.18451025 4.58997722 0 0 Z " fill="#40443C" transform="translate(266,146)"/>
<path d="M0 0 C4.68 4.32 4.68 4.32 6 7.125 C6 9 6 9 4.75 10.75 C3 12 3 12 0 12 C0 10.68 0 9.36 0 8 C-0.66 7.34 -1.32 6.68 -2 6 C-1.34 6 -0.68 6 0 6 C0 4.02 0 2.04 0 0 Z " fill="#3A4C51" transform="translate(192,119)"/>
<path d="M0 0 C-4.18461538 4.92307692 -4.18461538 4.92307692 -8.3125 5.3125 C-9.199375 5.209375 -10.08625 5.10625 -11 5 C-11.33 3.35 -11.66 1.7 -12 0 C-7.66726186 -0.92844389 -4.33273814 -0.92844389 0 0 Z " fill="#414F56" transform="translate(400,162)"/>
<path d="M0 0 C0.52980469 0.32226562 1.05960937 0.64453125 1.60546875 0.9765625 C-1.5993909 1.9932766 -3.9077084 1.88153247 -7.20703125 1.3515625 C-12.28008682 0.73800711 -14.87557332 1.76319535 -19.39453125 3.9765625 C-20.38453125 3.6465625 -21.37453125 3.3165625 -22.39453125 2.9765625 C-16.03782772 -1.75400757 -7.49180375 -3.20204337 0 0 Z " fill="#37535F" transform="translate(260.39453125,140.0234375)"/>
<path d="M0 0 C1.65 0 3.3 0 5 0 C5 0.66 5 1.32 5 2 C4.21625 2.226875 3.4325 2.45375 2.625 2.6875 C-0.14026551 3.75197599 -0.14026551 3.75197599 -1.15625 6.1875 C-2.11166436 9.37221455 -2.19792779 11.9942857 -2.125 15.3125 C-2.10695312 16.38113281 -2.08890625 17.44976562 -2.0703125 18.55078125 C-2.04710937 19.35902344 -2.02390625 20.16726562 -2 21 C-2.66 21 -3.32 21 -4 21 C-4 16.05 -4 11.1 -4 6 C-3.34 6 -2.68 6 -2 6 C-1.7834375 5.071875 -1.7834375 5.071875 -1.5625 4.125 C-1 2 -1 2 0 0 Z " fill="#7CB6CC" transform="translate(238,139)"/>
<path d="M0 0 C1.65 0 3.3 0 5 0 C5.33 2.64 5.66 5.28 6 8 C5.01 8.33 4.02 8.66 3 9 C3.33 9.99 3.66 10.98 4 12 C2.02 11.34 0.04 10.68 -2 10 C-0.68 9.67 0.64 9.34 2 9 C1.34 6.03 0.68 3.06 0 0 Z " fill="#38475A" transform="translate(258,122)"/>
<path d="M0 0 C0.99 0.66 1.98 1.32 3 2 C2.01 2 1.02 2 0 2 C-0.33 4.64 -0.66 7.28 -1 10 C-8.42857143 9 -8.42857143 9 -12 8 C-10.4221875 7.4121875 -10.4221875 7.4121875 -8.8125 6.8125 C-5.08341068 5.23597443 -2.70336513 3.03104575 0 0 Z " fill="#3C4F58" transform="translate(356,166)"/>
<path d="M0 0 C0.52078125 0.15339844 1.0415625 0.30679688 1.578125 0.46484375 C4.63278515 1.13982511 7.63015971 1.34411118 10.75 1.5625 C11.92046875 1.64628906 13.0909375 1.73007813 14.296875 1.81640625 C15.18890625 1.87699219 16.0809375 1.93757812 17 2 C17 2.66 17 3.32 17 4 C11.06 4 5.12 4 -1 4 C-0.67 2.68 -0.34 1.36 0 0 Z " fill="#7BC4D7" transform="translate(79,133)"/>
<path d="M0 0 C0.66 0 1.32 0 2 0 C2.33 0.99 2.66 1.98 3 3 C2.01 3 1.02 3 0 3 C0.84681777 5.25552668 0.84681777 5.25552668 3.4375 5.9375 C6 7 6 7 8 10 C11.06556598 10.73343428 11.06556598 10.73343428 14 11 C14 11.66 14 12.32 14 13 C7.64642016 12.73526751 3.54953042 10.46075909 -1 6 C-1.33 5.01 -1.66 4.02 -2 3 C-1.34 2.01 -0.68 1.02 0 0 Z " fill="#3E565F" transform="translate(161,154)"/>
<path d="M0 0 C1.73879087 2.26042813 3.33895479 4.53102917 4.875 6.9375 C6.99820628 9.99741493 9.29798929 12.44810099 12 15 C11.01 15.33 10.02 15.66 9 16 C8.566875 15.525625 8.13375 15.05125 7.6875 14.5625 C5.97690387 12.76313043 5.97690387 12.76313043 3 12 C2.05078125 10.29296875 2.05078125 10.29296875 1.3125 8.1875 C1.06113281 7.50042969 0.80976563 6.81335938 0.55078125 6.10546875 C0 4 0 4 0 0 Z " fill="#364E59" transform="translate(301,156)"/>
<path d="M0 0 C0.66 0 1.32 0 2 0 C2.07347656 1.06541016 2.07347656 1.06541016 2.1484375 2.15234375 C2.22320312 3.07144531 2.29796875 3.99054688 2.375 4.9375 C2.44460938 5.85402344 2.51421875 6.77054688 2.5859375 7.71484375 C2.72257812 8.46894531 2.85921875 9.22304687 3 10 C3.66 10.33 4.32 10.66 5 11 C4.34 12.98 3.68 14.96 3 17 C0.65709108 14.51565563 0.02017066 13.22268407 -0.29296875 9.765625 C-0.24076172 8.02539062 -0.24076172 8.02539062 -0.1875 6.25 C-0.16042969 5.07953125 -0.13335937 3.9090625 -0.10546875 2.703125 C-0.07066406 1.81109375 -0.03585937 0.9190625 0 0 Z " fill="#71CBEF" transform="translate(300,136)"/>
<path d="M0 0 C0.33 3.63 0.66 7.26 1 11 C-1.31 11 -3.62 11 -6 11 C-5.01 10.67 -4.02 10.34 -3 10 C-3 9.34 -3 8.68 -3 8 C-3.66 8 -4.32 8 -5 8 C-5.25 5.6875 -5.25 5.6875 -5 3 C-1.79310345 0 -1.79310345 0 0 0 Z " fill="#6CC7E4" transform="translate(75,162)"/>
<path d="M0 0 C2.54384726 1.27192363 2.69368156 2.19948469 3.6875 4.8125 C3.95949219 5.49957031 4.23148438 6.18664062 4.51171875 6.89453125 C5.06812731 9.29376496 4.77364938 10.6894364 4 13 C3.18357746 11.73168307 2.37200895 10.46024069 1.5625 9.1875 C1.11003906 8.47980469 0.65757812 7.77210938 0.19140625 7.04296875 C-1 5 -1 5 -2 2 C-1.34 1.34 -0.68 0.68 0 0 Z " fill="#7EBDD9" transform="translate(148,153)"/>
<path d="M0 0 C0.99 0 1.98 0 3 0 C2.67 5.28 2.34 10.56 2 16 C1.34 16 0.68 16 0 16 C0 10.72 0 5.44 0 0 Z " fill="#4A423C" transform="translate(294,128)"/>
<path d="M0 0 C0.66 0.66 1.32 1.32 2 2 C1.01 2.495 1.01 2.495 0 3 C0.33 4.32 0.66 5.64 1 7 C-0.65 7.66 -2.3 8.32 -4 9 C-4 8.34 -4 7.68 -4 7 C-4.66 6.67 -5.32 6.34 -6 6 C-4.95125002 3.37812506 -4.35068687 2.20628639 -1.875 0.75 C-1.25625 0.5025 -0.6375 0.255 0 0 Z " fill="#7EC3E2" transform="translate(316,108)"/>
<path d="M0 0 C4.95 0 9.9 0 15 0 C14.01 1.485 14.01 1.485 13 3 C13.66 3.66 14.32 4.32 15 5 C13.25 5.6875 13.25 5.6875 11 6 C8.75 4.5625 8.75 4.5625 7 3 C7.33 2.67 7.66 2.34 8 2 C5.36 1.67 2.72 1.34 0 1 C0 0.67 0 0.34 0 0 Z " fill="#73B4CE" transform="translate(247,168)"/>
<path d="M0 0 C2 1 2 1 4 4 C0.55549263 6.29633824 -1.93812283 6.54016485 -6 7 C-6.33 6.01 -6.66 5.02 -7 4 C-1.7265625 0.77734375 -1.7265625 0.77734375 0 0 Z " fill="#464E54" transform="translate(123,130)"/>
<path d="M0 0 C1.32 0.33 2.64 0.66 4 1 C5.25 8.625 5.25 8.625 3 12 C2.34 12 1.68 12 1 12 C0.67 8.04 0.34 4.08 0 0 Z " fill="#68CEEF" transform="translate(201,125)"/>
<path d="M0 0 C1.43859375 -0.02126953 1.43859375 -0.02126953 2.90625 -0.04296875 C5.5 0.1875 5.5 0.1875 8.5 2.1875 C8.17 2.8475 7.84 3.5075 7.5 4.1875 C6.65308594 3.94386719 6.65308594 3.94386719 5.7890625 3.6953125 C3.41191379 3.16795869 1.30656882 3.05436766 -1.125 3.0625 C-1.90101563 3.05992188 -2.67703125 3.05734375 -3.4765625 3.0546875 C-5.56959248 3.06076631 -5.56959248 3.06076631 -7.5 4.1875 C-7.83 3.1975 -8.16 2.2075 -8.5 1.1875 C-5.43301363 0.16517121 -3.21335122 0.0215951 0 0 Z " fill="#414E61" transform="translate(332.5,113.8125)"/>
<path d="M0 0 C2.97 0 5.94 0 9 0 C9 0.99 9 1.98 9 3 C9.66 3.33 10.32 3.66 11 4 C4.64102564 5.34516765 4.64102564 5.34516765 1.5625 3.6875 C0 2 0 2 0 0 Z " fill="#6DCCF3" transform="translate(163,168)"/>
<path d="M0 0 C2.0625 1.3125 2.0625 1.3125 4 4 C4.05898893 7.72702755 3.58315738 11.32357303 3 15 C2.67 15 2.34 15 2 15 C2 13.02 2 11.04 2 9 C0.68 9.33 -0.64 9.66 -2 10 C-1.25 5.25 -1.25 5.25 1 3 C0.67 2.01 0.34 1.02 0 0 Z " fill="#7ACAEF" transform="translate(308,115)"/>
<path d="M0 0 C1.65 0 3.3 0 5 0 C5.66 1.65 6.32 3.3 7 5 C5.68 5.99 4.36 6.98 3 8 C0 2.25 0 2.25 0 0 Z " fill="#79C2E8" transform="translate(347,115)"/>
<path d="M0 0 C0.33 0.99 0.66 1.98 1 3 C0.01 3.66 -0.98 4.32 -2 5 C-2.33 5.99 -2.66 6.98 -3 8 C-3.99 8.495 -3.99 8.495 -5 9 C-5.66 9.99 -6.32 10.98 -7 12 C-7.33 10.02 -7.66 8.04 -8 6 C-4.25 3 -4.25 3 -2 3 C-2 2.34 -2 1.68 -2 1 C-1.34 0.67 -0.68 0.34 0 0 Z " fill="#7FBFD6" transform="translate(236,108)"/>
<path d="M0 0 C0.33 0.66 0.66 1.32 1 2 C1.99 2 2.98 2 4 2 C4.99 3.98 5.98 5.96 7 8 C3.37673261 9.2077558 2.35853631 8.54311128 -1 7 C-1 6.34 -1 5.68 -1 5 C-0.34 5 0.32 5 1 5 C0.67 3.35 0.34 1.7 0 0 Z " fill="#7AC5E4" transform="translate(309,152)"/>
<path d="M0 0 C0.66 0.99 1.32 1.98 2 3 C2.66 3 3.32 3 4 3 C3.67 5.31 3.34 7.62 3 10 C2.34 8.68 1.68 7.36 1 6 C0.67 10.62 0.34 15.24 0 20 C-0.33 20 -0.66 20 -1 20 C-1.02689449 17.04160645 -1.04678741 14.08345573 -1.0625 11.125 C-1.07087891 10.28324219 -1.07925781 9.44148437 -1.08789062 8.57421875 C-1.09111328 7.76855469 -1.09433594 6.96289062 -1.09765625 6.1328125 C-1.10289307 5.38918457 -1.10812988 4.64555664 -1.11352539 3.87939453 C-1 2 -1 2 0 0 Z " fill="#3D454D" transform="translate(291,123)"/>
<path d="M0 0 C0.99 0 1.98 0 3 0 C3.99384397 3.25258026 4.04826731 6.03465371 3.87890625 9.421875 C3.83056641 10.44667969 3.78222656 11.47148438 3.73242188 12.52734375 C3.67634766 13.59082031 3.62027344 14.65429688 3.5625 15.75 C3.51029297 16.82894531 3.45808594 17.90789062 3.40429688 19.01953125 C3.27480531 21.67999422 3.13984639 24.34006452 3 27 C2.67 27 2.34 27 2 27 C1.97494385 26.32420898 1.9498877 25.64841797 1.92407227 24.95214844 C1.80789258 21.8845832 1.68526563 18.81730842 1.5625 15.75 C1.52318359 14.68652344 1.48386719 13.62304688 1.44335938 12.52734375 C1.40146484 11.50253906 1.35957031 10.47773437 1.31640625 9.421875 C1.27974854 8.47924805 1.24309082 7.53662109 1.20532227 6.56542969 C1.02060772 4.25748623 0.64138388 2.21859476 0 0 Z " fill="#7AC2DF" transform="translate(276,116)"/>
<path d="M0 0 C1.98 0.495 1.98 0.495 4 1 C4.6875 3.3125 4.6875 3.3125 5 6 C3.5625 7.8125 3.5625 7.8125 2 9 C1.01 8.67 0.02 8.34 -1 8 C-1.125 2.25 -1.125 2.25 0 0 Z " fill="#77CAF4" transform="translate(151,123)"/>
<path d="M0 0 C2.9584288 3.42474445 2.9584288 3.42474445 3.14453125 6 C2.53927022 9.64580759 1.9951887 12.80769808 0 16 C-1.30267176 10.49983036 -0.71033431 5.52967941 0 0 Z " fill="#77C6DC" transform="translate(72,124)"/>
<path d="M0 0 C-0.99 0.66 -1.98 1.32 -3 2 C-4.485 3.0209375 -4.485 3.0209375 -6 4.0625 C-9 6 -9 6 -12 7 C-12 7.66 -12 8.32 -12 9 C-12.66 9 -13.32 9 -14 9 C-14.33 8.01 -14.66 7.02 -15 6 C-14.236875 5.566875 -13.47375 5.13375 -12.6875 4.6875 C-10.0268433 3.21709675 -10.0268433 3.21709675 -8.625 1.3125 C-5.98240005 -0.82190765 -3.25784649 -0.18440641 0 0 Z " fill="#84BED8" transform="translate(245,114)"/>
<path d="M0 0 C3.92026737 -0.17819397 6.73040093 -0.28871935 10 2 C12.25 4.625 12.25 4.625 14 7 C12.02 7.99 12.02 7.99 10 9 C10 8.34 10 7.68 10 7 C8.03501678 5.61558 6.02951535 4.28796166 4 3 C2.65824027 2.01133494 1.32103998 1.0161846 0 0 Z " fill="#405263" transform="translate(104,91)"/>
<path d="M0 0 C-0.2475 0.680625 -0.495 1.36125 -0.75 2.0625 C-1.1173664 6.3790552 0.67348716 8.40448015 3 12 C-0.71279784 10.55613418 -1.9486443 8.87763608 -3.75 5.375 C-4.17796875 4.55773437 -4.6059375 3.74046875 -5.046875 2.8984375 C-5.36140625 2.27195313 -5.6759375 1.64546875 -6 1 C-4 0 -4 0 0 0 Z " fill="#354C58" transform="translate(119,141)"/>
<path d="M0 0 C2.31 0 4.62 0 7 0 C6.67 0.66 6.34 1.32 6 2 C5.34 2 4.68 2 4 2 C4 2.66 4 3.32 4 4 C2.02 4.99 0.04 5.98 -2 7 C-2.66 6.34 -3.32 5.68 -4 5 C-3.34 5 -2.68 5 -2 5 C-1.34 3.35 -0.68 1.7 0 0 Z " fill="#3C4A51" transform="translate(230,107)"/>
<path d="M0 0 C0.33 0.99 0.66 1.98 1 3 C-3.62 3 -8.24 3 -13 3 C-13 2.34 -13 1.68 -13 1 C-8.62426048 0.40667939 -4.42471556 -0.13827236 0 0 Z " fill="#82B3C6" transform="translate(133,172)"/>
<path d="M0 0 C2.31 0 4.62 0 7 0 C6.67 1.65 6.34 3.3 6 5 C5.01 5 4.02 5 3 5 C3 5.66 3 6.32 3 7 C2.34 7 1.68 7 1 7 C0.67 4.69 0.34 2.38 0 0 Z " fill="#79C5EF" transform="translate(387,168)"/>
<path d="M0 0 C3.63 0 7.26 0 11 0 C11.33 1.32 11.66 2.64 12 4 C9.69 4 7.38 4 5 4 C4.67 3.34 4.34 2.68 4 2 C2.68 1.34 1.36 0.68 0 0 Z " fill="#354942" transform="translate(325,118)"/>
<path d="M0 0 C0.33 1.65 0.66 3.3 1 5 C-1.375 5.625 -1.375 5.625 -4 6 C-4.66 5.34 -5.32 4.68 -6 4 C-2.25 0 -2.25 0 0 0 Z M-11 6 C-7 7 -7 7 -7 7 Z " fill="#424251" transform="translate(176,119)"/>
<path d="M0 0 C0 3.51716303 -0.82445585 4.37121748 -3 7 C-2.67 7.66 -2.34 8.32 -2 9 C-3.98 9.33 -5.96 9.66 -8 10 C-7.01 9.67 -6.02 9.34 -5 9 C-5 8.34 -5 7.68 -5 7 C-6.98 7 -8.96 7 -11 7 C-8 5 -8 5 -4.9375 3.5 C-1.96887524 2.17432658 -1.96887524 2.17432658 0 0 Z " fill="#7DC1DC" transform="translate(117,120)"/>
<path d="M0 0 C3.3 0.66 6.6 1.32 10 2 C10 2.33 10 2.66 10 3 C5.38 3 0.76 3 -4 3 C-4 3.66 -4 4.32 -4 5 C-4.99 5 -5.98 5 -7 5 C-7 4.01 -7 3.02 -7 2 C-4.69 2 -2.38 2 0 2 C0 1.34 0 0.68 0 0 Z " fill="#473D3A" transform="translate(174,115)"/>
<path d="M0 0 C0.33 0 0.66 0 1 0 C1 3.3 1 6.6 1 10 C-2.63 10 -6.26 10 -10 10 C-6.39338934 8.19669467 -3.91606575 7.53400897 0 7 C0 4.69 0 2.38 0 0 Z " fill="#2F4A55" transform="translate(373,96)"/>
<path d="M0 0 C3.82792868 1.5595265 6.36359864 3.83631836 9 7 C8.8125 9.3125 8.8125 9.3125 8 11 C4.31993178 7.61831569 2.0214155 4.57478244 0 0 Z " fill="#3B4D58" transform="translate(121,154)"/>
<path d="M0 0 C0.66 0.99 1.32 1.98 2 3 C1.01 4.485 1.01 4.485 0 6 C-0.39387788 8.32387947 -0.73486085 10.65793749 -1 13 C-1.33 12.01 -1.66 11.02 -2 10 C-2.66 10 -3.32 10 -4 10 C-3.5205537 5.78087253 -2.83374881 3.20336822 0 0 Z " fill="#7CBAD1" transform="translate(228,139)"/>
<path d="M0 0 C0.66 0 1.32 0 2 0 C2.12036664 5.77759884 1.8320582 11.27959989 1 17 C0.67 17 0.34 17 0 17 C-0.19386492 14.35448944 -0.38038267 11.70882217 -0.5625 9.0625 C-0.61857422 8.30775391 -0.67464844 7.55300781 -0.73242188 6.77539062 C-0.86176157 4.85254042 -0.93516912 2.92610452 -1 1 C-0.67 0.67 -0.34 0.34 0 0 Z " fill="#394A50" transform="translate(210,127)"/>
<path d="M0 0 C6.70909091 2.60909091 6.70909091 2.60909091 9 4 C9.33 4.99 9.66 5.98 10 7 C8.68 7.33 7.36 7.66 6 8 C4.9970458 6.85675161 3.99770973 5.71032809 3 4.5625 C2.443125 3.92441406 1.88625 3.28632812 1.3125 2.62890625 C0 1 0 1 0 0 Z " fill="#7BC2DA" transform="translate(113,92)"/>
<path d="M0 0 C5.08174565 -0.17523261 9.32069904 -0.28258584 14 2 C14.875 4.125 14.875 4.125 15 6 C15.66 6 16.32 6 17 6 C16.67 6.66 16.34 7.32 16 8 C15.401875 7.401875 14.80375 6.80375 14.1875 6.1875 C9.77954758 3.16243461 5.16222151 2.19336819 0 1 C0 0.67 0 0.34 0 0 Z " fill="#3D5460" transform="translate(109,80)"/>
<path d="M0 0 C1.65 0 3.3 0 5 0 C5.33 1.65 5.66 3.3 6 5 C4.02 5 2.04 5 0 5 C0 3.35 0 1.7 0 0 Z " fill="#69CBEA" transform="translate(272,168)"/>
<path d="M0 0 C1.65 0 3.3 0 5 0 C4.67 0.66 4.34 1.32 4 2 C3.34 2 2.68 2 2 2 C1.67 2.99 1.34 3.98 1 5 C-1.06640625 5.94921875 -1.06640625 5.94921875 -3.5625 6.6875 C-4.38878906 6.93886719 -5.21507812 7.19023437 -6.06640625 7.44921875 C-6.70449219 7.63097656 -7.34257812 7.81273437 -8 8 C-8 7.34 -8 6.68 -8 6 C-5.33333333 4.66666667 -2.66666667 3.33333333 0 2 C0 1.34 0 0.68 0 0 Z " fill="#83C0D9" transform="translate(350,167)"/>
<path d="M0 0 C0.99 0 1.98 0 3 0 C3 0.66 3 1.32 3 2 C3.66 2 4.32 2 5 2 C5 4.97 5 7.94 5 11 C4.01 11 3.02 11 2 11 C2 7.7 2 4.4 2 1 C1.34 0.67 0.68 0.34 0 0 Z " fill="#38493F" transform="translate(387,117)"/>
<path d="M0 0 C0.99 0 1.98 0 3 0 C2.67 2.31 2.34 4.62 2 7 C0.02 7.66 -1.96 8.32 -4 9 C-2.75023244 5.34683329 -2.32901247 4.21934164 1 2 C0.34 1.67 -0.32 1.34 -1 1 C-0.67 0.67 -0.34 0.34 0 0 Z " fill="#3F4438" transform="translate(359,117)"/>
<path d="M0 0 C2 3 2 3 2.375 5.0625 C2.83323057 7.20668205 2.83323057 7.20668205 5.0625 8.25 C5.701875 8.4975 6.34125 8.745 7 9 C7 9.66 7 10.32 7 11 C3.20866644 10.45838092 1.33890436 9.00716275 -1 6 C-1.3125 3.3125 -1.3125 3.3125 -1 1 C-0.67 0.67 -0.34 0.34 0 0 Z " fill="#374B55" transform="translate(374,165)"/>
<path d="M0 0 C0.66 0 1.32 0 2 0 C2 0.99 2 1.98 2 3 C2.66 3.33 3.32 3.66 4 4 C1.23547967 5.38226016 -1.0461363 5.09525387 -4.125 5.0625 C-5.22070312 5.05347656 -6.31640625 5.04445312 -7.4453125 5.03515625 C-8.70988281 5.01775391 -8.70988281 5.01775391 -10 5 C-10 4.67 -10 4.34 -10 4 C-7.69 4 -5.38 4 -3 4 C-3 3.34 -3 2.68 -3 2 C-2.01 2 -1.02 2 0 2 C0 1.34 0 0.68 0 0 Z " fill="#2C4A44" transform="translate(256,163)"/>
<path d="M0 0 C2.475 0.99 2.475 0.99 5 2 C4.34 3.65 3.68 5.3 3 7 C4.32 7.33 5.64 7.66 7 8 C6.34 9.32 5.68 10.64 5 12 C2.98863724 9.44008376 1.37154504 6.95409701 0 4 C0.66 4 1.32 4 2 4 C2 3.34 2 2.68 2 2 C1.34 2 0.68 2 0 2 C0 1.34 0 0.68 0 0 Z " fill="#3F4D54" transform="translate(201,155)"/>
<path d="M0 0 C2.375 0.1875 2.375 0.1875 5 1 C5.66 2.65 6.32 4.3 7 6 C-0.425 5.01 -0.425 5.01 -8 4 C-8 3.67 -8 3.34 -8 3 C-5.36 2.67 -2.72 2.34 0 2 C0 1.34 0 0.68 0 0 Z " fill="#77B1CA" transform="translate(256,110)"/>
<path d="M0 0 C0.33 0.66 0.66 1.32 1 2 C0.67 2.66 0.34 3.32 0 4 C-4.80603519 5.55033393 -10.00819059 5.0872355 -15 5 C-15 4.67 -15 4.34 -15 4 C-14.33613281 3.87882813 -13.67226563 3.75765625 -12.98828125 3.6328125 C-8.46575541 2.77452292 -4.20061476 1.96028689 0 0 Z " fill="#85BCD0" transform="translate(345,163)"/>
<path d="M0 0 C2.1723491 3.25852365 4.07119658 6.59244728 6 10 C4.68 10.33 3.36 10.66 2 11 C1.47007308 9.54494642 0.9513211 8.08581873 0.4375 6.625 C0.14746094 5.81289062 -0.14257812 5.00078125 -0.44140625 4.1640625 C-1 2 -1 2 0 0 Z " fill="#3B525F" transform="translate(224,160)"/>
<path d="M0 0 C4.875 4.625 4.875 4.625 6 8 C5.01 8.495 5.01 8.495 4 9 C2 7.875 2 7.875 0 6 C-0.25 2.8125 -0.25 2.8125 0 0 Z " fill="#7CBED1" transform="translate(124,160)"/>
<path d="M0 0 C0.66 0.33 1.32 0.66 2 1 C1.67 1.66 1.34 2.32 1 3 C0.67 3.99 0.34 4.98 0 6 C-3.375 6.625 -3.375 6.625 -7 7 C-7.66 6.34 -8.32 5.68 -9 5 C-8.43410156 4.72285156 -7.86820313 4.44570312 -7.28515625 4.16015625 C-6.55167969 3.79792969 -5.81820312 3.43570313 -5.0625 3.0625 C-3.96615234 2.52302734 -3.96615234 2.52302734 -2.84765625 1.97265625 C-1.03750973 1.13628173 -1.03750973 1.13628173 0 0 Z " fill="#82C3D9" transform="translate(199,160)"/>
<path d="M0 0 C-4.42778844 2.74522883 -7.71862571 4.48474397 -13 5 C-11.75 3.5 -11.75 3.5 -10 2 C-8.68 2 -7.36 2 -6 2 C-6 1.34 -6 0.68 -6 0 C-3.50907189 -1.24546405 -2.58919267 -0.7767578 0 0 Z " fill="#35505D" transform="translate(199,161)"/>
<path d="M0 0 C1.32 0 2.64 0 4 0 C4 0.99 4 1.98 4 3 C4.66 3.33 5.32 3.66 6 4 C5.01 5.32 4.02 6.64 3 8 C2 5 2 5 3 2 C2.34 2 1.68 2 1 2 C1 2.99 1 3.98 1 5 C0.34 5 -0.32 5 -1 5 C-1.33 4.01 -1.66 3.02 -2 2 C-1.34 1.34 -0.68 0.68 0 0 Z " fill="#6EC7E5" transform="translate(232,137)"/>
<path d="M0 0 C0.33 0 0.66 0 1 0 C1 4.95 1 9.9 1 15 C-2.465 13.02 -2.465 13.02 -6 11 C-4 10 -4 10 0 11 C0 7.37 0 3.74 0 0 Z " fill="#2F4F5E" transform="translate(269,124)"/>
<path d="M0 0 C2.99332739 0.9977758 3.94766315 1.7522025 6 4 C5.34 5.65 4.68 7.3 4 9 C3.67 8.34 3.34 7.68 3 7 C2.01 7 1.02 7 0 7 C0 4.69 0 2.38 0 0 Z " fill="#73C6E2" transform="translate(126,114)"/>
<path d="M0 0 C1.32 0.66 2.64 1.32 4 2 C3.67 4.97 3.34 7.94 3 11 C0.36 11 -2.28 11 -5 11 C-5 10.67 -5 10.34 -5 10 C-2.69 10 -0.38 10 2 10 C1.34 6.7 0.68 3.4 0 0 Z " fill="#79B4C9" transform="translate(197,126)"/>
<path d="M0 0 C4.75 0.875 4.75 0.875 7 2 C7 2.66 7 3.32 7 4 C5.02 4.33 3.04 4.66 1 5 C0.67 3.35 0.34 1.7 0 0 Z " fill="#7DC3F1" transform="translate(121,166)"/>
<path d="M0 0 C0.66 0 1.32 0 2 0 C2.66 4.29 3.32 8.58 4 13 C1.08313292 9.11084389 0.03543233 6.65944551 -1 2 C-0.67 1.34 -0.34 0.68 0 0 Z " fill="#374C57" transform="translate(311,145)"/>
<path d="M0 0 C0.99 0.99 1.98 1.98 3 3 C-1.62 2.34 -6.24 1.68 -11 1 C-11 0.67 -11 0.34 -11 0 C-7.01611946 -0.83383546 -3.91159585 -1.26862568 0 0 Z " fill="#354A51" transform="translate(187,115)"/>
<path d="M0 0 C3.15998545 1.05332848 5.14745336 2.68060155 7.625 4.875 C6.635 5.37 6.635 5.37 5.625 5.875 C3.6161515 4.89289629 1.61712671 3.89059401 -0.375 2.875 C-3.11072585 2.17592586 -3.11072585 2.17592586 -5.375 1.875 C-2.375 -0.125 -2.375 -0.125 0 0 Z " fill="#7EBCD1" transform="translate(185.375,112.125)"/>
<path d="M0 0 C0.66 0 1.32 0 2 0 C2 3.3 2 6.6 2 10 C1.34 10 0.68 10 0 10 C-1.125 3.375 -1.125 3.375 0 0 Z " fill="#7BC4E1" transform="translate(72,81)"/>
<path d="M0 0 C1.32 0 2.64 0 4 0 C4.33 0.99 4.66 1.98 5 3 C1.49223216 4.60355101 -1.14354879 5.22036864 -5 5 C-3.68 4.67 -2.36 4.34 -1 4 C-0.67 2.68 -0.34 1.36 0 0 Z " fill="#76B6D0" transform="translate(189,171)"/>
<path d="M0 0 C0.99773437 0.02320313 1.99546875 0.04640625 3.0234375 0.0703125 C4.52777344 0.09738281 4.52777344 0.09738281 6.0625 0.125 C6.83335937 0.14820313 7.60421875 0.17140625 8.3984375 0.1953125 C7.7384375 1.5153125 7.0784375 2.8353125 6.3984375 4.1953125 C5.7384375 3.8653125 5.0784375 3.5353125 4.3984375 3.1953125 C1.2020289 2.12984297 -1.25903526 2.12103412 -4.6015625 2.1953125 C-2.6015625 0.1953125 -2.6015625 0.1953125 0 0 Z " fill="#76CEE9" transform="translate(192.6015625,165.8046875)"/>
<path d="M0 0 C0.66 0 1.32 0 2 0 C2.6875 3.25 2.6875 3.25 3 7 C2.01 8.32 1.02 9.64 0 11 C0 7.37 0 3.74 0 0 Z " fill="#7FC8E0" transform="translate(224,149)"/>
<path d="M0 0 C-0.80814651 1.33597652 -1.62163181 2.668725 -2.4375 4 C-2.88996094 4.7425 -3.34242188 5.485 -3.80859375 6.25 C-4.20175781 6.8275 -4.59492188 7.405 -5 8 C-5.33 8 -5.66 8 -6 8 C-6 5.36 -6 2.72 -6 0 C-2.25 -1.125 -2.25 -1.125 0 0 Z " fill="#84C5D7" transform="translate(317,120)"/>
<path d="M0 0 C0.99 0 1.98 0 3 0 C3 1.98 3 3.96 3 6 C2.34 6 1.68 6 1 6 C0.67 6.66 0.34 7.32 0 8 C-0.38063221 5.6739143 -0.71269945 3.33944736 -1 1 C-0.67 0.67 -0.34 0.34 0 0 Z " fill="#6ACAEB" transform="translate(153,118)"/>
<path d="M0 0 C0.99 1.32 1.98 2.64 3 4 C1.02 4.66 -0.96 5.32 -3 6 C-3 6.66 -3 7.32 -3 8 C-3.66 7.67 -4.32 7.34 -5 7 C-1.125 1.125 -1.125 1.125 0 0 Z " fill="#77BFD6" transform="translate(307,115)"/>
<path d="M0 0 C3.36720387 1.39332574 4.9859524 2.9789286 7 6 C6.01 6.99 5.02 7.98 4 9 C0 2.25 0 2.25 0 0 Z " fill="#7BBCD5" transform="translate(270,108)"/>
<path d="M0 0 C5.56862745 2.78431373 5.56862745 2.78431373 6.6875 5.9375 C7 8 7 8 6 11 C4.02 7.37 2.04 3.74 0 0 Z " fill="#77C2D3" transform="translate(112,161)"/>
<path d="M0 0 C0.33 0 0.66 0 1 0 C1 4.29 1 8.58 1 13 C-1.81870287 10.18129713 -1.7303841 7.90943055 -2 4 C-1.0625 1.5625 -1.0625 1.5625 0 0 Z " fill="#83CBE8" transform="translate(233,147)"/>
<path d="M0 0 C2.475 0.495 2.475 0.495 5 1 C5 1.66 5 2.32 5 3 C5.66 3 6.32 3 7 3 C7 4.65 7 6.3 7 8 C6.34 8 5.68 8 5 8 C3.1402289 5.40759181 1.42794577 2.85589153 0 0 Z " fill="#7AB7CD" transform="translate(264,116)"/>
<path d="M0 0 C1.98 0 3.96 0 6 0 C6 0.99 6 1.98 6 3 C3.69 3.33 1.38 3.66 -1 4 C-0.67 2.68 -0.34 1.36 0 0 Z " fill="#3A4A41" transform="translate(246,98)"/>
<path d="M0 0 C0.33 0.66 0.66 1.32 1 2 C3.01669827 3.13350534 3.01669827 3.13350534 5 4 C4.67 5.32 4.34 6.64 4 8 C2.68 7.67 1.36 7.34 0 7 C0 4.69 0 2.38 0 0 Z " fill="#365258" transform="translate(401,166)"/>
<path d="M0 0 C1.2065625 0.0309375 1.2065625 0.0309375 2.4375 0.0625 C2.1075 1.3825 1.7775 2.7025 1.4375 4.0625 C-0.2125 4.0625 -1.8625 4.0625 -3.5625 4.0625 C-3.5625 0.08689024 -3.5625 0.08689024 0 0 Z " fill="#68CBF5" transform="translate(344.5625,166.9375)"/>
<path d="M0 0 C3.465 1.98 3.465 1.98 7 4 C6.01 4.495 6.01 4.495 5 5 C4.67 5.66 4.34 6.32 4 7 C2.02 5.35 0.04 3.7 -2 2 C-1.34 1.34 -0.68 0.68 0 0 Z " fill="#7AB6D0" transform="translate(155,165)"/>
<path d="M0 0 C1.32 0.33 2.64 0.66 4 1 C4 1.66 4 2.32 4 3 C4.66 3 5.32 3 6 3 C6.33 4.65 6.66 6.3 7 8 C1.125 3.375 1.125 3.375 0 0 Z " fill="#81BBD0" transform="translate(304,161)"/>
<path d="M0 0 C1.73662334 3.22515763 2.8905928 6.51329166 4 10 C3.34 10.66 2.68 11.32 2 12 C-0.60018816 8.09971775 -0.15085514 4.52565431 0 0 Z " fill="#39545D" transform="translate(144,150)"/>
<path d="M0 0 C1.32 0.66 2.64 1.32 4 2 C3.25 3.9375 3.25 3.9375 2 6 C-0.125 6.75 -0.125 6.75 -2 7 C-2 5.68 -2 4.36 -2 3 C-1.34 3 -0.68 3 0 3 C0 2.01 0 1.02 0 0 Z " fill="#78C4F0" transform="translate(119,157)"/>
<path d="M0 0 C-0.7115625 0.61875 -0.7115625 0.61875 -1.4375 1.25 C-3.16266518 3.182185 -3.56584875 4.48192275 -4 7 C-4.66 7 -5.32 7 -6 7 C-6 4.69 -6 2.38 -6 0 C-3.50907189 -1.24546405 -2.58919267 -0.7767578 0 0 Z " fill="#69C5E8" transform="translate(233,145)"/>
<path d="M0 0 C1.32 0 2.64 0 4 0 C5.4606285 2.64738916 6 3.89448334 6 7 C6.66 7 7.32 7 8 7 C7.67 7.66 7.34 8.32 7 9 C4.04070881 6.24479785 1.96318174 3.53372712 0 0 Z " fill="#87C1DC" transform="translate(192,118)"/>
<path d="M0 0 C1.65 0 3.3 0 5 0 C4.67 1.32 4.34 2.64 4 4 C2.68 4.33 1.36 4.66 0 5 C0 3.35 0 1.7 0 0 Z " fill="#64CCF5" transform="translate(378,89)"/>
<path d="M0 0 C1.89213369 2.38573379 3.02391783 4.07175348 4 7 C2.68 7 1.36 7 0 7 C-1.125 2.25 -1.125 2.25 0 0 Z " fill="#79BDD2" transform="translate(156,152)"/>
<path d="M0 0 C1.29922995 2.5984599 0.81286289 3.75961451 0.1875 6.5625 C0.01605469 7.36816406 -0.15539062 8.17382812 -0.33203125 9.00390625 C-1 11 -1 11 -3 12 C-3.2954439 6.97745369 -2.98514628 4.10457614 0 0 Z " fill="#324347" transform="translate(224,143)"/>
<path d="M0 0 C0.99 0.33 1.98 0.66 3 1 C3.185625 2.2065625 3.185625 2.2065625 3.375 3.4375 C3.58125 4.283125 3.7875 5.12875 4 6 C4.66 6.33 5.32 6.66 6 7 C6 7.99 6 8.98 6 10 C5.01 9.67 4.02 9.34 3 9 C3 7.35 3 5.7 3 4 C2.34 4 1.68 4 1 4 C0.67 2.68 0.34 1.36 0 0 Z " fill="#6CD0F6" transform="translate(102,137)"/>
<path d="M0 0 C1.32 0 2.64 0 4 0 C4 1.65 4 3.3 4 5 C2.68 5 1.36 5 0 5 C0 3.35 0 1.7 0 0 Z " fill="#434151" transform="translate(124,135)"/>
<path d="M0 0 C0.66 0.33 1.32 0.66 2 1 C1.67 3.31 1.34 5.62 1 8 C0.01 8.33 -0.98 8.66 -2 9 C-2.33 8.34 -2.66 7.68 -3 7 C-2.06421005 4.64018187 -1.06652192 2.30368736 0 0 Z " fill="#314E54" transform="translate(132,117)"/>
<path d="M0 0 C0.99 0.33 1.98 0.66 3 1 C2.25 5.75 2.25 5.75 0 8 C-0.79953138 4.71303767 -1.09658936 3.28976808 0 0 Z " fill="#71C1DE" transform="translate(149,119)"/>
<path d="M0 0 C1.98 0 3.96 0 6 0 C6.33 0.99 6.66 1.98 7 3 C4.69 3.33 2.38 3.66 0 4 C0 2.68 0 1.36 0 0 Z " fill="#49423B" transform="translate(256,116)"/>
<path d="M0 0 C2 0 2 0 3.6875 1.25 C4.120625 1.8275 4.55375 2.405 5 3 C4.6875 5.1875 4.6875 5.1875 4 7 C2.68 6.34 1.36 5.68 0 5 C0 3.35 0 1.7 0 0 Z " fill="#61CCE3" transform="translate(158,112)"/>
<path d="M0 0 C0 0.33 0 0.66 0 1 C-3.3 1.66 -6.6 2.32 -10 3 C-10.33 2.34 -10.66 1.68 -11 1 C-7.2297564 -1.56376565 -4.32597804 -0.83191885 0 0 Z " fill="#77B9D1" transform="translate(329,106)"/>
<path d="M0 0 C2.625 0.9375 2.625 0.9375 5 2 C4.67 2.99 4.34 3.98 4 5 C2.68 4.67 1.36 4.34 0 4 C0 3.34 0 2.68 0 2 C-0.66 1.67 -1.32 1.34 -2 1 C-1.34 0.67 -0.68 0.34 0 0 Z " fill="#6BCEF5" transform="translate(116,85)"/>
<path d="M0 0 C2.4375 0.8125 2.4375 0.8125 5 2 C5.33 2.99 5.66 3.98 6 5 C7.65 5.33 9.3 5.66 11 6 C9.375 6.75 9.375 6.75 7 7 C1.288 3.864 1.288 3.864 0 0 Z " fill="#7AB3C7" transform="translate(376,169)"/>
<path d="M0 0 C2.32472205 2.85306797 3.7508258 5.54074837 5 9 C4.01 9.495 4.01 9.495 3 10 C3 9.34 3 8.68 3 8 C2.01 7.67 1.02 7.34 0 7 C0 4.69 0 2.38 0 0 Z " fill="#85BED9" transform="translate(375,161)"/>
<path d="M0 0 C2.50037734 2.17424117 3.43628586 3.73045798 4 7 C3.01 7.495 3.01 7.495 2 8 C0.02 4.535 0.02 4.535 -2 1 C-1.34 0.67 -0.68 0.34 0 0 Z " fill="#314E5C" transform="translate(131,165)"/>
<path d="M0 0 C2.88437779 1.29299694 4.87219421 2.65941363 7 5 C4.69 4.67 2.38 4.34 0 4 C0 2.68 0 1.36 0 0 Z " fill="#82C0D5" transform="translate(161,161)"/>
<path d="M0 0 C-1.98 0.33 -3.96 0.66 -6 1 C-6.33 1.99 -6.66 2.98 -7 4 C-8.65 4 -10.3 4 -12 4 C-8.66437635 0.13769893 -4.98576775 -1.84658065 0 0 Z " fill="#466169" transform="translate(249,115)"/>
<path d="M0 0 C-0.66 1.32 -1.32 2.64 -2 4 C-3.98 4 -5.96 4 -8 4 C-8 3.01 -8 2.02 -8 1 C-5.07175348 0.02391783 -3.04386724 -0.08226668 0 0 Z " fill="#71C5E3" transform="translate(195,109)"/>
<path d="M0 0 C2.64 0 5.28 0 8 0 C8 0.66 8 1.32 8 2 C5.36 2.33 2.72 2.66 0 3 C0 2.01 0 1.02 0 0 Z " fill="#3C4857" transform="translate(240,103)"/>
<path d="M0 0 C1.98 0.66 3.96 1.32 6 2 C6 2.99 6 3.98 6 5 C5.01 5 4.02 5 3 5 C1.3125 2.5 1.3125 2.5 0 0 Z " fill="#39565C" transform="translate(236,160)"/>
<path d="M0 0 C2 1 2 1 2.75 2.8125 C3.05694702 5.49828639 2.38111722 6.7252187 1 9 C-0.61949011 6.42786866 -1.04408751 5.32330841 -0.625 2.25 C-0.41875 1.5075 -0.2125 0.765 0 0 Z " fill="#80C7E5" transform="translate(271,122)"/>
<path d="M0 0 C-0.6875 2.875 -0.6875 2.875 -2 6 C-4.625 7.375 -4.625 7.375 -7 8 C-4.18918919 0 -4.18918919 0 0 0 Z " fill="#324147" transform="translate(164,120)"/>
<path d="M0 0 C3.42298577 1.14099526 4.14758766 2.00085621 6 5 C6 5.99 6 6.98 6 8 C5.34 8 4.68 8 4 8 C4 7.01 4 6.02 4 5 C2.68 4.67 1.36 4.34 0 4 C0 2.68 0 1.36 0 0 Z " fill="#34474C" transform="translate(346,119)"/>
<path d="M0 0 C2 0 2 0 3.625 1.5 C4.07875 1.995 4.5325 2.49 5 3 C5.33 2.34 5.66 1.68 6 1 C5.67 2.65 5.34 4.3 5 6 C4.01 6.33 3.02 6.66 2 7 C1.34 4.69 0.68 2.38 0 0 Z " fill="#77CEF4" transform="translate(196,118)"/>
<path d="M0 0 C1.9375 0.3125 1.9375 0.3125 4 1 C4.33 1.99 4.66 2.98 5 4 C4.401875 3.814375 3.80375 3.62875 3.1875 3.4375 C0.83591238 2.77906313 0.83591238 2.77906313 -2 4 C-2.33 4.66 -2.66 5.32 -3 6 C-3 5.01 -3 4.02 -3 3 C-2.34 3 -1.68 3 -1 3 C-0.67 2.01 -0.34 1.02 0 0 Z " fill="#45535E" transform="translate(347,155)"/>
<path d="M0 0 C2.475 0.495 2.475 0.495 5 1 C5 2.32 5 3.64 5 5 C3.68 4.67 2.36 4.34 1 4 C0.67 2.68 0.34 1.36 0 0 Z " fill="#72CBEF" transform="translate(261,137)"/>
<path d="M0 0 C0.99 0 1.98 0 3 0 C3 1.65 3 3.3 3 5 C1.68 4.67 0.36 4.34 -1 4 C-0.67 2.68 -0.34 1.36 0 0 Z " fill="#4B3F32" transform="translate(265,130)"/>
<path d="M0 0 C0.33 0.66 0.66 1.32 1 2 C-0.25 4.625 -0.25 4.625 -2 7 C-2.99 7 -3.98 7 -5 7 C-3.75023244 3.34683329 -3.32901247 2.21934164 0 0 Z " fill="#40565E" transform="translate(318,119)"/>
<path d="M0 0 C0.99 0.33 1.98 0.66 3 1 C3 1.66 3 2.32 3 3 C4.32 3.33 5.64 3.66 7 4 C3.98968256 4.93423645 3.13349732 5.04449911 0 4 C0 2.68 0 1.36 0 0 Z " fill="#7FC9EC" transform="translate(160,110)"/>
<path d="M0 0 C0.66 0.33 1.32 0.66 2 1 C-3.625 5 -3.625 5 -7 5 C-7 4.34 -7 3.68 -7 3 C-4.69631264 1.93347808 -2.35981813 0.93578995 0 0 Z " fill="#85C2D8" transform="translate(200,168)"/>
<path d="M0 0 C2.31 0.66 4.62 1.32 7 2 C6.67 3.65 6.34 5.3 6 7 C1.125 2.25 1.125 2.25 0 0 Z " fill="#455D62" transform="translate(352,159)"/>
<path d="M0 0 C0.99 0.33 1.98 0.66 3 1 C3 2.98 3 4.96 3 7 C2.01 7.495 2.01 7.495 1 8 C0.67 5.36 0.34 2.72 0 0 Z " fill="#80C1DC" transform="translate(144,146)"/>
<path d="M0 0 C0.33 0.66 0.66 1.32 1 2 C0.67 2.66 0.34 3.32 0 4 C-2.3140622 4.73075648 -4.64828869 5.40138258 -7 6 C-2.25 1.125 -2.25 1.125 0 0 Z " fill="#84BBD4" transform="translate(236,133)"/>
</svg>
