<?xml version="1.0" encoding="UTF-8"?>
<svg version="1.1" xmlns="http://www.w3.org/2000/svg" width="2000" height="1500">
<path d="M0 0 C660 0 1320 0 2000 0 C2000 495 2000 990 2000 1500 C1340 1500 680 1500 0 1500 C0 1005 0 510 0 0 Z " fill="#000000" transform="translate(0,0)"/>
<path d="M0 0 C12.57214932 0.36134027 25.04742113 1.11069617 37.5625 2.375 C38.89245615 2.50651471 40.22245378 2.63761053 41.55249023 2.76831055 C53.2063414 3.91538196 53.2063414 3.91538196 57.98486328 4.41601562 C92.20704444 7.96454625 126.63045856 7.74153068 161 8 C161.33 9.65 161.66 11.3 162 13 C165.3 13.33 168.6 13.66 172 14 C171.49946562 26.03652171 170.71339932 37.98212571 169.44326782 49.96133614 C162.62476126 115.03608354 161.7276746 179.63090686 162 245 C159.03 245 156.06 245 153 245 C153 246.65 153 248.3 153 250 C145.6246116 250.34256469 138.52187972 249.80304445 131.20703125 248.94140625 C98.80373025 245.23663108 66.65635148 244.4112308 34.0625 244.1875 C32.94887211 244.17982227 31.83524422 244.17214455 30.68787003 244.16423416 C16.79199112 244.0718718 2.89616671 244.01811589 -11 244 C-11 241.36 -11 238.72 -11 236 C-13.64 236 -16.28 236 -19 236 C-18.71687629 221.80969511 -18.25564581 207.74896228 -16.625 193.64453125 C-11.94885788 152.01800713 -11.31638601 110.5280912 -11.125 68.6875 C-11.12153061 67.93899796 -11.11806122 67.19049592 -11.11448669 66.419312 C-11.02558208 46.94621904 -10.98949943 27.47330183 -11 8 C-7.7 7.67 -4.4 7.34 -1 7 C-0.67 4.69 -0.34 2.38 0 0 Z " fill="#010103" transform="translate(1407,625)"/>
<path d="M0 0 C1.16601746 -0.00938095 2.33203491 -0.0187619 3.53338623 -0.02842712 C4.78855042 -0.01719315 6.0437146 -0.00595917 7.33691406 0.00561523 C8.64347961 0.00416 9.95004517 0.00270477 11.29620361 0.00120544 C14.06697701 -0.00017824 16.83723276 0.01235287 19.60791016 0.03515625 C23.10782007 0.06321184 26.60685756 0.06061455 30.10682964 0.04846287 C76.65803351 -0.08107537 76.65803351 -0.08107537 94.16503906 16.12670898 C104.09036619 26.33670132 105.51101835 38.61322523 105.46826172 52.19970703 C105.24436628 64.49649648 101.67272667 74.3651259 93.29003906 83.47045898 C87.6189343 88.86715546 81.03487447 92.50170898 73.10253906 92.50170898 C73.96504563 94.77249757 73.96504563 94.77249757 76.66503906 95.56420898 C84.26247972 99.84640281 88.32637768 106.38747633 91.87597656 114.12280273 C92.21840393 114.86039322 92.5608313 115.5979837 92.91363525 116.35792542 C96.90616348 125.07922638 100.38553722 133.99943601 103.85253906 142.93920898 C104.50433795 144.60804169 105.15668031 146.27666223 105.80957031 147.94506836 C106.74965315 150.34749565 107.68861547 152.75030639 108.62249756 155.15515137 C110.49959807 159.987377 112.4301502 164.79256688 114.45800781 169.56396484 C115.48134865 172.64057706 115.38160716 175.29242589 115.10253906 178.50170898 C111.16780571 180.33693909 107.93374186 180.82611082 103.60253906 180.87670898 C102.49910156 180.90506836 101.39566406 180.93342773 100.25878906 180.96264648 C96.183778 180.36753348 95.0053189 179.45334423 92.10253906 176.50170898 C90.3064425 173.12894564 88.98121212 169.60456589 87.63378906 166.03295898 C87.23099731 165.0016687 86.82820557 163.97037842 86.41320801 162.90783691 C85.12895552 159.61103722 83.86531066 156.30678841 82.60253906 153.00170898 C81.33515919 149.72712047 80.0636391 146.45416036 78.79187012 143.18127441 C78.00354702 141.14790697 77.21855707 139.1132427 76.43762207 137.07702637 C70.61764718 118.53270578 70.61764718 118.53270578 57.97753906 105.00170898 C52.50298264 102.62720258 47.32153117 102.30740786 41.39941406 102.18530273 C40.14272919 102.15413109 40.14272919 102.15413109 38.86065674 102.12232971 C36.1913655 102.05708348 33.52197808 101.99806541 30.85253906 101.93920898 C29.04002922 101.89600004 27.22752901 101.852385 25.41503906 101.80834961 C20.97763697 101.70142769 16.54013839 101.60009032 12.10253906 101.50170898 C12.1092009 102.43465286 12.11586273 103.36759674 12.12272644 104.32881165 C12.18349511 113.11337769 12.22849122 121.89790118 12.25797558 130.68262959 C12.2736433 135.19915324 12.29490163 139.71550746 12.32885742 144.23193359 C12.36141161 148.58911496 12.37938374 152.94613317 12.38717079 157.30342674 C12.39272141 158.96725217 12.40356024 160.63106848 12.41972923 162.2948246 C12.44145157 164.62220302 12.44450823 166.948904 12.44311523 169.27636719 C12.45390106 169.96688675 12.46468689 170.65740631 12.47579956 171.36885071 C12.45726526 174.22354036 12.43353378 176.05389473 10.70625305 178.39079285 C7.36024618 180.70862075 4.83932586 180.72707824 0.79003906 180.81420898 C-0.34046875 180.8515918 -1.47097656 180.88897461 -2.63574219 180.92749023 C-6.67395045 180.40034688 -8.07613181 179.4124875 -10.89746094 176.50170898 C-11.52666664 173.33450317 -11.52666664 173.33450317 -11.53237915 169.51782227 C-11.5401791 168.81485582 -11.54797906 168.11188938 -11.55601537 167.38762093 C-11.57596085 165.0318881 -11.56016274 162.6777663 -11.54443359 160.32202148 C-11.55120865 158.63335222 -11.56011116 156.94469034 -11.57098389 155.25604248 C-11.59379733 150.66919628 -11.58493258 146.08291175 -11.56908846 141.4960556 C-11.55644001 136.69860812 -11.56816663 131.90120911 -11.57601929 127.10375977 C-11.58511893 119.04686843 -11.57311969 110.99020617 -11.54931641 102.93334961 C-11.5221045 93.61507625 -11.53091844 84.29734984 -11.55844843 74.97908974 C-11.58112954 66.98236213 -11.58434448 58.98579929 -11.57125509 50.98904991 C-11.56345507 46.21129769 -11.56243406 41.43380265 -11.57893753 36.65606689 C-11.59336856 32.1644553 -11.58338598 27.67354969 -11.55446625 23.18201447 C-11.54784806 21.53244449 -11.54976567 19.88281522 -11.56077957 18.23326874 C-11.57441913 15.98323923 -11.55734335 13.73547997 -11.53237915 11.4855957 C-11.53049402 10.226091 -11.52860889 8.9665863 -11.52666664 7.66891479 C-10.89746094 4.50170898 -10.89746094 4.50170898 -8.53294563 2.0965414 C-5.42364498 0.21498485 -3.6151286 0.0005882 0 0 Z " fill="#6CDAF1" transform="translate(261.8974609375,658.498291015625)"/>
<path d="M0 0 C3.93995641 3.33720188 6.57736795 7.12141538 8.9375 11.6875 C9.64777344 10.9553125 10.35804688 10.223125 11.08984375 9.46875 C22.66529432 -1.83676551 35.37367116 -8.5962069 51.58398438 -8.62939453 C61.76916336 -8.44341629 70.43748152 -5.27319131 77.9375 1.6875 C78.48019531 2.18894531 79.02289062 2.69039062 79.58203125 3.20703125 C90.78304861 14.8617607 89.67910051 29.45872044 89.6015625 44.50390625 C89.6049348 46.81127681 89.60979086 49.11864562 89.61605835 51.42601013 C89.62339671 56.23803793 89.61281308 61.04959903 89.58935547 65.86157227 C89.56072521 72.03578883 89.57738145 78.20892543 89.60721779 84.38310337 C89.62524957 89.13655304 89.61955407 93.88974456 89.60657883 98.64320183 C89.60324091 100.92104152 89.60734538 103.19890455 89.61897659 105.476717 C89.63163273 108.64860824 89.61238699 111.81872041 89.58447266 114.99047852 C89.59459381 115.93331696 89.60471497 116.8761554 89.61514282 117.8475647 C89.57611032 120.23355169 89.50272667 122.36942267 88.9375 124.6875 C85.43214516 127.78572085 82.47370102 128.09738269 77.875 128.0625 C76.85277344 128.07023438 75.83054687 128.07796875 74.77734375 128.0859375 C71.38193201 127.60955236 70.25589777 127.22117034 67.9375 124.6875 C67.54291397 121.63229192 67.40426779 118.93376596 67.43920898 115.87670898 C67.43093079 114.52489281 67.43093079 114.52489281 67.42248535 113.14576721 C67.41315217 111.18638221 67.41307102 109.22693656 67.42107964 107.2675457 C67.43368951 104.15999459 67.42243537 101.05333456 67.40504456 97.94581604 C67.37828588 92.46034541 67.37275038 86.97509182 67.37414551 81.48956299 C67.37636903 72.73443853 67.36208809 63.97958507 67.31855965 55.22456551 C67.30876578 52.17466494 67.31741971 49.12519353 67.32725525 46.07530212 C67.32110488 44.18488288 67.3141911 42.29446591 67.30639648 40.40405273 C67.31411575 39.56574921 67.32183502 38.72744568 67.32978821 37.86373901 C67.26953949 30.72803655 65.84512105 24.06252185 62.3125 17.8125 C55.44255805 11.66570983 47.75321729 10.83230391 38.8125 11.2421875 C29.76350368 12.28209232 22.55888291 17.6654664 15.9375 23.6875 C13.9114534 26.7265699 13.68707201 27.30346815 13.67921448 30.71057129 C13.67238647 31.52653275 13.66555847 32.3424942 13.65852356 33.18318176 C13.66107651 34.07470444 13.66362946 34.96622711 13.66625977 35.88476562 C13.65841965 37.29733894 13.65841965 37.29733894 13.65042114 38.7384491 C13.64017393 40.78461539 13.63439948 42.8308078 13.63253975 44.8769989 C13.62888489 48.11266329 13.6121833 51.34801877 13.59178162 54.58361816 C13.53627766 63.78338897 13.5056412 72.98320527 13.48120117 82.18310547 C13.46535528 87.80819109 13.43516892 93.43305707 13.39643669 99.05802917 C13.38476159 101.20466282 13.37885612 103.3513357 13.37875557 105.4980011 C13.37856422 108.49564653 13.36034965 111.49268315 13.33813477 114.49023438 C13.34271194 115.38175705 13.34728912 116.27327972 13.352005 117.19181824 C13.34235718 118.00777969 13.33270935 118.82374115 13.32276917 119.66442871 C13.31975217 120.72740299 13.31975217 120.72740299 13.31667423 121.8118515 C12.82285677 124.25460184 11.84070856 125.1288863 9.9375 126.6875 C7.12183745 128.09533127 4.7011293 127.8951814 1.5625 127.9375 C-0.15066406 127.97617187 -0.15066406 127.97617187 -1.8984375 128.015625 C-5.53739202 127.63825194 -6.6344823 127.40184751 -9.0625 124.6875 C-9.66507725 121.66615191 -9.57399696 118.6725422 -9.52905273 115.60131836 C-9.53135895 114.67084686 -9.53366516 113.74037537 -9.53604126 112.78170776 C-9.53867399 110.75845039 -9.53220731 108.73516565 -9.51778984 106.71195793 C-9.49593199 103.50360045 -9.49961266 100.29618762 -9.51026917 97.08778381 C-9.53196089 89.11337673 -9.51465125 81.13917657 -9.48876953 73.16479492 C-9.46731209 66.43669543 -9.46551251 59.70920131 -9.49168587 52.98111153 C-9.49601959 49.83124574 -9.47143939 46.68244544 -9.44615173 43.53269958 C-9.18847186 29.79323451 -9.18847186 29.79323451 -15.0625 17.6875 C-19.63986089 13.11013911 -24.22972148 11.45331699 -30.68310547 11.30639648 C-42.91117588 11.34250583 -49.94828534 14.04394099 -59.03125 22.56640625 C-63.41438193 27.14340748 -63.35120809 30.75694598 -63.33374023 36.79296875 C-63.34158035 38.19091171 -63.34158035 38.19091171 -63.34957886 39.61709595 C-63.35982573 41.64198114 -63.36560046 43.66689272 -63.36746025 45.69180298 C-63.37111528 48.89386372 -63.38781731 52.09561235 -63.40821838 55.29760742 C-63.46372073 64.40179657 -63.49435856 73.50603167 -63.51879883 82.61035156 C-63.53464508 88.17708364 -63.5648318 93.7435938 -63.60356331 99.31021118 C-63.61523806 101.43451589 -63.62114387 103.55886023 -63.62124443 105.68319702 C-63.62143579 108.64971186 -63.63965099 111.6156116 -63.66186523 114.58203125 C-63.65499947 115.90528915 -63.65499947 115.90528915 -63.647995 117.25527954 C-63.66246674 118.46660049 -63.66246674 118.46660049 -63.67723083 119.70239258 C-63.67924216 120.40366776 -63.68125349 121.10494293 -63.68332577 121.82746887 C-64.17884884 124.25824677 -65.16946431 125.13441158 -67.0625 126.6875 C-69.87816255 128.09533127 -72.2988707 127.8951814 -75.4375 127.9375 C-77.15066406 127.97617187 -77.15066406 127.97617187 -78.8984375 128.015625 C-82.41821558 127.65061098 -83.54788754 127.09905625 -86.0625 124.6875 C-86.56472206 122.62952137 -86.56472206 122.62952137 -86.56802368 120.22041321 C-86.57904617 119.30544067 -86.59006866 118.39046814 -86.60142517 117.44776917 C-86.59325272 116.44575974 -86.58508026 115.44375031 -86.57666016 114.41137695 C-86.58378525 113.35399323 -86.59091034 112.2966095 -86.59825134 111.20718384 C-86.6176116 107.69652897 -86.60923192 104.18647227 -86.6015625 100.67578125 C-86.61146958 98.22974264 -86.62341087 95.7837115 -86.63729858 93.33769226 C-86.66975434 86.87800962 -86.68005789 80.41849637 -86.68414307 73.95874023 C-86.69287106 63.66604967 -86.72875621 53.37349944 -86.7763176 43.08092308 C-86.78879362 39.50289442 -86.7881527 35.92504589 -86.78604126 32.34700012 C-86.80764983 20.6321332 -87.1538513 9.26347276 -89.0625 -2.3125 C-84.78527069 -5.70478531 -81.79906114 -6.43881248 -76.375 -6.375 C-75.38113281 -6.36597656 -74.38726563 -6.35695313 -73.36328125 -6.34765625 C-72.22439453 -6.33025391 -72.22439453 -6.33025391 -71.0625 -6.3125 C-68.20215435 -0.97318812 -66.33119235 3.76693568 -65.0625 9.6875 C-64.62421875 9.19121094 -64.1859375 8.69492187 -63.734375 8.18359375 C-46.89041234 -9.85861829 -20.69705979 -14.89095391 0 0 Z " fill="#68A5F0" transform="translate(877.0625,711.3125)"/>
<path d="M0 0 C12.18136519 10.53006028 18.51864313 25.4584114 19.890625 41.4296875 C19.92285156 42.18507813 19.95507812 42.94046875 19.98828125 43.71875 C20.05144531 44.96914063 20.11460937 46.21953125 20.1796875 47.5078125 C20.65407808 61.09234794 20.65407808 61.09234794 15.98828125 66.71875 C12.87069014 68.27754555 9.56313639 67.84827133 6.14208984 67.83227539 C5.33225143 67.83242142 4.52241302 67.83256744 3.68803406 67.8327179 C1.00423529 67.83201977 -1.67949456 67.82423204 -4.36328125 67.81640625 C-6.22130292 67.81454171 -8.07932508 67.81311798 -9.93734741 67.81211853 C-14.83314363 67.80829615 -19.7289103 67.79846823 -24.62469482 67.78741455 C-29.61828206 67.77719444 -34.61187407 67.77261962 -39.60546875 67.76757812 C-49.40756509 67.75684573 -59.20963946 67.73977264 -69.01171875 67.71875 C-68.71974526 70.27168028 -68.42054285 72.82341812 -68.1171875 75.375 C-68.03593628 76.09204102 -67.95468506 76.80908203 -67.87097168 77.54785156 C-66.70637149 87.21873576 -63.58607193 95.26333536 -56.01171875 101.71875 C-43.64511552 109.48652265 -27.11940368 109.90483898 -13.0703125 106.77734375 C-5.99475405 104.89299539 0.68934532 102.27422717 7.0078125 98.5390625 C8.98828125 97.71875 8.98828125 97.71875 11.109375 97.8515625 C13.55407703 98.97988652 14.09522617 100.05563372 15.23828125 102.46875 C15.5734375 103.14421875 15.90859375 103.8196875 16.25390625 104.515625 C17.12486884 107.12851278 17.32881708 108.98136583 16.98828125 111.71875 C10.81072635 120.60138328 -2.10819607 124.25523152 -12.07421875 126.59375 C-33.33800732 130.31104082 -54.80909131 128.19398508 -72.86328125 115.75390625 C-85.0339041 105.88136173 -89.72551879 89.98364711 -91.66015625 74.94921875 C-93.89642868 51.47982625 -91.83582866 28.00167422 -77.01171875 8.71875 C-58.26247273 -11.91844093 -22.93365539 -16.93030681 0 0 Z " fill="#6BCCF0" transform="translate(488.01171875,712.28125)"/>
<path d="M0 0 C12.29560534 9.71272107 17.50646263 26.12430962 19.64453125 41.0390625 C21.54196066 58.62823314 21.54196066 58.62823314 16.03515625 65.66015625 C13.49953341 68.19577909 11.91309883 67.89559929 8.45556641 67.90899658 C7.28815918 67.89821075 7.28815918 67.89821075 6.09716797 67.88720703 C4.86778 67.88764511 4.86778 67.88764511 3.61355591 67.88809204 C0.89721182 67.88669569 -1.81885993 67.87112026 -4.53515625 67.85546875 C-6.41559703 67.8517397 -8.29603974 67.84889222 -10.17648315 67.84689331 C-15.13150373 67.83924832 -20.08640749 67.81959244 -25.04138184 67.79748535 C-30.09528015 67.77704553 -35.14919729 67.76789559 -40.203125 67.7578125 C-50.1237493 67.73634734 -60.04428682 67.70220099 -69.96484375 67.66015625 C-69.52459696 70.54069268 -69.07392844 73.41894744 -68.6171875 76.296875 C-68.49452515 77.10668823 -68.37186279 77.91650146 -68.2454834 78.75085449 C-67.2303974 85.06747969 -65.46201706 90.25341529 -61.96484375 95.66015625 C-61.42859375 96.56765625 -60.89234375 97.47515625 -60.33984375 98.41015625 C-49.15612134 109.0052617 -36.13338001 108.1510439 -21.75830078 107.78759766 C-12.61141213 107.37030384 -5.04425996 104.0641854 2.96313477 99.90991211 C7.47484861 97.62775751 7.47484861 97.62775751 10.33203125 97.79296875 C13.39544139 99.3527785 14.4874988 101.6753883 16.03515625 104.66015625 C16.68925345 108.80277184 16.66424161 110.73899554 14.28515625 114.22265625 C5.40203329 121.74485508 -5.9127776 124.23318226 -16.96484375 126.66015625 C-17.60067383 126.83595215 -18.23650391 127.01174805 -18.89160156 127.19287109 C-35.02924767 130.83011257 -55.050481 127.3778809 -68.96484375 118.66015625 C-80.87503661 110.90784475 -87.43377682 99.05769685 -90.58984375 85.33984375 C-92.123394 77.89096172 -92.39071333 70.69603385 -92.30102539 63.10913086 C-92.27724393 60.96365103 -92.2805196 58.81940846 -92.28710938 56.67382812 C-92.25001943 37.57044482 -87.68619609 19.84086894 -74.46484375 5.47265625 C-55.07545705 -13.01557455 -21.95401247 -14.97062878 0 0 Z " fill="#6794EF" transform="translate(1090.96484375,712.33984375)"/>
<path d="M0 0 C1.1240625 0.00386719 2.248125 0.00773438 3.40625 0.01171875 C6.35505949 0.29840856 8.05788555 0.6825038 10.5 2.3125 C12.20716419 5.72682837 11.6347894 9.63626954 11.62597656 13.39282227 C11.6278447 14.3345076 11.62971283 15.27619293 11.63163757 16.24641418 C11.63564833 18.2969644 11.63771703 20.3475191 11.63809967 22.3980732 C11.64151042 26.76169285 11.66287168 31.12516287 11.68333054 35.48873043 C11.72135802 43.6169365 11.75261979 51.74498591 11.75048828 59.87329102 C11.74969963 65.52330417 11.77313542 71.17277397 11.8123703 76.82264519 C11.82281291 78.97269178 11.82436721 81.12280123 11.81671906 83.27285957 C11.80705752 86.29130488 11.82835723 89.30811779 11.85644531 92.32641602 C11.84624863 93.20728882 11.83605194 94.08816162 11.82554626 94.99572754 C11.93274046 101.45471377 13.76907053 106.03964786 17.5 111.3125 C23.43978245 116.76630025 31.10695978 117.01772909 38.81640625 116.73046875 C49.3614921 115.53394257 59.63325929 110.48529603 66.41981316 102.17250633 C68.49492855 98.59930249 68.16418646 94.8056101 68.09594727 90.7746582 C68.1000058 89.83250458 68.10406433 88.89035095 68.10824585 87.91964722 C68.11375148 85.88170166 68.10778731 83.84369952 68.09158516 81.80581093 C68.06616133 78.58222717 68.07096353 75.35992162 68.08348083 72.13627625 C68.10421536 65.29904318 68.08453387 58.46220694 68.0625 51.625 C68.04141523 43.69157876 68.03676152 35.75856752 68.06300163 27.82515526 C68.06637188 24.64570489 68.04511187 21.46703184 68.02259827 18.28767395 C68.02510842 16.34583362 68.02866735 14.40399427 68.03344727 12.4621582 C68.02056168 11.57534866 68.00767609 10.68853912 67.99440002 9.77485657 C68.04345446 3.8209482 68.04345446 3.8209482 70.33799744 1.26554871 C73.29442785 -0.03769775 75.71382448 -0.08486076 78.9375 -0.0625 C80.04996094 -0.07023438 81.16242188 -0.07796875 82.30859375 -0.0859375 C86.07688515 0.38452238 87.66181445 0.75884716 90.5 3.3125 C91.28391991 6.65962124 91.17905698 9.9845531 91.14355469 13.40844727 C91.1524321 14.44620804 91.16130951 15.48396881 91.17045593 16.55317688 C91.1942179 19.99540832 91.18292331 23.43662503 91.171875 26.87890625 C91.18245249 29.27206023 91.19536304 31.66520494 91.21051025 34.05833435 C91.24480927 40.37240061 91.25009062 46.68615843 91.24859619 53.00030518 C91.2513652 60.64314321 91.28419468 68.28589555 91.31666946 75.92865658 C91.34196194 81.88254471 91.36147232 87.83623007 91.36248779 93.79017639 C91.36631224 95.96371464 91.37015643 98.13725285 91.37402344 100.31079102 C91.37192368 101.28000488 91.36982391 102.24921875 91.36766052 103.24780273 C91.38264673 108.61625084 91.66636315 113.86793447 92.27614212 119.20278835 C92.55058913 121.78926889 92.59963682 124.3379229 92.5625 126.9375 C92.55347656 127.77539062 92.54445313 128.61328125 92.53515625 129.4765625 C92.52355469 130.08242188 92.51195312 130.68828125 92.5 131.3125 C86.93759485 134.21462443 81.78388704 135.49920529 75.5 134.3125 C71.52089249 130.20904538 70.5 123.87794836 70.5 118.3125 C69.68917969 118.97636719 68.87835937 119.64023437 68.04296875 120.32421875 C61.21598255 125.80967104 54.75577069 130.17836483 46.5 133.3125 C45.7884375 133.62960937 45.076875 133.94671875 44.34375 134.2734375 C35.13388592 138.01924043 22.81399589 137.77389524 13.5 134.3125 C3.57433579 130.08728941 -3.76439647 124.11977605 -7.9375 114 C-9.50829875 109.62571289 -10.62039986 105.6438868 -10.64717102 100.97935486 C-10.65432632 100.11994797 -10.66148163 99.26054108 -10.66885376 98.37509155 C-10.67154266 97.44041046 -10.67423157 96.50572937 -10.67700195 95.54272461 C-10.68357315 94.55209518 -10.69014435 93.56146576 -10.69691467 92.54081726 C-10.71661388 89.26549199 -10.72829916 85.99021236 -10.73828125 82.71484375 C-10.74235678 81.59693514 -10.7464323 80.47902653 -10.75063133 79.3272419 C-10.77147175 73.416975 -10.78578559 67.50673122 -10.79516602 61.59643555 C-10.80626167 55.48049118 -10.84070374 49.36490752 -10.88033772 43.24909115 C-10.90641489 38.55403443 -10.91484963 33.85906512 -10.91844749 29.16394234 C-10.92333191 26.90840769 -10.93499815 24.65287742 -10.95348549 22.39741325 C-10.97770058 19.24893909 -10.97694483 16.10141862 -10.9699707 12.95288086 C-10.98278076 12.01617554 -10.99559082 11.07947021 -11.00878906 10.11437988 C-10.95785487 3.83115358 -10.95785487 3.83115358 -8.66398621 1.23268127 C-5.68581686 -0.03371112 -3.22774808 -0.0481201 0 0 Z " fill="#69B5F0" transform="translate(654.5,703.6875)"/>
<path d="M0 0 C12.57214932 0.36134027 25.04742113 1.11069617 37.5625 2.375 C38.89245615 2.50651471 40.22245378 2.63761053 41.55249023 2.76831055 C53.2063414 3.91538196 53.2063414 3.91538196 57.98486328 4.41601562 C92.20704444 7.96454625 126.63045856 7.74153068 161 8 C161.33 9.65 161.66 11.3 162 13 C165.3 13.33 168.6 13.66 172 14 C171.49946562 26.03652171 170.71339932 37.98212571 169.44326782 49.96133614 C162.62476126 115.03608354 161.7276746 179.63090686 162 245 C159.03 245 156.06 245 153 245 C153 246.65 153 248.3 153 250 C145.6246116 250.34256469 138.52187972 249.80304445 131.20703125 248.94140625 C98.80373025 245.23663108 66.65635148 244.4112308 34.0625 244.1875 C32.94887211 244.17982227 31.83524422 244.17214455 30.68787003 244.16423416 C16.79199112 244.0718718 2.89616671 244.01811589 -11 244 C-11 241.36 -11 238.72 -11 236 C-13.64 236 -16.28 236 -19 236 C-18.71687629 221.80969511 -18.25564581 207.74896228 -16.625 193.64453125 C-11.94885788 152.01800713 -11.31638601 110.5280912 -11.125 68.6875 C-11.12153061 67.93899796 -11.11806122 67.19049592 -11.11448669 66.419312 C-11.02558208 46.94621904 -10.98949943 27.47330183 -11 8 C-7.7 7.67 -4.4 7.34 -1 7 C-0.67 4.69 -0.34 2.38 0 0 Z M-6 13 C-6 87.58 -6 162.16 -6 239 C47.46 239 100.92 239 156 239 C156 164.42 156 89.84 156 13 C102.54 13 49.08 13 -6 13 Z " fill="#6269E9" transform="translate(1407,625)"/>
<path d="M0 0 C1.44632813 -0.01740234 1.44632813 -0.01740234 2.921875 -0.03515625 C12.94147407 0.00513704 25.22415309 1.97415309 32.625 9.375 C32.43004495 15.22365164 31.46799851 18.76340179 27.625 23.375 C25.83203125 24.68359375 25.83203125 24.68359375 23.625 25.375 C20.96875 24.51171875 20.96875 24.51171875 18.125 23.0625 C9.54167713 18.75904828 -0.07701705 17.51368529 -9.44140625 20.28125 C-14.51204215 22.63898234 -18.16855855 25.05948195 -20.375 30.375 C-21.18739359 35.59506092 -21.17947715 41.18852354 -18.1328125 45.7265625 C-11.79241991 51.67244177 -2.3039236 54.47284196 5.75 57.375 C20.4755146 62.6863054 30.60739992 69.33031962 37.4609375 83.60546875 C41.10425019 92.27361875 40.64325653 102.27832065 37.609375 111.09375 C34.3507032 118.64559258 29.55071572 125.50168118 22.5625 129.9375 C21.27666016 130.77474609 21.27666016 130.77474609 19.96484375 131.62890625 C10.88486758 136.37598151 2.97868207 138.04788337 -7.25 137.875 C-8.39533203 137.86291504 -9.54066406 137.85083008 -10.72070312 137.83837891 C-22.94450125 137.55106741 -33.4877419 135.00994834 -43.375 127.375 C-46.387964 123.97134397 -46.387964 123.97134397 -46.3125 120.5 C-44.96413937 116.00546457 -42.67852089 112.67852089 -39.375 109.375 C-34.90293991 109.6950043 -31.20770803 111.81793362 -27.3125 113.875 C-16.14696462 119.73425882 -4.72473863 119.90072696 7.35546875 116.2265625 C12.02136138 114.64968734 12.02136138 114.64968734 14.8125 110.875 C15.080625 110.05 15.34875 109.225 15.625 108.375 C15.955 107.715 16.285 107.055 16.625 106.375 C17.30831069 98.99300415 17.40894712 93.23533522 12.625 87.375 C5.53894556 81.77035067 -3.26495901 79.23590086 -11.64453125 76.21289062 C-23.77051174 71.72047662 -35.61558655 66.06733115 -41.3125 53.6875 C-44.50322724 43.73993861 -45.38368772 31.32972394 -40.82421875 21.71484375 C-31.46350467 6.60145363 -17.34919015 -0.20708582 0 0 Z " fill="#6AC1F0" transform="translate(576.375,702.625)"/>
<path d="M0 0 C7.074375 -0.04125 14.14875 -0.0825 21.4375 -0.125 C24.76026001 -0.15231201 24.76026001 -0.15231201 28.15014648 -0.18017578 C29.93212645 -0.1860243 31.71410912 -0.191119 33.49609375 -0.1953125 C34.40008911 -0.20554443 35.30408447 -0.21577637 36.23547363 -0.22631836 C45.66759872 -0.22887345 55.36331391 1.10296955 62.7265625 7.5 C69.45247807 14.65663923 70.44217138 22.51333993 70.35595703 32.04223633 C70.08940207 40.29473889 68.3695974 47.55648312 63 54 C55.10754758 60.57704368 45.63928684 61.4505975 35.7421875 61.29296875 C34.82832275 61.28994751 33.91445801 61.28692627 32.97290039 61.28381348 C29.60681628 61.26829061 26.24089502 61.22640876 22.875 61.1875 C15.32625 61.125625 7.7775 61.06375 0 61 C0 40.87 0 20.74 0 0 Z " fill="#000001" transform="translate(274,679)"/>
<path d="M0 0 C7.56760802 5.98401597 11.61493486 12.36666652 14.109375 21.66796875 C14.30660156 22.395 14.50382812 23.12203125 14.70703125 23.87109375 C15.31470938 28.09534169 15.109375 32.40023594 15.109375 36.66796875 C-7.330625 36.66796875 -29.770625 36.66796875 -52.890625 36.66796875 C-51.86966263 23.39545793 -50.5281076 13.06816485 -40.890625 3.66796875 C-29.98386433 -4.42689269 -12.15918271 -7.4841866 0 0 Z " fill="#010103" transform="translate(1073.890625,725.33203125)"/>
<path d="M0 0 C0.63035156 0.4125 1.26070313 0.825 1.91015625 1.25 C9.39720224 6.84541441 12.22024025 15.13921104 13.73828125 24.06640625 C14.09184506 28.02948713 14 32.02117889 14 36 C-8.11 36 -30.22 36 -53 36 C-53 24.20528605 -51.09022472 13.76559983 -42.9921875 4.76953125 C-32.32699467 -5.4311497 -12.76655539 -8.78558651 0 0 Z " fill="#010102" transform="translate(472,726)"/>
<path d="M0 0 C6.35688075 2.84837157 11.0948892 7.92001671 13.78125 14.34765625 C14.63766587 20.26471138 13.93292421 26.21314065 10.78125 31.34765625 C5.77942741 36.84749581 0.97988753 40.2996741 -6.53125 40.72265625 C-12.34253719 40.55855013 -16.73596329 38.67079592 -20.98046875 34.69921875 C-25.74715346 29.41316161 -27.72944693 24.84042398 -27.52734375 17.68359375 C-26.64775395 11.02543302 -23.07734636 6.70533238 -18 2.57421875 C-12.36905323 -1.30323144 -6.60605679 -1.94227374 0 0 Z " fill="#6254EC" transform="translate(1735.21875,730.65234375)"/>
<path d="M0 0 C5.00275883 2.85005655 8.4969557 7.03314636 10.6875 12.375 C11.58938393 19.71591567 11.23422192 26.34534724 6.6875 32.375 C2.13243004 37.2545407 -2.46871449 39.42582739 -9.0625 39.8125 C-14.74959419 39.6768912 -18.8674544 37.88193933 -23.3125 34.375 C-28.72101262 28.59215118 -29.79459451 22.95274223 -29.72265625 15.265625 C-28.9393587 9.7452423 -25.84583074 5.56812325 -21.68359375 1.96484375 C-15.23498167 -2.54433613 -7.17203017 -3.28604424 0 0 Z " fill="#6582EE" transform="translate(1247.3125,731.625)"/>
<path d="M0 0 C1.41757992 2.69985938 2.39282175 5.00697986 3.3125 7.875 C3.69595581 9.02995972 3.69595581 9.02995972 4.0871582 10.20825195 C6.10204836 16.62463375 8.12087536 23.48848881 5.109375 29.89453125 C2.23573936 33.83141208 -1.46342862 35.56739851 -6 37 C-10.22089156 37.60298451 -11.65409225 37.20498237 -15.375 35 C-16.24125 34.34 -17.1075 33.68 -18 33 C-18.598125 33.804375 -19.19625 34.60875 -19.8125 35.4375 C-23.19241869 39.52846787 -27.33518767 42.66448447 -31.4765625 45.94921875 C-33.45312952 47.55556192 -35.25356047 49.15393137 -37 51 C-37.99 50.67 -38.98 50.34 -40 50 C-40.33 48.02 -40.66 46.04 -41 44 C-40.24074219 43.38511719 -39.48148438 42.77023437 -38.69921875 42.13671875 C-37.70535156 41.32847656 -36.71148438 40.52023437 -35.6875 39.6875 C-34.70136719 38.88699219 -33.71523437 38.08648438 -32.69921875 37.26171875 C-30.08926152 35.15557856 -30.08926152 35.15557856 -28.26953125 33.20703125 C-27 32 -27 32 -25 32 C-24.94550162 30.27119018 -24.90698312 28.54187288 -24.875 26.8125 C-24.85179687 25.84957031 -24.82859375 24.88664063 -24.8046875 23.89453125 C-25.0086456 20.87187222 -25.73125368 18.73230015 -27 16 C-33.17533272 17.21481955 -38.7777171 18.93888026 -44.6171875 21.29296875 C-47 22 -47 22 -50 21 C-50.33 19.35 -50.66 17.7 -51 16 C-45.46673428 13.11388062 -39.97773508 10.76252468 -34.08203125 8.73046875 C-33.26175949 8.44520828 -32.44148773 8.15994781 -31.59635925 7.86604309 C-29.87719634 7.27075969 -28.15698954 6.6784831 -26.43579102 6.08911133 C-23.80477042 5.18484338 -21.18083341 4.26175732 -18.55664062 3.33789062 C-16.87800392 2.75925566 -15.19898024 2.18174185 -13.51953125 1.60546875 C-12.34908012 1.19001045 -12.34908012 1.19001045 -11.15498352 0.76615906 C-3.94334807 -1.66296357 -3.94334807 -1.66296357 0 0 Z " fill="#617AE5" transform="translate(1281,812)"/>
<path d="M0 0 C3.4375 1.8125 3.4375 1.8125 6 4 C6.61875 4.433125 7.2375 4.86625 7.875 5.3125 C9.70706064 8.06059096 9.1808844 10.80437559 9 14 C9.75539063 13.51917969 10.51078125 13.03835938 11.2890625 12.54296875 C16.03746419 10.16876791 21.17009345 10.43003015 26.375 10.3125 C27.39722656 10.27833984 28.41945313 10.24417969 29.47265625 10.20898438 C31.98166114 10.12691412 34.49033465 10.05763124 37 10 C37.125 12.375 37.125 12.375 37 15 C34.57499488 17.42500512 33.89534204 17.26625283 30.5703125 17.34375 C29.69246094 17.37339844 28.81460937 17.40304687 27.91015625 17.43359375 C26.99105469 17.45550781 26.07195312 17.47742188 25.125 17.5 C23.31487813 17.54352485 21.50493181 17.59531114 19.6953125 17.65625 C18.89109863 17.67494141 18.08688477 17.69363281 17.25830078 17.71289062 C14.75956872 18.03056726 13.13463304 18.67643412 11 20 C9.66364006 22.05197287 9.66364006 22.05197287 8.75 24.4375 C8.41484375 25.21996094 8.0796875 26.00242187 7.734375 26.80859375 C6.84112575 29.08889031 6.84112575 29.08889031 7 32 C16.9 35.465 16.9 35.465 27 39 C26.67 41.31 26.34 43.62 26 46 C19.59980919 44.68959538 13.5589732 42.9598428 7.40625 40.77734375 C6.5335144 40.47180069 5.66077881 40.16625763 4.76159668 39.85145569 C2.93558212 39.21095261 1.11043457 38.56797278 -0.71386719 37.92260742 C-3.51803785 36.93112226 -6.32516808 35.94839669 -9.1328125 34.96679688 C-10.91163716 34.34165444 -12.69028945 33.71602128 -14.46875 33.08984375 C-15.73108459 32.64764748 -15.73108459 32.64764748 -17.0189209 32.19651794 C-22.88415065 30.11584935 -22.88415065 30.11584935 -24 29 C-23.59445657 18.45587088 -19.54459992 8.37694214 -12 1 C-8.29273244 -0.85363378 -4.04595205 -0.45990853 0 0 Z " fill="#637EE9" transform="translate(1242,640)"/>
<path d="M0 0 C0.95197266 -0.020625 1.90394531 -0.04125 2.88476562 -0.0625 C9.96759104 -0.10107223 17.15046163 0.29430225 23.15917969 4.43701172 C26.05989803 7.33670652 26.74408125 10.06901381 26.92578125 13.9921875 C26.8928654 15.70381155 26.83369208 17.41510644 26.75 19.125 C26.72744141 20.00414062 26.70488281 20.88328125 26.68164062 21.7890625 C26.62309748 23.94345007 26.53342783 26.0969531 26.4375 28.25 C23.7975 28.25 21.1575 28.25 18.4375 28.25 C17.9425 22.31 17.9425 22.31 17.4375 16.25 C17.1075 20.21 16.7775 24.17 16.4375 28.25 C6.8675 28.25 -2.7025 28.25 -12.5625 28.25 C-12.8925 23.96 -13.2225 19.67 -13.5625 15.25 C-13.8925 19.87 -14.2225 24.49 -14.5625 29.25 C-17.5325 29.25 -20.5025 29.25 -23.5625 29.25 C-23.67102923 26.37397545 -23.7500515 23.50209168 -23.8125 20.625 C-23.84601563 19.81675781 -23.87953125 19.00851562 -23.9140625 18.17578125 C-24.00343987 12.67907284 -23.25515063 9.59234499 -19.5625 5.25 C-12.9347453 0.2453689 -7.99879289 0.04212662 0 0 Z " fill="#6367EB" transform="translate(1516.5625,684.75)"/>
<path d="M0 0 C1.9375 0.3125 1.9375 0.3125 4 1 C4.33 1.99 4.66 2.98 5 4 C4.67 4.66 4.34 5.32 4 6 C4.87011719 6.12955078 4.87011719 6.12955078 5.7578125 6.26171875 C11.58925295 7.3106082 14.80113437 8.80113437 19 13 C20.35439668 15.70879335 20.06501451 18.00933268 20 21 C21.546875 20.9071875 21.546875 20.9071875 23.125 20.8125 C28.84084028 21.08907292 31.7148563 22.85157371 35.9375 26.625 C38.36796798 30.60212943 38.30115823 32.16229857 37.67944336 36.60595703 C36.46029029 40.90168646 33.73744485 43.84209608 30.8125 47.125 C30.24724609 47.78886719 29.68199219 48.45273437 29.09960938 49.13671875 C27.41682828 51.10670991 25.70990681 53.0535487 24 55 C22.85614019 56.32906822 21.71409836 57.65970408 20.57421875 58.9921875 C19.72472656 59.98476563 18.87523437 60.97734375 18 62 C16.35 61.67 14.7 61.34 13 61 C13.50601729 56.4621675 15.17270313 54.17266282 18.125 50.75 C18.93066406 49.79222656 19.73632812 48.83445312 20.56640625 47.84765625 C22.09264216 46.06173975 23.62096728 44.27760431 25.15234375 42.49609375 C28.83772684 38.05150322 28.83772684 38.05150322 30.75 32.6875 C30.16399455 29.84614935 30.16399455 29.84614935 27.9375 27.625 C24.1457311 25.52742572 22.29457286 25.33445363 18 26 C15.34006756 28.2000358 13.4063693 30.85009122 11.375 33.625 C10.27875556 35.05477164 9.18240299 36.48446037 8.0859375 37.9140625 C7.56870117 38.6040332 7.05146484 39.29400391 6.51855469 40.00488281 C4.43166723 42.74669058 2.22915297 45.37307995 0 48 C-1.65 47.34 -3.3 46.68 -5 46 C-4.11490439 41.51234582 -1.57664166 38.60110501 1.25 35.125 C1.72824219 34.52558594 2.20648437 33.92617188 2.69921875 33.30859375 C4.58276035 30.95544287 6.46288603 28.61012325 8.45483398 26.34741211 C10.96854198 23.47966073 11.97113272 22.18924109 12.5625 18.3125 C12.27443982 15.04017723 12.27443982 15.04017723 10.5 13.0625 C6.9119436 11.53757603 3.76609052 11.03605508 0 12 C-2.94799758 14.3611799 -5.07345204 17.22691658 -7.3125 20.25 C-8.22225586 21.41595703 -8.22225586 21.41595703 -9.15039062 22.60546875 C-10.79257619 24.71917295 -12.40239195 26.85250665 -14 29 C-14.99981535 30.3334718 -15.99976102 31.66684594 -17 33 C-18.65 32.67 -20.3 32.34 -22 32 C-22.33 31.01 -22.66 30.02 -23 29 C-21.51611448 26.77570784 -20.01616364 24.79643093 -18.3125 22.75 C-17.82225342 22.14462402 -17.33200684 21.53924805 -16.8269043 20.91552734 C-15.77658473 19.61917651 -14.72214758 18.32615321 -13.6640625 17.03613281 C-11.39667597 14.26177781 -9.16523929 11.45938347 -6.93237305 8.65722656 C-4.62803335 5.7662961 -2.31389632 2.88328441 0 0 Z " fill="#605AE6" transform="translate(1633,533)"/>
<path d="M0 0 C5.0453329 2.87303679 8.4142451 6.411057 12.0625 10.8125 C12.81756836 11.69905273 12.81756836 11.69905273 13.58789062 12.60351562 C15.08664718 14.38147133 16.54934778 16.18264016 18 18 C18.50128418 18.61665527 19.00256836 19.23331055 19.51904297 19.86865234 C20.93359375 21.69921875 20.93359375 21.69921875 23 25 C22.62915039 27.20629883 22.62915039 27.20629883 22 29 C20.68 29.33 19.36 29.66 18 30 C6.50344531 16.58053402 6.50344531 16.58053402 2.12109375 10.390625 C1.0323767 8.84300327 1.0323767 8.84300327 -1 8 C-5.06688385 7.63819916 -5.06688385 7.63819916 -8.8125 9 C-10.68678284 12.15668688 -11.22561182 15.38353844 -11 19 C-9.36869794 21.60036231 -8.03009339 23.35771704 -5.9375 25.5 C-4.91764882 26.61701081 -3.89941178 27.73549755 -2.8828125 28.85546875 C-2.3868457 29.38962402 -1.89087891 29.9237793 -1.37988281 30.47412109 C1.32585408 33.46613375 3.63394506 36.73868103 6 40 C5.34 41.32 4.68 42.64 4 44 C0 44 0 44 -2.5859375 41.4375 C-3.52759292 40.30148154 -4.4567074 39.15498553 -5.375 38 C-5.86323242 37.40928711 -6.35146484 36.81857422 -6.85449219 36.20996094 C-9.4933654 32.99092239 -11.91986599 29.7011174 -14.25 26.25 C-16.37041453 23.37796879 -17.00191467 22.999261 -20.5625 21.625 C-24.22297491 21.68718754 -24.22297491 21.68718754 -26.9375 24.625 C-29.37580417 28.60053589 -29.37580417 28.60053589 -29 33 C-27.35809029 35.28172862 -25.75948761 37.25479243 -23.875 39.3125 C-22.86591267 40.46242422 -21.85809391 41.61346291 -20.8515625 42.765625 C-20.36204102 43.31927734 -19.87251953 43.87292969 -19.36816406 44.44335938 C-17.60984041 46.44390749 -15.90523632 48.47580398 -14.25 50.5625 C-13.54617188 51.43068359 -13.54617188 51.43068359 -12.828125 52.31640625 C-12 54 -12 54 -12.359375 56.21484375 C-12.57078125 56.80394531 -12.7821875 57.39304687 -13 58 C-14.98 58.495 -14.98 58.495 -17 59 C-23.22739591 51.79697873 -29.43185708 44.6029205 -35.28125 37.0859375 C-37.0693395 34.91584706 -38.98199825 32.95604555 -41 31 C-40.34 29.68 -39.68 28.36 -39 27 C-37.35 27.33 -35.7 27.66 -34 28 C-33.62875 26.783125 -33.2575 25.56625 -32.875 24.3125 C-31.14617115 19.82710533 -29.24700203 17.470983 -25 15 C-21.620909 14.61107622 -18.38324581 14.69911846 -15 15 C-15.12375 13.700625 -15.12375 13.700625 -15.25 12.375 C-14.9353436 8.12713862 -13.68693655 6.2678958 -11 3 C-7.33394266 0.1057442 -4.63689657 -0.6624138 0 0 Z " fill="#6059E5" transform="translate(1651,909)"/>
<path d="M0 0 C4.44526054 3.23291676 7.82950501 6.97259426 9.453125 12.3125 C10.02550908 15.9956671 9.86941802 18.59397875 8.8125 22.1875 C5.69408171 26.43988858 1.84841638 30.10891408 -3.328125 31.59765625 C-5.25 31.875 -5.25 31.875 -8.25 32 C-11.48244241 24.40905942 -14.50792848 16.78196834 -17.25 9 C-21.48084903 10.68807908 -21.48084903 10.68807908 -24.25 14 C-25.14430754 20.15794619 -24.1471273 24.14348035 -20.5390625 29.17578125 C-19.21923331 31.04353952 -18.22549883 32.93504219 -17.25 35 C-18.57 35.66 -19.89 36.32 -21.25 37 C-26.93193002 33.21204665 -29.15101751 28.29694748 -31.25 22 C-31.75981092 17.14425994 -31.78232283 13.17554625 -29.75 8.6875 C-21.97482689 0.3291889 -11.09559454 -3.41402909 0 0 Z " fill="#5F53E4" transform="translate(1725.25,651)"/>
<path d="M0 0 C5.2554512 1.83940792 9.55389008 4.55340655 13 9 C12.70943451 12.64242948 11.05107686 14.23294374 8.40234375 16.6015625 C7.68369141 17.25640625 6.96503906 17.91125 6.22460938 18.5859375 C5.46986328 19.25882813 4.71511719 19.93171875 3.9375 20.625 C2.44226366 21.96652046 0.95113872 23.31264246 -0.53515625 24.6640625 C-1.199104 25.25654785 -1.86305176 25.8490332 -2.54711914 26.45947266 C-4.22870292 27.88957193 -4.22870292 27.88957193 -4 30 C-0.27422254 32.48385164 2.6846874 32.63170926 7 32 C13.01930122 29.28541317 15.24694597 24.70101454 18 19 C19.32 19.33 20.64 19.66 22 20 C21.87503266 25.99843233 20.00509266 28.892616 15.88671875 33.203125 C11.39978653 37.47639378 7.49319988 39.80980353 1.29296875 40.21484375 C-5.92213601 39.53881179 -10.96649309 33.42437291 -15.3671875 28.1953125 C-18.65788126 23.77098262 -19.4833507 19.35249804 -19.30859375 13.9453125 C-18.45186389 8.54466101 -14.01099647 4.45693744 -9.91796875 1.140625 C-6.63710838 -0.81051803 -3.597599 -0.80328069 0 0 Z " fill="#6278E7" transform="translate(1320,547)"/>
<path d="M0 0 C2.89453715 1.09200825 5.31031353 2.43509151 8 4 C7.27815547 8.61078193 5.68106592 12.73692709 4 17.0625 C1.72098214 22.94110132 1.72098214 22.94110132 0 29 C1.60517097 28.91266424 3.20921662 28.80447776 4.8125 28.6875 C5.70582031 28.62949219 6.59914063 28.57148437 7.51953125 28.51171875 C10.35434009 27.92689992 11.25606864 27.26328396 13 25 C15.26054016 19.85099186 15.58374616 14.54274845 16 9 C18.475 9.495 18.475 9.495 21 10 C21.39592732 17.97720234 21.4563173 24.56100425 16.40625 31.046875 C12.77263551 34.76984066 9.87274365 36.47194112 4.625 36.6875 C-2.89321163 36.17584393 -10.73869415 33.57079443 -16 28 C-19.2287254 23.13027226 -20.84593305 18.92153138 -20 13 C-16.56439611 3.24435473 -10.27975208 -1.254423 0 0 Z " fill="#5E52E2" transform="translate(1714,815)"/>
<path d="M0 0 C4.79531583 2.17556862 8.18443169 4.68137184 10.87890625 9.3125 C12.11294389 15.37906674 11.44232001 20.15687065 8.19140625 25.4375 C6.39464958 28.04674353 5.37691817 29.11865359 2.41015625 30.2734375 C-0.12109375 30.3125 -0.12109375 30.3125 -2.078125 28.90625 C-2.99658203 27.86984375 -2.99658203 27.86984375 -3.93359375 26.8125 C-4.61421875 26.08160156 -5.29484375 25.35070312 -5.99609375 24.59765625 C-6.69734375 23.84355469 -7.39859375 23.08945312 -8.12109375 22.3125 C-9.53637485 20.93512822 -10.9729043 19.57911999 -12.43359375 18.25 C-13.06910156 17.66089844 -13.70460938 17.07179688 -14.359375 16.46484375 C-14.94074219 16.08457031 -15.52210937 15.70429687 -16.12109375 15.3125 C-19.23894488 15.95894661 -19.23894488 15.95894661 -20.12109375 18.3125 C-20.75705347 24.066712 -20.75705347 24.066712 -18.18359375 29 C-14.36904448 31.88037394 -10.36940598 34.13743818 -6.12109375 36.3125 C-6.45109375 37.6325 -6.78109375 38.9525 -7.12109375 40.3125 C-14.38835352 40.44707888 -17.67302513 37.66888349 -22.921875 32.83203125 C-26.11000015 29.17956105 -27.87221146 25.77814017 -28.68359375 21 C-27.47697619 13.08995153 -21.95438725 7.73716496 -16.05078125 2.72265625 C-11.00477285 -0.96481142 -6.01452152 -1.94945817 0 0 Z " fill="#6176E5" transform="translate(1328.12109375,915.6875)"/>
<path d="M0 0 C1.1428093 -0.00426498 2.28561859 -0.00852997 3.46305847 -0.01292419 C4.72802155 -0.01247101 5.99298462 -0.01201782 7.29627991 -0.0115509 C8.63306777 -0.01454088 9.96985477 -0.01794302 11.30664062 -0.02172852 C14.94710005 -0.03058926 18.587536 -0.0329075 22.22800517 -0.0335443 C25.26245517 -0.0344917 28.29689964 -0.03816804 31.33134753 -0.0417164 C38.48795542 -0.04986885 45.64455072 -0.05229991 52.80116272 -0.05158997 C60.19417882 -0.05098897 67.587122 -0.06154333 74.98011965 -0.07733363 C81.31812635 -0.0903904 87.65610918 -0.09577465 93.99412924 -0.09513456 C97.78363801 -0.09487902 101.57308201 -0.09776084 105.36257744 -0.10831261 C108.9256257 -0.11796235 112.48854688 -0.11809443 116.0515995 -0.11079597 C117.98828874 -0.10924423 119.92497787 -0.11761865 121.86164856 -0.12623596 C123.00727768 -0.12204147 124.1529068 -0.11784698 125.33325195 -0.11352539 C126.8329045 -0.11434254 126.8329045 -0.11434254 128.36285305 -0.1151762 C130.7301178 0.13371277 130.7301178 0.13371277 132.7301178 2.13371277 C132.4001178 3.45371277 132.0701178 4.77371277 131.7301178 6.13371277 C86.5201178 6.13371277 41.3101178 6.13371277 -5.2698822 6.13371277 C-5.5998822 4.48371277 -5.9298822 2.83371277 -6.2698822 1.13371277 C-4.55983711 -0.57633232 -2.33682355 0.00391854 0 0 Z " fill="#5D63DD" transform="translate(1419.2698822021484,804.8662872314453)"/>
<path d="M0 0 C1.1428093 -0.00426498 2.28561859 -0.00852997 3.46305847 -0.01292419 C4.72802155 -0.01247101 5.99298462 -0.01201782 7.29627991 -0.0115509 C8.63306777 -0.01454088 9.96985477 -0.01794302 11.30664062 -0.02172852 C14.94710005 -0.03058926 18.587536 -0.0329075 22.22800517 -0.0335443 C25.26245517 -0.0344917 28.29689964 -0.03816804 31.33134753 -0.0417164 C38.48795542 -0.04986885 45.64455072 -0.05229991 52.80116272 -0.05158997 C60.19417882 -0.05098897 67.587122 -0.06154333 74.98011965 -0.07733363 C81.31812635 -0.0903904 87.65610918 -0.09577465 93.99412924 -0.09513456 C97.78363801 -0.09487902 101.57308201 -0.09776084 105.36257744 -0.10831261 C108.9256257 -0.11796235 112.48854688 -0.11809443 116.0515995 -0.11079597 C117.98828874 -0.10924423 119.92497787 -0.11761865 121.86164856 -0.12623596 C123.00727768 -0.12204147 124.1529068 -0.11784698 125.33325195 -0.11352539 C126.8329045 -0.11434254 126.8329045 -0.11434254 128.36285305 -0.1151762 C130.7301178 0.13371277 130.7301178 0.13371277 132.7301178 2.13371277 C132.4001178 3.45371277 132.0701178 4.77371277 131.7301178 6.13371277 C86.5201178 6.13371277 41.3101178 6.13371277 -5.2698822 6.13371277 C-5.5998822 4.48371277 -5.9298822 2.83371277 -6.2698822 1.13371277 C-4.55983711 -0.57633232 -2.33682355 0.00391854 0 0 Z " fill="#5E65E0" transform="translate(1419.2698822021484,751.8662872314453)"/>
<path d="M0 0 C1.1428093 -0.00281982 2.28561859 -0.00563965 3.46305847 -0.00854492 C4.72802155 -0.00652069 5.99298462 -0.00449646 7.29627991 -0.00241089 C8.6330673 -0.00376494 9.96985432 -0.00554489 11.30664062 -0.00772095 C14.94710471 -0.01229533 18.58754057 -0.01050559 22.22800517 -0.00734186 C26.03075791 -0.00481776 29.83350816 -0.00715599 33.63626099 -0.00872803 C40.024566 -0.0105498 46.41285946 -0.00814345 52.80116272 -0.00338745 C60.19415778 0.00205286 67.58712526 0.00029422 74.98011965 -0.00521386 C81.31812525 -0.00974755 87.65612254 -0.01039421 93.99412924 -0.00777519 C97.78361657 -0.00621353 101.57309093 -0.00601558 105.36257744 -0.00931168 C108.92559796 -0.01219402 112.48858284 -0.01020798 116.0515995 -0.00441742 C117.98828202 -0.00245772 119.92496754 -0.00544082 121.86164856 -0.00854492 C123.00727768 -0.0057251 124.1529068 -0.00290527 125.33325195 0 C126.33302032 0.00037703 127.33278868 0.00075405 128.36285305 0.0011425 C130.7301178 0.12698364 130.7301178 0.12698364 132.7301178 1.12698364 C131.8551178 5.00198364 131.8551178 5.00198364 130.7301178 6.12698364 C128.9711835 6.2233041 127.20834621 6.24885874 125.44677734 6.24723816 C124.30107773 6.24861282 123.15537811 6.24998749 121.97496033 6.25140381 C120.07280258 6.24601089 120.07280258 6.24601089 118.13221741 6.24050903 C116.79218549 6.24022716 115.45215341 6.2403849 114.11212158 6.24095154 C110.46352342 6.24123951 106.81495785 6.23534284 103.16636729 6.22837758 C99.35734263 6.22214398 95.5483173 6.22154024 91.73928833 6.22035217 C84.52154026 6.21723887 77.30380725 6.20902551 70.08606583 6.19900268 C61.87096523 6.1878415 53.65586392 6.18233108 45.44075763 6.17730725 C28.53720229 6.16684289 11.63366164 6.14924348 -5.2698822 6.12698364 C-5.65206987 4.47083707 -5.98383322 2.8024134 -6.2698822 1.12698364 C-4.55962472 -0.58327384 -2.33678281 0.00088156 0 0 Z " fill="#5E65E0" transform="translate(1419.2698822021484,768.8730163574219)"/>
<path d="M0 0 C5.36787898 1.88869816 8.45991584 4.91983169 11 10 C11.51421665 15.08315807 11.80734489 20.26182313 9.5 24.9375 C5.97363148 29.25730144 2.44023624 31.2932848 -3.015625 32.4140625 C-7.8637198 32.77671526 -11.29408237 31.30818243 -15.234375 28.546875 C-18.60394826 25.59477099 -20.57578334 22.51604364 -21.33984375 17.984375 C-21.56578012 13.24874871 -20.6032544 9.9048816 -18 6 C-12.21737081 0.29447253 -7.93355075 -0.67130045 0 0 Z " fill="#6368EC" transform="translate(1523,651)"/>
<path d="M0 0 C45.54 0 91.08 0 138 0 C138.33 1.32 138.66 2.64 139 4 C138 5 138 5 135.72175503 5.12304783 C134.70501737 5.12212604 133.68827971 5.12120424 132.64073181 5.12025452 C131.47820389 5.12162918 130.31567596 5.12300385 129.11791992 5.12442017 C127.83111328 5.12082489 126.54430664 5.11722961 125.21850586 5.11352539 C123.85876976 5.11324352 122.4990335 5.11340125 121.13929749 5.1139679 C117.43698222 5.11425587 113.73469908 5.10835912 110.03239131 5.10139394 C106.16731219 5.09516043 102.30223242 5.0945566 98.43714905 5.09336853 C91.11315318 5.09025521 83.78917216 5.0820418 76.46518284 5.07201904 C68.12916552 5.06085794 59.79314751 5.05534746 51.45712459 5.05032361 C34.30474112 5.03985919 17.15237213 5.02225973 0 5 C0 3.35 0 1.7 0 0 Z " fill="#656CF0" transform="translate(1413,736)"/>
<path d="M0 0 C45.21 0 90.42 0 137 0 C137.33 1.32 137.66 2.64 138 4 C137 5 137 5 134.72175503 5.12304783 C133.70501737 5.12212604 132.68827971 5.12120424 131.64073181 5.12025452 C130.47820389 5.12162918 129.31567596 5.12300385 128.11791992 5.12442017 C126.83111328 5.12082489 125.54430664 5.11722961 124.21850586 5.11352539 C122.85876976 5.11324352 121.4990335 5.11340125 120.13929749 5.1139679 C116.43698222 5.11425587 112.73469908 5.10835912 109.03239131 5.10139394 C105.16731219 5.09516043 101.30223242 5.0945566 97.43714905 5.09336853 C90.11315318 5.09025521 82.78917216 5.0820418 75.46518284 5.07201904 C67.12916552 5.06085794 58.79314751 5.05534746 50.45712459 5.05032361 C33.30474112 5.03985919 16.15237213 5.02225973 -1 5 C-0.67 3.35 -0.34 1.7 0 0 Z " fill="#656CF0" transform="translate(1414,825)"/>
<path d="M0 0 C45.21 0 90.42 0 137 0 C137.33 1.32 137.66 2.64 138 4 C137 5 137 5 134.72175503 5.12304783 C133.70501737 5.12212604 132.68827971 5.12120424 131.64073181 5.12025452 C130.47820389 5.12162918 129.31567596 5.12300385 128.11791992 5.12442017 C126.83111328 5.12082489 125.54430664 5.11722961 124.21850586 5.11352539 C122.85876976 5.11324352 121.4990335 5.11340125 120.13929749 5.1139679 C116.43698222 5.11425587 112.73469908 5.10835912 109.03239131 5.10139394 C105.16731219 5.09516043 101.30223242 5.0945566 97.43714905 5.09336853 C90.11315318 5.09025521 82.78917216 5.0820418 75.46518284 5.07201904 C67.12916552 5.06085794 58.79314751 5.05534746 50.45712459 5.05032361 C33.30474112 5.03985919 16.15237213 5.02225973 -1 5 C-0.67 3.35 -0.34 1.7 0 0 Z " fill="#656CF0" transform="translate(1414,786)"/>
<path d="M0 0 C0.18175781 1.0415625 0.36351562 2.083125 0.55078125 3.15625 C0.80452892 4.60419447 1.05844844 6.05210882 1.3125 7.5 C1.44567627 8.26086914 1.57885254 9.02173828 1.71606445 9.80566406 C2.40457182 13.71486931 3.11147294 17.61881117 3.8671875 21.515625 C4.07347778 22.58393555 4.07347778 22.58393555 4.28393555 23.67382812 C4.66865835 25.65306751 5.05879961 27.63125137 5.44921875 29.609375 C5.91803621 32.49542857 6.11669688 35.08813512 6 38 C3.6875 38.6875 3.6875 38.6875 1 39 C-0.8125 37.5625 -0.8125 37.5625 -2 36 C-3.11375 36.928125 -3.11375 36.928125 -4.25 37.875 C-8.95733184 41.5124837 -11.90171931 42.73599939 -18 42 C-21.79191713 39.83195626 -24.33160791 37.02688769 -26 33 C-26.41695157 31.19121132 -26.76829122 29.36664424 -27.0703125 27.53515625 C-27.33134766 25.96411133 -27.33134766 25.96411133 -27.59765625 24.36132812 C-27.77167969 23.27271484 -27.94570312 22.18410156 -28.125 21.0625 C-28.30675781 19.97775391 -28.48851562 18.89300781 -28.67578125 17.77539062 C-30.22055953 8.32669042 -30.22055953 8.32669042 -30 4 C-29 3 -29 3 -26.4375 2.9375 C-25.2309375 2.9684375 -25.2309375 2.9684375 -24 3 C-21.7209328 10.19330585 -20.6706959 17.54991316 -19.5 24.99023438 C-19.335 25.98990234 -19.17 26.98957031 -19 28.01953125 C-18.855625 28.92807861 -18.71125 29.83662598 -18.5625 30.77270508 C-18.15530237 33.18632345 -18.15530237 33.18632345 -16 35 C-12.07234356 35.53558951 -10.22386092 35.11826615 -6.6875 33.25 C-3.86927651 30.89055708 -3.45713187 30.44753619 -3 27 C-3.2410332 24.96766025 -3.2410332 24.96766025 -3.8125 22.8125 C-5.47417301 15.2954078 -6.16645073 7.64382418 -7 0 C-4.3333581 -1.33332095 -2.83319697 -0.67102033 0 0 Z " fill="#5E61E2" transform="translate(1539,972)"/>
<path d="M0 0 C2.00720923 0.28674418 4.0085944 0.61866701 6 1 C5.68957083 3.87523714 5.37672481 6.75017727 5.0625 9.625 C4.93198242 10.83736328 4.93198242 10.83736328 4.79882812 12.07421875 C4.42403541 15.48899684 4.02358528 18.86372951 3.4375 22.25 C2.99824953 25.01100293 2.8997663 27.58270606 2.9375 30.375 C2.95103516 31.68597656 2.95103516 31.68597656 2.96484375 33.0234375 C2.97644531 33.67570313 2.98804688 34.32796875 3 35 C7.44415353 36.48138451 11.29148848 36.74222739 15.64355469 34.8515625 C18.72845095 32.42762412 18.83582848 30.96937759 19.328125 27.125 C19.48796875 25.97515625 19.6478125 24.8253125 19.8125 23.640625 C19.956875 22.43921875 20.10125 21.2378125 20.25 20 C20.56601714 17.62477438 20.88365015 15.24976302 21.203125 12.875 C21.33364258 11.82054687 21.46416016 10.76609375 21.59863281 9.6796875 C22 7 22 7 23 4 C24.66611905 3.957279 26.33382885 3.95936168 28 4 C28.495 4.495 28.495 4.495 29 5 C28.94697516 6.73864679 28.81708804 8.47502796 28.65625 10.20703125 C28.55570313 11.2945166 28.45515625 12.38200195 28.3515625 13.50244141 C27.77526327 19.2358183 27.15666814 24.96278416 26.5 30.6875 C26.36980469 31.86505859 26.23960938 33.04261719 26.10546875 34.25585938 C25.91404297 35.92938477 25.91404297 35.92938477 25.71875 37.63671875 C25.60466797 38.64436279 25.49058594 39.65200684 25.37304688 40.69018555 C25 43 25 43 24 44 C22.33382885 44.04063832 20.66611905 44.042721 19 44 C18.505 41.525 18.505 41.525 18 39 C17.195625 39.495 16.39125 39.99 15.5625 40.5 C11.17814138 42.34604573 7.69173048 42.76377008 3 42 C-1.05249813 39.93691004 -3.39930172 38.25846147 -5 34 C-5.25515415 26.12667205 -3.63805006 18.02448196 -2.5 10.25 C-2.36956299 9.35603516 -2.23912598 8.46207031 -2.10473633 7.54101562 C-1.97736084 6.70763672 -1.84998535 5.87425781 -1.71875 5.015625 C-1.54762695 3.89075684 -1.54762695 3.89075684 -1.37304688 2.74316406 C-1 1 -1 1 0 0 Z " fill="#5F64E3" transform="translate(1515,486)"/>
<path d="M0 0 C1.11198257 0.00067978 1.11198257 0.00067978 2.24642944 0.00137329 C3.41225807 -0.00366463 3.41225807 -0.00366463 4.60163879 -0.00880432 C7.18385392 -0.01834265 9.76600441 -0.02025887 12.34823608 -0.02133179 C14.13563565 -0.02454236 15.92303496 -0.02790628 17.71043396 -0.03141785 C21.46234751 -0.03741633 25.214238 -0.03925701 28.96615601 -0.03866577 C33.78294056 -0.03856411 38.59957785 -0.05221756 43.41632748 -0.06943798 C47.10939722 -0.08053552 50.80243111 -0.08258567 54.49551582 -0.08205605 C56.27179027 -0.08323951 58.04806554 -0.08768168 59.82432365 -0.09538841 C62.3049754 -0.10514321 64.78530418 -0.1023283 67.26596069 -0.09628296 C68.00525818 -0.10190247 68.74455566 -0.10752197 69.5062561 -0.11331177 C74.5925767 -0.08167867 74.5925767 -0.08167867 76.82089233 2.14663696 C76.49089233 3.46663696 76.16089233 4.78663696 75.82089233 6.14663696 C49.09089233 6.14663696 22.36089233 6.14663696 -5.17910767 6.14663696 C-5.50910767 4.49663696 -5.83910767 2.84663696 -6.17910767 1.14663696 C-4.46451432 -0.56795638 -2.2872187 0.01452458 0 0 Z " fill="#5E67E0" transform="translate(1419.1791076660156,843.8533630371094)"/>
<path d="M0 0 C2.90946687 1.1027818 5.30580803 2.4034418 8 4 C7.67 5.65 7.34 7.3 7 9 C4.79721596 8.52797485 3.11434748 8.0709743 1.1875 6.875 C-2.03718744 5.58512502 -4.65812618 6.35733196 -8 7 C-8 9.75636878 -7.97041602 11.46980535 -7 14 C-5.09259034 15.81937537 -3.12216128 17.21145297 -0.91015625 18.640625 C1 20 1 20 3 23 C3.69502786 27.76821439 3.69437161 31.76556158 1.3125 36 C-2.17671412 39.01769869 -4.76136819 39.83640712 -9.3125 40.4375 C-14.91782711 39.77246119 -19.04499758 36.95500242 -23 33 C-22.8125 30.9375 -22.8125 30.9375 -22 29 C-21.01 28.67 -20.02 28.34 -19 28 C-18.38125 28.639375 -17.7625 29.27875 -17.125 29.9375 C-14.07983388 32.89310241 -12.50260769 33.12146582 -8.375 33.0625 C-7.14910156 33.04896484 -7.14910156 33.04896484 -5.8984375 33.03515625 C-5.27195312 33.02355469 -4.64546875 33.01195312 -4 33 C-3.58109782 30.21061788 -3.58109782 30.21061788 -4 27 C-6.10251244 24.51521257 -8.40180085 22.50179515 -10.890625 20.4140625 C-16.47208831 15.39982107 -16.47208831 15.39982107 -16.8125 11 C-16.39497597 6.96656029 -14.77106764 4.18120651 -11.96875 1.29296875 C-8.15950567 -1.20873735 -4.33577687 -0.87114535 0 0 Z " fill="#616DE7" transform="translate(1423,968)"/>
<path d="M0 0 C0.89203125 0.01804687 1.7840625 0.03609375 2.703125 0.0546875 C3.71632813 0.08949219 3.71632813 0.08949219 4.75 0.125 C5.08 1.775 5.41 3.425 5.75 5.125 C5.14671875 5.16238281 4.5434375 5.19976562 3.921875 5.23828125 C0.3877435 5.52899207 -2.57476102 5.81208437 -5.8125 7.3125 C-7.86808082 9.90431929 -7.53504823 11.91820746 -7.25 15.125 C-6.53714844 15.16238281 -5.82429688 15.19976562 -5.08984375 15.23828125 C2.05202045 15.72850342 7.19905999 16.60196368 13.125 20.8125 C15.44682102 24.11662991 16.08325883 27.10264339 15.75 31.125 C13.1392191 36.2498662 10.19662865 39.30945712 4.75 41.125 C2.85529184 41.1935495 0.9583166 41.20980372 -0.9375 41.1875 C-1.93136719 41.17847656 -2.92523437 41.16945313 -3.94921875 41.16015625 C-5.08810547 41.14275391 -5.08810547 41.14275391 -6.25 41.125 C-6.58 39.475 -6.91 37.825 -7.25 36.125 C-4.85517863 34.92758932 -3.52826335 35.11777757 -0.875 35.25 C2.04600894 35.26881487 3.60262116 35.18970291 6.3125 34 C8.33743318 31.35878281 8.03748553 29.35921217 7.75 26.125 C4.52751029 24.22630301 2.08579752 23.91124671 -1.625 23.8125 C-7.17614559 23.40432753 -9.53063749 22.23587435 -13.25 18.125 C-14.46762731 14.47211807 -14.64075851 11.96745864 -14.25 8.125 C-10.88049412 2.19466966 -6.66313494 -0.17534566 0 0 Z " fill="#6270E7" transform="translate(1416.25,492.875)"/>
<path d="M0 0 C1.62215675 0.00333092 1.62215675 0.00333092 3.27708435 0.00672913 C4.49827469 0.00680466 5.71946503 0.00688019 6.97766113 0.00695801 C8.32022644 0.0120654 9.66279134 0.01728141 11.00535583 0.02259827 C12.37156116 0.02446252 13.73776716 0.02588639 15.10397339 0.02688599 C18.70596654 0.03071058 22.30791959 0.04054035 25.90989685 0.05158997 C29.58298703 0.06180536 33.25608368 0.06638388 36.92918396 0.07142639 C44.14079081 0.08216268 51.35236459 0.09923838 58.56394958 0.12025452 C58.94613726 1.77640109 59.2779006 3.44482476 59.56394958 5.12025452 C58.56394958 6.12025452 58.56394958 6.12025452 56.12789917 6.24050903 C55.04646133 6.23828842 53.9650235 6.23606781 52.85081482 6.23377991 C51.62962448 6.23370438 50.40843414 6.23362885 49.15023804 6.23355103 C47.80767273 6.22844363 46.46510783 6.22322762 45.12254333 6.21791077 C43.75633801 6.21604651 42.39013201 6.21462264 41.02392578 6.21362305 C37.42193263 6.20979846 33.81997958 6.19996869 30.21800232 6.18891907 C26.54491214 6.17870368 22.87181549 6.17412515 19.19871521 6.16908264 C11.98710836 6.15834636 4.77553458 6.14127065 -2.43605042 6.12025452 C-2.81823809 4.46410794 -3.15000143 2.79568427 -3.43605042 1.12025452 C-2.43605042 0.12025452 -2.43605042 0.12025452 0 0 Z " fill="#5E68E0" transform="translate(1416.436050415039,690.8797454833984)"/>
<path d="M0 0 C1.62215675 0.00333092 1.62215675 0.00333092 3.27708435 0.00672913 C4.49827469 0.00680466 5.71946503 0.00688019 6.97766113 0.00695801 C8.32022644 0.0120654 9.66279134 0.01728141 11.00535583 0.02259827 C12.37156116 0.02446252 13.73776716 0.02588639 15.10397339 0.02688599 C18.70596654 0.03071058 22.30791959 0.04054035 25.90989685 0.05158997 C29.58298703 0.06180536 33.25608368 0.06638388 36.92918396 0.07142639 C44.14079081 0.08216268 51.35236459 0.09923838 58.56394958 0.12025452 C58.94613726 1.77640109 59.2779006 3.44482476 59.56394958 5.12025452 C58.56394958 6.12025452 58.56394958 6.12025452 56.12789917 6.24050903 C55.04646133 6.23828842 53.9650235 6.23606781 52.85081482 6.23377991 C51.62962448 6.23370438 50.40843414 6.23362885 49.15023804 6.23355103 C47.80767273 6.22844363 46.46510783 6.22322762 45.12254333 6.21791077 C43.75633801 6.21604651 42.39013201 6.21462264 41.02392578 6.21362305 C37.42193263 6.20979846 33.81997958 6.19996869 30.21800232 6.18891907 C26.54491214 6.17870368 22.87181549 6.17412515 19.19871521 6.16908264 C11.98710836 6.15834636 4.77553458 6.14127065 -2.43605042 6.12025452 C-2.81823809 4.46410794 -3.15000143 2.79568427 -3.43605042 1.12025452 C-2.43605042 0.12025452 -2.43605042 0.12025452 0 0 Z " fill="#5E68E0" transform="translate(1416.436050415039,673.8797454833984)"/>
<path d="M0 0 C2.87305972 1.40460697 4.74510999 2.74510999 7 5 C7.49078346 9.75787302 6.42238908 13.04962457 4.5 17.375 C3.80390625 18.96441406 3.80390625 18.96441406 3.09375 20.5859375 C2.7328125 21.38257813 2.371875 22.17921875 2 23 C-9.52164009 19.92482916 -9.52164009 19.92482916 -15 18 C-13.81823007 11.74357095 -12.32851373 6.49277059 -8.75 1.125 C-5.8313846 -0.75125275 -3.37014977 -0.34863618 0 0 Z " fill="#030307" transform="translate(1240,647)"/>
<path d="M0 0 C2.96737937 5.80574225 4.3015931 11.43775022 4 18 C2.625 20.625 2.625 20.625 0 22 C-3.04686475 22.83705075 -5.85502524 23.44295419 -9 23 C-12.48119533 20.31287295 -13.84216577 17.54368316 -15.25 13.4375 C-15.58515625 12.48746094 -15.9203125 11.53742187 -16.265625 10.55859375 C-17 8 -17 8 -17 5 C-14.73117913 4.16080602 -12.46022973 3.32848276 -10.1875 2.5 C-9.54490234 2.26152344 -8.90230469 2.02304687 -8.24023438 1.77734375 C-5.35066261 0.72931254 -3.09923939 0 0 0 Z " fill="#020306" transform="translate(1277,819)"/>
<path d="M0 0 C20.46 0 40.92 0 62 0 C62 1.65 62 3.3 62 5 C41.21 5 20.42 5 -1 5 C-0.67 3.35 -0.34 1.7 0 0 Z " fill="#6570F0" transform="translate(1414,708)"/>
<path d="M0 0 C3.2073975 1.90068 5.34000179 3.36843082 6.76953125 6.90234375 C7.38935744 9.92037593 7.49645214 12.03212693 6.0703125 14.8125 C3.68747292 17.89095113 1.75910075 19.29969643 -2 20 C-3.17094005 17.2100561 -4.33690927 14.41821403 -5.5 11.625 C-6.00080078 10.43390625 -6.00080078 10.43390625 -6.51171875 9.21875 C-6.82753906 8.45820312 -7.14335938 7.69765625 -7.46875 6.9140625 C-7.76201172 6.2123291 -8.05527344 5.5105957 -8.35742188 4.78759766 C-9 3 -9 3 -9 1 C-5.85088521 -0.57455739 -3.47991184 -0.34799118 0 0 Z " fill="#04040A" transform="translate(1722,656)"/>
<path d="M0 0 C4.06196093 0.38320386 6.10717589 1.8703483 9.3125 4.3125 C7.74666404 8.34971561 4.87076135 10.78320582 1.6875 13.5625 C1.171875 14.02140625 0.65625 14.4803125 0.125 14.953125 C-1.1409602 16.07842296 -2.41357942 17.19622177 -3.6875 18.3125 C-5.625 17.5 -5.625 17.5 -7.6875 16.3125 C-8.90010877 12.67467368 -9.08294552 10.13514001 -8.6875 6.3125 C-6.25 3.4375 -6.25 3.4375 -3.6875 1.3125 C-2.6875 0.3125 -2.6875 0.3125 0 0 Z " fill="#030308" transform="translate(1315.6875,552.6875)"/>
<path d="M0 0 C2.92259352 1.32285812 3.83656259 2.4038751 6 5 C6.92946262 8.87916216 6.58054427 12.03242622 4.5 15.5 C4.005 15.995 3.51 16.49 3 17 C-1.54074179 15.57641609 -4.03973147 13.27867927 -7.3125 9.875 C-8.19550781 8.96492187 -9.07851562 8.05484375 -9.98828125 7.1171875 C-10.65214844 6.41851563 -11.31601563 5.71984375 -12 5 C-10.08341601 -0.74975197 -5.36571547 -0.95996793 0 0 Z " fill="#020307" transform="translate(1327,921)"/>
<path d="M0 0 C1 2 1 2 -0.109375 5.66015625 C-0.64798165 7.13065906 -1.19525003 8.59801097 -1.75 10.0625 C-2.01554687 10.80822266 -2.28109375 11.55394531 -2.5546875 12.32226562 C-3.27688246 14.25220894 -4.13096377 16.13157211 -5 18 C-5.99 18.33 -6.98 18.66 -8 19 C-12.58181818 15.83636364 -12.58181818 15.83636364 -14 13 C-14.68288206 6.05736576 -14.68288206 6.05736576 -12.0625 2 C-7.95087582 -0.68514232 -4.77247406 -0.46788961 0 0 Z " fill="#020205" transform="translate(1714,822)"/>
<path d="M0 0 C1.32 0 2.64 0 4 0 C3.53278137 14.07923451 2.68120196 28.01174678 1 42 C0.67 42 0.34 42 0 42 C0 28.14 0 14.28 0 0 Z " fill="#06060F" transform="translate(1569,644)"/>
<path d="M0 0 C0.33 0 0.66 0 1 0 C2.22899346 6.06815522 3.27560214 11.79895188 3 18 C1.02 18.99 1.02 18.99 -1 20 C-2.52635903 16.94728195 -1.8744707 13.8773419 -1.625 10.5625 C-1.58117188 9.88123047 -1.53734375 9.19996094 -1.4921875 8.49804688 C-1.27875659 5.47147803 -0.96382381 2.89147144 0 0 Z " fill="#0C0D1E" transform="translate(1518,689)"/>
</svg>
