<?xml version="1.0" encoding="UTF-8"?>
<!DOCTYPE svg PUBLIC "-//W3C//DTD SVG 1.1//EN" "http://www.w3.org/Graphics/SVG/1.1/DTD/svg11.dtd">
<svg xmlns="http://www.w3.org/2000/svg" version="1.1" width="683px" height="122px" style="shape-rendering:geometricPrecision; text-rendering:geometricPrecision; image-rendering:optimizeQuality; fill-rule:evenodd; clip-rule:evenodd" xmlns:xlink="http://www.w3.org/1999/xlink">
<g><path style="opacity:0.954" fill="#fefffe" d="M 33.5,29.5 C 58.5022,29.3334 83.5022,29.5 108.5,30C 114.011,36.3427 119.677,42.5093 125.5,48.5C 131.323,42.5093 136.989,36.3427 142.5,30C 149.5,29.3333 156.5,29.3333 163.5,30C 153.667,41.1667 143.833,52.3333 134,63.5C 133.501,69.1569 133.334,74.8236 133.5,80.5C 128.167,80.5 122.833,80.5 117.5,80.5C 117.666,74.8236 117.499,69.1569 117,63.5C 106.631,52.7992 96.6307,41.7992 87,30.5C 83.8333,34.3333 80.6667,38.1667 77.5,42C 72.1771,42.4994 66.8437,42.666 61.5,42.5C 61.5,55.1667 61.5,67.8333 61.5,80.5C 56.1667,80.5 50.8333,80.5 45.5,80.5C 45.5,67.8333 45.5,55.1667 45.5,42.5C 38.4921,42.6663 31.4921,42.4996 24.5,42C 27.8771,38.0688 30.8771,33.9021 33.5,29.5 Z"/></g>
<g><path style="opacity:0.953" fill="#fefffe" d="M 173.5,29.5 C 187.504,29.3334 201.504,29.5001 215.5,30C 230.363,34.5894 234.863,44.0894 229,58.5C 226.292,62.1043 222.792,64.6043 218.5,66C 205.908,67.4411 193.241,67.9411 180.5,67.5C 180.5,71.8333 180.5,76.1667 180.5,80.5C 174.833,80.5 169.167,80.5 163.5,80.5C 163.5,71.8333 163.5,63.1667 163.5,54.5C 178.17,54.6666 192.837,54.4999 207.5,54C 211.713,53.9084 214.379,51.9084 215.5,48C 213.842,44.832 211.175,43.1653 207.5,43C 192.833,42.6667 178.167,42.3333 163.5,42C 167.047,37.9587 170.38,33.792 173.5,29.5 Z"/></g>
<g><path style="opacity:0.982" fill="#fefffe" d="M 232.5,29.5 C 250.845,29.1671 269.179,29.5004 287.5,30.5C 284.621,34.424 281.621,38.2573 278.5,42C 268.506,42.4998 258.506,42.6665 248.5,42.5C 248.5,44.5 248.5,46.5 248.5,48.5C 260.838,48.3335 273.171,48.5001 285.5,49C 282.309,52.69 279.309,56.5233 276.5,60.5C 267.19,61.4983 257.857,61.8316 248.5,61.5C 248.5,63.5 248.5,65.5 248.5,67.5C 261.517,67.1675 274.517,67.5009 287.5,68.5C 284.621,72.424 281.621,76.2573 278.5,80C 263.17,80.4999 247.837,80.6666 232.5,80.5C 232.5,63.5 232.5,46.5 232.5,29.5 Z"/></g>
<g><path style="opacity:0.961" fill="#fefffe" d="M 300.5,29.5 C 318.836,29.3334 337.17,29.5001 355.5,30C 352.167,34 348.833,38 345.5,42C 333.5,42.3333 321.5,42.6667 309.5,43C 305.5,44 305.5,45 309.5,46C 320.5,46.3333 331.5,46.6667 342.5,47C 356.284,51.408 360.117,60.2414 354,73.5C 351.01,76.4905 347.51,78.6572 343.5,80C 325.158,80.833 306.824,80.6663 288.5,79.5C 291.379,75.576 294.379,71.7427 297.5,68C 309.833,67.6667 322.167,67.3333 334.5,67C 343.787,64.5841 343.787,62.2507 334.5,60C 323.167,59.6667 311.833,59.3333 300.5,59C 290.644,56.1284 286.811,49.6284 289,39.5C 289.792,37.4127 290.959,35.5793 292.5,34C 295.191,32.3952 297.858,30.8952 300.5,29.5 Z"/></g>
<g><path style="opacity:0.946" fill="#fefffe" d="M 379.5,29.5 C 394.515,29.1673 409.515,29.5007 424.5,30.5C 421.691,34.4767 418.691,38.31 415.5,42C 404.791,42.1552 394.125,42.8219 383.5,44C 375.371,47.7276 373.204,53.5609 377,61.5C 378.731,63.6166 380.898,65.1166 383.5,66C 397.14,67.052 410.807,67.8854 424.5,68.5C 421.691,72.4767 418.691,76.31 415.5,80C 403.5,80.6667 391.5,80.6667 379.5,80C 361.636,74.4394 355.136,62.6061 360,44.5C 364.604,36.9575 371.104,31.9575 379.5,29.5 Z"/></g>
<g><path style="opacity:0.95" fill="#fefffe" d="M 435.5,29.5 C 449.837,29.3334 464.171,29.5001 478.5,30C 494.974,34.1148 499.807,43.9482 493,59.5C 490.591,61.6201 488.091,63.6201 485.5,65.5C 490.7,70.8661 496.367,75.6995 502.5,80C 494.167,80.6667 485.833,80.6667 477.5,80C 472.833,76 468.167,72 463.5,68C 456.508,67.5004 449.508,67.3337 442.5,67.5C 442.5,71.8333 442.5,76.1667 442.5,80.5C 436.833,80.5 431.167,80.5 425.5,80.5C 425.5,71.8333 425.5,63.1667 425.5,54.5C 442.209,54.9082 458.876,54.4082 475.5,53C 480.833,50 480.833,47 475.5,44C 459.194,42.9266 442.861,42.0932 426.5,41.5C 429.524,37.4815 432.524,33.4815 435.5,29.5 Z"/></g>
<g><path style="opacity:0.918" fill="#fefffe" d="M 507.5,29.5 C 513.167,29.5 518.833,29.5 524.5,29.5C 524.5,46.5 524.5,63.5 524.5,80.5C 518.833,80.5 513.167,80.5 507.5,80.5C 507.5,63.5 507.5,46.5 507.5,29.5 Z"/></g>
<g><path style="opacity:0.961" fill="#fefffe" d="M 537.5,29.5 C 551.504,29.3334 565.504,29.5001 579.5,30C 586.385,31.5556 591.551,35.3889 595,41.5C 597.955,37.7557 600.789,33.9224 603.5,30C 621.176,29.167 638.843,29.3337 656.5,30.5C 653.691,34.4767 650.691,38.31 647.5,42C 642.177,42.4994 636.844,42.666 631.5,42.5C 631.5,55.1667 631.5,67.8333 631.5,80.5C 626.167,80.5 620.833,80.5 615.5,80.5C 615.5,67.8333 615.5,55.1667 615.5,42.5C 608.492,42.3337 601.492,42.5004 594.5,43C 597.4,54.1993 593.4,61.8659 582.5,66C 569.908,67.4411 557.241,67.9411 544.5,67.5C 544.5,71.8333 544.5,76.1667 544.5,80.5C 538.833,80.5 533.167,80.5 527.5,80.5C 527.5,71.8333 527.5,63.1667 527.5,54.5C 542.17,54.6666 556.837,54.4999 571.5,54C 575.713,53.9084 578.379,51.9084 579.5,48C 577.842,44.832 575.175,43.1653 571.5,43C 556.833,42.6667 542.167,42.3333 527.5,42C 531.047,37.9587 534.38,33.792 537.5,29.5 Z"/></g>
</svg>
